<svg width="21" height="21" viewBox="0 0 21 21" fill="none" xmlns="http://www.w3.org/2000/svg">
<path d="M9.21094 9.5V0.5H0.210938V9.5M2.21094 7.5V2.5H7.21094V7.5M18.2109 5C18.2109 6.4 17.1109 7.5 15.7109 7.5C14.3109 7.5 13.2109 6.4 13.2109 5C13.2109 3.6 14.3209 2.5 15.7109 2.5C17.1009 2.5 18.2109 3.61 18.2109 5ZM4.71094 12.5L0.210938 20.5H9.21094M5.79094 18.5H3.63094L4.71094 16.58M20.2109 5C20.2109 2.5 18.2109 0.5 15.7109 0.5C13.2109 0.5 11.2109 2.5 11.2109 5C11.2109 7.5 13.2109 9.5 15.7109 9.5C18.2109 9.5 20.2109 7.5 20.2109 5ZM17.2109 15.5V12.5H15.2109V15.5H12.2109V17.5H15.2109V20.5H17.2109V17.5H20.2109V15.5H17.2109Z" fill="#A6A6A6"/>
</svg>
