<svg width="16" height="16" viewBox="0 0 16 16" fill="none" xmlns="http://www.w3.org/2000/svg">
<circle cx="8" cy="8" r="7" stroke="#02BA09" stroke-width="0.682927"/>
<g clip-path="url(#clip0_3006_16005)">
<path d="M8.16952 4.75586C8.25655 4.75596 8.34026 4.78928 8.40355 4.84903C8.46683 4.90877 8.50491 4.99043 8.51001 5.07731C8.51512 5.16419 8.48685 5.24974 8.43099 5.31649C8.37513 5.38323 8.29589 5.42612 8.20947 5.4364L8.16952 5.43879H5.43781V10.2193H10.2183V7.48757C10.2184 7.40053 10.2517 7.31682 10.3115 7.25354C10.3712 7.19025 10.4529 7.15217 10.5397 7.14707C10.6266 7.14197 10.7122 7.17024 10.7789 7.2261C10.8457 7.28196 10.8886 7.36119 10.8988 7.44762L10.9012 7.48757V10.2193C10.9013 10.3916 10.8362 10.5575 10.7191 10.6839C10.6019 10.8102 10.4413 10.8876 10.2695 10.9005L10.2183 10.9022H5.43781C5.26552 10.9023 5.09957 10.8372 4.97323 10.72C4.8469 10.6029 4.76951 10.4423 4.75659 10.2705L4.75488 10.2193V5.43879C4.75483 5.26649 4.8199 5.10054 4.93705 4.97421C5.05421 4.84787 5.21478 4.77049 5.38659 4.75757L5.43781 4.75586H8.16952ZM10.3013 4.87298C10.3627 4.81174 10.4452 4.77619 10.5319 4.77354C10.6186 4.77089 10.7031 4.80135 10.7681 4.85872C10.8332 4.9161 10.874 4.9961 10.8822 5.08246C10.8905 5.16882 10.8655 5.25508 10.8124 5.32371L10.7841 5.35615L7.40361 8.7363C7.34217 8.79754 7.25971 8.83309 7.173 8.83574C7.08628 8.83839 7.00181 8.80793 6.93674 8.75056C6.87167 8.69318 6.83088 8.61318 6.82265 8.52682C6.81442 8.44046 6.83938 8.3542 6.89244 8.28557L6.92079 8.25347L10.3013 4.87298Z" fill="#02BA09"/>
</g>
<defs>
<clipPath id="clip0_3006_16005">
<rect width="8.19512" height="8.19512" fill="white" transform="translate(3.73145 3.73242)"/>
</clipPath>
</defs>
</svg>
