<svg width="11" height="10" viewBox="0 0 11 10" fill="none" xmlns="http://www.w3.org/2000/svg">
<path d="M5.58938 7.80254C6.03894 7.80254 6.40337 7.43811 6.40337 6.98855C6.40337 6.539 6.03894 6.17456 5.58938 6.17456C5.13983 6.17456 4.77539 6.539 4.77539 6.98855C4.77539 7.43811 5.13983 7.80254 5.58938 7.80254Z" fill="#838383"/>
<path d="M2.33548 7.80254C2.78503 7.80254 3.14947 7.43811 3.14947 6.98855C3.14947 6.539 2.78503 6.17456 2.33548 6.17456C1.88592 6.17456 1.52148 6.539 1.52148 6.98855C1.52148 7.43811 1.88592 7.80254 2.33548 7.80254Z" fill="#838383"/>
<path d="M8.8472 7.80254C9.29675 7.80254 9.66119 7.43811 9.66119 6.98855C9.66119 6.539 9.29675 6.17456 8.8472 6.17456C8.39764 6.17456 8.0332 6.539 8.0332 6.98855C8.0332 7.43811 8.39764 7.80254 8.8472 7.80254Z" fill="#838383"/>
<path d="M5.59134 7.80254C6.04089 7.80254 6.40533 7.43811 6.40533 6.98855C6.40533 6.539 6.04089 6.17456 5.59134 6.17456C5.14178 6.17456 4.77734 6.539 4.77734 6.98855C4.77734 7.43811 5.14178 7.80254 5.59134 7.80254Z" fill="#838383"/>
<path d="M2.33548 7.80254C2.78503 7.80254 3.14947 7.43811 3.14947 6.98855C3.14947 6.539 2.78503 6.17456 2.33548 6.17456C1.88592 6.17456 1.52148 6.539 1.52148 6.98855C1.52148 7.43811 1.88592 7.80254 2.33548 7.80254Z" fill="#838383"/>
<path d="M8.8472 7.80254C9.29675 7.80254 9.66119 7.43811 9.66119 6.98855C9.66119 6.539 9.29675 6.17456 8.8472 6.17456C8.39764 6.17456 8.0332 6.539 8.0332 6.98855C8.0332 7.43811 8.39764 7.80254 8.8472 7.80254Z" fill="#838383"/>
</svg>
