<svg width="90" height="27" viewBox="0 0 90 27" fill="none" xmlns="http://www.w3.org/2000/svg">
<rect opacity="0.05" width="90" height="27" rx="5" fill="#5B93FF"/>
<path opacity="0.99" d="M12.1567 16.0469C12.091 16.047 12.0258 16.0341 11.9651 16.009C11.9043 15.9838 11.8491 15.9469 11.8027 15.9004L10.3967 14.4939C10.3056 14.3996 10.2552 14.2733 10.2564 14.1422C10.2575 14.0111 10.3101 13.8857 10.4028 13.793C10.4955 13.7003 10.6209 13.6477 10.752 13.6465C10.8831 13.6454 11.0094 13.6958 11.1037 13.7869L12.1562 14.8399L14.8967 12.0999C14.9914 12.011 15.1169 11.9624 15.2467 11.9644C15.3766 11.9664 15.5006 12.0189 15.5924 12.1107C15.6843 12.2025 15.7368 12.3264 15.7389 12.4562C15.741 12.5861 15.6925 12.7116 15.6037 12.8064L12.5097 15.9004C12.4633 15.9469 12.4082 15.9838 12.3476 16.0089C12.2869 16.034 12.2224 16.0469 12.1567 16.0469Z" fill="#34C759"/>
<path d="M24.72 17.07C24.6133 17.07 24.5267 17.0467 24.46 17C24.4 16.9467 24.3633 16.88 24.35 16.8C24.3433 16.7133 24.3633 16.6167 24.41 16.51L27.16 10.25C27.22 10.1167 27.29 10.0233 27.37 9.97C27.4567 9.91 27.55 9.88 27.65 9.88C27.75 9.88 27.84 9.91 27.92 9.97C28.0067 10.0233 28.0767 10.1167 28.13 10.25L30.89 16.51C30.9433 16.6167 30.9633 16.7133 30.95 16.8C30.9433 16.8867 30.91 16.9533 30.85 17C30.79 17.0467 30.7067 17.07 30.6 17.07C30.48 17.07 30.3833 17.04 30.31 16.98C30.2367 16.9133 30.1767 16.82 30.13 16.7L29.39 14.99L29.79 15.2H25.49L25.9 14.99L25.17 16.7C25.11 16.8267 25.0467 16.92 24.98 16.98C24.9133 17.04 24.8267 17.07 24.72 17.07ZM27.64 10.91L26.03 14.7L25.79 14.51H29.49L29.27 14.7L27.66 10.91H27.64ZM32.4452 18.87C32.3118 18.87 32.2118 18.8333 32.1452 18.76C32.0785 18.6933 32.0452 18.5933 32.0452 18.46V12.48C32.0452 12.3467 32.0785 12.2467 32.1452 12.18C32.2118 12.1067 32.3085 12.07 32.4352 12.07C32.5685 12.07 32.6685 12.1067 32.7352 12.18C32.8085 12.2467 32.8452 12.3467 32.8452 12.48V13.43L32.7352 13.29C32.8418 12.91 33.0518 12.61 33.3652 12.39C33.6852 12.1633 34.0652 12.05 34.5052 12.05C34.9385 12.05 35.3152 12.1533 35.6352 12.36C35.9618 12.56 36.2118 12.85 36.3852 13.23C36.5652 13.6033 36.6552 14.05 36.6552 14.57C36.6552 15.0833 36.5652 15.53 36.3852 15.91C36.2118 16.2833 35.9652 16.5733 35.6452 16.78C35.3252 16.9867 34.9452 17.09 34.5052 17.09C34.0652 17.09 33.6885 16.98 33.3752 16.76C33.0618 16.5333 32.8485 16.2333 32.7352 15.86H32.8552V18.46C32.8552 18.5933 32.8185 18.6933 32.7452 18.76C32.6718 18.8333 32.5718 18.87 32.4452 18.87ZM34.3352 16.44C34.6418 16.44 34.9052 16.3667 35.1252 16.22C35.3518 16.0733 35.5252 15.86 35.6452 15.58C35.7718 15.3 35.8352 14.9633 35.8352 14.57C35.8352 13.9633 35.6985 13.5 35.4252 13.18C35.1585 12.86 34.7952 12.7 34.3352 12.7C34.0352 12.7 33.7718 12.7733 33.5452 12.92C33.3185 13.06 33.1418 13.27 33.0152 13.55C32.8952 13.8233 32.8352 14.1633 32.8352 14.57C32.8352 15.17 32.9718 15.6333 33.2452 15.96C33.5185 16.28 33.8818 16.44 34.3352 16.44ZM38.2752 18.87C38.1419 18.87 38.0419 18.8333 37.9752 18.76C37.9086 18.6933 37.8752 18.5933 37.8752 18.46V12.48C37.8752 12.3467 37.9086 12.2467 37.9752 12.18C38.0419 12.1067 38.1386 12.07 38.2652 12.07C38.3986 12.07 38.4986 12.1067 38.5652 12.18C38.6386 12.2467 38.6752 12.3467 38.6752 12.48V13.43L38.5652 13.29C38.6719 12.91 38.8819 12.61 39.1952 12.39C39.5152 12.1633 39.8952 12.05 40.3352 12.05C40.7686 12.05 41.1452 12.1533 41.4652 12.36C41.7919 12.56 42.0419 12.85 42.2152 13.23C42.3952 13.6033 42.4852 14.05 42.4852 14.57C42.4852 15.0833 42.3952 15.53 42.2152 15.91C42.0419 16.2833 41.7952 16.5733 41.4752 16.78C41.1552 16.9867 40.7752 17.09 40.3352 17.09C39.8952 17.09 39.5186 16.98 39.2052 16.76C38.8919 16.5333 38.6786 16.2333 38.5652 15.86H38.6852V18.46C38.6852 18.5933 38.6486 18.6933 38.5752 18.76C38.5019 18.8333 38.4019 18.87 38.2752 18.87ZM40.1652 16.44C40.4719 16.44 40.7352 16.3667 40.9552 16.22C41.1819 16.0733 41.3552 15.86 41.4752 15.58C41.6019 15.3 41.6652 14.9633 41.6652 14.57C41.6652 13.9633 41.5286 13.5 41.2552 13.18C40.9886 12.86 40.6252 12.7 40.1652 12.7C39.8652 12.7 39.6019 12.7733 39.3752 12.92C39.1486 13.06 38.9719 13.27 38.8452 13.55C38.7252 13.8233 38.6652 14.1633 38.6652 14.57C38.6652 15.17 38.8019 15.6333 39.0752 15.96C39.3486 16.28 39.7119 16.44 40.1652 16.44ZM44.1153 17.07C43.982 17.07 43.8786 17.0333 43.8053 16.96C43.7386 16.8867 43.7053 16.7833 43.7053 16.65V12.48C43.7053 12.3467 43.7386 12.2467 43.8053 12.18C43.872 12.1067 43.9686 12.07 44.0953 12.07C44.222 12.07 44.3186 12.1067 44.3853 12.18C44.4586 12.2467 44.4953 12.3467 44.4953 12.48V13.29H44.3953C44.502 12.8967 44.7053 12.5933 45.0053 12.38C45.3053 12.1667 45.6753 12.0533 46.1153 12.04C46.2153 12.0333 46.2953 12.0567 46.3553 12.11C46.4153 12.1567 46.4486 12.24 46.4553 12.36C46.462 12.4733 46.4353 12.5633 46.3753 12.63C46.3153 12.6967 46.222 12.7367 46.0953 12.75L45.9353 12.77C45.482 12.81 45.132 12.9567 44.8853 13.21C44.6453 13.4567 44.5253 13.7967 44.5253 14.23V16.65C44.5253 16.7833 44.4886 16.8867 44.4153 16.96C44.3486 17.0333 44.2486 17.07 44.1153 17.07ZM49.2507 17.09C48.7774 17.09 48.3674 16.9867 48.0207 16.78C47.674 16.5733 47.404 16.2833 47.2107 15.91C47.024 15.53 46.9307 15.0833 46.9307 14.57C46.9307 14.1833 46.984 13.8367 47.0907 13.53C47.1974 13.2167 47.354 12.95 47.5607 12.73C47.7674 12.51 48.0107 12.3433 48.2907 12.23C48.5774 12.11 48.8974 12.05 49.2507 12.05C49.724 12.05 50.134 12.1533 50.4807 12.36C50.8274 12.5667 51.094 12.86 51.2807 13.24C51.474 13.6133 51.5707 14.0567 51.5707 14.57C51.5707 14.9567 51.5174 15.3033 51.4107 15.61C51.304 15.9167 51.1474 16.1833 50.9407 16.41C50.734 16.63 50.4874 16.8 50.2007 16.92C49.9207 17.0333 49.604 17.09 49.2507 17.09ZM49.2507 16.44C49.5507 16.44 49.814 16.3667 50.0407 16.22C50.2674 16.0733 50.4407 15.86 50.5607 15.58C50.6874 15.3 50.7507 14.9633 50.7507 14.57C50.7507 13.9633 50.614 13.5 50.3407 13.18C50.074 12.86 49.7107 12.7 49.2507 12.7C48.944 12.7 48.6774 12.7733 48.4507 12.92C48.2307 13.06 48.0574 13.27 47.9307 13.55C47.8107 13.8233 47.7507 14.1633 47.7507 14.57C47.7507 15.17 47.8874 15.6333 48.1607 15.96C48.434 16.28 48.7974 16.44 49.2507 16.44ZM54.529 17.07C54.4157 17.07 54.3157 17.04 54.229 16.98C54.1423 16.9133 54.069 16.8133 54.009 16.68L52.279 12.64C52.2323 12.54 52.2157 12.4467 52.229 12.36C52.2423 12.2733 52.2823 12.2033 52.349 12.15C52.4157 12.0967 52.509 12.07 52.629 12.07C52.7357 12.07 52.819 12.0933 52.879 12.14C52.939 12.1867 52.9923 12.27 53.039 12.39L54.679 16.4H54.409L56.079 12.39C56.1257 12.27 56.179 12.1867 56.239 12.14C56.299 12.0933 56.3857 12.07 56.499 12.07C56.6057 12.07 56.6857 12.0967 56.739 12.15C56.799 12.2033 56.8323 12.2733 56.839 12.36C56.8523 12.44 56.839 12.53 56.799 12.63L55.049 16.68C55.0023 16.8133 54.9323 16.9133 54.839 16.98C54.7523 17.04 54.649 17.07 54.529 17.07ZM59.9871 17.09C59.4738 17.09 59.0304 16.99 58.6571 16.79C58.2904 16.5833 58.0038 16.2933 57.7971 15.92C57.5971 15.5467 57.4971 15.1 57.4971 14.58C57.4971 14.0733 57.5971 13.6333 57.7971 13.26C57.9971 12.88 58.2704 12.5833 58.6171 12.37C58.9704 12.1567 59.3771 12.05 59.8371 12.05C60.1638 12.05 60.4571 12.1067 60.7171 12.22C60.9771 12.3267 61.1971 12.4833 61.3771 12.69C61.5638 12.8967 61.7038 13.1467 61.7971 13.44C61.8971 13.7333 61.9471 14.0633 61.9471 14.43C61.9471 14.5367 61.9171 14.6167 61.8571 14.67C61.7971 14.7167 61.7104 14.74 61.5971 14.74H58.1171V14.21H61.4071L61.2471 14.34C61.2471 13.98 61.1938 13.6767 61.0871 13.43C60.9804 13.1767 60.8238 12.9833 60.6171 12.85C60.4171 12.7167 60.1638 12.65 59.8571 12.65C59.5171 12.65 59.2271 12.73 58.9871 12.89C58.7538 13.0433 58.5771 13.26 58.4571 13.54C58.3371 13.8133 58.2771 14.1333 58.2771 14.5V14.56C58.2771 15.1733 58.4238 15.64 58.7171 15.96C59.0171 16.28 59.4404 16.44 59.9871 16.44C60.2138 16.44 60.4371 16.41 60.6571 16.35C60.8838 16.29 61.1038 16.19 61.3171 16.05C61.4104 15.99 61.4938 15.9633 61.5671 15.97C61.6471 15.97 61.7104 15.9933 61.7571 16.04C61.8038 16.08 61.8338 16.1333 61.8471 16.2C61.8671 16.26 61.8604 16.3267 61.8271 16.4C61.8004 16.4733 61.7438 16.5367 61.6571 16.59C61.4371 16.75 61.1771 16.8733 60.8771 16.96C60.5771 17.0467 60.2804 17.09 59.9871 17.09Z" fill="#34C759"/>
</svg>
