<svg width="40" height="41" viewBox="0 0 40 41" fill="none" xmlns="http://www.w3.org/2000/svg">
<rect x="0.5" y="1.10352" width="39" height="39" rx="19.5" stroke="#C4C4C4"/>
<path fill-rule="evenodd" clip-rule="evenodd" d="M25.475 21.1285C25.7649 20.8386 25.7649 20.3685 25.475 20.0785C25.1851 19.7886 24.7149 19.7886 24.425 20.0785L20.75 23.7535V15.3535C20.75 14.9393 20.4142 14.6035 20 14.6035C19.5858 14.6035 19.25 14.9393 19.25 15.3535V23.7535L15.575 20.0785C15.2851 19.7886 14.8149 19.7886 14.525 20.0785C14.2351 20.3685 14.2351 20.8386 14.525 21.1285L19.2929 25.8964C19.6834 26.2869 20.3166 26.2869 20.7071 25.8964L25.475 21.1285Z" fill="#838383"/>
</svg>
