<svg width="132" height="136" viewBox="0 0 132 136" fill="none" xmlns="http://www.w3.org/2000/svg">
<rect x="36" y="38" width="60" height="60" rx="7" fill="#333333"/>
<g filter="url(#filter0_f_6068_106921)">
<path d="M59.333 51.3335V56.3335" stroke="#0BFB07" stroke-width="1.5" stroke-miterlimit="10" stroke-linecap="round" stroke-linejoin="round"/>
<path d="M72.667 51.3335V56.3335" stroke="#0BFB07" stroke-width="1.5" stroke-miterlimit="10" stroke-linecap="round" stroke-linejoin="round"/>
<path d="M51.833 63.1499H80.1663" stroke="#0BFB07" stroke-width="1.5" stroke-miterlimit="10" stroke-linecap="round" stroke-linejoin="round"/>
<path d="M81 62.1659V76.3325C81 81.3325 78.5 84.6659 72.6667 84.6659H59.3333C53.5 84.6659 51 81.3325 51 76.3325V62.1659C51 57.1659 53.5 53.8325 59.3333 53.8325H72.6667C78.5 53.8325 81 57.1659 81 62.1659Z" stroke="#0BFB07" stroke-width="1.5" stroke-miterlimit="10" stroke-linecap="round" stroke-linejoin="round"/>
<path d="M72.1582 70.8338H72.1731" stroke="#0BFB07" stroke-width="2" stroke-linecap="round" stroke-linejoin="round"/>
<path d="M72.1582 75.8328H72.1731" stroke="#0BFB07" stroke-width="2" stroke-linecap="round" stroke-linejoin="round"/>
<path d="M65.9921 70.8338H66.0071" stroke="#0BFB07" stroke-width="2" stroke-linecap="round" stroke-linejoin="round"/>
<path d="M65.9921 75.8328H66.0071" stroke="#0BFB07" stroke-width="2" stroke-linecap="round" stroke-linejoin="round"/>
<path d="M59.8242 70.8338H59.8391" stroke="#0BFB07" stroke-width="2" stroke-linecap="round" stroke-linejoin="round"/>
<path d="M59.8242 75.8328H59.8391" stroke="#0BFB07" stroke-width="2" stroke-linecap="round" stroke-linejoin="round"/>
</g>
<g opacity="0.25" filter="url(#filter1_f_6068_106921)">
<path d="M59.333 51.3335V56.3335" stroke="#0BFB07" stroke-width="1.5" stroke-miterlimit="10" stroke-linecap="round" stroke-linejoin="round"/>
<path d="M72.667 51.3335V56.3335" stroke="#0BFB07" stroke-width="1.5" stroke-miterlimit="10" stroke-linecap="round" stroke-linejoin="round"/>
<path d="M51.833 63.1499H80.1663" stroke="#0BFB07" stroke-width="1.5" stroke-miterlimit="10" stroke-linecap="round" stroke-linejoin="round"/>
<path d="M81 62.1659V76.3325C81 81.3325 78.5 84.6659 72.6667 84.6659H59.3333C53.5 84.6659 51 81.3325 51 76.3325V62.1659C51 57.1659 53.5 53.8325 59.3333 53.8325H72.6667C78.5 53.8325 81 57.1659 81 62.1659Z" stroke="#0BFB07" stroke-width="1.5" stroke-miterlimit="10" stroke-linecap="round" stroke-linejoin="round"/>
<path d="M72.1582 70.8338H72.1731" stroke="#0BFB07" stroke-width="2" stroke-linecap="round" stroke-linejoin="round"/>
<path d="M72.1582 75.8328H72.1731" stroke="#0BFB07" stroke-width="2" stroke-linecap="round" stroke-linejoin="round"/>
<path d="M65.9921 70.8338H66.0071" stroke="#0BFB07" stroke-width="2" stroke-linecap="round" stroke-linejoin="round"/>
<path d="M65.9921 75.8328H66.0071" stroke="#0BFB07" stroke-width="2" stroke-linecap="round" stroke-linejoin="round"/>
<path d="M59.8242 70.8338H59.8391" stroke="#0BFB07" stroke-width="2" stroke-linecap="round" stroke-linejoin="round"/>
<path d="M59.8242 75.8328H59.8391" stroke="#0BFB07" stroke-width="2" stroke-linecap="round" stroke-linejoin="round"/>
</g>
<g opacity="0.5" filter="url(#filter2_f_6068_106921)">
<path d="M59.333 51.3335V56.3335" stroke="#0BFB07" stroke-width="1.5" stroke-miterlimit="10" stroke-linecap="round" stroke-linejoin="round"/>
<path d="M72.667 51.3335V56.3335" stroke="#0BFB07" stroke-width="1.5" stroke-miterlimit="10" stroke-linecap="round" stroke-linejoin="round"/>
<path d="M51.833 63.1499H80.1663" stroke="#0BFB07" stroke-width="1.5" stroke-miterlimit="10" stroke-linecap="round" stroke-linejoin="round"/>
<path d="M81 62.1659V76.3325C81 81.3325 78.5 84.6659 72.6667 84.6659H59.3333C53.5 84.6659 51 81.3325 51 76.3325V62.1659C51 57.1659 53.5 53.8325 59.3333 53.8325H72.6667C78.5 53.8325 81 57.1659 81 62.1659Z" stroke="#0BFB07" stroke-width="1.5" stroke-miterlimit="10" stroke-linecap="round" stroke-linejoin="round"/>
<path d="M72.1582 70.8338H72.1731" stroke="#0BFB07" stroke-width="2" stroke-linecap="round" stroke-linejoin="round"/>
<path d="M72.1582 75.8328H72.1731" stroke="#0BFB07" stroke-width="2" stroke-linecap="round" stroke-linejoin="round"/>
<path d="M65.9921 70.8338H66.0071" stroke="#0BFB07" stroke-width="2" stroke-linecap="round" stroke-linejoin="round"/>
<path d="M65.9921 75.8328H66.0071" stroke="#0BFB07" stroke-width="2" stroke-linecap="round" stroke-linejoin="round"/>
<path d="M59.8242 70.8338H59.8391" stroke="#0BFB07" stroke-width="2" stroke-linecap="round" stroke-linejoin="round"/>
<path d="M59.8242 75.8328H59.8391" stroke="#0BFB07" stroke-width="2" stroke-linecap="round" stroke-linejoin="round"/>
</g>
<g filter="url(#filter3_f_6068_106921)">
<path d="M59.333 51.3335V56.3335" stroke="#0BFB07" stroke-width="1.5" stroke-miterlimit="10" stroke-linecap="round" stroke-linejoin="round"/>
<path d="M72.667 51.3335V56.3335" stroke="#0BFB07" stroke-width="1.5" stroke-miterlimit="10" stroke-linecap="round" stroke-linejoin="round"/>
<path d="M51.833 63.1499H80.1663" stroke="#0BFB07" stroke-width="1.5" stroke-miterlimit="10" stroke-linecap="round" stroke-linejoin="round"/>
<path d="M81 62.1659V76.3325C81 81.3325 78.5 84.6659 72.6667 84.6659H59.3333C53.5 84.6659 51 81.3325 51 76.3325V62.1659C51 57.1659 53.5 53.8325 59.3333 53.8325H72.6667C78.5 53.8325 81 57.1659 81 62.1659Z" stroke="#0BFB07" stroke-width="1.5" stroke-miterlimit="10" stroke-linecap="round" stroke-linejoin="round"/>
<path d="M72.1582 70.8338H72.1731" stroke="#0BFB07" stroke-width="2" stroke-linecap="round" stroke-linejoin="round"/>
<path d="M72.1582 75.8328H72.1731" stroke="#0BFB07" stroke-width="2" stroke-linecap="round" stroke-linejoin="round"/>
<path d="M65.9921 70.8338H66.0071" stroke="#0BFB07" stroke-width="2" stroke-linecap="round" stroke-linejoin="round"/>
<path d="M65.9921 75.8328H66.0071" stroke="#0BFB07" stroke-width="2" stroke-linecap="round" stroke-linejoin="round"/>
<path d="M59.8242 70.8338H59.8391" stroke="#0BFB07" stroke-width="2" stroke-linecap="round" stroke-linejoin="round"/>
<path d="M59.8242 75.8328H59.8391" stroke="#0BFB07" stroke-width="2" stroke-linecap="round" stroke-linejoin="round"/>
</g>
<path d="M59.333 51.3335V56.3335" stroke="#5DFF5A" stroke-width="2" stroke-miterlimit="10" stroke-linecap="round" stroke-linejoin="round"/>
<path d="M72.667 51.3335V56.3335" stroke="#5DFF5A" stroke-width="2" stroke-miterlimit="10" stroke-linecap="round" stroke-linejoin="round"/>
<path d="M51.833 63.1499H80.1663" stroke="#5DFF5A" stroke-width="2" stroke-miterlimit="10" stroke-linecap="round" stroke-linejoin="round"/>
<path d="M81 62.1659V76.3325C81 81.3325 78.5 84.6659 72.6667 84.6659H59.3333C53.5 84.6659 51 81.3325 51 76.3325V62.1659C51 57.1659 53.5 53.8325 59.3333 53.8325H72.6667C78.5 53.8325 81 57.1659 81 62.1659Z" stroke="#5DFF5A" stroke-width="2" stroke-miterlimit="10" stroke-linecap="round" stroke-linejoin="round"/>
<path d="M72.1582 70.8338H72.1731" stroke="#5DFF5A" stroke-width="2" stroke-linecap="round" stroke-linejoin="round"/>
<path d="M72.1582 75.8328H72.1731" stroke="#5DFF5A" stroke-width="2" stroke-linecap="round" stroke-linejoin="round"/>
<path d="M65.9921 70.8338H66.0071" stroke="#5DFF5A" stroke-width="2" stroke-linecap="round" stroke-linejoin="round"/>
<path d="M65.9921 75.8328H66.0071" stroke="#5DFF5A" stroke-width="2" stroke-linecap="round" stroke-linejoin="round"/>
<path d="M59.8242 70.8338H59.8391" stroke="#5DFF5A" stroke-width="2" stroke-linecap="round" stroke-linejoin="round"/>
<path d="M59.8242 75.8328H59.8391" stroke="#5DFF5A" stroke-width="2" stroke-linecap="round" stroke-linejoin="round"/>
<defs>
<filter id="filter0_f_6068_106921" x="0.25" y="0.583496" width="131.5" height="134.833" filterUnits="userSpaceOnUse" color-interpolation-filters="sRGB">
<feFlood flood-opacity="0" result="BackgroundImageFix"/>
<feBlend mode="normal" in="SourceGraphic" in2="BackgroundImageFix" result="shape"/>
<feGaussianBlur stdDeviation="25" result="effect1_foregroundBlur_6068_106921"/>
</filter>
<filter id="filter1_f_6068_106921" x="25.25" y="25.5835" width="81.5" height="84.8325" filterUnits="userSpaceOnUse" color-interpolation-filters="sRGB">
<feFlood flood-opacity="0" result="BackgroundImageFix"/>
<feBlend mode="normal" in="SourceGraphic" in2="BackgroundImageFix" result="shape"/>
<feGaussianBlur stdDeviation="12.5" result="effect1_foregroundBlur_6068_106921"/>
</filter>
<filter id="filter2_f_6068_106921" x="35.25" y="35.5835" width="61.5" height="64.8325" filterUnits="userSpaceOnUse" color-interpolation-filters="sRGB">
<feFlood flood-opacity="0" result="BackgroundImageFix"/>
<feBlend mode="normal" in="SourceGraphic" in2="BackgroundImageFix" result="shape"/>
<feGaussianBlur stdDeviation="7.5" result="effect1_foregroundBlur_6068_106921"/>
</filter>
<filter id="filter3_f_6068_106921" x="40.25" y="40.5835" width="51.5" height="54.8325" filterUnits="userSpaceOnUse" color-interpolation-filters="sRGB">
<feFlood flood-opacity="0" result="BackgroundImageFix"/>
<feBlend mode="normal" in="SourceGraphic" in2="BackgroundImageFix" result="shape"/>
<feGaussianBlur stdDeviation="5" result="effect1_foregroundBlur_6068_106921"/>
</filter>
</defs>
</svg>
