<svg width="54" height="54" viewBox="0 0 54 54" fill="none" xmlns="http://www.w3.org/2000/svg">
<rect width="54" height="54" rx="8" fill="#F3FFE6"/>
<g clip-path="url(#clip0_133_1162)">
<path d="M22.3741 9.10292C23.8524 9.76106 25.1062 10.8326 25.9837 12.1725C26.8494 13.4905 27.3506 15.0666 27.3506 16.7592C27.3506 18.3793 26.8899 19.893 26.09 21.1789C25.361 22.3517 24.3468 23.3321 23.1453 24.024V40.8267C23.1453 41.9759 22.6762 43.0188 21.9202 43.7748C21.1642 44.5308 20.1196 45 18.9721 45C17.8228 45 16.7783 44.5308 16.0223 43.7748C15.2662 43.0188 14.7971 41.9742 14.7971 40.8267V24.024C13.5956 23.3321 12.5831 22.3517 11.8524 21.1789C11.0542 19.8947 10.5918 18.3793 10.5918 16.7592C10.5918 15.0666 11.0947 13.4905 11.9587 12.1725C12.8497 10.8141 14.1238 9.73068 15.6308 9.07592C16.056 8.89029 16.5521 9.08605 16.7378 9.5113C16.785 9.62099 16.8086 9.73574 16.807 9.84712H16.8103V15.9155H21.1287V9.84712C21.1287 9.38136 21.5067 9.00336 21.9725 9.00336C22.1176 9.00336 22.2543 9.04048 22.3724 9.10461L22.3741 9.10292ZM16.483 36.726L21.4578 34.2673V29.2081L16.483 31.6668V36.726ZM21.4578 36.1455L16.483 38.6043V40.8267C16.483 41.5102 16.7631 42.1312 17.2137 42.5834C17.6642 43.034 18.2852 43.3141 18.9704 43.3141C19.6538 43.3141 20.2748 43.034 20.7271 42.5834C21.1777 42.1329 21.4578 41.5102 21.4578 40.8267V36.1455ZM16.483 29.7886L21.4578 27.3299V23.5211H21.4612C21.4612 23.2106 21.6333 22.912 21.9303 22.7668C23.0542 22.2116 24.0009 21.3493 24.6607 20.2895C25.2969 19.2669 25.6631 18.0586 25.6631 16.7609C25.6631 15.4075 25.2615 14.1486 24.573 13.0956C24.1072 12.3868 23.5115 11.7692 22.8179 11.2815V16.7592C22.8179 17.225 22.4399 17.603 21.9742 17.603H15.9683C15.5025 17.603 15.1245 17.225 15.1245 16.7592V11.2815C14.4326 11.7692 13.8352 12.3852 13.3695 13.0956C12.681 14.1469 12.2793 15.4058 12.2793 16.7609C12.2793 18.0586 12.6472 19.2669 13.2817 20.2895C13.9314 21.3341 14.8579 22.1846 15.9598 22.7398C16.2669 22.8664 16.4846 23.1685 16.4846 23.5211V29.7886H16.483ZM32.6376 28.6664C32.6427 28.4099 32.6157 25.8162 29.5427 24.2535C29.1276 24.0426 28.9622 23.5346 29.1732 23.1195C29.3217 22.8276 29.617 22.6588 29.9241 22.6588H35.4001V10.6909H33.8594C33.3937 10.6909 33.0156 10.3129 33.0156 9.84712C33.0156 9.38136 33.3937 9.00336 33.8594 9.00336H36.2439H38.6284C39.0941 9.00336 39.4721 9.38136 39.4721 9.84712C39.4721 10.3129 39.0941 10.6909 38.6284 10.6909H37.0877V22.6588H42.5637C43.0294 22.6588 43.4074 23.0368 43.4074 23.5026C43.4074 23.8401 43.2083 24.132 42.9197 24.267C39.9801 25.7757 39.8501 28.2293 39.8501 28.631C39.8535 28.6597 39.8535 28.6867 39.8535 28.7154V28.7407L40.4138 40.7913L40.4205 40.9685C40.4205 42.0603 39.9581 43.0475 39.2224 43.7748C38.5001 44.487 37.5095 44.946 36.4346 44.9966C36.335 45 36.2709 45.0034 36.2422 45.0034C36.2135 45.0034 36.1477 45 36.0498 44.9966C34.9766 44.946 33.9843 44.487 33.262 43.7748C32.5263 43.0492 32.0639 42.0603 32.0639 40.9685L32.0706 40.7913L32.6343 28.6799V28.6681L32.6376 28.6664ZM38.2402 27.8699C38.3803 27.0008 38.7937 25.6154 40.002 24.3447H36.2422H32.4841C33.6924 25.6154 34.1058 27.0008 34.2459 27.8699H38.2385H38.2402ZM38.7347 40.8605L38.2082 29.5557H34.2796L33.7531 40.8605V40.9651C33.7531 41.5878 34.0197 42.1531 34.4433 42.5716C34.8804 43.0036 35.4778 43.2821 36.1224 43.3125H36.362C37.005 43.2821 37.604 43.0036 38.0411 42.5716C38.4647 42.1531 38.7313 41.5878 38.7313 40.9651V40.8605H38.7347Z" fill="#3D7100"/>
</g>
<defs>
<clipPath id="clip0_133_1162">
<rect width="36" height="36" fill="white" transform="translate(9 9)"/>
</clipPath>
</defs>
</svg>
