<svg width="54" height="54" viewBox="0 0 54 54" fill="none" xmlns="http://www.w3.org/2000/svg">
<rect width="54" height="54" rx="8" fill="#F3FFE6"/>
<path d="M35.3479 18.686C35.3418 18.6792 35.3405 18.6717 35.3343 18.6656C35.3276 18.6588 35.318 18.6561 35.3112 18.65C33.1061 16.4477 30.1165 15.2114 27 15.213C23.8844 15.2115 20.8956 16.4473 18.6908 18.6486C18.6826 18.6554 18.6731 18.6575 18.665 18.6649C18.6582 18.6717 18.6562 18.6819 18.6494 18.6887C17.5577 19.7809 16.692 21.0775 16.1017 22.5044C15.5114 23.9313 15.208 25.4605 15.209 27.0047C15.209 30.2474 16.5267 33.1886 18.6562 35.3207C18.6602 35.3248 18.6616 35.3309 18.665 35.3343C18.6697 35.3391 18.6752 35.3404 18.6799 35.3445C19.7726 36.4368 21.0698 37.303 22.4974 37.8937C23.925 38.4844 25.455 38.7879 27 38.7869C30.2454 38.7869 33.1879 37.4692 35.3221 35.3431C35.3255 35.3391 35.3303 35.3384 35.3343 35.335L35.3411 35.3234C36.4355 34.2322 37.3037 32.9356 37.8958 31.5081C38.4879 30.0806 38.7924 28.5502 38.7917 27.0047C38.7917 23.7613 37.474 20.8202 35.3479 18.686ZM37.0229 27.5094H37.747C37.6316 30.009 36.6438 32.3892 34.9553 34.236L34.4473 33.7265C34.4006 33.6765 34.3444 33.6363 34.2819 33.6085C34.2194 33.5806 34.1519 33.5657 34.0835 33.5645C34.0151 33.5633 33.9472 33.5758 33.8837 33.6015C33.8203 33.6271 33.7627 33.6652 33.7143 33.7136C33.6659 33.762 33.6278 33.8196 33.6022 33.883C33.5766 33.9465 33.564 34.0144 33.5652 34.0828C33.5664 34.1512 33.5814 34.2187 33.6092 34.2812C33.6371 34.3436 33.6772 34.3999 33.7272 34.4465L34.2353 34.956C32.3871 36.641 30.0078 37.6266 27.5094 37.7422V37.0222C27.5094 36.8871 27.4558 36.7575 27.3602 36.662C27.2647 36.5665 27.1351 36.5128 27 36.5128C26.8649 36.5128 26.7353 36.5665 26.6398 36.662C26.5442 36.7575 26.4906 36.8871 26.4906 37.0222V37.7422C23.9921 37.6264 21.6128 36.6405 19.7647 34.9553L20.2728 34.4472C20.3228 34.4006 20.363 34.3443 20.3908 34.2818C20.4186 34.2193 20.4336 34.1519 20.4348 34.0835C20.436 34.0151 20.4234 33.9471 20.3978 33.8837C20.3722 33.8203 20.3341 33.7626 20.2857 33.7143C20.2373 33.6659 20.1797 33.6278 20.1163 33.6021C20.0528 33.5765 19.9849 33.5639 19.9165 33.5651C19.8481 33.5663 19.7806 33.5813 19.7181 33.6092C19.6556 33.637 19.5994 33.6772 19.5528 33.7272L19.0433 34.2353C17.3555 32.3885 16.3682 30.0086 16.253 27.5094H16.9771C17.1122 27.5094 17.2417 27.4557 17.3373 27.3602C17.4328 27.2646 17.4865 27.1351 17.4865 27C17.4865 26.8648 17.4328 26.7353 17.3373 26.6397C17.2417 26.5442 17.1122 26.4905 16.9771 26.4905H16.2543C16.3714 23.9918 17.359 21.6129 19.046 19.766L19.5528 20.2727C19.5999 20.3202 19.656 20.3579 19.7178 20.3836C19.7796 20.4093 19.8458 20.4225 19.9128 20.4225C19.9797 20.4225 20.0459 20.4093 20.1077 20.3836C20.1695 20.3579 20.2256 20.3202 20.2728 20.2727C20.3682 20.1772 20.4217 20.0477 20.4217 19.9127C20.4217 19.7777 20.3682 19.6482 20.2728 19.5527L19.7667 19.0453C21.6142 17.3598 23.9931 16.3736 26.4912 16.2577V16.9777C26.4912 17.1128 26.5449 17.2424 26.6405 17.3379C26.736 17.4335 26.8656 17.4871 27.0007 17.4871C27.1358 17.4871 27.2654 17.4335 27.3609 17.3379C27.4564 17.2424 27.5101 17.1128 27.5101 16.9777V16.2577C30.0083 16.3736 32.3872 17.3598 34.2346 19.0453L33.7272 19.552C33.6772 19.5987 33.6371 19.6549 33.6092 19.7174C33.5814 19.7799 33.5664 19.8474 33.5652 19.9158C33.564 19.9842 33.5766 20.0521 33.6022 20.1155C33.6278 20.179 33.6659 20.2366 33.7143 20.285C33.7627 20.3333 33.8203 20.3715 33.8837 20.3971C33.9472 20.4227 34.0151 20.4353 34.0835 20.4341C34.1519 20.4329 34.2194 20.4179 34.2819 20.3901C34.3444 20.3622 34.4006 20.3221 34.4473 20.272L34.9546 19.7653C36.6421 21.6123 37.63 23.9915 37.747 26.4905H37.0236C36.8885 26.4905 36.7589 26.5442 36.6634 26.6397C36.5679 26.7353 36.5142 26.8648 36.5142 27C36.5142 27.1351 36.5679 27.2646 36.6634 27.3602C36.7589 27.4557 36.8878 27.5094 37.0229 27.5094Z" fill="#3D7100"/>
<path d="M27.0003 40.8722C19.3486 40.8722 13.1233 34.6517 13.1233 27.0047C13.1233 26.8696 13.0696 26.74 12.9741 26.6445C12.8786 26.549 12.749 26.4953 12.6139 26.4953C12.4788 26.4953 12.3492 26.549 12.2537 26.6445C12.1581 26.74 12.1044 26.8696 12.1044 27.0047C12.1044 35.2134 18.7869 41.8911 27.0003 41.8911C27.1354 41.8911 27.265 41.8374 27.3605 41.7419C27.4561 41.6463 27.5097 41.5168 27.5097 41.3816C27.5097 41.2465 27.4561 41.117 27.3605 41.0214C27.265 40.9259 27.1354 40.8722 27.0003 40.8722ZM13.4901 25.5518C13.5373 25.5993 13.5934 25.637 13.6551 25.6627C13.7169 25.6884 13.7832 25.7017 13.8501 25.7017C13.917 25.7017 13.9833 25.6884 14.0451 25.6627C14.1069 25.637 14.1629 25.5993 14.2101 25.5518C14.3055 25.4563 14.3591 25.3268 14.3591 25.1918C14.3591 25.0568 14.3055 24.9274 14.2101 24.8318L12.9739 23.5936C12.8784 23.4982 12.7489 23.4446 12.6139 23.4446C12.4789 23.4446 12.3494 23.4982 12.2539 23.5936L11.0177 24.8284C10.969 24.8755 10.9302 24.9317 10.9036 24.9938C10.8769 25.056 10.8629 25.1229 10.8623 25.1905C10.8618 25.2582 10.8747 25.3252 10.9003 25.3878C10.926 25.4504 10.9638 25.5073 11.0117 25.5551C11.0595 25.6029 11.1164 25.6407 11.1791 25.6663C11.2417 25.6919 11.3088 25.7047 11.3764 25.7041C11.444 25.7035 11.5109 25.6894 11.573 25.6627C11.6352 25.6359 11.6914 25.5971 11.7383 25.5484L12.6132 24.6742L13.4901 25.5518ZM27.0003 13.1284C34.652 13.1284 40.8773 19.353 40.8773 27.0047C40.8773 27.1398 40.931 27.2694 41.0265 27.365C41.122 27.4605 41.2516 27.5142 41.3867 27.5142C41.5218 27.5142 41.6514 27.4605 41.7469 27.365C41.8425 27.2694 41.8961 27.1398 41.8961 27.0047C41.8961 18.7913 35.2137 12.1089 27.0003 12.1089C26.8652 12.1089 26.7356 12.1626 26.6401 12.2581C26.5445 12.3536 26.4909 12.4832 26.4909 12.6183C26.4909 12.7534 26.5445 12.883 26.6401 12.9785C26.7356 13.0741 26.8652 13.1284 27.0003 13.1284ZM42.9829 28.3829C42.8874 28.2875 42.7579 28.2339 42.6229 28.2339C42.4879 28.2339 42.3585 28.2875 42.2629 28.3829L41.3847 29.2605L40.5105 28.3863C40.4638 28.3363 40.4076 28.2961 40.3451 28.2683C40.2826 28.2404 40.2152 28.2255 40.1468 28.2243C40.0784 28.2231 40.0104 28.2356 39.947 28.2613C39.8836 28.2869 39.8259 28.325 39.7776 28.3734C39.7292 28.4218 39.691 28.4794 39.6654 28.5428C39.6398 28.6063 39.6272 28.6742 39.6284 28.7426C39.6296 28.811 39.6446 28.8785 39.6724 28.941C39.7003 29.0034 39.7404 29.0597 39.7905 29.1063L41.024 30.3412C41.0712 30.3888 41.1273 30.4265 41.1891 30.4523C41.251 30.4781 41.3173 30.4914 41.3843 30.4914C41.4513 30.4914 41.5177 30.4781 41.5795 30.4523C41.6414 30.4265 41.6975 30.3888 41.7447 30.3412L42.9829 29.1036C43.0783 29.0081 43.1319 28.8786 43.1319 28.7436C43.1319 28.6086 43.0783 28.4791 42.9829 28.3836V28.3829ZM30.7497 22.1094L27.6456 25.4309C27.441 25.346 27.2218 25.3022 27.0003 25.3019C26.5493 25.3022 26.1169 25.4815 25.798 25.8004C25.4791 26.1193 25.2998 26.5517 25.2995 27.0027C25.2995 27.7594 25.8028 28.3945 26.4909 28.6118V31.9021C26.4909 32.0372 26.5445 32.1668 26.6401 32.2623C26.7356 32.3579 26.8652 32.4115 27.0003 32.4115C27.1354 32.4115 27.265 32.3579 27.3605 32.2623C27.4561 32.1668 27.5097 32.0372 27.5097 31.9021V28.6118C27.8538 28.5052 28.1548 28.2915 28.3691 28.002C28.5833 27.7125 28.6996 27.3622 28.7011 27.002C28.7011 26.6638 28.5992 26.3499 28.4274 26.0844L31.4928 22.8036C31.5411 22.7553 31.5792 22.6978 31.6049 22.6345C31.6305 22.5712 31.6431 22.5034 31.642 22.4351C31.6408 22.3669 31.626 22.2995 31.5982 22.2371C31.5705 22.1747 31.5305 22.1185 31.4806 22.0719C31.4307 22.0253 31.3719 21.9892 31.3078 21.9657C31.2436 21.9423 31.1754 21.9321 31.1072 21.9356C31.039 21.9391 30.9722 21.9563 30.9108 21.9861C30.8494 22.016 30.7946 22.0579 30.7497 22.1094ZM27.0003 27.6792C26.8202 27.6798 26.6473 27.6088 26.5194 27.482C26.3915 27.3552 26.3192 27.1828 26.3183 27.0027C26.3262 26.8271 26.4014 26.6613 26.5285 26.5398C26.6555 26.4183 26.8245 26.3505 27.0003 26.3505C27.1761 26.3505 27.3451 26.4183 27.4721 26.5398C27.5991 26.6613 27.6744 26.8271 27.6823 27.0027C27.6823 27.3756 27.3766 27.6792 27.0003 27.6792Z" fill="#3D7100"/>
</svg>
