<svg width="54" height="54" viewBox="0 0 54 54" fill="none" xmlns="http://www.w3.org/2000/svg">
<rect width="54" height="54" rx="8" fill="#F3FFE6"/>
<path d="M41.4103 41.7249H12.6278C12.4259 41.7249 12.262 41.561 12.262 41.359V38.7168C12.262 38.5302 12.4025 38.3736 12.5876 38.3531L16.031 37.9705C16.2417 37.2863 16.5183 36.6205 16.8542 35.9853L14.689 33.2795C14.5727 33.1339 14.5844 32.9239 14.7161 32.7922L18.4529 29.0553C18.5846 28.9236 18.7946 28.9119 18.9403 29.0283L21.6461 31.1927C22.2812 30.8561 22.9471 30.5802 23.6312 30.3695L24.0139 26.9268C24.0344 26.7417 24.191 26.6012 24.3776 26.6012H29.662C29.8485 26.6012 30.0051 26.7417 30.0256 26.9268L30.4083 30.3695C31.0924 30.5802 31.7583 30.8568 32.3934 31.1927L35.0993 29.0283C35.2449 28.9119 35.4549 28.9236 35.5866 29.0553L39.3234 32.7922C39.4551 32.9239 39.4668 33.1339 39.3505 33.2795L37.1861 35.9853C37.522 36.6197 37.7985 37.2856 38.0093 37.9705L41.452 38.3531C41.6371 38.3736 41.7776 38.5302 41.7776 38.7168V41.359C41.7761 41.5617 41.6122 41.7249 41.4103 41.7249ZM12.9937 40.9931H41.0444V39.0446L37.6859 38.6714C37.5381 38.6553 37.4151 38.5507 37.3742 38.408C37.1488 37.6156 36.8298 36.8473 36.4273 36.1251C36.3549 35.9956 36.3681 35.8346 36.461 35.7183L38.5727 33.0783L35.299 29.8046L32.659 31.9163C32.5427 32.0092 32.3825 32.0224 32.2522 31.95C31.5293 31.5468 30.7617 31.2285 29.9693 31.0031C29.8266 30.9622 29.722 30.8392 29.7059 30.6914L29.3327 27.3329H24.7032L24.33 30.6914C24.3139 30.8392 24.2093 30.9622 24.0666 31.0031C23.2742 31.2285 22.5059 31.5468 21.7837 31.95C21.6542 32.0224 21.4932 32.0092 21.3768 31.9163L18.7368 29.8046L15.4632 33.0783L17.5749 35.7183C17.6678 35.8346 17.681 35.9949 17.6085 36.1251C17.2061 36.8473 16.8871 37.6156 16.6617 38.4073C16.6207 38.55 16.4978 38.6546 16.35 38.6707L12.9907 39.0439V40.9931H12.9937Z" fill="#3D7100"/>
<path d="M33.8773 41.7248C33.6754 41.7248 33.5115 41.5609 33.5115 41.359C33.5115 37.7787 30.5993 34.8665 27.019 34.8665C23.4388 34.8665 20.5266 37.7787 20.5266 41.359C20.5266 41.5609 20.3627 41.7248 20.1607 41.7248C19.9588 41.7248 19.7949 41.5609 19.7949 41.359C19.7949 37.3756 23.0356 34.1348 27.019 34.1348C31.0025 34.1348 34.2432 37.3756 34.2432 41.359C34.2432 41.5617 34.0793 41.7248 33.8773 41.7248ZM27.019 27.3336C26.8171 27.3336 26.6532 27.1697 26.6532 26.9678V20.6626C26.6532 20.4607 26.8171 20.2968 27.019 20.2968C27.221 20.2968 27.3849 20.4607 27.3849 20.6626V26.9678C27.3849 27.1704 27.221 27.3336 27.019 27.3336ZM34.6595 18.9307H29.1176C28.9156 18.9307 28.7517 18.7668 28.7517 18.5648C28.7517 18.3629 28.9156 18.199 29.1176 18.199H34.6595C34.8615 18.199 35.0254 18.3629 35.0254 18.5648C35.0254 18.7668 34.8615 18.9307 34.6595 18.9307ZM24.9205 18.9307H19.3785C19.1766 18.9307 19.0127 18.7668 19.0127 18.5648C19.0127 18.3629 19.1766 18.199 19.3785 18.199H24.9205C25.1225 18.199 25.2864 18.3629 25.2864 18.5648C25.2864 18.7668 25.1232 18.9307 24.9205 18.9307Z" fill="#3D7100"/>
<path d="M27.0191 21.0285C25.6603 21.0285 24.5547 19.9229 24.5547 18.5642C24.5547 17.2054 25.6603 16.0998 27.0191 16.0998C28.3779 16.0998 29.4835 17.2054 29.4835 18.5642C29.4835 19.9229 28.3779 21.0285 27.0191 21.0285ZM27.0191 16.8322C26.0642 16.8322 25.2864 17.6093 25.2864 18.5649C25.2864 19.5205 26.0635 20.2976 27.0191 20.2976C27.974 20.2976 28.7518 19.5205 28.7518 18.5649C28.7518 17.6093 27.974 16.8322 27.0191 16.8322ZM18.3755 24.7463H12.2174C11.4623 24.7463 10.8484 24.1317 10.8484 23.3773V13.7524C10.8484 12.9973 11.463 12.3834 12.2174 12.3834H18.3755C19.1306 12.3834 19.7445 12.9981 19.7445 13.7524V23.3766C19.7445 24.1317 19.1306 24.7463 18.3755 24.7463ZM12.2174 13.1151C11.8655 13.1151 11.5801 13.4012 11.5801 13.7524V23.3766C11.5801 23.7285 11.8662 24.0139 12.2174 24.0139H18.3755C18.7274 24.0139 19.0128 23.7278 19.0128 23.3766V13.7524C19.0128 13.4005 18.7267 13.1151 18.3755 13.1151H12.2174Z" fill="#3D7100"/>
<path d="M19.3786 15.1903H11.2142C11.0123 15.1903 10.8484 15.0263 10.8484 14.8244C10.8484 14.6224 11.0123 14.4585 11.2142 14.4585H19.3786C19.5806 14.4585 19.7445 14.6224 19.7445 14.8244C19.7445 15.0263 19.5813 15.1903 19.3786 15.1903ZM19.3786 22.6705H11.2142C11.0123 22.6705 10.8484 22.5066 10.8484 22.3046C10.8484 22.1027 11.0123 21.9388 11.2142 21.9388H19.3786C19.5806 21.9388 19.7445 22.1027 19.7445 22.3046C19.7445 22.5066 19.5813 22.6705 19.3786 22.6705ZM16.0267 14.1527H14.5669C14.365 14.1527 14.2011 13.9888 14.2011 13.7868C14.2011 13.5849 14.365 13.421 14.5669 13.421H16.0267C16.2286 13.421 16.3925 13.5849 16.3925 13.7868C16.3925 13.9888 16.2286 14.1527 16.0267 14.1527ZM16.0267 23.7081H14.5669C14.365 23.7081 14.2011 23.5442 14.2011 23.3422C14.2011 23.1403 14.365 22.9763 14.5669 22.9763H16.0267C16.2286 22.9763 16.3925 23.1403 16.3925 23.3422C16.3925 23.5442 16.2286 23.7081 16.0267 23.7081ZM41.8208 24.7463H35.6628C34.9077 24.7463 34.2938 24.1317 34.2938 23.3773V13.7524C34.2938 12.9973 34.9084 12.3834 35.6628 12.3834H41.8208C42.5759 12.3834 43.1898 12.9981 43.1898 13.7524V23.3766C43.1898 24.1317 42.5759 24.7463 41.8208 24.7463ZM35.6628 13.1151C35.3108 13.1151 35.0255 13.4012 35.0255 13.7524V23.3766C35.0255 23.7285 35.3116 24.0139 35.6628 24.0139H41.8208C42.172 24.0139 42.4581 23.7278 42.4581 23.3766V13.7524C42.4581 13.4005 42.172 13.1151 41.8208 13.1151H35.6628Z" fill="#3D7100"/>
<path d="M42.8239 15.1903H34.6596C34.4576 15.1903 34.2937 15.0264 34.2937 14.8244C34.2937 14.6225 34.4576 14.4586 34.6596 14.4586H42.8239C43.0259 14.4586 43.1898 14.6225 43.1898 14.8244C43.1898 15.0264 43.0259 15.1903 42.8239 15.1903ZM42.8239 22.6705H34.6596C34.4576 22.6705 34.2937 22.5066 34.2937 22.3047C34.2937 22.1027 34.4576 21.9388 34.6596 21.9388H42.8239C43.0259 21.9388 43.1898 22.1027 43.1898 22.3047C43.1898 22.5066 43.0259 22.6705 42.8239 22.6705ZM39.4713 14.1527H38.0115C37.8096 14.1527 37.6457 13.9888 37.6457 13.7869C37.6457 13.5849 37.8096 13.421 38.0115 13.421H39.4713C39.6732 13.421 39.8371 13.5849 39.8371 13.7869C39.8371 13.9888 39.6732 14.1527 39.4713 14.1527Z" fill="#3D7100"/>
<path d="M39.4711 23.708H38.0114C37.8094 23.708 37.6455 23.5441 37.6455 23.3422C37.6455 23.1402 37.8094 22.9763 38.0114 22.9763H39.4711C39.6731 22.9763 39.837 23.1402 39.837 23.3422C39.837 23.5441 39.6731 23.708 39.4711 23.708Z" fill="#3D7100"/>
</svg>
