<svg width="34" height="34" viewBox="0 0 34 34" fill="none" xmlns="http://www.w3.org/2000/svg">
<path fill-rule="evenodd" clip-rule="evenodd" d="M16.8857 33.2313C26.0048 33.2313 33.3973 25.8388 33.3973 16.7196C33.3973 7.60052 26.0048 0.208008 16.8857 0.208008C7.76653 0.208008 0.374023 7.60052 0.374023 16.7196C0.374023 25.8388 7.76653 33.2313 16.8857 33.2313Z" fill="#E6E5F2"/>
<path d="M24.689 12.75V17.25C24.689 17.7 24.3776 18 23.9103 18C23.4431 18 23.1316 17.7 23.1316 17.25V14.55L17.0577 20.4C16.7462 20.7 16.279 20.7 15.9675 20.4L12.619 17.175L7.32381 22.275C7.16807 22.425 7.01232 22.5 6.77871 22.5C6.5451 22.5 6.38936 22.425 6.23361 22.275C5.92213 21.975 5.92213 21.525 6.23361 21.225L12.0739 15.6C12.3854 15.3 12.8526 15.3 13.1641 15.6L16.5126 18.825L22.0414 13.5H19.2381C18.7708 13.5 18.4594 13.2 18.4594 12.75C18.4594 12.3 18.7708 12 19.2381 12H23.9103C23.9882 12 24.1439 12 24.2218 12.075C24.3776 12.15 24.5333 12.3 24.6112 12.45C24.689 12.525 24.689 12.675 24.689 12.75Z" fill="#27AE60"/>
</svg>
