<svg width="34" height="34" viewBox="0 0 34 34" fill="none" xmlns="http://www.w3.org/2000/svg">
<path fill-rule="evenodd" clip-rule="evenodd" d="M16.6864 33.8837C25.8056 33.8837 33.1981 26.4912 33.1981 17.3721C33.1981 8.253 25.8056 0.860489 16.6864 0.860489C7.56731 0.860489 0.174805 8.253 0.174805 17.3721C0.174805 26.4912 7.56731 33.8837 16.6864 33.8837Z" fill="#E6E5F2"/>
<path d="M25.689 21.7501V17.2501C25.689 16.8001 25.3776 16.5001 24.9103 16.5001C24.4431 16.5001 24.1316 16.8001 24.1316 17.2501V19.9501L18.0577 14.1001C17.7462 13.8001 17.279 13.8001 16.9675 14.1001L13.619 17.3251L8.32381 12.2251C8.16807 12.0751 8.01232 12.0001 7.77871 12.0001C7.5451 12.0001 7.38936 12.0751 7.23361 12.2251C6.92213 12.5251 6.92213 12.9751 7.23361 13.2751L13.0739 18.9001C13.3854 19.2001 13.8526 19.2001 14.1641 18.9001L17.5126 15.6751L23.0414 21.0001H20.2381C19.7708 21.0001 19.4594 21.3001 19.4594 21.7501C19.4594 22.2001 19.7708 22.5001 20.2381 22.5001H24.9103C24.9882 22.5001 25.1439 22.5001 25.2218 22.4251C25.3776 22.3501 25.5333 22.2001 25.6112 22.0501C25.689 21.9751 25.689 21.8251 25.689 21.7501Z" fill="#E62929"/>
</svg>
