<svg width="90" height="27" viewBox="0 0 90 27" fill="none" xmlns="http://www.w3.org/2000/svg">
<rect opacity="0.05" width="90" height="27" rx="5" fill="#E71D36"/>
<path d="M13.705 14L15.855 11.855C15.9491 11.7608 16.002 11.6331 16.002 11.5C16.002 11.3668 15.9491 11.2391 15.855 11.145C15.7608 11.0508 15.6331 10.9979 15.5 10.9979C15.3668 10.9979 15.2391 11.0508 15.145 11.145L13 13.295L10.855 11.145C10.7608 11.0508 10.6331 10.9979 10.5 10.9979C10.3668 10.9979 10.2391 11.0508 10.145 11.145C10.0508 11.2391 9.99792 11.3668 9.99792 11.5C9.99792 11.6331 10.0508 11.7608 10.145 11.855L12.295 14L10.145 16.145C10.0981 16.1915 10.0609 16.2468 10.0355 16.3077C10.0101 16.3686 9.99707 16.434 9.99707 16.5C9.99707 16.566 10.0101 16.6313 10.0355 16.6923C10.0609 16.7532 10.0981 16.8085 10.145 16.855C10.1915 16.9018 10.2468 16.939 10.3077 16.9644C10.3686 16.9898 10.434 17.0029 10.5 17.0029C10.566 17.0029 10.6313 16.9898 10.6923 16.9644C10.7532 16.939 10.8085 16.9018 10.855 16.855L13 14.705L15.145 16.855C15.1915 16.9018 15.2468 16.939 15.3077 16.9644C15.3686 16.9898 15.434 17.0029 15.5 17.0029C15.566 17.0029 15.6313 16.9898 15.6923 16.9644C15.7532 16.939 15.8085 16.9018 15.855 16.855C15.9018 16.8085 15.939 16.7532 15.9644 16.6923C15.9898 16.6313 16.0029 16.566 16.0029 16.5C16.0029 16.434 15.9898 16.3686 15.9644 16.3077C15.939 16.2468 15.9018 16.1915 15.855 16.145L13.705 14Z" fill="#E71D36"/>
<path d="M25.32 17C25.1733 17 25.06 16.9633 24.98 16.89C24.9067 16.81 24.87 16.6967 24.87 16.55V10.4C24.87 10.2533 24.9067 10.1433 24.98 10.07C25.06 9.99 25.1733 9.95 25.32 9.95H27.25C28.39 9.95 29.27 10.25 29.89 10.85C30.51 11.45 30.82 12.3233 30.82 13.47C30.82 14.0433 30.74 14.55 30.58 14.99C30.4267 15.4233 30.1967 15.79 29.89 16.09C29.5833 16.39 29.21 16.6167 28.77 16.77C28.33 16.9233 27.8233 17 27.25 17H25.32ZM25.69 16.3H27.19C27.6567 16.3 28.06 16.24 28.4 16.12C28.7467 16 29.0333 15.8233 29.26 15.59C29.4933 15.3567 29.6667 15.0633 29.78 14.71C29.8933 14.35 29.95 13.9367 29.95 13.47C29.95 12.53 29.72 11.8267 29.26 11.36C28.8 10.8867 28.11 10.65 27.19 10.65H25.69V16.3ZM34.3719 17.09C33.8585 17.09 33.4152 16.99 33.0419 16.79C32.6752 16.5833 32.3885 16.2933 32.1819 15.92C31.9819 15.5467 31.8819 15.1 31.8819 14.58C31.8819 14.0733 31.9819 13.6333 32.1819 13.26C32.3819 12.88 32.6552 12.5833 33.0019 12.37C33.3552 12.1567 33.7619 12.05 34.2219 12.05C34.5485 12.05 34.8419 12.1067 35.1019 12.22C35.3619 12.3267 35.5819 12.4833 35.7619 12.69C35.9485 12.8967 36.0885 13.1467 36.1819 13.44C36.2819 13.7333 36.3319 14.0633 36.3319 14.43C36.3319 14.5367 36.3019 14.6167 36.2419 14.67C36.1819 14.7167 36.0952 14.74 35.9819 14.74H32.5019V14.21H35.7919L35.6319 14.34C35.6319 13.98 35.5785 13.6767 35.4719 13.43C35.3652 13.1767 35.2085 12.9833 35.0019 12.85C34.8019 12.7167 34.5485 12.65 34.2419 12.65C33.9019 12.65 33.6119 12.73 33.3719 12.89C33.1385 13.0433 32.9619 13.26 32.8419 13.54C32.7219 13.8133 32.6619 14.1333 32.6619 14.5V14.56C32.6619 15.1733 32.8085 15.64 33.1019 15.96C33.4019 16.28 33.8252 16.44 34.3719 16.44C34.5985 16.44 34.8219 16.41 35.0419 16.35C35.2685 16.29 35.4885 16.19 35.7019 16.05C35.7952 15.99 35.8785 15.9633 35.9519 15.97C36.0319 15.97 36.0952 15.9933 36.1419 16.04C36.1885 16.08 36.2185 16.1333 36.2319 16.2C36.2519 16.26 36.2452 16.3267 36.2119 16.4C36.1852 16.4733 36.1285 16.5367 36.0419 16.59C35.8219 16.75 35.5619 16.8733 35.2619 16.96C34.9619 17.0467 34.6652 17.09 34.3719 17.09ZM39.5641 17.09C39.0775 17.09 38.6575 16.9833 38.3041 16.77C37.9508 16.5567 37.6775 16.26 37.4841 15.88C37.2975 15.4933 37.2041 15.0467 37.2041 14.54C37.2041 14.1533 37.2575 13.8067 37.3641 13.5C37.4708 13.1933 37.6275 12.9333 37.8341 12.72C38.0408 12.5 38.2875 12.3333 38.5741 12.22C38.8675 12.1067 39.1975 12.05 39.5641 12.05C39.8041 12.05 40.0541 12.0867 40.3141 12.16C40.5741 12.2333 40.8108 12.36 41.0241 12.54C41.0908 12.5867 41.1341 12.6433 41.1541 12.71C41.1741 12.7767 41.1741 12.8433 41.1541 12.91C41.1341 12.97 41.1008 13.0233 41.0541 13.07C41.0075 13.11 40.9475 13.1333 40.8741 13.14C40.8075 13.1467 40.7375 13.1233 40.6641 13.07C40.4908 12.9367 40.3141 12.8433 40.1341 12.79C39.9541 12.7367 39.7808 12.71 39.6141 12.71C39.3541 12.71 39.1275 12.7533 38.9341 12.84C38.7408 12.92 38.5775 13.0367 38.4441 13.19C38.3108 13.3433 38.2075 13.5333 38.1341 13.76C38.0675 13.9867 38.0341 14.25 38.0341 14.55C38.0341 15.13 38.1708 15.59 38.4441 15.93C38.7175 16.2633 39.1075 16.43 39.6141 16.43C39.7808 16.43 39.9508 16.4033 40.1241 16.35C40.3041 16.2967 40.4841 16.2033 40.6641 16.07C40.7375 16.0167 40.8075 15.9933 40.8741 16C40.9408 16.0067 40.9975 16.0333 41.0441 16.08C41.0908 16.12 41.1208 16.1733 41.1341 16.24C41.1541 16.3067 41.1541 16.3733 41.1341 16.44C41.1141 16.5 41.0708 16.5533 41.0041 16.6C40.7908 16.7733 40.5575 16.9 40.3041 16.98C40.0508 17.0533 39.8041 17.09 39.5641 17.09ZM43.613 17.09C43.133 17.09 42.7664 16.9433 42.513 16.65C42.2597 16.3567 42.133 15.9367 42.133 15.39V10.29C42.133 10.1567 42.1664 10.0567 42.233 9.99C42.2997 9.91667 42.3997 9.88 42.533 9.88C42.6597 9.88 42.7597 9.91667 42.833 9.99C42.9064 10.0567 42.943 10.1567 42.943 10.29V15.33C42.943 15.69 43.013 15.96 43.153 16.14C43.2997 16.3133 43.513 16.4 43.793 16.4C43.853 16.4 43.9064 16.3967 43.953 16.39C43.9997 16.3833 44.0464 16.38 44.093 16.38C44.1664 16.3733 44.2164 16.39 44.243 16.43C44.2764 16.47 44.293 16.55 44.293 16.67C44.293 16.79 44.2664 16.88 44.213 16.94C44.1597 17 44.073 17.04 43.953 17.06C43.8997 17.0667 43.843 17.0733 43.783 17.08C43.723 17.0867 43.6664 17.09 43.613 17.09ZM45.492 17.05C45.3587 17.05 45.2587 17.0133 45.192 16.94C45.1254 16.86 45.092 16.75 45.092 16.61V12.52C45.092 12.38 45.1254 12.2733 45.192 12.2C45.2587 12.1267 45.3587 12.09 45.492 12.09C45.6187 12.09 45.7187 12.1267 45.792 12.2C45.8654 12.2733 45.902 12.38 45.902 12.52V16.61C45.902 16.75 45.8654 16.86 45.792 16.94C45.7254 17.0133 45.6254 17.05 45.492 17.05ZM45.492 10.97C45.3254 10.97 45.1954 10.9267 45.102 10.84C45.0087 10.7467 44.962 10.6233 44.962 10.47C44.962 10.31 45.0087 10.19 45.102 10.11C45.1954 10.0233 45.3254 9.98 45.492 9.98C45.6654 9.98 45.7954 10.0233 45.882 10.11C45.9754 10.19 46.022 10.31 46.022 10.47C46.022 10.6233 45.9754 10.7467 45.882 10.84C45.7954 10.9267 45.6654 10.97 45.492 10.97ZM47.8163 17.07C47.6829 17.07 47.5829 17.0333 47.5163 16.96C47.4496 16.8867 47.4163 16.7833 47.4163 16.65V12.48C47.4163 12.3467 47.4496 12.2467 47.5163 12.18C47.5829 12.1067 47.6796 12.07 47.8063 12.07C47.9329 12.07 48.0296 12.1067 48.0963 12.18C48.1696 12.2467 48.2063 12.3467 48.2063 12.48V13.34L48.0963 13.22C48.2363 12.8333 48.4629 12.5433 48.7763 12.35C49.0963 12.15 49.4629 12.05 49.8763 12.05C50.2629 12.05 50.5829 12.12 50.8363 12.26C51.0963 12.4 51.2896 12.6133 51.4163 12.9C51.5429 13.18 51.6063 13.5367 51.6063 13.97V16.65C51.6063 16.7833 51.5696 16.8867 51.4963 16.96C51.4296 17.0333 51.3329 17.07 51.2063 17.07C51.0729 17.07 50.9696 17.0333 50.8963 16.96C50.8296 16.8867 50.7963 16.7833 50.7963 16.65V14.02C50.7963 13.5667 50.7063 13.2367 50.5263 13.03C50.3529 12.8167 50.0729 12.71 49.6863 12.71C49.2396 12.71 48.8829 12.85 48.6163 13.13C48.3563 13.4033 48.2263 13.77 48.2263 14.23V16.65C48.2263 16.93 48.0896 17.07 47.8163 17.07ZM55.2898 17.09C54.7765 17.09 54.3332 16.99 53.9598 16.79C53.5932 16.5833 53.3065 16.2933 53.0998 15.92C52.8998 15.5467 52.7998 15.1 52.7998 14.58C52.7998 14.0733 52.8998 13.6333 53.0998 13.26C53.2998 12.88 53.5732 12.5833 53.9198 12.37C54.2732 12.1567 54.6798 12.05 55.1398 12.05C55.4665 12.05 55.7598 12.1067 56.0198 12.22C56.2798 12.3267 56.4998 12.4833 56.6798 12.69C56.8665 12.8967 57.0065 13.1467 57.0998 13.44C57.1998 13.7333 57.2498 14.0633 57.2498 14.43C57.2498 14.5367 57.2198 14.6167 57.1598 14.67C57.0998 14.7167 57.0132 14.74 56.8998 14.74H53.4198V14.21H56.7098L56.5498 14.34C56.5498 13.98 56.4965 13.6767 56.3898 13.43C56.2832 13.1767 56.1265 12.9833 55.9198 12.85C55.7198 12.7167 55.4665 12.65 55.1598 12.65C54.8198 12.65 54.5298 12.73 54.2898 12.89C54.0565 13.0433 53.8798 13.26 53.7598 13.54C53.6398 13.8133 53.5798 14.1333 53.5798 14.5V14.56C53.5798 15.1733 53.7265 15.64 54.0198 15.96C54.3198 16.28 54.7432 16.44 55.2898 16.44C55.5165 16.44 55.7398 16.41 55.9598 16.35C56.1865 16.29 56.4065 16.19 56.6198 16.05C56.7132 15.99 56.7965 15.9633 56.8698 15.97C56.9498 15.97 57.0132 15.9933 57.0598 16.04C57.1065 16.08 57.1365 16.1333 57.1498 16.2C57.1698 16.26 57.1632 16.3267 57.1298 16.4C57.1032 16.4733 57.0465 16.5367 56.9598 16.59C56.7398 16.75 56.4798 16.8733 56.1798 16.96C55.8798 17.0467 55.5832 17.09 55.2898 17.09Z" fill="#E71D36"/>
</svg>
