<svg width="60" height="60" viewBox="0 0 60 60" fill="none" xmlns="http://www.w3.org/2000/svg">
<g filter="url(#filter0_d_384_593)">
<rect x="8.86523" y="7.19189" width="41.7061" height="41.7061" rx="10.6237" fill="white" shape-rendering="crispEdges"/>
<g clip-path="url(#clip0_384_593)">
<path d="M34.7245 17.6874C32.371 17.6874 30.316 19.1064 29.1865 20.9604C28.057 19.1064 26.002 17.6874 23.6485 17.6874C20.0785 17.6874 17.1865 20.5359 17.1865 24.0504C17.1865 25.8099 17.8885 27.4194 19.033 28.5969C21.631 31.2684 29.1865 38.6874 29.1865 38.6874C29.1865 38.6874 36.742 31.2684 39.34 28.5969C40.5249 27.3802 41.1875 25.7487 41.1865 24.0504C41.1865 20.5359 38.2945 17.6874 34.7245 17.6874Z" fill="#FF3A29"/>
</g>
</g>
<defs>
<filter id="filter0_d_384_593" x="0.0121603" y="0.109435" width="59.4122" height="59.4123" filterUnits="userSpaceOnUse" color-interpolation-filters="sRGB">
<feFlood flood-opacity="0" result="BackgroundImageFix"/>
<feColorMatrix in="SourceAlpha" type="matrix" values="0 0 0 0 0 0 0 0 0 0 0 0 0 0 0 0 0 0 127 0" result="hardAlpha"/>
<feOffset dy="1.77061"/>
<feGaussianBlur stdDeviation="4.42654"/>
<feComposite in2="hardAlpha" operator="out"/>
<feColorMatrix type="matrix" values="0 0 0 0 0.486275 0 0 0 0 0.552941 0 0 0 0 0.709804 0 0 0 0.12 0"/>
<feBlend mode="normal" in2="BackgroundImageFix" result="effect1_dropShadow_384_593"/>
<feBlend mode="normal" in="SourceGraphic" in2="effect1_dropShadow_384_593" result="shape"/>
</filter>
<clipPath id="clip0_384_593">
<rect width="24" height="24" fill="white" transform="translate(17.7183 16.0449)"/>
</clipPath>
</defs>
</svg>
