<svg width="88" height="33" viewBox="0 0 88 33" fill="none" xmlns="http://www.w3.org/2000/svg">
<path d="M0.761364 15V0.454545H9.48295V2.01705H2.52273V6.93182H8.82955V8.49432H2.52273V15H0.761364ZM15.9034 15.2273C14.9186 15.2273 14.0545 14.9929 13.3111 14.5241C12.5724 14.0554 11.9948 13.3996 11.5781 12.5568C11.1662 11.714 10.9602 10.7292 10.9602 9.60227C10.9602 8.46591 11.1662 7.47396 11.5781 6.62642C11.9948 5.77888 12.5724 5.12074 13.3111 4.65199C14.0545 4.18324 14.9186 3.94886 15.9034 3.94886C16.8883 3.94886 17.75 4.18324 18.4886 4.65199C19.232 5.12074 19.8097 5.77888 20.2216 6.62642C20.6383 7.47396 20.8466 8.46591 20.8466 9.60227C20.8466 10.7292 20.6383 11.714 20.2216 12.5568C19.8097 13.3996 19.232 14.0554 18.4886 14.5241C17.75 14.9929 16.8883 15.2273 15.9034 15.2273ZM15.9034 13.7216C16.6515 13.7216 17.267 13.5298 17.75 13.1463C18.233 12.7628 18.5904 12.2585 18.8224 11.6335C19.0545 11.0085 19.1705 10.3314 19.1705 9.60227C19.1705 8.87311 19.0545 8.19366 18.8224 7.56392C18.5904 6.93419 18.233 6.42519 17.75 6.03693C17.267 5.64867 16.6515 5.45455 15.9034 5.45455C15.1553 5.45455 14.5398 5.64867 14.0568 6.03693C13.5739 6.42519 13.2164 6.93419 12.9844 7.56392C12.7524 8.19366 12.6364 8.87311 12.6364 9.60227C12.6364 10.3314 12.7524 11.0085 12.9844 11.6335C13.2164 12.2585 13.5739 12.7628 14.0568 13.1463C14.5398 13.5298 15.1553 13.7216 15.9034 13.7216ZM25.0813 0.454545V15H23.4052V0.454545H25.0813ZM29.8274 0.454545V15H28.1513V0.454545H29.8274ZM37.3292 15.2273C36.3443 15.2273 35.4802 14.9929 34.7369 14.5241C33.9982 14.0554 33.4206 13.3996 33.0039 12.5568C32.592 11.714 32.386 10.7292 32.386 9.60227C32.386 8.46591 32.592 7.47396 33.0039 6.62642C33.4206 5.77888 33.9982 5.12074 34.7369 4.65199C35.4802 4.18324 36.3443 3.94886 37.3292 3.94886C38.314 3.94886 39.1758 4.18324 39.9144 4.65199C40.6578 5.12074 41.2354 5.77888 41.6474 6.62642C42.064 7.47396 42.2724 8.46591 42.2724 9.60227C42.2724 10.7292 42.064 11.714 41.6474 12.5568C41.2354 13.3996 40.6578 14.0554 39.9144 14.5241C39.1758 14.9929 38.314 15.2273 37.3292 15.2273ZM37.3292 13.7216C38.0773 13.7216 38.6928 13.5298 39.1758 13.1463C39.6587 12.7628 40.0162 12.2585 40.2482 11.6335C40.4802 11.0085 40.5962 10.3314 40.5962 9.60227C40.5962 8.87311 40.4802 8.19366 40.2482 7.56392C40.0162 6.93419 39.6587 6.42519 39.1758 6.03693C38.6928 5.64867 38.0773 5.45455 37.3292 5.45455C36.5811 5.45455 35.9656 5.64867 35.4826 6.03693C34.9996 6.42519 34.6422 6.93419 34.4102 7.56392C34.1781 8.19366 34.0621 8.87311 34.0621 9.60227C34.0621 10.3314 34.1781 11.0085 34.4102 11.6335C34.6422 12.2585 34.9996 12.7628 35.4826 13.1463C35.9656 13.5298 36.5811 13.7216 37.3292 13.7216ZM46.9315 15L43.6076 4.09091H45.369L47.7269 12.4432H47.8406L50.1701 4.09091H51.9599L54.261 12.4148H54.3746L56.7326 4.09091H58.494L55.1701 15H53.5224L51.136 6.61932H50.9656L48.5792 15H46.9315ZM64.9126 15.2273C63.8615 15.2273 62.9548 14.9953 62.1925 14.5312C61.4349 14.0625 60.8501 13.4091 60.4382 12.571C60.031 11.7282 59.8274 10.7481 59.8274 9.63068C59.8274 8.51326 60.031 7.52841 60.4382 6.67614C60.8501 5.81913 61.4231 5.15152 62.157 4.6733C62.8956 4.19034 63.7573 3.94886 64.7422 3.94886C65.3104 3.94886 65.8714 4.04356 66.4254 4.23295C66.9794 4.42235 67.4837 4.73011 67.9382 5.15625C68.3928 5.57765 68.755 6.13636 69.0249 6.83239C69.2947 7.52841 69.4297 8.38542 69.4297 9.40341V10.1136H61.0206V8.66477H67.7251C67.7251 8.04924 67.602 7.5 67.3558 7.01705C67.1143 6.53409 66.7687 6.15294 66.3189 5.87358C65.8738 5.59422 65.3482 5.45455 64.7422 5.45455C64.0746 5.45455 63.4969 5.62026 63.0092 5.9517C62.5263 6.27841 62.1546 6.70455 61.8942 7.23011C61.6338 7.75568 61.5036 8.31913 61.5036 8.92045V9.88636C61.5036 10.7102 61.6456 11.4086 61.9297 11.9815C62.2185 12.5497 62.6186 12.983 63.13 13.2812C63.6413 13.5748 64.2356 13.7216 64.9126 13.7216C65.353 13.7216 65.7507 13.66 66.1058 13.5369C66.4657 13.4091 66.7758 13.2197 67.0362 12.9688C67.2966 12.7131 67.4979 12.3958 67.6399 12.017L69.2592 12.4716C69.0888 13.0208 68.8023 13.5038 68.3999 13.9205C67.9974 14.3324 67.5002 14.6544 66.9084 14.8864C66.3165 15.1136 65.6513 15.2273 64.9126 15.2273ZM71.9794 15V4.09091H73.5987V5.73864H73.7124C73.9112 5.19886 74.2711 4.76089 74.7919 4.42472C75.3127 4.08854 75.8999 3.92045 76.5533 3.92045C76.6764 3.92045 76.8303 3.92282 77.0149 3.92756C77.1996 3.93229 77.3393 3.93939 77.4339 3.94886V5.65341C77.3771 5.6392 77.2469 5.6179 77.0433 5.58949C76.8445 5.55634 76.6338 5.53977 76.4112 5.53977C75.8809 5.53977 75.4074 5.65104 74.9908 5.87358C74.5788 6.09138 74.2521 6.39441 74.0107 6.78267C73.7739 7.16619 73.6555 7.60417 73.6555 8.09659V15H71.9794ZM87.1481 6.53409L85.6424 6.96023C85.5477 6.70928 85.408 6.46544 85.2234 6.22869C85.0434 5.98722 84.7972 5.78835 84.4847 5.6321C84.1722 5.47585 83.7721 5.39773 83.2844 5.39773C82.6168 5.39773 82.0605 5.55161 81.6154 5.85938C81.1751 6.16241 80.9549 6.5483 80.9549 7.01705C80.9549 7.43371 81.1064 7.76278 81.4094 8.00426C81.7125 8.24574 82.186 8.44697 82.8299 8.60795L84.4492 9.00568C85.4246 9.24242 86.1514 9.60464 86.6296 10.0923C87.1078 10.5753 87.3469 11.1979 87.3469 11.9602C87.3469 12.5852 87.167 13.1439 86.8072 13.6364C86.4521 14.1288 85.9549 14.517 85.3157 14.8011C84.6765 15.0852 83.9331 15.2273 83.0856 15.2273C81.9729 15.2273 81.052 14.9858 80.3228 14.5028C79.5936 14.0199 79.132 13.3144 78.9379 12.3864L80.5288 11.9886C80.6803 12.5758 80.9667 13.0161 81.3881 13.3097C81.8143 13.6032 82.3706 13.75 83.0572 13.75C83.8384 13.75 84.4587 13.5843 84.918 13.2528C85.382 12.9167 85.614 12.5142 85.614 12.0455C85.614 11.6667 85.4814 11.3494 85.2163 11.0938C84.9511 10.8333 84.5439 10.6392 83.9947 10.5114L82.1765 10.0852C81.1774 9.84848 80.4435 9.48153 79.9748 8.98438C79.5108 8.48248 79.2788 7.85511 79.2788 7.10227C79.2788 6.48674 79.4516 5.94223 79.7972 5.46875C80.1476 4.99527 80.6235 4.62358 81.2248 4.35369C81.8308 4.08381 82.5174 3.94886 83.2844 3.94886C84.364 3.94886 85.2115 4.18561 85.8271 4.65909C86.4473 5.13258 86.8877 5.75758 87.1481 6.53409Z" fill="#4D4D4D"/>
<path d="M4 31C4 28.2386 6.23858 26 9 26H79C81.7614 26 84 28.2386 84 31V33H4V31Z" fill="#3D7100"/>
</svg>
