<svg width="653" height="400" viewBox="0 0 653 400" fill="none" xmlns="http://www.w3.org/2000/svg">
<path d="M516.473 232.595C488.149 249.39 467.598 274.242 455.996 302.507L371.47 284.8C367.104 269.215 360.526 253.933 351.802 239.372C332.083 206.457 303.787 181.658 271.51 166.194L286.27 56.3874C306.555 56.2908 327.014 50.9516 345.625 39.9161C401.661 6.68864 420.079 -65.8203 386.565 -121.762C353.051 -177.703 280.25 -196.122 224.146 -162.854C168.042 -129.586 149.691 -57.1174 183.205 -1.17617C196.351 20.7669 215.628 36.9634 237.632 46.4951L223.575 150.562C180.008 142.527 133.494 149.548 92.6044 173.794C3.08258 226.878 -26.1669 342.615 27.2691 431.809C80.7051 521.003 197.013 550.43 286.467 497.387C332.043 470.362 362.06 427.046 373.402 379.293L449.817 395.294C453.143 408.374 458.464 421.098 465.727 433.221C507.275 502.571 597.693 525.505 667.314 484.222C736.934 442.94 759.715 352.975 718.127 283.556C676.539 214.138 586.161 191.272 516.541 232.555L516.473 232.595ZM257.376 -107.387C282.711 -122.41 315.694 -114.065 330.869 -88.7355C346.043 -63.4062 337.689 -30.6416 312.354 -15.6188C306.852 -12.3565 300.986 -10.1631 295.041 -9.02411C290.426 -8.12317 285.758 -7.92515 281.158 -8.22685C264.254 -9.40083 248.166 -18.5851 238.874 -34.0943C223.7 -59.4236 232.014 -92.2559 257.417 -107.319L257.376 -107.387ZM309.858 366.032C302.091 396.705 282.607 424.412 253.129 441.892C194.308 476.771 117.926 457.446 82.7891 398.796C47.652 340.146 66.9052 264.113 125.726 229.234C153.574 212.721 185.388 208.358 214.874 214.554C231.815 218.093 247.921 225.156 262.134 235.36C274.356 244.084 285.054 255.179 293.604 268.375C294.415 269.729 295.254 270.976 296.066 272.33C313.634 301.655 317.585 335.292 309.858 366.032ZM673.265 347.881C675.498 364.822 672.289 382.053 664.228 397.021C657.486 409.738 647.247 420.766 633.935 428.66C599.362 449.16 555.632 441.314 530.017 412.079C526.794 408.391 523.871 404.434 521.275 400.099C505.248 373.348 506.329 341.041 521.371 316.06C528.082 304.829 537.599 295.055 549.622 287.927C588.473 264.889 639.033 277.68 662.241 316.419C668.165 326.307 671.808 336.997 673.116 347.786L673.265 347.881Z" fill="url(#paint0_linear_6477_36665)" fill-opacity="0.2"/>
<defs>
<linearGradient id="paint0_linear_6477_36665" x1="2.01014" y1="455.008" x2="634.277" y2="44.0333" gradientUnits="userSpaceOnUse">
<stop offset="0.388782" stop-color="#3D7100"/>
<stop offset="0.885" stop-color="#74D700"/>
</linearGradient>
</defs>
</svg>
