<svg width="148" height="33" viewBox="0 0 148 33" fill="none" xmlns="http://www.w3.org/2000/svg">
<path d="M0.761364 15V0.454545H5.67614C6.81724 0.454545 7.75 0.660511 8.47443 1.07244C9.2036 1.47964 9.74337 2.03125 10.0938 2.72727C10.4441 3.4233 10.6193 4.19981 10.6193 5.05682C10.6193 5.91383 10.4441 6.69271 10.0938 7.39347C9.74811 8.09422 9.21307 8.65294 8.48864 9.0696C7.7642 9.48153 6.83617 9.6875 5.70455 9.6875H2.18182V8.125H5.64773C6.42898 8.125 7.05634 7.99006 7.52983 7.72017C8.00331 7.45028 8.34659 7.0857 8.55966 6.62642C8.77746 6.16241 8.88636 5.6392 8.88636 5.05682C8.88636 4.47443 8.77746 3.9536 8.55966 3.49432C8.34659 3.03504 8.00095 2.67519 7.52273 2.41477C7.04451 2.14962 6.41004 2.01705 5.61932 2.01705H2.52273V15H0.761364ZM17.544 15.2273C16.5592 15.2273 15.6951 14.9929 14.9517 14.5241C14.2131 14.0554 13.6354 13.3996 13.2188 12.5568C12.8068 11.714 12.6009 10.7292 12.6009 9.60227C12.6009 8.46591 12.8068 7.47396 13.2188 6.62642C13.6354 5.77888 14.2131 5.12074 14.9517 4.65199C15.6951 4.18324 16.5592 3.94886 17.544 3.94886C18.5289 3.94886 19.3906 4.18324 20.1293 4.65199C20.8726 5.12074 21.4503 5.77888 21.8622 6.62642C22.2789 7.47396 22.4872 8.46591 22.4872 9.60227C22.4872 10.7292 22.2789 11.714 21.8622 12.5568C21.4503 13.3996 20.8726 14.0554 20.1293 14.5241C19.3906 14.9929 18.5289 15.2273 17.544 15.2273ZM17.544 13.7216C18.2921 13.7216 18.9077 13.5298 19.3906 13.1463C19.8736 12.7628 20.2311 12.2585 20.4631 11.6335C20.6951 11.0085 20.8111 10.3314 20.8111 9.60227C20.8111 8.87311 20.6951 8.19366 20.4631 7.56392C20.2311 6.93419 19.8736 6.42519 19.3906 6.03693C18.9077 5.64867 18.2921 5.45455 17.544 5.45455C16.7959 5.45455 16.1804 5.64867 15.6974 6.03693C15.2145 6.42519 14.857 6.93419 14.625 7.56392C14.393 8.19366 14.277 8.87311 14.277 9.60227C14.277 10.3314 14.393 11.0085 14.625 11.6335C14.857 12.2585 15.2145 12.7628 15.6974 13.1463C16.1804 13.5298 16.7959 13.7216 17.544 13.7216ZM32.7731 6.53409L31.2674 6.96023C31.1727 6.70928 31.033 6.46544 30.8484 6.22869C30.6684 5.98722 30.4222 5.78835 30.1097 5.6321C29.7972 5.47585 29.3971 5.39773 28.9094 5.39773C28.2418 5.39773 27.6855 5.55161 27.2404 5.85938C26.8001 6.16241 26.5799 6.5483 26.5799 7.01705C26.5799 7.43371 26.7314 7.76278 27.0344 8.00426C27.3375 8.24574 27.811 8.44697 28.4549 8.60795L30.0742 9.00568C31.0496 9.24242 31.7764 9.60464 32.2546 10.0923C32.7328 10.5753 32.9719 11.1979 32.9719 11.9602C32.9719 12.5852 32.792 13.1439 32.4322 13.6364C32.0771 14.1288 31.5799 14.517 30.9407 14.8011C30.3015 15.0852 29.5581 15.2273 28.7106 15.2273C27.5979 15.2273 26.677 14.9858 25.9478 14.5028C25.2186 14.0199 24.757 13.3144 24.5629 12.3864L26.1538 11.9886C26.3053 12.5758 26.5917 13.0161 27.0131 13.3097C27.4393 13.6032 27.9956 13.75 28.6822 13.75C29.4634 13.75 30.0837 13.5843 30.543 13.2528C31.007 12.9167 31.239 12.5142 31.239 12.0455C31.239 11.6667 31.1064 11.3494 30.8413 11.0938C30.5761 10.8333 30.1689 10.6392 29.6197 10.5114L27.8015 10.0852C26.8024 9.84848 26.0685 9.48153 25.5998 8.98438C25.1358 8.48248 24.9038 7.85511 24.9038 7.10227C24.9038 6.48674 25.0766 5.94223 25.4222 5.46875C25.7726 4.99527 26.2485 4.62358 26.8498 4.35369C27.4558 4.08381 28.1424 3.94886 28.9094 3.94886C29.989 3.94886 30.8365 4.18561 31.4521 4.65909C32.0723 5.13258 32.5127 5.75758 32.7731 6.53409ZM40.2393 4.09091V5.51136H34.5859V4.09091H40.2393ZM36.2337 1.47727H37.9098V11.875C37.9098 12.3485 37.9785 12.7036 38.1158 12.9403C38.2578 13.1723 38.4377 13.3286 38.6555 13.4091C38.8781 13.4848 39.1125 13.5227 39.3587 13.5227C39.5433 13.5227 39.6948 13.5133 39.8132 13.4943C39.9316 13.4706 40.0263 13.4517 40.0973 13.4375L40.4382 14.9432C40.3246 14.9858 40.166 15.0284 39.9624 15.071C39.7588 15.1184 39.5007 15.142 39.1882 15.142C38.7147 15.142 38.2507 15.0402 37.7962 14.8366C37.3464 14.633 36.9723 14.3229 36.674 13.9062C36.3804 13.4896 36.2337 12.964 36.2337 12.3295V1.47727ZM48.3857 15V4.09091H50.0618V15H48.3857ZM49.2379 2.27273C48.9112 2.27273 48.6295 2.16146 48.3928 1.93892C48.1607 1.71638 48.0447 1.44886 48.0447 1.13636C48.0447 0.823864 48.1607 0.556345 48.3928 0.333806C48.6295 0.111269 48.9112 0 49.2379 0C49.5646 0 49.844 0.111269 50.076 0.333806C50.3127 0.556345 50.4311 0.823864 50.4311 1.13636C50.4311 1.44886 50.3127 1.71638 50.076 1.93892C49.844 2.16146 49.5646 2.27273 49.2379 2.27273ZM53.1317 15V4.09091H54.7511V5.79545H54.8931C55.1204 5.21307 55.4873 4.76089 55.994 4.43892C56.5006 4.11222 57.109 3.94886 57.8192 3.94886C58.5389 3.94886 59.1379 4.11222 59.6161 4.43892C60.0991 4.76089 60.4755 5.21307 60.7454 5.79545H60.859C61.1384 5.23201 61.5574 4.78456 62.1161 4.45312C62.6748 4.11695 63.3448 3.94886 64.1261 3.94886C65.1014 3.94886 65.8993 4.25426 66.5195 4.86506C67.1398 5.47112 67.4499 6.41572 67.4499 7.69886V15H65.7738V7.69886C65.7738 6.89394 65.5536 6.31866 65.1133 5.97301C64.6729 5.62737 64.1545 5.45455 63.5579 5.45455C62.7908 5.45455 62.1966 5.68655 61.7752 6.15057C61.3538 6.60985 61.1431 7.19223 61.1431 7.89773V15H59.4386V7.52841C59.4386 6.90814 59.2373 6.40862 58.8349 6.02983C58.4324 5.64631 57.9139 5.45455 57.2795 5.45455C56.8439 5.45455 56.4367 5.57055 56.0579 5.80256C55.6838 6.03456 55.3808 6.35653 55.1488 6.76847C54.9215 7.17566 54.8079 7.64678 54.8079 8.18182V15H53.1317ZM70.5146 19.0909V4.09091H72.1339V5.82386H72.3327C72.4558 5.63447 72.6263 5.39299 72.8441 5.09943C73.0666 4.80114 73.3839 4.53598 73.7958 4.30398C74.2125 4.06723 74.7759 3.94886 75.4862 3.94886C76.4047 3.94886 77.2144 4.1785 77.9151 4.63778C78.6159 5.09706 79.1628 5.74811 79.5558 6.59091C79.9487 7.43371 80.1452 8.42803 80.1452 9.57386C80.1452 10.7292 79.9487 11.7306 79.5558 12.5781C79.1628 13.4209 78.6183 14.0743 77.9222 14.5384C77.2262 14.9976 76.4237 15.2273 75.5146 15.2273C74.8138 15.2273 74.2527 15.1113 73.8313 14.8793C73.4099 14.6425 73.0856 14.375 72.8583 14.0767C72.631 13.7737 72.4558 13.5227 72.3327 13.3239H72.1907V19.0909H70.5146ZM72.1623 9.54545C72.1623 10.3693 72.283 11.0961 72.5245 11.7259C72.766 12.3509 73.1187 12.8409 73.5827 13.196C74.0468 13.5464 74.6149 13.7216 75.2873 13.7216C75.988 13.7216 76.5728 13.5369 77.0415 13.1676C77.515 12.7936 77.8701 12.2917 78.1069 11.6619C78.3484 11.0275 78.4691 10.322 78.4691 9.54545C78.4691 8.77841 78.3507 8.08712 78.114 7.47159C77.882 6.85133 77.5292 6.36127 77.0558 6.00142C76.587 5.63684 75.9975 5.45455 75.2873 5.45455C74.6055 5.45455 74.0326 5.62737 73.5685 5.97301C73.1045 6.31392 72.7541 6.79214 72.5174 7.40767C72.2807 8.01847 72.1623 8.73106 72.1623 9.54545ZM82.7021 15V4.09091H84.3214V5.73864H84.435C84.6339 5.19886 84.9937 4.76089 85.5146 4.42472C86.0354 4.08854 86.6225 3.92045 87.2759 3.92045C87.399 3.92045 87.5529 3.92282 87.7376 3.92756C87.9222 3.93229 88.0619 3.93939 88.1566 3.94886V5.65341C88.0998 5.6392 87.9696 5.6179 87.766 5.58949C87.5671 5.55634 87.3564 5.53977 87.1339 5.53977C86.6036 5.53977 86.1301 5.65104 85.7134 5.87358C85.3015 6.09138 84.9748 6.39441 84.7333 6.78267C84.4966 7.16619 84.3782 7.60417 84.3782 8.09659V15H82.7021ZM94.3853 15.2273C93.3342 15.2273 92.4274 14.9953 91.6651 14.5312C90.9076 14.0625 90.3228 13.4091 89.9109 12.571C89.5037 11.7282 89.3001 10.7481 89.3001 9.63068C89.3001 8.51326 89.5037 7.52841 89.9109 6.67614C90.3228 5.81913 90.8957 5.15152 91.6296 4.6733C92.3683 4.19034 93.23 3.94886 94.2148 3.94886C94.783 3.94886 95.3441 4.04356 95.8981 4.23295C96.4521 4.42235 96.9563 4.73011 97.4109 5.15625C97.8654 5.57765 98.2276 6.13636 98.4975 6.83239C98.7674 7.52841 98.9023 8.38542 98.9023 9.40341V10.1136H90.4933V8.66477H97.1978C97.1978 8.04924 97.0747 7.5 96.8285 7.01705C96.587 6.53409 96.2414 6.15294 95.7915 5.87358C95.3465 5.59422 94.8209 5.45455 94.2148 5.45455C93.5472 5.45455 92.9696 5.62026 92.4819 5.9517C91.9989 6.27841 91.6272 6.70455 91.3668 7.23011C91.1064 7.75568 90.9762 8.31913 90.9762 8.92045V9.88636C90.9762 10.7102 91.1183 11.4086 91.4023 11.9815C91.6912 12.5497 92.0913 12.983 92.6026 13.2812C93.114 13.5748 93.7082 13.7216 94.3853 13.7216C94.8256 13.7216 95.2234 13.66 95.5785 13.5369C95.9383 13.4091 96.2485 13.2197 96.5089 12.9688C96.7693 12.7131 96.9705 12.3958 97.1126 12.017L98.7319 12.4716C98.5614 13.0208 98.275 13.5038 97.8725 13.9205C97.4701 14.3324 96.9729 14.6544 96.381 14.8864C95.7892 15.1136 95.1239 15.2273 94.3853 15.2273ZM109.179 6.53409L107.674 6.96023C107.579 6.70928 107.439 6.46544 107.255 6.22869C107.075 5.98722 106.828 5.78835 106.516 5.6321C106.203 5.47585 105.803 5.39773 105.316 5.39773C104.648 5.39773 104.092 5.55161 103.647 5.85938C103.206 6.16241 102.986 6.5483 102.986 7.01705C102.986 7.43371 103.138 7.76278 103.441 8.00426C103.744 8.24574 104.217 8.44697 104.861 8.60795L106.48 9.00568C107.456 9.24242 108.183 9.60464 108.661 10.0923C109.139 10.5753 109.378 11.1979 109.378 11.9602C109.378 12.5852 109.198 13.1439 108.838 13.6364C108.483 14.1288 107.986 14.517 107.347 14.8011C106.708 15.0852 105.964 15.2273 105.117 15.2273C104.004 15.2273 103.083 14.9858 102.354 14.5028C101.625 14.0199 101.163 13.3144 100.969 12.3864L102.56 11.9886C102.712 12.5758 102.998 13.0161 103.419 13.3097C103.846 13.6032 104.402 13.75 105.088 13.75C105.87 13.75 106.49 13.5843 106.949 13.2528C107.413 12.9167 107.645 12.5142 107.645 12.0455C107.645 11.6667 107.513 11.3494 107.248 11.0938C106.982 10.8333 106.575 10.6392 106.026 10.5114L104.208 10.0852C103.209 9.84848 102.475 9.48153 102.006 8.98438C101.542 8.48248 101.31 7.85511 101.31 7.10227C101.31 6.48674 101.483 5.94223 101.828 5.46875C102.179 4.99527 102.655 4.62358 103.256 4.35369C103.862 4.08381 104.549 3.94886 105.316 3.94886C106.395 3.94886 107.243 4.18561 107.858 4.65909C108.479 5.13258 108.919 5.75758 109.179 6.53409ZM119.629 6.53409L118.123 6.96023C118.028 6.70928 117.888 6.46544 117.704 6.22869C117.524 5.98722 117.278 5.78835 116.965 5.6321C116.653 5.47585 116.253 5.39773 115.765 5.39773C115.097 5.39773 114.541 5.55161 114.096 5.85938C113.656 6.16241 113.435 6.5483 113.435 7.01705C113.435 7.43371 113.587 7.76278 113.89 8.00426C114.193 8.24574 114.666 8.44697 115.31 8.60795L116.93 9.00568C117.905 9.24242 118.632 9.60464 119.11 10.0923C119.588 10.5753 119.827 11.1979 119.827 11.9602C119.827 12.5852 119.647 13.1439 119.288 13.6364C118.933 14.1288 118.435 14.517 117.796 14.8011C117.157 15.0852 116.414 15.2273 115.566 15.2273C114.453 15.2273 113.532 14.9858 112.803 14.5028C112.074 14.0199 111.612 13.3144 111.418 12.3864L113.009 11.9886C113.161 12.5758 113.447 13.0161 113.869 13.3097C114.295 13.6032 114.851 13.75 115.538 13.75C116.319 13.75 116.939 13.5843 117.398 13.2528C117.862 12.9167 118.094 12.5142 118.094 12.0455C118.094 11.6667 117.962 11.3494 117.697 11.0938C117.432 10.8333 117.024 10.6392 116.475 10.5114L114.657 10.0852C113.658 9.84848 112.924 9.48153 112.455 8.98438C111.991 8.48248 111.759 7.85511 111.759 7.10227C111.759 6.48674 111.932 5.94223 112.278 5.46875C112.628 4.99527 113.104 4.62358 113.705 4.35369C114.311 4.08381 114.998 3.94886 115.765 3.94886C116.844 3.94886 117.692 4.18561 118.308 4.65909C118.928 5.13258 119.368 5.75758 119.629 6.53409ZM122.35 15V4.09091H124.027V15H122.35ZM123.203 2.27273C122.876 2.27273 122.594 2.16146 122.358 1.93892C122.126 1.71638 122.01 1.44886 122.01 1.13636C122.01 0.823864 122.126 0.556345 122.358 0.333806C122.594 0.111269 122.876 0 123.203 0C123.529 0 123.809 0.111269 124.041 0.333806C124.278 0.556345 124.396 0.823864 124.396 1.13636C124.396 1.44886 124.278 1.71638 124.041 1.93892C123.809 2.16146 123.529 2.27273 123.203 2.27273ZM131.528 15.2273C130.544 15.2273 129.679 14.9929 128.936 14.5241C128.197 14.0554 127.62 13.3996 127.203 12.5568C126.791 11.714 126.585 10.7292 126.585 9.60227C126.585 8.46591 126.791 7.47396 127.203 6.62642C127.62 5.77888 128.197 5.12074 128.936 4.65199C129.679 4.18324 130.544 3.94886 131.528 3.94886C132.513 3.94886 133.375 4.18324 134.114 4.65199C134.857 5.12074 135.435 5.77888 135.847 6.62642C136.263 7.47396 136.472 8.46591 136.472 9.60227C136.472 10.7292 136.263 11.714 135.847 12.5568C135.435 13.3996 134.857 14.0554 134.114 14.5241C133.375 14.9929 132.513 15.2273 131.528 15.2273ZM131.528 13.7216C132.277 13.7216 132.892 13.5298 133.375 13.1463C133.858 12.7628 134.215 12.2585 134.447 11.6335C134.679 11.0085 134.795 10.3314 134.795 9.60227C134.795 8.87311 134.679 8.19366 134.447 7.56392C134.215 6.93419 133.858 6.42519 133.375 6.03693C132.892 5.64867 132.277 5.45455 131.528 5.45455C130.78 5.45455 130.165 5.64867 129.682 6.03693C129.199 6.42519 128.841 6.93419 128.609 7.56392C128.377 8.19366 128.261 8.87311 128.261 9.60227C128.261 10.3314 128.377 11.0085 128.609 11.6335C128.841 12.2585 129.199 12.7628 129.682 13.1463C130.165 13.5298 130.78 13.7216 131.528 13.7216ZM140.706 8.4375V15H139.03V4.09091H140.65V5.79545H140.792C141.047 5.24148 141.435 4.7964 141.956 4.46023C142.477 4.11932 143.15 3.94886 143.973 3.94886C144.712 3.94886 145.358 4.10038 145.912 4.40341C146.466 4.7017 146.897 5.15625 147.205 5.76705C147.513 6.37311 147.667 7.14015 147.667 8.06818V15H145.99V8.18182C145.99 7.32481 145.768 6.6572 145.323 6.17898C144.878 5.69602 144.267 5.45455 143.49 5.45455C142.955 5.45455 142.477 5.57055 142.056 5.80256C141.639 6.03456 141.31 6.37311 141.069 6.81818C140.827 7.26326 140.706 7.80303 140.706 8.4375Z" fill="#4D4D4D"/>
<path d="M35 31C35 28.2386 37.2386 26 40 26H110C112.761 26 115 28.2386 115 31V33H35V31Z" fill="#979797"/>
</svg>
