<svg width="60" height="60" viewBox="0 0 60 60" fill="none" xmlns="http://www.w3.org/2000/svg">
<g filter="url(#filter0_d_384_607)">
<rect x="9.43945" y="7.19189" width="41.7061" height="41.7061" rx="10.6237" fill="white" shape-rendering="crispEdges"/>
<path d="M34.669 18C38.07 18 39.99 19.929 40 23.33V32.67C40 36.07 38.07 38 34.669 38H25.33C21.929 38 20 36.07 20 32.67V23.33C20 19.929 21.929 18 25.33 18H34.669ZM30.5 22.13C30.219 21.96 29.879 21.96 29.61 22.13C29.339 22.299 29.19 22.61 29.219 22.92V33.11C29.27 33.54 29.629 33.86 30.049 33.86C30.48 33.86 30.839 33.54 30.879 33.11V22.92C30.919 22.61 30.77 22.299 30.5 22.13ZM25.83 25.41C25.56 25.24 25.219 25.24 24.95 25.41C24.679 25.58 24.53 25.889 24.56 26.2V33.11C24.599 33.54 24.959 33.86 25.389 33.86C25.82 33.86 26.179 33.54 26.219 33.11V26.2C26.25 25.889 26.099 25.58 25.83 25.41ZM35.089 29.04C34.82 28.87 34.48 28.87 34.2 29.04C33.929 29.21 33.78 29.509 33.82 29.83V33.11C33.86 33.54 34.219 33.86 34.65 33.86C35.07 33.86 35.429 33.54 35.48 33.11V29.83C35.509 29.509 35.36 29.21 35.089 29.04Z" fill="#3D7100"/>
</g>
<defs>
<filter id="filter0_d_384_607" x="0.586379" y="0.109435" width="59.4122" height="59.4123" filterUnits="userSpaceOnUse" color-interpolation-filters="sRGB">
<feFlood flood-opacity="0" result="BackgroundImageFix"/>
<feColorMatrix in="SourceAlpha" type="matrix" values="0 0 0 0 0 0 0 0 0 0 0 0 0 0 0 0 0 0 127 0" result="hardAlpha"/>
<feOffset dy="1.77061"/>
<feGaussianBlur stdDeviation="4.42654"/>
<feComposite in2="hardAlpha" operator="out"/>
<feColorMatrix type="matrix" values="0 0 0 0 0.486275 0 0 0 0 0.552941 0 0 0 0 0.709804 0 0 0 0.12 0"/>
<feBlend mode="normal" in2="BackgroundImageFix" result="effect1_dropShadow_384_607"/>
<feBlend mode="normal" in="SourceGraphic" in2="effect1_dropShadow_384_607" result="shape"/>
</filter>
</defs>
</svg>
