<svg width="80" height="33" viewBox="0 0 80 33" fill="none" xmlns="http://www.w3.org/2000/svg">
<path d="M3.52273 0.454545V15H1.76136V0.454545H3.52273ZM8.5032 8.4375V15H6.82706V4.09091H8.44638V5.79545H8.58842C8.84411 5.24148 9.23236 4.7964 9.7532 4.46023C10.274 4.11932 10.9464 3.94886 11.7702 3.94886C12.5089 3.94886 13.1552 4.10038 13.7092 4.40341C14.2631 4.7017 14.694 5.15625 15.0018 5.76705C15.3095 6.37311 15.4634 7.14015 15.4634 8.06818V15H13.7873V8.18182C13.7873 7.32481 13.5647 6.6572 13.1197 6.17898C12.6746 5.69602 12.0638 5.45455 11.2873 5.45455C10.7522 5.45455 10.274 5.57055 9.85263 5.80256C9.43596 6.03456 9.10689 6.37311 8.86541 6.81818C8.62393 7.26326 8.5032 7.80303 8.5032 8.4375ZM21.7365 15.2557C21.0452 15.2557 20.4179 15.1255 19.8544 14.8651C19.291 14.5999 18.8435 14.2188 18.5121 13.7216C18.1806 13.2197 18.0149 12.6136 18.0149 11.9034C18.0149 11.2784 18.138 10.7718 18.3842 10.3835C18.6304 9.99053 18.9595 9.68276 19.3714 9.46023C19.7834 9.23769 20.2379 9.07197 20.7351 8.96307C21.237 8.84943 21.7412 8.75947 22.2479 8.69318C22.9107 8.60795 23.4482 8.54403 23.8601 8.50142C24.2768 8.45407 24.5798 8.37595 24.7692 8.26705C24.9633 8.15814 25.0604 7.96875 25.0604 7.69886V7.64205C25.0604 6.94129 24.8686 6.39678 24.4851 6.00852C24.1063 5.62027 23.531 5.42614 22.7592 5.42614C21.959 5.42614 21.3317 5.60133 20.8771 5.9517C20.4226 6.30208 20.103 6.67614 19.9183 7.07386L18.3274 6.50568C18.6115 5.8428 18.9903 5.3267 19.4638 4.95739C19.942 4.58333 20.4628 4.32292 21.0263 4.17614C21.5945 4.02462 22.1532 3.94886 22.7024 3.94886C23.0528 3.94886 23.4553 3.99148 23.9098 4.0767C24.3691 4.1572 24.8118 4.32528 25.2379 4.58097C25.6688 4.83665 26.0263 5.22254 26.3104 5.73864C26.5945 6.25473 26.7365 6.94602 26.7365 7.8125V15H25.0604V13.5227H24.9751C24.8615 13.7595 24.6721 14.0128 24.407 14.2827C24.1418 14.5526 23.7891 14.7822 23.3487 14.9716C22.9084 15.161 22.371 15.2557 21.7365 15.2557ZM21.9922 13.75C22.6551 13.75 23.2138 13.6198 23.6683 13.3594C24.1276 13.099 24.4732 12.7628 24.7053 12.3509C24.942 11.9389 25.0604 11.5057 25.0604 11.0511V9.51705C24.9893 9.60227 24.8331 9.6804 24.5916 9.75142C24.3549 9.81771 24.0803 9.87689 23.7678 9.92898C23.46 9.97633 23.1593 10.0189 22.8658 10.0568C22.5769 10.09 22.3426 10.1184 22.1626 10.142C21.727 10.1989 21.3198 10.2912 20.9411 10.419C20.567 10.5421 20.264 10.7292 20.032 10.9801C19.8047 11.2263 19.6911 11.5625 19.6911 11.9886C19.6911 12.571 19.9065 13.0114 20.3374 13.3097C20.773 13.6032 21.3246 13.75 21.9922 13.75ZM34.2276 15.2273C33.2049 15.2273 32.3242 14.9858 31.5856 14.5028C30.8469 14.0199 30.2788 13.3546 29.881 12.5071C29.4833 11.6596 29.2844 10.6913 29.2844 9.60227C29.2844 8.49432 29.488 7.51657 29.8952 6.66903C30.3072 5.81676 30.8801 5.15152 31.614 4.6733C32.3526 4.19034 33.2144 3.94886 34.1992 3.94886C34.9663 3.94886 35.6576 4.09091 36.2731 4.375C36.8886 4.65909 37.3929 5.05682 37.7859 5.56818C38.1789 6.07955 38.4227 6.67614 38.5174 7.35795H36.8413C36.7134 6.8608 36.4293 6.42045 35.989 6.03693C35.5534 5.64867 34.9663 5.45455 34.2276 5.45455C33.5742 5.45455 33.0013 5.625 32.5089 5.96591C32.0212 6.30208 31.64 6.77794 31.3654 7.39347C31.0955 8.00426 30.9606 8.72159 30.9606 9.54545C30.9606 10.3883 31.0932 11.1222 31.3583 11.7472C31.6282 12.3722 32.007 12.8575 32.4947 13.2031C32.9871 13.5488 33.5647 13.7216 34.2276 13.7216C34.6632 13.7216 35.0586 13.6458 35.4137 13.4943C35.7688 13.3428 36.0695 13.125 36.3157 12.8409C36.5619 12.5568 36.7371 12.2159 36.8413 11.8182H38.5174C38.4227 12.4621 38.1883 13.0421 37.8143 13.5582C37.445 14.0696 36.9549 14.4768 36.3441 14.7798C35.738 15.0781 35.0326 15.2273 34.2276 15.2273ZM45.712 4.09091V5.51136H40.0586V4.09091H45.712ZM41.7063 1.47727H43.3825V11.875C43.3825 12.3485 43.4511 12.7036 43.5884 12.9403C43.7305 13.1723 43.9104 13.3286 44.1282 13.4091C44.3507 13.4848 44.5851 13.5227 44.8313 13.5227C45.016 13.5227 45.1675 13.5133 45.2859 13.4943C45.4042 13.4706 45.4989 13.4517 45.57 13.4375L45.9109 14.9432C45.7972 14.9858 45.6386 15.0284 45.435 15.071C45.2314 15.1184 44.9734 15.142 44.6609 15.142C44.1874 15.142 43.7234 15.0402 43.2688 14.8366C42.819 14.633 42.445 14.3229 42.1467 13.9062C41.8531 13.4896 41.7063 12.964 41.7063 12.3295V1.47727ZM48.2333 15V4.09091H49.9094V15H48.2333ZM49.0856 2.27273C48.7589 2.27273 48.4772 2.16146 48.2404 1.93892C48.0084 1.71638 47.8924 1.44886 47.8924 1.13636C47.8924 0.823864 48.0084 0.556345 48.2404 0.333806C48.4772 0.111269 48.7589 0 49.0856 0C49.4123 0 49.6916 0.111269 49.9237 0.333806C50.1604 0.556345 50.2788 0.823864 50.2788 1.13636C50.2788 1.44886 50.1604 1.71638 49.9237 1.93892C49.6916 2.16146 49.4123 2.27273 49.0856 2.27273ZM61.8999 4.09091L57.8658 15H56.1612L52.1271 4.09091H53.9453L56.9567 12.7841H57.0703L60.0817 4.09091H61.8999ZM68.2955 15.2273C67.2443 15.2273 66.3376 14.9953 65.5753 14.5312C64.8177 14.0625 64.233 13.4091 63.821 12.571C63.4138 11.7282 63.2102 10.7481 63.2102 9.63068C63.2102 8.51326 63.4138 7.52841 63.821 6.67614C64.233 5.81913 64.8059 5.15152 65.5398 4.6733C66.2784 4.19034 67.1402 3.94886 68.125 3.94886C68.6932 3.94886 69.2543 4.04356 69.8082 4.23295C70.3622 4.42235 70.8665 4.73011 71.321 5.15625C71.7756 5.57765 72.1378 6.13636 72.4077 6.83239C72.6776 7.52841 72.8125 8.38542 72.8125 9.40341V10.1136H64.4034V8.66477H71.108C71.108 8.04924 70.9848 7.5 70.7386 7.01705C70.4972 6.53409 70.1515 6.15294 69.7017 5.87358C69.2566 5.59422 68.7311 5.45455 68.125 5.45455C67.4574 5.45455 66.8797 5.62026 66.392 5.9517C65.9091 6.27841 65.5374 6.70455 65.277 7.23011C65.0166 7.75568 64.8864 8.31913 64.8864 8.92045V9.88636C64.8864 10.7102 65.0284 11.4086 65.3125 11.9815C65.6013 12.5497 66.0014 12.983 66.5128 13.2812C67.0241 13.5748 67.6184 13.7216 68.2955 13.7216C68.7358 13.7216 69.1335 13.66 69.4886 13.5369C69.8485 13.4091 70.1586 13.2197 70.419 12.9688C70.6795 12.7131 70.8807 12.3958 71.0227 12.017L72.642 12.4716C72.4716 13.0208 72.1851 13.5038 71.7827 13.9205C71.3802 14.3324 70.883 14.6544 70.2912 14.8864C69.6993 15.1136 69.0341 15.2273 68.2955 15.2273Z" fill="#4D4D4D"/>
<path d="M0 31C0 28.2386 2.23858 26 5 26H75C77.7614 26 80 28.2386 80 31V33H0V31Z" fill="#979797"/>
</svg>
