<svg width="216" height="51" viewBox="0 0 216 51" fill="none" xmlns="http://www.w3.org/2000/svg">
<path d="M48.1279 15.0967H53.8285V25.493L60.8559 15.0967H67.4494L61.0476 24.5063L67.9943 36.4336H61.6984L57.0875 28.2803L53.8336 31.9475V36.4336H48.133V15.0967H48.1279Z" fill="white"/>
<path d="M78.2099 19.6897C71.3995 19.6897 69.6943 21.3529 69.6943 28.0617C69.6943 34.7705 71.3995 36.4388 78.2099 36.4388C85.0204 36.4388 86.7305 34.7705 86.7305 28.0617C86.7305 21.3529 85.0254 19.6897 78.2099 19.6897ZM82.3214 29.5825C82.0894 30.142 81.7564 30.6506 81.3326 31.0778C80.9089 31.5051 80.4044 31.8408 79.8495 32.0748C79.2945 32.3036 78.7043 32.4206 78.104 32.4206H74.0177C73.9673 32.4206 73.9118 32.4054 73.8664 32.3748C73.826 32.3443 73.7907 32.2986 73.7705 32.2477C73.7554 32.1968 73.7554 32.1409 73.7655 32.0849C73.7806 32.0341 73.8159 31.9883 73.8563 31.9527L74.8854 31.1185C74.9308 31.0829 74.9611 31.0372 74.9762 30.9812C74.9914 30.9253 74.9863 30.8693 74.9661 30.8134L74.4768 29.6079C73.3367 26.7901 75.3949 23.7078 78.4168 23.7078H78.5832C80.8383 23.7078 82.6695 25.5491 82.6695 27.8226C82.6695 28.4279 82.5484 29.0281 82.3214 29.5825Z" fill="#3D7100"/>
<path d="M94.0562 19.6897V21.9124C94.601 20.3814 95.8471 19.6948 97.8801 19.6948C101.598 19.6948 103.061 20.4323 103.495 23.0619C103.984 20.7375 105.367 19.6948 107.919 19.6948C112.883 19.6948 114.134 21.1444 114.134 26.9173V36.4388H108.979V27.6039C108.979 24.4301 108.736 24.0741 106.592 24.0741C104.802 24.0741 104.04 25.0862 104.07 27.4106V36.4388H98.9698V27.6039C98.9698 24.4301 98.7276 24.0741 96.5533 24.0741C94.8179 24.0741 94.0562 25.0862 94.0562 27.4106V36.4388H88.9004V19.6897H94.0562Z" fill="white"/>
<path d="M121.459 19.6897V21.9124C122.004 20.3814 123.25 19.6948 125.283 19.6948C129.001 19.6948 130.464 20.4323 130.898 23.0619C131.388 20.7375 132.77 19.6948 135.323 19.6948C140.287 19.6948 141.538 21.1444 141.538 26.9173V36.4388H136.382V27.6039C136.382 24.4301 136.14 24.0741 133.996 24.0741C132.205 24.0741 131.443 25.0862 131.473 27.4106V36.4388H126.373V27.6039C126.373 24.4301 126.131 24.0741 123.957 24.0741C122.221 24.0741 121.459 25.0862 121.459 27.4106V36.4388H116.304V19.6897H121.459Z" fill="white"/>
<path d="M153.72 36.4336V33.5294C153.231 35.5283 151.768 36.4286 149.079 36.4286C144.791 36.4286 143.731 35.1977 143.731 30.2996L143.706 19.6846H148.862V29.0687C148.862 31.7492 149.104 32.0493 151.278 32.0493C152.958 32.0493 153.695 31.1999 153.695 29.1755L153.72 19.6846H158.876V36.4286H153.72V36.4336Z" fill="white"/>
<path d="M166.201 19.6897V22.594C166.716 20.5951 168.265 19.6948 171.115 19.6948C175.403 19.6948 176.463 20.9257 176.463 25.8237L176.488 36.4388H171.332V27.136C171.332 24.3741 171.115 24.0741 169.052 24.0741C166.988 24.0741 166.232 25.0048 166.232 27.136L166.207 36.4388H161.051V19.6897H166.207H166.201Z" fill="white"/>
<path d="M180.417 14.5474H182.047C183.096 14.5474 183.949 15.4069 183.949 16.4649V18.3824H180.422C179.373 18.3824 178.521 17.5228 178.521 16.4649C178.521 15.4069 179.373 14.5474 180.422 14.5474H180.417ZM183.807 19.6845V36.4336H178.652V19.6845H183.807Z" fill="white"/>
<path d="M197.379 36.4339H194.125C188.913 36.4339 187.612 35.3404 187.612 30.9051V24.0641H185.982V19.6848H187.884V16.511H192.768V19.6848H197.379V24.0641H192.768V29.5624C192.768 31.5613 192.959 31.78 194.639 31.78H197.379V36.4288V36.4339Z" fill="white"/>
<path d="M215.529 25.3812V36.4337H210.373V34.1906C209.828 35.9403 208.491 36.4337 205.913 36.4337C200.823 36.4337 199.547 35.9149 199.547 31.6984C199.547 27.7057 200.793 26.6935 205.762 26.6935L210.373 26.6681V25.7373C210.373 23.7384 210.131 23.5197 207.931 23.5197C205.464 23.5197 205.192 23.7384 205.247 25.6559H200.092V25.0811C200.092 20.7578 201.666 19.6897 207.987 19.6897C214.308 19.6897 215.529 20.8392 215.529 25.3812ZM207.931 33.0412C209.641 33.0157 210.373 32.4664 210.373 31.2101V30.498L207.931 30.5234C205.273 30.5234 204.975 30.6303 204.975 31.7543C204.975 32.9598 205.273 33.092 207.931 33.0412Z" fill="white"/>
<path d="M33.351 31.8052C31.2473 31.8052 29.3051 32.5071 27.7412 33.6922L23.6903 29.9335C23.9627 28.9264 24.1039 27.8634 24.1039 26.7698C24.1039 24.2979 23.3674 21.9938 22.1062 20.0763L26.5204 14.4763C27.6353 15.1375 28.9318 15.5139 30.314 15.5139C34.476 15.5139 37.8661 12.101 37.8661 7.89979C37.8661 3.69853 34.481 0.285645 30.314 0.285645C26.1471 0.285645 22.762 3.69853 22.762 7.89979C22.762 9.54774 23.2867 11.0787 24.1796 12.3299L19.9924 17.6349C17.8686 15.7581 15.0889 14.6187 12.052 14.6187C5.40295 14.6187 0 20.0712 0 26.7698C0 33.4684 5.408 38.9209 12.052 38.9209C15.437 38.9209 18.5042 37.5069 20.6937 35.2334L24.3562 38.631C24.109 39.4652 23.9829 40.3451 23.9829 41.2555C23.9829 46.4639 28.1852 50.7058 33.356 50.7058C38.5269 50.7058 42.7292 46.4689 42.7292 41.2555C42.7292 36.0421 38.5269 31.8052 33.356 31.8052H33.351ZM30.314 4.45129C32.1957 4.45129 33.7294 5.99752 33.7294 7.89979C33.7294 9.80205 32.1957 11.3432 30.314 11.3432C29.9054 11.3432 29.5119 11.272 29.1487 11.1397C28.8662 11.038 28.6039 10.8956 28.3617 10.7277C27.4738 10.1072 26.8937 9.06963 26.8937 7.90487C26.8937 6.00261 28.4273 4.45638 30.314 4.45638V4.45129ZM17.6466 32.4105C16.2139 33.855 14.2364 34.7502 12.0469 34.7502C7.67815 34.7502 4.12663 31.1695 4.12663 26.7647C4.12663 22.36 7.67815 18.7793 12.0469 18.7793C14.1153 18.7793 16.002 19.5829 17.4146 20.8952C18.2268 21.648 18.8775 22.5686 19.3215 23.6011C19.7049 24.4861 19.9269 25.4525 19.9622 26.4647C19.9622 26.5664 19.9672 26.663 19.9672 26.7647C19.9672 28.9671 19.0793 30.9609 17.6466 32.4105ZM38.1587 43.346C37.7248 44.3581 36.9832 45.2076 36.05 45.7721C35.263 46.2553 34.3398 46.53 33.351 46.53C30.7832 46.53 28.6442 44.6582 28.2003 42.1965C28.1448 41.8862 28.1145 41.5709 28.1145 41.2454C28.1145 39.2363 29.2345 37.4815 30.8791 36.5914C31.6156 36.1896 32.4581 35.9607 33.351 35.9607C36.2366 35.9607 38.5875 38.3309 38.5875 41.2403C38.5875 41.9829 38.4361 42.6949 38.1536 43.3358L38.1587 43.346Z" fill="url(#paint0_linear_5919_77846)"/>
<path d="M12.8592 25.4473C12.8592 27.136 11.5072 28.4991 9.83237 28.4991C9.29762 28.4991 8.79819 28.3567 8.35929 28.1125C7.4361 27.5937 6.81055 26.5968 6.81055 25.4473C6.81055 23.7638 8.16255 22.4006 9.83237 22.4006C10.7858 22.4006 11.6384 22.8431 12.1933 23.54C12.612 24.0638 12.8592 24.7251 12.8592 25.4473Z" fill="#3D7100"/>
<path d="M18.7521 27.3449C18.7521 30.8544 15.927 33.7027 12.4461 33.7027C11.2404 33.7027 10.1154 33.3619 9.15187 32.7668C8.56163 31.8004 8.22363 30.6611 8.22363 29.4455C8.22363 29.3539 8.22363 29.2675 8.23372 29.181C8.72306 29.3997 9.26285 29.5167 9.83291 29.5167C12.0577 29.5167 13.8687 27.6907 13.8687 25.4477C13.8687 24.6237 13.6266 23.8658 13.2079 23.225C13.6316 23.1334 14.0756 23.0876 14.5246 23.0876C15.7303 23.0876 16.8603 23.4284 17.8188 24.0235C18.4141 24.995 18.7521 26.1242 18.7521 27.3449Z" fill="#FB9B05"/>
<path d="M34.6019 41.6469C33.5173 41.6469 32.6445 40.767 32.6445 39.6735C32.6445 39.3225 32.7353 38.997 32.8917 38.7122C33.2247 38.112 33.8654 37.7051 34.6019 37.7051C35.6815 37.7051 36.5542 38.585 36.5542 39.6735C36.5542 40.294 36.2717 40.8484 35.8227 41.2146C35.4847 41.4893 35.061 41.6469 34.6019 41.6469Z" fill="#3D7100"/>
<path d="M33.3857 45.4874C31.1358 45.4874 29.3096 43.6461 29.3096 41.3776C29.3096 40.5944 29.5265 39.8569 29.9099 39.2312C30.5304 38.8447 31.2619 38.626 32.0388 38.626C32.0993 38.626 32.1548 38.626 32.2103 38.6311C32.0691 38.9515 31.9934 39.3024 31.9934 39.6737C31.9934 41.1233 33.1638 42.3034 34.6015 42.3034C35.1312 42.3034 35.6155 42.1457 36.0292 41.871C36.0897 42.1457 36.115 42.4356 36.115 42.7306C36.115 43.5139 35.898 44.2514 35.5146 44.877C34.8941 45.2636 34.1677 45.4874 33.3857 45.4874Z" fill="#EB1013"/>
<path d="M30.9347 8.19979C30.2587 8.19979 29.7139 7.65047 29.7139 6.96891C29.7139 6.7502 29.7694 6.54675 29.8703 6.36873C30.0771 5.99235 30.4756 5.73804 30.9347 5.73804C31.6057 5.73804 32.1505 6.28735 32.1505 6.96382C32.1505 7.35038 31.9739 7.69624 31.6965 7.92513C31.4846 8.09297 31.2223 8.1947 30.9347 8.1947V8.19979Z" fill="#3D7100"/>
<path d="M30.1783 10.5954C28.7759 10.5954 27.6357 9.44592 27.6357 8.03194C27.6357 7.54366 27.772 7.08589 28.0091 6.69425C28.3975 6.4552 28.8515 6.31787 29.3358 6.31787C29.3711 6.31787 29.4065 6.31787 29.4418 6.31787C29.356 6.51624 29.3056 6.73494 29.3056 6.96891C29.3056 7.87427 30.0371 8.60669 30.93 8.60669C31.2579 8.60669 31.5606 8.51005 31.8179 8.33711C31.8532 8.51005 31.8734 8.68807 31.8734 8.87117C31.8734 9.35945 31.7371 9.82231 31.5 10.2089C31.1116 10.453 30.6626 10.5903 30.1733 10.5903L30.1783 10.5954Z" fill="#0A8CF4"/>
<defs>
<linearGradient id="paint0_linear_5919_77846" x1="-2.14596" y1="27.2254" x2="46.0072" y2="25.4756" gradientUnits="userSpaceOnUse">
<stop offset="0.388782" stop-color="#3D7100"/>
<stop offset="0.885" stop-color="#74D700"/>
</linearGradient>
</defs>
</svg>
