<svg width="170" height="39" viewBox="0 0 170 39" fill="none" xmlns="http://www.w3.org/2000/svg">
<path d="M44.7888 17.6113C50.9625 17.6113 52.5127 18.9409 52.5127 24.304C52.5127 29.667 50.9625 30.9966 44.7888 30.9966C38.6152 30.9966 37.0649 29.667 37.0649 24.304C37.0649 18.9409 38.6152 17.6113 44.7888 17.6113ZM41.9856 24.4382C41.9856 27.63 42.2554 27.9797 44.7888 27.9797C47.3223 27.9797 47.5921 27.63 47.5921 24.4382C47.5921 21.2463 47.3223 20.8967 44.7888 20.8967C42.2554 20.8967 41.9856 21.2463 41.9856 24.4382Z" fill="black"/>
<path d="M59.1527 17.6113V19.3882C59.6466 18.1643 60.7761 17.6154 62.619 17.6154C65.9894 17.6154 67.3156 18.205 67.7089 20.3071C68.1525 18.4489 69.4055 17.6154 71.7194 17.6154C76.2193 17.6154 77.3534 18.7742 77.3534 23.3891V31.0007H72.6798V23.938C72.6798 21.4008 72.4603 21.1162 70.5167 21.1162C68.8933 21.1162 68.2027 21.9254 68.2302 23.7835V31.0007H63.6068V23.938C63.6068 21.4008 63.3873 21.1162 61.4163 21.1162C59.8432 21.1162 59.1527 21.9254 59.1527 23.7835V31.0007H54.479V17.6113H59.1527Z" fill="black"/>
<path d="M83.994 17.6113V19.3882C84.4879 18.1643 85.6174 17.6154 87.4604 17.6154C90.8307 17.6154 92.1569 18.205 92.5502 20.3071C92.9938 18.4489 94.2468 17.6154 96.5607 17.6154C101.061 17.6154 102.195 18.7742 102.195 23.3891V31.0007H97.5211V23.938C97.5211 21.4008 97.3016 21.1162 95.358 21.1162C93.7346 21.1162 93.0441 21.9254 93.0715 23.7835V31.0007H88.4481V23.938C88.4481 21.4008 88.2286 21.1162 86.2576 21.1162C84.6845 21.1162 83.994 21.9254 83.994 23.7835V31.0007H79.3203V17.6113H83.994Z" fill="black"/>
<path d="M113.238 31.0007V28.679C112.795 30.277 111.468 30.9966 109.031 30.9966C105.144 30.9966 104.184 30.0127 104.184 26.0971L104.161 17.6113H108.834V25.1131C108.834 27.2559 109.054 27.4958 111.025 27.4958C112.548 27.4958 113.215 26.8168 113.215 25.1985L113.238 17.6113H117.912V30.9966H113.238V31.0007Z" fill="black"/>
<path d="M124.552 17.6113V19.933C125.018 18.3351 126.422 17.6154 129.006 17.6154C132.893 17.6154 133.853 18.5994 133.853 22.5149L133.876 31.0007H129.203V23.564C129.203 21.3561 129.006 21.1162 127.136 21.1162C125.265 21.1162 124.579 21.8603 124.579 23.564L124.556 31.0007H119.883V17.6113H124.556H124.552Z" fill="black"/>
<path d="M137.439 13.5046H138.916C139.867 13.5046 140.64 14.1918 140.64 15.0375V16.5704H137.444C136.493 16.5704 135.72 15.8833 135.72 15.0375C135.72 14.1918 136.493 13.5046 137.444 13.5046H137.439ZM140.512 17.6113V31.0007H135.839V17.6113H140.512Z" fill="black"/>
<path d="M152.809 31.0007H149.859C145.135 31.0007 143.956 30.1265 143.956 26.5809V21.1121H142.479V17.6113H144.203V15.0741H148.629V17.6113H152.809V21.1121H148.629V25.5075C148.629 27.1054 148.803 27.2803 150.326 27.2803H152.809V30.9966V31.0007Z" fill="black"/>
<path d="M169.268 22.1652V31.0007H164.594V29.2075C164.1 30.6063 162.888 31.0007 160.551 31.0007C155.937 31.0007 154.78 30.5859 154.78 27.2152C154.78 24.0234 155.91 23.2143 160.414 23.2143L164.594 23.1939V22.4498C164.594 20.8519 164.375 20.6771 162.381 20.6771C160.144 20.6771 159.898 20.8519 159.948 22.3848H155.274V21.9253C155.274 18.4692 156.701 17.6154 162.431 17.6154C168.161 17.6154 169.268 18.5343 169.268 22.1652ZM162.381 28.2886C163.931 28.2683 164.594 27.8292 164.594 26.8249V26.2556L162.381 26.276C159.971 26.276 159.701 26.3613 159.701 27.2599C159.701 28.2236 159.971 28.3293 162.381 28.2886Z" fill="black"/>
<path d="M11.0448 8.31641C13.6134 8.31641 15.6957 6.46504 15.6957 4.18127C15.6957 1.8975 13.6134 0.0461426 11.0448 0.0461426C8.47628 0.0461426 6.39404 1.8975 6.39404 4.18127C6.39404 6.46504 8.47628 8.31641 11.0448 8.31641Z" fill="#34F5C6"/>
<path d="M8.20025 14.7001C9.95557 14.7001 11.3785 13.4349 11.3785 11.8742C11.3785 10.3135 9.95557 9.04834 8.20025 9.04834C6.44494 9.04834 5.02197 10.3135 5.02197 11.8742C5.02197 13.4349 6.44494 14.7001 8.20025 14.7001Z" fill="#3C16B6"/>
<path d="M18.0737 12.9761C19.6901 12.9761 21.0005 11.811 21.0005 10.3739C21.0005 8.93667 19.6901 7.77161 18.0737 7.77161C16.4573 7.77161 15.147 8.93667 15.147 10.3739C15.147 11.811 16.4573 12.9761 18.0737 12.9761Z" fill="url(#paint0_linear_3301_9024)"/>
<g style="mix-blend-mode:hard-light">
<path d="M10.9034 16.363H11.3241V38.5757H0.783203V25.3571C0.783203 20.3925 5.31511 16.363 10.8988 16.363H10.9034Z" fill="#FFC903"/>
</g>
<path d="M35.8129 38.1365C35.8129 38.2829 35.813 38.4293 35.8084 38.5757H26.2461C26.2507 38.4293 26.2553 38.2829 26.2553 38.1365C26.2553 30.8055 19.5694 24.861 11.3242 24.861V16.363C24.8513 16.363 35.8129 26.1133 35.8129 38.1365Z" fill="#34F5C6"/>
<path d="M35.8129 6.48258C35.8129 6.3362 35.813 6.18983 35.8084 6.04346H26.2461C26.2461 6.04346 26.2553 6.3362 26.2553 6.48258C26.2553 13.8136 19.5694 19.7581 11.3242 19.7581V28.2561C24.8513 28.2561 35.8129 18.5058 35.8129 6.48258Z" fill="#3C16B6"/>
<defs>
<linearGradient id="paint0_linear_3301_9024" x1="14.6243" y1="11.8114" x2="26.3825" y2="5.78019" gradientUnits="userSpaceOnUse">
<stop stop-color="#FCB23F"/>
<stop offset="1" stop-color="#F25C2C"/>
</linearGradient>
</defs>
</svg>
