<svg width="136" height="136" viewBox="0 0 136 136" fill="none" xmlns="http://www.w3.org/2000/svg">
<rect x="38" y="38" width="60" height="60" rx="7" fill="#333333"/>
<g filter="url(#filter0_f_6068_106840)">
<path d="M62.1663 79.6673H61.333C54.6663 79.6673 51.333 78.0007 51.333 69.6673V61.334C51.333 54.6673 54.6663 51.334 61.333 51.334H74.6663C81.333 51.334 84.6663 54.6673 84.6663 61.334V69.6673C84.6663 76.334 81.333 79.6673 74.6663 79.6673H73.833C73.3163 79.6673 72.8163 79.9173 72.4997 80.334L69.9997 83.6673C68.8997 85.134 67.0997 85.134 65.9997 83.6673L63.4997 80.334C63.233 79.9673 62.6163 79.6673 62.1663 79.6673Z" stroke="#0BFB07" stroke-width="1.5" stroke-miterlimit="10" stroke-linecap="round" stroke-linejoin="round"/>
<path d="M59.667 61.3335H76.3337" stroke="#0BFB07" stroke-width="1.5" stroke-linecap="round" stroke-linejoin="round"/>
<path d="M59.667 69.6665H69.667" stroke="#0BFB07" stroke-width="1.5" stroke-linecap="round" stroke-linejoin="round"/>
</g>
<g filter="url(#filter1_f_6068_106840)">
<path d="M62.1663 79.6673H61.333C54.6663 79.6673 51.333 78.0007 51.333 69.6673V61.334C51.333 54.6673 54.6663 51.334 61.333 51.334H74.6663C81.333 51.334 84.6663 54.6673 84.6663 61.334V69.6673C84.6663 76.334 81.333 79.6673 74.6663 79.6673H73.833C73.3163 79.6673 72.8163 79.9173 72.4997 80.334L69.9997 83.6673C68.8997 85.134 67.0997 85.134 65.9997 83.6673L63.4997 80.334C63.233 79.9673 62.6163 79.6673 62.1663 79.6673Z" stroke="#0BFB07" stroke-width="1.5" stroke-miterlimit="10" stroke-linecap="round" stroke-linejoin="round"/>
<path d="M59.667 61.3335H76.3337" stroke="#0BFB07" stroke-width="1.5" stroke-linecap="round" stroke-linejoin="round"/>
<path d="M59.667 69.6665H69.667" stroke="#0BFB07" stroke-width="1.5" stroke-linecap="round" stroke-linejoin="round"/>
</g>
<g filter="url(#filter2_f_6068_106840)">
<path d="M62.1663 79.6673H61.333C54.6663 79.6673 51.333 78.0007 51.333 69.6673V61.334C51.333 54.6673 54.6663 51.334 61.333 51.334H74.6663C81.333 51.334 84.6663 54.6673 84.6663 61.334V69.6673C84.6663 76.334 81.333 79.6673 74.6663 79.6673H73.833C73.3163 79.6673 72.8163 79.9173 72.4997 80.334L69.9997 83.6673C68.8997 85.134 67.0997 85.134 65.9997 83.6673L63.4997 80.334C63.233 79.9673 62.6163 79.6673 62.1663 79.6673Z" stroke="#0BFB07" stroke-width="1.5" stroke-miterlimit="10" stroke-linecap="round" stroke-linejoin="round"/>
<path d="M59.667 61.3335H76.3337" stroke="#0BFB07" stroke-width="1.5" stroke-linecap="round" stroke-linejoin="round"/>
<path d="M59.667 69.6665H69.667" stroke="#0BFB07" stroke-width="1.5" stroke-linecap="round" stroke-linejoin="round"/>
</g>
<g filter="url(#filter3_f_6068_106840)">
<path d="M62.1663 79.6673H61.333C54.6663 79.6673 51.333 78.0007 51.333 69.6673V61.334C51.333 54.6673 54.6663 51.334 61.333 51.334H74.6663C81.333 51.334 84.6663 54.6673 84.6663 61.334V69.6673C84.6663 76.334 81.333 79.6673 74.6663 79.6673H73.833C73.3163 79.6673 72.8163 79.9173 72.4997 80.334L69.9997 83.6673C68.8997 85.134 67.0997 85.134 65.9997 83.6673L63.4997 80.334C63.233 79.9673 62.6163 79.6673 62.1663 79.6673Z" stroke="#0BFB07" stroke-width="1.5" stroke-miterlimit="10" stroke-linecap="round" stroke-linejoin="round"/>
<path d="M59.667 61.3335H76.3337" stroke="#0BFB07" stroke-width="1.5" stroke-linecap="round" stroke-linejoin="round"/>
<path d="M59.667 69.6665H69.667" stroke="#0BFB07" stroke-width="1.5" stroke-linecap="round" stroke-linejoin="round"/>
</g>
<path d="M62.1663 79.6673H61.333C54.6663 79.6673 51.333 78.0007 51.333 69.6673V61.334C51.333 54.6673 54.6663 51.334 61.333 51.334H74.6663C81.333 51.334 84.6663 54.6673 84.6663 61.334V69.6673C84.6663 76.334 81.333 79.6673 74.6663 79.6673H73.833C73.3163 79.6673 72.8163 79.9173 72.4997 80.334L69.9997 83.6673C68.8997 85.134 67.0997 85.134 65.9997 83.6673L63.4997 80.334C63.233 79.9673 62.6163 79.6673 62.1663 79.6673Z" stroke="#5DFF5A" stroke-width="2" stroke-miterlimit="10" stroke-linecap="round" stroke-linejoin="round"/>
<path d="M59.667 61.3335H76.3337" stroke="#5DFF5A" stroke-width="2" stroke-linecap="round" stroke-linejoin="round"/>
<path d="M59.667 69.6665H69.667" stroke="#5DFF5A" stroke-width="2" stroke-linecap="round" stroke-linejoin="round"/>
<defs>
<filter id="filter0_f_6068_106840" x="0.583008" y="0.583984" width="134.833" height="134.933" filterUnits="userSpaceOnUse" color-interpolation-filters="sRGB">
<feFlood flood-opacity="0" result="BackgroundImageFix"/>
<feBlend mode="normal" in="SourceGraphic" in2="BackgroundImageFix" result="shape"/>
<feGaussianBlur stdDeviation="25" result="effect1_foregroundBlur_6068_106840"/>
</filter>
<filter id="filter1_f_6068_106840" x="25.583" y="25.584" width="84.833" height="84.9331" filterUnits="userSpaceOnUse" color-interpolation-filters="sRGB">
<feFlood flood-opacity="0" result="BackgroundImageFix"/>
<feBlend mode="normal" in="SourceGraphic" in2="BackgroundImageFix" result="shape"/>
<feGaussianBlur stdDeviation="12.5" result="effect1_foregroundBlur_6068_106840"/>
</filter>
<filter id="filter2_f_6068_106840" x="35.583" y="35.584" width="64.833" height="64.9331" filterUnits="userSpaceOnUse" color-interpolation-filters="sRGB">
<feFlood flood-opacity="0" result="BackgroundImageFix"/>
<feBlend mode="normal" in="SourceGraphic" in2="BackgroundImageFix" result="shape"/>
<feGaussianBlur stdDeviation="7.5" result="effect1_foregroundBlur_6068_106840"/>
</filter>
<filter id="filter3_f_6068_106840" x="35.583" y="35.584" width="64.833" height="64.9331" filterUnits="userSpaceOnUse" color-interpolation-filters="sRGB">
<feFlood flood-opacity="0" result="BackgroundImageFix"/>
<feBlend mode="normal" in="SourceGraphic" in2="BackgroundImageFix" result="shape"/>
<feGaussianBlur stdDeviation="7.5" result="effect1_foregroundBlur_6068_106840"/>
</filter>
</defs>
</svg>
