<svg width="40" height="40" viewBox="0 0 40 40" fill="none" xmlns="http://www.w3.org/2000/svg">
<path d="M29.9673 17.9833V24.65C29.9673 25.0833 29.9507 25.5 29.9007 25.9C29.5173 30.4 26.8673 32.6333 21.984 32.6333H21.3173C20.9007 32.6333 20.5006 32.8333 20.2506 33.1667L18.2507 35.8333C17.3673 37.0167 15.934 37.0167 15.0506 35.8333L13.0506 33.1667C12.834 32.8833 12.3507 32.6333 11.984 32.6333H11.3173C6.00067 32.6333 3.33398 31.3167 3.33398 24.65V17.9833C3.33398 13.1 5.584 10.45 10.0673 10.0667C10.4673 10.0167 10.884 10 11.3173 10H21.984C27.3007 10 29.9673 12.6667 29.9673 17.9833Z" stroke="#5DFF5A" stroke-width="1.5" stroke-miterlimit="10" stroke-linecap="round" stroke-linejoin="round"/>
<path d="M36.6331 11.3168V17.9835C36.6331 22.8835 34.3831 25.5168 29.8997 25.9002C29.9497 25.5002 29.9664 25.0835 29.9664 24.6502V17.9835C29.9664 12.6668 27.2997 10.0002 21.9831 10.0002H11.3164C10.8831 10.0002 10.4664 10.0168 10.0664 10.0668C10.4497 5.58351 13.0997 3.3335 17.9831 3.3335H28.6497C33.9664 3.3335 36.6331 6.00018 36.6331 11.3168Z" stroke="#5DFF5A" stroke-width="1.5" stroke-miterlimit="10" stroke-linecap="round" stroke-linejoin="round"/>
<path d="M22.4918 22.0833H22.5068" stroke="#5DFF5A" stroke-width="2" stroke-linecap="round" stroke-linejoin="round"/>
<path d="M16.6598 22.0833H16.6748" stroke="#5DFF5A" stroke-width="2" stroke-linecap="round" stroke-linejoin="round"/>
<path d="M10.8258 22.0833H10.8408" stroke="#5DFF5A" stroke-width="2" stroke-linecap="round" stroke-linejoin="round"/>
</svg>
