<svg width="20" height="21" viewBox="0 0 20 21" fill="none" xmlns="http://www.w3.org/2000/svg">
<g opacity="0.2">
<path fill-rule="evenodd" clip-rule="evenodd" d="M2.47675 10.6738C2.47675 9.76233 3.21647 9.02261 4.12791 9.02261C5.03935 9.02261 5.77907 9.76233 5.77907 10.6738C5.77907 11.5852 5.03935 12.3249 4.12791 12.3249C3.21647 12.3249 2.47675 11.5852 2.47675 10.6738ZM9.90698 9.02261C8.99554 9.02261 8.25581 9.76233 8.25581 10.6738C8.25581 11.5852 8.99554 12.3249 9.90698 12.3249C10.8184 12.3249 11.5581 11.5852 11.5581 10.6738C11.5581 9.76233 10.8184 9.02261 9.90698 9.02261ZM15.686 9.02261C14.7746 9.02261 14.0349 9.76233 14.0349 10.6738C14.0349 11.5852 14.7746 12.3249 15.686 12.3249C16.5975 12.3249 17.3372 11.5852 17.3372 10.6738C17.3372 9.76233 16.5975 9.02261 15.686 9.02261Z" fill="black"/>
</g>
</svg>
