<svg width="29" height="29" viewBox="0 0 29 29" fill="none" xmlns="http://www.w3.org/2000/svg">
<path d="M14.5 17C15.8807 17 17 15.8807 17 14.5C17 13.1193 15.8807 12 14.5 12C13.1193 12 12 13.1193 12 14.5C12 15.8807 13.1193 17 14.5 17Z" fill="black"/>
<path d="M4.5 17C5.88071 17 7 15.8807 7 14.5C7 13.1193 5.88071 12 4.5 12C3.11929 12 2 13.1193 2 14.5C2 15.8807 3.11929 17 4.5 17Z" fill="black"/>
<path d="M24.5 17C25.8807 17 27 15.8807 27 14.5C27 13.1193 25.8807 12 24.5 12C23.1193 12 22 13.1193 22 14.5C22 15.8807 23.1193 17 24.5 17Z" fill="black"/>
<path d="M14.5 17C15.8807 17 17 15.8807 17 14.5C17 13.1193 15.8807 12 14.5 12C13.1193 12 12 13.1193 12 14.5C12 15.8807 13.1193 17 14.5 17Z" fill="black"/>
<path d="M4.5 17C5.88071 17 7 15.8807 7 14.5C7 13.1193 5.88071 12 4.5 12C3.11929 12 2 13.1193 2 14.5C2 15.8807 3.11929 17 4.5 17Z" fill="black"/>
<path d="M24.5 17C25.8807 17 27 15.8807 27 14.5C27 13.1193 25.8807 12 24.5 12C23.1193 12 22 13.1193 22 14.5C22 15.8807 23.1193 17 24.5 17Z" fill="black"/>
</svg>
