<svg width="560" height="280" viewBox="0 0 560 280" fill="none" xmlns="http://www.w3.org/2000/svg">
<g filter="url(#filter0_d_6053_106101)">
<rect width="674" height="240" transform="translate(20 22)" fill="white"/>
<path d="M32.329 40.8812V39.8283H34.714V49.0002H33.5468V40.8812H32.329ZM36.6969 44.3191C36.6969 42.8645 36.9337 41.7312 37.4073 40.9193C37.881 40.0989 38.7098 39.6887 39.8938 39.6887C41.0694 39.6887 41.894 40.0989 42.3676 40.9193C42.8412 41.7312 43.078 42.8645 43.078 44.3191C43.078 45.7991 42.8412 46.9493 42.3676 47.7697C41.894 48.5901 41.0694 49.0002 39.8938 49.0002C38.7098 49.0002 37.881 48.5901 37.4073 47.7697C36.9337 46.9493 36.6969 45.7991 36.6969 44.3191ZM41.9362 44.3191C41.9362 43.5833 41.8855 42.9617 41.784 42.4543C41.691 41.9384 41.4922 41.524 41.1878 41.211C40.8918 40.8981 40.4604 40.7417 39.8938 40.7417C39.3187 40.7417 38.8789 40.8981 38.5745 41.211C38.2785 41.524 38.0797 41.9384 37.9782 42.4543C37.8852 42.9617 37.8387 43.5833 37.8387 44.3191C37.8387 45.0803 37.8852 45.7188 37.9782 46.2347C38.0797 46.7506 38.2785 47.165 38.5745 47.4779C38.8789 47.7908 39.3187 47.9473 39.8938 47.9473C40.4604 47.9473 40.8918 47.7908 41.1878 47.4779C41.4922 47.165 41.691 46.7506 41.784 46.2347C41.8855 45.7188 41.9362 45.0803 41.9362 44.3191ZM44.6628 44.3191C44.6628 42.8645 44.8996 41.7312 45.3733 40.9193C45.8469 40.0989 46.6757 39.6887 47.8597 39.6887C49.0353 39.6887 49.8599 40.0989 50.3335 40.9193C50.8071 41.7312 51.0439 42.8645 51.0439 44.3191C51.0439 45.7991 50.8071 46.9493 50.3335 47.7697C49.8599 48.5901 49.0353 49.0002 47.8597 49.0002C46.6757 49.0002 45.8469 48.5901 45.3733 47.7697C44.8996 46.9493 44.6628 45.7991 44.6628 44.3191ZM49.9022 44.3191C49.9022 43.5833 49.8514 42.9617 49.7499 42.4543C49.6569 41.9384 49.4581 41.524 49.1537 41.211C48.8577 40.8981 48.4263 40.7417 47.8597 40.7417C47.2846 40.7417 46.8448 40.8981 46.5404 41.211C46.2444 41.524 46.0456 41.9384 45.9441 42.4543C45.8511 42.9617 45.8046 43.5833 45.8046 44.3191C45.8046 45.0803 45.8511 45.7188 45.9441 46.2347C46.0456 46.7506 46.2444 47.165 46.5404 47.4779C46.8448 47.7908 47.2846 47.9473 47.8597 47.9473C48.4263 47.9473 48.8577 47.7908 49.1537 47.4779C49.4581 47.165 49.6569 46.7506 49.7499 46.2347C49.8514 45.7188 49.9022 45.0803 49.9022 44.3191Z" fill="#7C8DB5"/>
<line x1="65.4346" y1="44.0472" x2="694.297" y2="44.0472" stroke="#E6EDFF" stroke-width="0.906142"/>
<path d="M37.4282 80.447C36.9546 80.2609 36.5909 79.9903 36.3372 79.6351C36.0835 79.2799 35.9566 78.8486 35.9566 78.3411C35.9566 77.8844 36.0708 77.4742 36.2991 77.1106C36.5275 76.7385 36.8658 76.4467 37.314 76.2352C37.7707 76.0154 38.3204 75.9054 38.9632 75.9054C39.6059 75.9054 40.1514 76.0154 40.5997 76.2352C41.0564 76.4467 41.3989 76.7385 41.6272 77.1106C41.864 77.4742 41.9824 77.8844 41.9824 78.3411C41.9824 78.8316 41.8514 79.263 41.5892 79.6351C41.327 79.9988 40.9676 80.2694 40.5109 80.447C41.0352 80.6077 41.4496 80.891 41.7541 81.2969C42.067 81.6944 42.2235 82.1765 42.2235 82.7432C42.2235 83.2929 42.0882 83.7749 41.8175 84.1894C41.5469 84.5953 41.1621 84.9125 40.6631 85.1408C40.1726 85.3607 39.6059 85.4706 38.9632 85.4706C38.3204 85.4706 37.7538 85.3607 37.2633 85.1408C36.7812 84.9125 36.4048 84.5953 36.1342 84.1894C35.8636 83.7749 35.7283 83.2929 35.7283 82.7432C35.7283 82.1765 35.8805 81.6902 36.185 81.2843C36.4894 80.8783 36.9038 80.5992 37.4282 80.447ZM40.8661 78.4807C40.8661 77.9648 40.6969 77.5673 40.3586 77.2882C40.0204 77.0091 39.5552 76.8695 38.9632 76.8695C38.3796 76.8695 37.9187 77.0091 37.5804 77.2882C37.2421 77.5673 37.073 77.969 37.073 78.4933C37.073 78.967 37.2463 79.3475 37.5931 79.6351C37.9483 79.9226 38.405 80.0664 38.9632 80.0664C39.5298 80.0664 39.9865 79.9226 40.3333 79.6351C40.6885 79.3391 40.8661 78.9543 40.8661 78.4807ZM38.9632 80.9544C38.3373 80.9544 37.8257 81.1024 37.4282 81.3984C37.0307 81.686 36.8319 82.1215 36.8319 82.7051C36.8319 83.2464 37.0222 83.6819 37.4028 84.0118C37.7918 84.3416 38.312 84.5065 38.9632 84.5065C39.6144 84.5065 40.1303 84.3416 40.5109 84.0118C40.8915 83.6819 41.0817 83.2464 41.0817 82.7051C41.0817 82.1385 40.8872 81.7071 40.4982 81.4111C40.1092 81.1067 39.5975 80.9544 38.9632 80.9544ZM43.7567 80.5358C43.7567 79.0811 43.9935 77.9479 44.4671 77.1359C44.9407 76.3156 45.7695 75.9054 46.9536 75.9054C48.1291 75.9054 48.9537 76.3156 49.4273 77.1359C49.9009 77.9479 50.1378 79.0811 50.1378 80.5358C50.1378 82.0158 49.9009 83.166 49.4273 83.9864C48.9537 84.8067 48.1291 85.2169 46.9536 85.2169C45.7695 85.2169 44.9407 84.8067 44.4671 83.9864C43.9935 83.166 43.7567 82.0158 43.7567 80.5358ZM48.996 80.5358C48.996 79.8 48.9453 79.1784 48.8438 78.671C48.7508 78.1551 48.552 77.7406 48.2475 77.4277C47.9515 77.1148 47.5202 76.9583 46.9536 76.9583C46.3785 76.9583 45.9387 77.1148 45.6342 77.4277C45.3382 77.7406 45.1395 78.1551 45.038 78.671C44.945 79.1784 44.8984 79.8 44.8984 80.5358C44.8984 81.2969 44.945 81.9355 45.038 82.4514C45.1395 82.9673 45.3382 83.3817 45.6342 83.6946C45.9387 84.0075 46.3785 84.164 46.9536 84.164C47.5202 84.164 47.9515 84.0075 48.2475 83.6946C48.552 83.3817 48.7508 82.9673 48.8438 82.4514C48.9453 81.9355 48.996 81.2969 48.996 80.5358Z" fill="#7C8DB5"/>
<line x1="65.4349" y1="80.0373" x2="694.297" y2="80.4904" stroke="#E6EDFF" stroke-width="0.906142"/>
<path d="M40.8165 114.444C40.6305 113.505 40.0512 113.035 39.0786 113.035C38.3259 113.035 37.7634 113.327 37.3913 113.911C37.0192 114.486 36.8374 115.437 36.8458 116.765C37.0403 116.325 37.3617 115.983 37.81 115.738C38.2667 115.484 38.7741 115.357 39.3323 115.357C40.2034 115.357 40.8969 115.628 41.4128 116.169C41.9371 116.71 42.1993 117.459 42.1993 118.414C42.1993 118.989 42.0851 119.505 41.8568 119.962C41.6369 120.419 41.2986 120.782 40.8419 121.053C40.3937 121.324 39.8482 121.459 39.2054 121.459C38.3343 121.459 37.6535 121.264 37.163 120.875C36.6725 120.486 36.3299 119.949 36.1354 119.264C35.9409 118.579 35.8436 117.734 35.8436 116.727C35.8436 113.623 36.9262 112.071 39.0912 112.071C39.9201 112.071 40.5713 112.295 41.0449 112.744C41.5185 113.192 41.7976 113.759 41.8822 114.444H40.8165ZM39.0912 116.334C38.7276 116.334 38.3851 116.41 38.0637 116.562C37.7423 116.706 37.4801 116.93 37.2772 117.235C37.0826 117.531 36.9854 117.894 36.9854 118.326C36.9854 118.968 37.1714 119.493 37.5436 119.899C37.9157 120.296 38.4485 120.495 39.142 120.495C39.734 120.495 40.2034 120.313 40.5501 119.949C40.9053 119.577 41.0829 119.078 41.0829 118.452C41.0829 117.793 40.9138 117.277 40.5755 116.905C40.2372 116.524 39.7425 116.334 39.0912 116.334ZM43.7567 116.752C43.7567 115.298 43.9935 114.165 44.4671 113.353C44.9407 112.532 45.7696 112.122 46.9536 112.122C48.1292 112.122 48.9537 112.532 49.4274 113.353C49.901 114.165 50.1378 115.298 50.1378 116.752C50.1378 118.232 49.901 119.383 49.4274 120.203C48.9537 121.023 48.1292 121.434 46.9536 121.434C45.7696 121.434 44.9407 121.023 44.4671 120.203C43.9935 119.383 43.7567 118.232 43.7567 116.752ZM48.996 116.752C48.996 116.017 48.9453 115.395 48.8438 114.888C48.7508 114.372 48.552 113.957 48.2476 113.644C47.9516 113.331 47.5202 113.175 46.9536 113.175C46.3785 113.175 45.9387 113.331 45.6342 113.644C45.3382 113.957 45.1395 114.372 45.038 114.888C44.945 115.395 44.8985 116.017 44.8985 116.752C44.8985 117.514 44.945 118.152 45.038 118.668C45.1395 119.184 45.3382 119.598 45.6342 119.911C45.9387 120.224 46.3785 120.381 46.9536 120.381C47.5202 120.381 47.9516 120.224 48.2476 119.911C48.552 119.598 48.7508 119.184 48.8438 118.668C48.9453 118.152 48.996 117.514 48.996 116.752Z" fill="#7C8DB5"/>
<line x1="65.4346" y1="116.481" x2="694.297" y2="116.481" stroke="#E6EDFF" stroke-width="0.906142"/>
<path d="M35.4993 155.608V154.733L39.9521 148.567H41.3349V154.606H42.6035V155.608H41.3349V157.65H40.1931V155.608H35.4993ZM40.2439 149.772L36.8314 154.606H40.2439V149.772ZM43.7567 152.969C43.7567 151.515 43.9935 150.381 44.4671 149.569C44.9407 148.749 45.7696 148.339 46.9536 148.339C48.1292 148.339 48.9537 148.749 49.4274 149.569C49.901 150.381 50.1378 151.515 50.1378 152.969C50.1378 154.449 49.901 155.599 49.4274 156.42C48.9537 157.24 48.1292 157.65 46.9536 157.65C45.7696 157.65 44.9407 157.24 44.4671 156.42C43.9935 155.599 43.7567 154.449 43.7567 152.969ZM48.996 152.969C48.996 152.233 48.9453 151.612 48.8438 151.104C48.7508 150.588 48.552 150.174 48.2476 149.861C47.9515 149.548 47.5202 149.392 46.9536 149.392C46.3785 149.392 45.9387 149.548 45.6342 149.861C45.3382 150.174 45.1395 150.588 45.038 151.104C44.945 151.612 44.8985 152.233 44.8985 152.969C44.8985 153.73 44.945 154.369 45.038 154.885C45.1395 155.401 45.3382 155.815 45.6342 156.128C45.9387 156.441 46.3785 156.597 46.9536 156.597C47.5202 156.597 47.9515 156.441 48.2476 156.128C48.552 155.815 48.7508 155.401 48.8438 154.885C48.9453 154.369 48.996 153.73 48.996 152.969Z" fill="#7C8DB5"/>
<line x1="65.4346" y1="152.697" x2="694.297" y2="152.697" stroke="#E6EDFF" stroke-width="0.906142"/>
<path d="M36.3203 192.941C37.3943 192.078 38.2358 191.372 38.8448 190.822C39.4537 190.264 39.9654 189.685 40.3798 189.084C40.8026 188.475 41.0141 187.879 41.0141 187.296C41.0141 186.746 40.8788 186.315 40.6081 186.002C40.3459 185.68 39.9188 185.52 39.3268 185.52C38.7517 185.52 38.3035 185.701 37.9821 186.065C37.6692 186.42 37.5001 186.898 37.4747 187.499H36.3583C36.3921 186.551 36.6797 185.82 37.221 185.304C37.7622 184.788 38.46 184.53 39.3141 184.53C40.1852 184.53 40.8745 184.771 41.382 185.253C41.8979 185.735 42.1558 186.399 42.1558 187.245C42.1558 187.947 41.9444 188.632 41.5215 189.3C41.1071 189.96 40.6335 190.543 40.1007 191.051C39.5679 191.55 38.8871 192.133 38.0582 192.801H42.4222V193.766H36.3203V192.941ZM43.7567 189.186C43.7567 187.731 43.9935 186.598 44.4671 185.786C44.9407 184.966 45.7696 184.555 46.9536 184.555C48.1292 184.555 48.9537 184.966 49.4274 185.786C49.901 186.598 50.1378 187.731 50.1378 189.186C50.1378 190.666 49.901 191.816 49.4274 192.636C48.9537 193.457 48.1292 193.867 46.9536 193.867C45.7696 193.867 44.9407 193.457 44.4671 192.636C43.9935 191.816 43.7567 190.666 43.7567 189.186ZM48.996 189.186C48.996 188.45 48.9453 187.828 48.8438 187.321C48.7508 186.805 48.552 186.391 48.2476 186.078C47.9515 185.765 47.5202 185.608 46.9536 185.608C46.3785 185.608 45.9387 185.765 45.6342 186.078C45.3382 186.391 45.1395 186.805 45.038 187.321C44.945 187.828 44.8985 188.45 44.8985 189.186C44.8985 189.947 44.945 190.586 45.038 191.101C45.1395 191.617 45.3382 192.032 45.6342 192.345C45.9387 192.658 46.3785 192.814 46.9536 192.814C47.5202 192.814 47.9515 192.658 48.2476 192.345C48.552 192.032 48.7508 191.617 48.8438 191.101C48.9453 190.586 48.996 189.947 48.996 189.186Z" fill="#7C8DB5"/>
<line x1="65.4346" y1="188.914" x2="694.297" y2="188.914" stroke="#E6EDFF" stroke-width="0.906142"/>
<path d="M43.7567 225.403C43.7567 223.948 43.9935 222.815 44.4671 222.003C44.9407 221.182 45.7696 220.772 46.9536 220.772C48.1292 220.772 48.9537 221.182 49.4274 222.003C49.901 222.815 50.1378 223.948 50.1378 225.403C50.1378 226.883 49.901 228.033 49.4274 228.853C48.9537 229.673 48.1292 230.084 46.9536 230.084C45.7696 230.084 44.9407 229.673 44.4671 228.853C43.9935 228.033 43.7567 226.883 43.7567 225.403ZM48.996 225.403C48.996 224.667 48.9453 224.045 48.8438 223.538C48.7508 223.022 48.552 222.607 48.2476 222.294C47.9515 221.982 47.5202 221.825 46.9536 221.825C46.3785 221.825 45.9387 221.982 45.6342 222.294C45.3382 222.607 45.1395 223.022 45.038 223.538C44.945 224.045 44.8985 224.667 44.8985 225.403C44.8985 226.164 44.945 226.802 45.038 227.318C45.1395 227.834 45.3382 228.248 45.6342 228.561C45.9387 228.874 46.3785 229.031 46.9536 229.031C47.5202 229.031 47.9515 228.874 48.2476 228.561C48.552 228.248 48.7508 227.834 48.8438 227.318C48.9453 226.802 48.996 226.164 48.996 225.403Z" fill="#7C8DB5"/>
<line x1="65.4346" y1="225.131" x2="694.297" y2="225.131" stroke="#E6EDFF" stroke-width="0.906142"/>
<path d="M91.3515 247.491V254.024C91.3515 254.751 91.1274 255.335 90.6791 255.775C90.2309 256.206 89.6389 256.422 88.9031 256.422C88.1588 256.422 87.5626 256.202 87.1144 255.762C86.6661 255.314 86.442 254.705 86.442 253.935H87.5964C87.6049 254.366 87.7148 254.717 87.9263 254.988C88.1462 255.259 88.4718 255.394 88.9031 255.394C89.3344 255.394 89.6558 255.267 89.8672 255.013C90.0786 254.751 90.1844 254.421 90.1844 254.024V247.491H91.3515ZM93.1944 252.831C93.1944 252.121 93.3382 251.499 93.6257 250.967C93.9133 250.425 94.3066 250.007 94.8055 249.711C95.313 249.415 95.8754 249.267 96.4928 249.267C97.1017 249.267 97.6303 249.398 98.0785 249.66C98.5268 249.922 98.8608 250.252 99.0807 250.65V249.381H100.248V256.333H99.0807V255.039C98.8524 255.445 98.5098 255.783 98.0531 256.054C97.6049 256.316 97.0806 256.447 96.4801 256.447C95.8627 256.447 95.3045 256.295 94.8055 255.99C94.3066 255.686 93.9133 255.259 93.6257 254.709C93.3382 254.159 93.1944 253.533 93.1944 252.831ZM99.0807 252.844C99.0807 252.32 98.975 251.863 98.7636 251.474C98.5521 251.085 98.2646 250.789 97.9009 250.586C97.5457 250.375 97.1524 250.269 96.7211 250.269C96.2898 250.269 95.8965 250.37 95.5413 250.573C95.1861 250.776 94.9028 251.072 94.6914 251.461C94.4799 251.85 94.3742 252.307 94.3742 252.831C94.3742 253.364 94.4799 253.829 94.6914 254.227C94.9028 254.616 95.1861 254.916 95.5413 255.128C95.8965 255.331 96.2898 255.432 96.7211 255.432C97.1524 255.432 97.5457 255.331 97.9009 255.128C98.2646 254.916 98.5521 254.616 98.7636 254.227C98.975 253.829 99.0807 253.369 99.0807 252.844ZM105.586 249.254C106.432 249.254 107.117 249.512 107.641 250.028C108.165 250.535 108.428 251.271 108.428 252.235V256.333H107.286V252.4C107.286 251.707 107.112 251.178 106.766 250.814C106.419 250.442 105.945 250.256 105.345 250.256C104.736 250.256 104.25 250.447 103.886 250.827C103.531 251.208 103.353 251.762 103.353 252.489V256.333H102.199V249.381H103.353V250.37C103.581 250.015 103.89 249.74 104.279 249.546C104.677 249.351 105.112 249.254 105.586 249.254Z" fill="#7C8DB5"/>
<path d="M181.139 247.491V248.429H177.295V251.411H180.416V252.349H177.295V256.333H176.141V247.491H181.139ZM188.876 252.59C188.876 252.81 188.864 253.043 188.838 253.288H183.282C183.324 253.973 183.557 254.51 183.98 254.899C184.411 255.28 184.931 255.47 185.54 255.47C186.039 255.47 186.453 255.356 186.783 255.128C187.122 254.891 187.358 254.578 187.494 254.189H188.737C188.551 254.857 188.179 255.403 187.621 255.825C187.062 256.24 186.369 256.447 185.54 256.447C184.88 256.447 184.288 256.299 183.764 256.003C183.248 255.707 182.842 255.288 182.546 254.747C182.25 254.197 182.102 253.563 182.102 252.844C182.102 252.125 182.246 251.495 182.533 250.954C182.821 250.413 183.223 249.998 183.739 249.711C184.263 249.415 184.863 249.267 185.54 249.267C186.2 249.267 186.783 249.411 187.291 249.698C187.798 249.986 188.187 250.383 188.458 250.891C188.737 251.39 188.876 251.956 188.876 252.59ZM187.684 252.349C187.684 251.91 187.587 251.533 187.392 251.22C187.198 250.899 186.931 250.658 186.593 250.497C186.263 250.328 185.895 250.244 185.489 250.244C184.906 250.244 184.407 250.43 183.992 250.802C183.586 251.174 183.354 251.69 183.295 252.349H187.684ZM191.555 250.675C191.791 250.26 192.138 249.922 192.595 249.66C193.052 249.398 193.572 249.267 194.155 249.267C194.781 249.267 195.344 249.415 195.843 249.711C196.341 250.007 196.735 250.425 197.022 250.967C197.31 251.499 197.454 252.121 197.454 252.831C197.454 253.533 197.31 254.159 197.022 254.709C196.735 255.259 196.337 255.686 195.83 255.99C195.331 256.295 194.773 256.447 194.155 256.447C193.555 256.447 193.026 256.316 192.57 256.054C192.121 255.792 191.783 255.457 191.555 255.052V256.333H190.4V246.945H191.555V250.675ZM196.274 252.831C196.274 252.307 196.168 251.85 195.957 251.461C195.745 251.072 195.458 250.776 195.094 250.573C194.739 250.37 194.346 250.269 193.914 250.269C193.491 250.269 193.098 250.375 192.734 250.586C192.379 250.789 192.092 251.089 191.872 251.487C191.66 251.876 191.555 252.328 191.555 252.844C191.555 253.369 191.66 253.829 191.872 254.227C192.092 254.616 192.379 254.916 192.734 255.128C193.098 255.331 193.491 255.432 193.914 255.432C194.346 255.432 194.739 255.331 195.094 255.128C195.458 254.916 195.745 254.616 195.957 254.227C196.168 253.829 196.274 253.364 196.274 252.831Z" fill="#7C8DB5"/>
<path d="M273.352 247.554V256.333H272.198V249.787L269.28 256.333H268.468L265.537 249.774V256.333H264.383V247.554H265.626L268.874 254.811L272.122 247.554H273.352ZM274.879 252.831C274.879 252.121 275.022 251.499 275.31 250.967C275.597 250.425 275.991 250.007 276.49 249.711C276.997 249.415 277.56 249.267 278.177 249.267C278.786 249.267 279.314 249.398 279.763 249.66C280.211 249.922 280.545 250.252 280.765 250.65V249.381H281.932V256.333H280.765V255.039C280.536 255.445 280.194 255.783 279.737 256.054C279.289 256.316 278.765 256.447 278.164 256.447C277.547 256.447 276.989 256.295 276.49 255.99C275.991 255.686 275.597 255.259 275.31 254.709C275.022 254.159 274.879 253.533 274.879 252.831ZM280.765 252.844C280.765 252.32 280.659 251.863 280.448 251.474C280.236 251.085 279.949 250.789 279.585 250.586C279.23 250.375 278.837 250.269 278.405 250.269C277.974 250.269 277.581 250.37 277.225 250.573C276.87 250.776 276.587 251.072 276.375 251.461C276.164 251.85 276.058 252.307 276.058 252.831C276.058 253.364 276.164 253.829 276.375 254.227C276.587 254.616 276.87 254.916 277.225 255.128C277.581 255.331 277.974 255.432 278.405 255.432C278.837 255.432 279.23 255.331 279.585 255.128C279.949 254.916 280.236 254.616 280.448 254.227C280.659 253.829 280.765 253.369 280.765 252.844ZM285.037 250.51C285.24 250.112 285.528 249.804 285.9 249.584C286.28 249.364 286.741 249.254 287.283 249.254V250.447H286.978C285.684 250.447 285.037 251.148 285.037 252.552V256.333H283.883V249.381H285.037V250.51Z" fill="#7C8DB5"/>
<path d="M359.852 254.366H355.995L355.285 256.333H354.067L357.264 247.541H358.596L361.78 256.333H360.562L359.852 254.366ZM359.522 253.428L357.924 248.962L356.325 253.428H359.522ZM364.328 250.662C364.556 250.265 364.894 249.935 365.343 249.673C365.799 249.402 366.328 249.267 366.928 249.267C367.546 249.267 368.104 249.415 368.603 249.711C369.11 250.007 369.508 250.425 369.796 250.967C370.083 251.499 370.227 252.121 370.227 252.831C370.227 253.533 370.083 254.159 369.796 254.709C369.508 255.259 369.11 255.686 368.603 255.99C368.104 256.295 367.546 256.447 366.928 256.447C366.336 256.447 365.812 256.316 365.355 256.054C364.907 255.783 364.565 255.449 364.328 255.052V259.631H363.173V249.381H364.328V250.662ZM369.047 252.831C369.047 252.307 368.941 251.85 368.73 251.461C368.518 251.072 368.231 250.776 367.867 250.573C367.512 250.37 367.119 250.269 366.687 250.269C366.265 250.269 365.871 250.375 365.508 250.586C365.152 250.789 364.865 251.089 364.645 251.487C364.434 251.876 364.328 252.328 364.328 252.844C364.328 253.369 364.434 253.829 364.645 254.227C364.865 254.616 365.152 254.916 365.508 255.128C365.871 255.331 366.265 255.432 366.687 255.432C367.119 255.432 367.512 255.331 367.867 255.128C368.231 254.916 368.518 254.616 368.73 254.227C368.941 253.829 369.047 253.364 369.047 252.831ZM372.901 250.51C373.104 250.112 373.391 249.804 373.763 249.584C374.144 249.364 374.605 249.254 375.146 249.254V250.447H374.842C373.548 250.447 372.901 251.148 372.901 252.552V256.333H371.746V249.381H372.901V250.51Z" fill="#7C8DB5"/>
<path d="M450.836 247.554V256.333H449.682V249.787L446.764 256.333H445.952L443.022 249.774V256.333H441.867V247.554H443.111L446.358 254.811L449.606 247.554H450.836ZM452.363 252.831C452.363 252.121 452.507 251.499 452.794 250.967C453.082 250.425 453.475 250.007 453.974 249.711C454.481 249.415 455.044 249.267 455.661 249.267C456.27 249.267 456.799 249.398 457.247 249.66C457.695 249.922 458.029 250.252 458.249 250.65V249.381H459.416V256.333H458.249V255.039C458.021 255.445 457.678 255.783 457.222 256.054C456.773 256.316 456.249 256.447 455.649 256.447C455.031 256.447 454.473 256.295 453.974 255.99C453.475 255.686 453.082 255.259 452.794 254.709C452.507 254.159 452.363 253.533 452.363 252.831ZM458.249 252.844C458.249 252.32 458.143 251.863 457.932 251.474C457.721 251.085 457.433 250.789 457.069 250.586C456.714 250.375 456.321 250.269 455.89 250.269C455.458 250.269 455.065 250.37 454.71 250.573C454.355 250.776 454.071 251.072 453.86 251.461C453.648 251.85 453.543 252.307 453.543 252.831C453.543 253.364 453.648 253.829 453.86 254.227C454.071 254.616 454.355 254.916 454.71 255.128C455.065 255.331 455.458 255.432 455.89 255.432C456.321 255.432 456.714 255.331 457.069 255.128C457.433 254.916 457.721 254.616 457.932 254.227C458.143 253.829 458.249 253.369 458.249 252.844ZM467.355 249.381L463.169 259.606H461.976L463.346 256.257L460.543 249.381H461.824L464.006 255.013L466.162 249.381H467.355Z" fill="#7C8DB5"/>
<path d="M538.562 247.491V254.024C538.562 254.751 538.338 255.335 537.89 255.775C537.442 256.206 536.85 256.422 536.114 256.422C535.37 256.422 534.774 256.202 534.325 255.762C533.877 255.314 533.653 254.705 533.653 253.935H534.807C534.816 254.366 534.926 254.717 535.137 254.988C535.357 255.259 535.683 255.394 536.114 255.394C536.545 255.394 536.867 255.267 537.078 255.013C537.29 254.751 537.395 254.421 537.395 254.024V247.491H538.562ZM547.002 249.381V256.333H545.848V255.305C545.628 255.66 545.319 255.94 544.922 256.143C544.533 256.337 544.101 256.434 543.628 256.434C543.086 256.434 542.6 256.324 542.169 256.104C541.737 255.876 541.395 255.538 541.141 255.09C540.896 254.641 540.773 254.096 540.773 253.453V249.381H541.915V253.301C541.915 253.986 542.088 254.515 542.435 254.887C542.782 255.25 543.255 255.432 543.856 255.432C544.473 255.432 544.96 255.242 545.315 254.861C545.67 254.481 545.848 253.927 545.848 253.199V249.381H547.002ZM552.338 249.254C553.184 249.254 553.869 249.512 554.394 250.028C554.918 250.535 555.18 251.271 555.18 252.235V256.333H554.038V252.4C554.038 251.707 553.865 251.178 553.518 250.814C553.171 250.442 552.698 250.256 552.097 250.256C551.488 250.256 551.002 250.447 550.638 250.827C550.283 251.208 550.106 251.762 550.106 252.489V256.333H548.951V249.381H550.106V250.37C550.334 250.015 550.643 249.74 551.032 249.546C551.429 249.351 551.865 249.254 552.338 249.254Z" fill="#7C8DB5"/>
<path d="M290.156 61.2795H314.622V218.042C314.622 222.046 311.377 225.291 307.373 225.291H297.405C293.402 225.291 290.156 222.046 290.156 218.042V61.2795Z" fill="url(#paint0_linear_6053_106101)"/>
<path d="M67.2471 165.044C71.2284 165.358 80.6612 167.303 86.5413 172.575C93.8915 179.165 112.267 191.403 113.645 181.989C114.748 174.458 119.923 176.027 122.373 177.753C124.364 179.322 128.805 181.989 130.642 180.106C132.939 177.753 136.614 159.396 143.046 158.454C149.477 157.513 145.802 165.044 149.937 165.985C154.071 166.927 155.909 161.278 159.584 161.278C163.259 161.278 168.312 171.634 174.744 170.692C181.175 169.751 186.228 170.692 190.822 168.339C195.416 165.985 193.578 161.278 196.335 158.454C199.091 155.63 203.685 153.747 204.144 149.982C204.604 146.216 206.441 136.331 211.035 135.861C215.629 135.39 215.17 138.685 223.438 138.214C231.707 137.743 232.626 136.802 235.383 140.097C238.139 143.392 239.517 149.982 244.111 149.982C248.705 149.982 245.948 153.747 250.083 155.63C254.217 157.513 255.596 156.571 260.189 153.276C264.783 149.982 273.052 126.447 283.618 126.447C294.184 126.447 292.346 122.681 301.994 124.564C311.641 126.447 311.641 125.035 313.938 120.798C316.235 116.562 320.369 112.326 325.882 112.326C331.394 112.326 339.204 115.15 344.257 113.738C349.31 112.326 354.364 103.382 359.876 103.853C365.389 104.324 363.092 106.677 373.658 106.677C384.224 106.677 380.549 93.9683 392.493 93.0269C404.437 92.0855 414.543 111.855 423.731 113.738C432.919 115.621 439.81 106.677 447.619 106.677C455.429 106.677 462.779 117.503 472.885 117.033C482.992 116.562 481.154 109.972 489.423 109.972C497.692 109.972 498.611 117.033 507.339 117.033C516.068 117.033 516.986 109.972 521.58 109.972C526.174 109.972 532.606 109.501 535.821 106.677C539.037 103.853 543.631 97.7339 546.847 103.853C550.062 109.972 553.278 120.327 558.791 117.033C564.303 113.738 569.357 115.621 572.572 120.798C575.788 125.976 579.463 136.802 585.435 134.448C591.407 132.095 596.92 136.802 603.811 132.095C610.701 127.388 617.133 119.857 623.105 125.976C629.077 132.095 631.374 134.448 643.777 134.448C656.181 134.448 659.396 135.861 666.746 132.095C674.097 128.329 683.744 125.976 686.5 130.212C688.705 133.601 692.013 135.704 693.391 136.331" stroke="#FF3A29" stroke-width="1.81228" stroke-linecap="round" stroke-linejoin="round"/>
<path d="M67.2471 196.294C70.9303 194.417 72.3115 185.5 77.3759 185.969C82.4403 186.438 85.2027 187.846 88.8859 184.561C92.5691 181.276 97.6335 172.828 102.698 172.828C107.762 172.828 117.431 166.257 119.733 169.542C122.035 172.828 133.084 177.99 139.069 177.052C145.055 176.113 139.99 172.827 154.263 174.235C168.535 175.643 156.565 177.052 172.218 177.052C187.872 177.052 192.936 188.785 200.303 184.561C207.669 180.337 199.842 162.502 212.273 160.155C224.704 157.809 222.402 161.094 235.293 165.318C248.184 169.542 262.457 143.729 270.744 145.137C279.031 146.545 280.412 154.054 286.397 145.137C292.383 136.219 292.383 119.323 300.209 118.385C308.036 117.446 323.69 118.385 326.452 125.425C329.215 132.465 328.294 139.974 336.121 140.913C343.947 141.851 349.933 134.342 361.443 135.75C372.953 137.158 367.888 140.913 374.334 140.913C380.779 140.913 384.463 131.526 388.146 132.465C391.829 133.403 395.512 137.158 397.354 140.913C399.195 144.667 399.656 150.299 403.339 150.299C407.022 150.299 406.562 161.094 410.245 159.217C413.928 157.339 414.389 159.686 415.77 155.462C417.151 151.238 418.993 142.79 421.755 142.321C424.517 141.851 423.597 141.382 427.28 142.321C430.963 143.259 433.265 142.79 433.725 139.974C434.186 137.158 433.725 135.75 436.948 135.75C440.171 135.75 441.552 137.627 446.617 139.974C451.681 142.321 471.018 158.278 477.003 156.87C482.988 155.462 487.592 150.299 497.721 150.299C507.85 150.299 508.771 154.993 516.137 152.646C523.503 150.299 522.583 147.953 533.172 145.137C543.761 142.321 557.113 139.974 563.098 145.137C569.083 150.299 587.499 155.462 593.024 150.299C598.549 145.137 603.153 143.729 606.836 147.014C610.519 150.299 604.994 154.054 613.281 155.462C621.569 156.87 625.712 155.462 628.014 150.299C630.316 145.137 632.618 139.505 638.143 140.913C643.668 142.321 655.178 127.302 659.782 126.363C664.386 125.425 676.816 119.793 676.816 114.161C676.816 109.655 687.866 106.025 693.391 104.774" stroke="#3D7100" stroke-width="1.81228" stroke-linecap="round" stroke-linejoin="round"/>
<g filter="url(#filter1_d_6053_106101)">
<circle cx="302.843" cy="117.459" r="3.62457" fill="#347AE2"/>
<circle cx="302.843" cy="117.459" r="3.1715" stroke="white" stroke-width="0.906142"/>
</g>
<g filter="url(#filter2_d_6053_106101)">
<rect x="253.912" y="45.8745" width="113.747" height="59.7474" rx="7.24913" fill="white" shape-rendering="crispEdges"/>
<path d="M284.731 68.8562C284.406 68.851 284.082 68.7892 283.757 68.6708C283.433 68.5524 283.137 68.3529 282.869 68.0723C282.602 67.7891 282.387 67.4069 282.224 66.9255C282.062 66.4415 281.981 65.834 281.981 65.1029C281.981 64.4027 282.047 63.7823 282.178 63.2417C282.309 62.6985 282.5 62.2416 282.75 61.8709C282.999 61.4976 283.3 61.2145 283.653 61.0214C284.008 60.8283 284.409 60.7318 284.854 60.7318C285.297 60.7318 285.691 60.8206 286.036 60.9982C286.383 61.1733 286.666 61.4178 286.885 61.7319C287.104 62.0459 287.246 62.4076 287.31 62.8169H286.368C286.28 62.4617 286.11 62.1669 285.858 61.9327C285.606 61.6984 285.271 61.5813 284.854 61.5813C284.241 61.5813 283.759 61.8477 283.406 62.3806C283.056 62.9135 282.88 63.6613 282.877 64.6241H282.939C283.083 64.4053 283.254 64.2186 283.452 64.0642C283.653 63.9071 283.875 63.7861 284.117 63.7012C284.359 63.6162 284.615 63.5738 284.885 63.5738C285.338 63.5738 285.752 63.687 286.128 63.9136C286.504 64.1375 286.805 64.4477 287.032 64.8442C287.258 65.238 287.372 65.6898 287.372 66.1995C287.372 66.6886 287.262 67.1366 287.043 67.5433C286.825 67.9475 286.517 68.2692 286.121 68.5086C285.727 68.7455 285.263 68.8613 284.731 68.8562ZM284.731 68.0067C285.055 68.0067 285.346 67.9256 285.603 67.7634C285.863 67.6012 286.068 67.3837 286.217 67.1108C286.369 66.8379 286.445 66.5342 286.445 66.1995C286.445 65.8726 286.372 65.5753 286.225 65.3075C286.081 65.0372 285.881 64.8223 285.626 64.6627C285.374 64.5031 285.086 64.4233 284.761 64.4233C284.517 64.4233 284.289 64.4722 284.078 64.57C283.867 64.6653 283.681 64.7965 283.522 64.9639C283.365 65.1312 283.241 65.323 283.151 65.5392C283.061 65.7529 283.016 65.9781 283.016 66.215C283.016 66.529 283.089 66.8225 283.236 67.0954C283.385 67.3682 283.589 67.5883 283.846 67.7557C284.106 67.923 284.401 68.0067 284.731 68.0067ZM292.087 68.748V60.8399H296.829V61.6894H293.045V64.3615H296.474V65.211H293.045V68.748H292.087ZM300.397 68.8716C299.826 68.8716 299.333 68.7455 298.918 68.4932C298.506 68.2383 298.188 67.8831 297.964 67.4274C297.743 66.9692 297.632 66.4364 297.632 65.8288C297.632 65.2213 297.743 64.6859 297.964 64.2225C298.188 63.7565 298.5 63.3936 298.899 63.1336C299.301 62.871 299.769 62.7397 300.304 62.7397C300.613 62.7397 300.918 62.7912 301.22 62.8942C301.521 62.9971 301.795 63.1645 302.042 63.3961C302.289 63.6253 302.486 63.929 302.633 64.3074C302.78 64.6859 302.853 65.1518 302.853 65.7053V66.0914H298.281V65.3037H301.926C301.926 64.969 301.859 64.6704 301.725 64.4078C301.594 64.1453 301.406 63.938 301.162 63.7861C300.92 63.6343 300.634 63.5583 300.304 63.5583C299.942 63.5583 299.627 63.6484 299.362 63.8286C299.1 64.0062 298.898 64.2379 298.756 64.5237C298.614 64.8094 298.544 65.1158 298.544 65.4427V65.9678C298.544 66.4158 298.621 66.7955 298.775 67.107C298.932 67.4159 299.15 67.6514 299.428 67.8136C299.706 67.9732 300.029 68.053 300.397 68.053C300.637 68.053 300.853 68.0195 301.046 67.9526C301.242 67.8831 301.41 67.7801 301.552 67.6437C301.693 67.5047 301.803 67.3322 301.88 67.1263L302.76 67.3734C302.668 67.672 302.512 67.9346 302.293 68.1611C302.074 68.3851 301.804 68.5601 301.482 68.6863C301.16 68.8098 300.799 68.8716 300.397 68.8716ZM304.363 68.748V60.8399H305.274V63.7591H305.351C305.418 63.6561 305.511 63.5249 305.629 63.3653C305.75 63.2031 305.923 63.0589 306.147 62.9328C306.373 62.8041 306.68 62.7397 307.066 62.7397C307.565 62.7397 308.005 62.8646 308.386 63.1143C308.767 63.364 309.065 63.7179 309.278 64.1762C309.492 64.6344 309.599 65.175 309.599 65.7979C309.599 66.4261 309.492 66.9705 309.278 67.4313C309.065 67.8895 308.769 68.2448 308.39 68.4971C308.012 68.7468 307.576 68.8716 307.081 68.8716C306.7 68.8716 306.395 68.8085 306.166 68.6824C305.937 68.5537 305.761 68.4082 305.637 68.2461C305.514 68.0813 305.418 67.9449 305.351 67.8368H305.243V68.748H304.363ZM305.259 65.7825C305.259 66.2304 305.324 66.6256 305.456 66.9679C305.587 67.3077 305.779 67.5742 306.031 67.7673C306.283 67.9577 306.592 68.053 306.958 68.053C307.339 68.053 307.657 67.9526 307.911 67.7518C308.169 67.5484 308.362 67.2756 308.491 66.9332C308.622 66.5882 308.688 66.2047 308.688 65.7825C308.688 65.3655 308.623 64.9896 308.495 64.655C308.368 64.3177 308.177 64.0513 307.919 63.8557C307.664 63.6574 307.344 63.5583 306.958 63.5583C306.587 63.5583 306.275 63.6523 306.023 63.8402C305.771 64.0256 305.58 64.2856 305.452 64.6202C305.323 64.9523 305.259 65.3397 305.259 65.7825ZM314.036 68.748V68.053L316.646 65.1956C316.952 64.8609 317.205 64.57 317.403 64.3229C317.601 64.0732 317.748 63.8389 317.843 63.6201C317.941 63.3987 317.99 63.167 317.99 62.9251C317.99 62.647 317.923 62.4063 317.789 62.203C317.658 61.9996 317.477 61.8426 317.248 61.7319C317.019 61.6212 316.762 61.5658 316.476 61.5658C316.172 61.5658 315.907 61.6289 315.681 61.7551C315.457 61.8786 315.283 62.0524 315.159 62.2763C315.038 62.5003 314.978 62.7629 314.978 63.0641H314.067C314.067 62.6007 314.173 62.194 314.387 61.8439C314.601 61.4938 314.892 61.2209 315.26 61.0252C315.63 60.8296 316.046 60.7318 316.507 60.7318C316.97 60.7318 317.381 60.8296 317.739 61.0252C318.097 61.2209 318.377 61.4848 318.58 61.8168C318.784 62.1489 318.886 62.5183 318.886 62.9251C318.886 63.2159 318.833 63.5004 318.727 63.7784C318.624 64.0539 318.444 64.3615 318.187 64.7013C317.932 65.0385 317.578 65.4504 317.125 65.9369L315.348 67.8368V67.8985H319.025V68.748H314.036ZM323.199 68.8562C322.617 68.8562 322.121 68.6978 321.712 68.3812C321.303 68.062 320.99 67.5999 320.774 66.995C320.558 66.3874 320.449 65.6538 320.449 64.794C320.449 63.9393 320.558 63.2095 320.774 62.6046C320.993 61.997 321.307 61.5337 321.716 61.2145C322.128 60.8927 322.622 60.7318 323.199 60.7318C323.775 60.7318 324.268 60.8927 324.678 61.2145C325.09 61.5337 325.404 61.997 325.62 62.6046C325.839 63.2095 325.948 63.9393 325.948 64.794C325.948 65.6538 325.84 66.3874 325.624 66.995C325.407 67.5999 325.095 68.062 324.685 68.3812C324.276 68.6978 323.781 68.8562 323.199 68.8562ZM323.199 68.0067C323.775 68.0067 324.223 67.7286 324.542 67.1726C324.862 66.6166 325.021 65.8237 325.021 64.794C325.021 64.1092 324.948 63.5261 324.801 63.0448C324.657 62.5634 324.449 62.1965 324.176 61.9443C323.905 61.692 323.58 61.5658 323.199 61.5658C322.627 61.5658 322.181 61.8477 321.859 62.4115C321.537 62.9727 321.376 63.7668 321.376 64.794C321.376 65.4787 321.448 66.0605 321.592 66.5393C321.737 67.0181 321.944 67.3824 322.214 67.6321C322.487 67.8818 322.815 68.0067 323.199 68.0067ZM327.415 68.748V68.053L330.026 65.1956C330.332 64.8609 330.584 64.57 330.783 64.3229C330.981 64.0732 331.127 63.8389 331.223 63.6201C331.321 63.3987 331.369 63.167 331.369 62.9251C331.369 62.647 331.303 62.4063 331.169 62.203C331.037 61.9996 330.857 61.8426 330.628 61.7319C330.399 61.6212 330.142 61.5658 329.856 61.5658C329.552 61.5658 329.287 61.6289 329.06 61.7551C328.836 61.8786 328.663 62.0524 328.539 62.2763C328.418 62.5003 328.358 62.7629 328.358 63.0641H327.446C327.446 62.6007 327.553 62.194 327.767 61.8439C327.98 61.4938 328.271 61.2209 328.639 61.0252C329.01 60.8296 329.426 60.7318 329.887 60.7318C330.35 60.7318 330.761 60.8296 331.118 61.0252C331.476 61.2209 331.757 61.4848 331.96 61.8168C332.164 62.1489 332.265 62.5183 332.265 62.9251C332.265 63.2159 332.213 63.5004 332.107 63.7784C332.004 64.0539 331.824 64.3615 331.566 64.7013C331.312 65.0385 330.958 65.4504 330.504 65.9369L328.728 67.8368V67.8985H332.404V68.748H327.415ZM333.644 67.1263V66.3385L337.119 60.8399H337.691V62.0601H337.304L334.679 66.215V66.2768H339.359V67.1263H333.644ZM337.366 68.748V66.8869V66.52V60.8399H338.277V68.748H337.366Z" fill="#7C8DB5"/>
<path d="M269.281 88.8922C268.636 88.8922 268.055 88.7686 267.541 88.5215C267.029 88.2709 266.621 87.9277 266.315 87.4918C266.01 87.0559 265.847 86.5582 265.826 85.9987H267.371C267.408 86.4518 267.609 86.8242 267.973 87.116C268.337 87.4077 268.773 87.5536 269.281 87.5536C269.686 87.5536 270.045 87.4609 270.357 87.2756C270.673 87.0868 270.92 86.8276 271.098 86.4981C271.28 86.1686 271.371 85.7928 271.371 85.3706C271.371 84.9416 271.278 84.5589 271.093 84.2225C270.908 83.8861 270.652 83.6218 270.326 83.4296C270.003 83.2374 269.633 83.1396 269.214 83.1361C268.895 83.1361 268.574 83.1911 268.251 83.3009C267.928 83.4107 267.668 83.5549 267.469 83.7334L266.011 83.5171L266.604 78.2039H272.401V79.5682H267.927L267.592 82.5183H267.654C267.86 82.3192 268.133 82.1528 268.472 82.0189C268.816 81.8851 269.183 81.8181 269.574 81.8181C270.216 81.8181 270.788 81.9709 271.289 82.2763C271.793 82.5818 272.19 82.9989 272.478 83.5274C272.77 84.0526 272.914 84.6567 272.911 85.3397C272.914 86.0228 272.759 86.632 272.447 87.1674C272.138 87.7029 271.709 88.1251 271.16 88.434C270.614 88.7395 269.988 88.8922 269.281 88.8922ZM278.297 78.0597C278.767 78.0631 279.231 78.1489 279.687 78.3171C280.144 78.4853 280.556 78.7599 280.923 79.1409C281.294 79.5219 281.589 80.0367 281.808 80.6854C282.032 81.3307 282.145 82.1339 282.148 83.095C282.148 84.0183 282.056 84.8403 281.87 85.5611C281.685 86.2785 281.419 86.8843 281.072 87.3785C280.729 87.8728 280.312 88.2486 279.821 88.5061C279.33 88.7635 278.778 88.8922 278.163 88.8922C277.535 88.8922 276.977 88.7686 276.49 88.5215C276.003 88.2744 275.606 87.9329 275.301 87.497C274.995 87.0576 274.805 86.5531 274.729 85.9833H276.3C276.403 86.4364 276.612 86.8036 276.928 87.0851C277.247 87.3631 277.659 87.5021 278.163 87.5021C278.936 87.5021 279.538 87.1657 279.97 86.493C280.403 85.8168 280.621 84.8729 280.624 83.6613H280.542C280.363 83.9565 280.14 84.2105 279.873 84.4233C279.608 84.6361 279.311 84.8008 278.982 84.9175C278.652 85.0342 278.301 85.0926 277.926 85.0926C277.319 85.0926 276.766 84.9433 276.269 84.6447C275.771 84.3461 275.375 83.9359 275.079 83.4142C274.784 82.8924 274.637 82.2969 274.637 81.6276C274.637 80.9617 274.788 80.3577 275.09 79.8153C275.395 79.273 275.821 78.844 276.366 78.5282C276.916 78.209 277.559 78.0528 278.297 78.0597ZM278.302 79.3983C277.901 79.3983 277.539 79.4978 277.216 79.6969C276.897 79.8926 276.644 80.1586 276.459 80.4949C276.274 80.8279 276.181 81.1986 276.181 81.607C276.181 82.0155 276.27 82.3862 276.449 82.7191C276.631 83.0486 276.878 83.3112 277.19 83.5068C277.506 83.6991 277.866 83.7952 278.271 83.7952C278.573 83.7952 278.855 83.7368 279.116 83.6201C279.377 83.5034 279.605 83.3421 279.801 83.1361C279.996 82.9268 280.149 82.6899 280.259 82.4256C280.369 82.1614 280.424 81.8833 280.424 81.5916C280.424 81.2037 280.331 80.8433 280.145 80.5104C279.964 80.1775 279.713 79.9097 279.394 79.7072C279.075 79.5013 278.711 79.3983 278.302 79.3983ZM285.649 87.3065L285.572 87.8676C285.521 88.2795 285.433 88.7086 285.309 89.1548C285.189 89.6044 285.064 90.0215 284.934 90.4059C284.807 90.7903 284.702 91.0958 284.62 91.3223H283.528C283.573 91.1095 283.634 90.8212 283.713 90.4574C283.792 90.097 283.87 89.6937 283.945 89.2475C284.021 88.8012 284.077 88.3465 284.115 87.8831L284.166 87.3065H285.649ZM287.581 86.6886V85.4015L292.138 78.2039H293.152V80.0985H292.508L289.249 85.2573V85.3397H295.495V86.6886H287.581ZM292.58 88.748V86.2973L292.591 85.7104V78.2039H294.099V88.748H292.58ZM300.795 78.0597C301.265 78.0631 301.729 78.1489 302.185 78.3171C302.642 78.4853 303.053 78.7599 303.421 79.1409C303.791 79.5219 304.087 80.0367 304.306 80.6854C304.529 81.3307 304.643 82.1339 304.646 83.095C304.646 84.0183 304.553 84.8403 304.368 85.5611C304.183 86.2785 303.917 86.8843 303.57 87.3785C303.227 87.8728 302.81 88.2486 302.319 88.5061C301.828 88.7635 301.276 88.8922 300.661 88.8922C300.033 88.8922 299.475 88.7686 298.988 88.5215C298.5 88.2744 298.104 87.9329 297.799 87.497C297.493 87.0576 297.303 86.5531 297.227 85.9833H298.797C298.9 86.4364 299.11 86.8036 299.425 87.0851C299.745 87.3631 300.157 87.5021 300.661 87.5021C301.433 87.5021 302.036 87.1657 302.468 86.493C302.901 85.8168 303.119 84.8729 303.122 83.6613H303.04C302.861 83.9565 302.638 84.2105 302.37 84.4233C302.106 84.6361 301.809 84.8008 301.48 84.9175C301.15 85.0342 300.798 85.0926 300.424 85.0926C299.817 85.0926 299.264 84.9433 298.766 84.6447C298.269 84.3461 297.872 83.9359 297.577 83.4142C297.282 82.8924 297.134 82.2969 297.134 81.6276C297.134 80.9617 297.285 80.3577 297.587 79.8153C297.893 79.273 298.319 78.844 298.864 78.5282C299.413 78.209 300.057 78.0528 300.795 78.0597ZM300.8 79.3983C300.399 79.3983 300.036 79.4978 299.714 79.6969C299.395 79.8926 299.142 80.1586 298.957 80.4949C298.772 80.8279 298.679 81.1986 298.679 81.607C298.679 82.0155 298.768 82.3862 298.947 82.7191C299.129 83.0486 299.376 83.3112 299.688 83.5068C300.004 83.6991 300.364 83.7952 300.769 83.7952C301.071 83.7952 301.353 83.7368 301.614 83.6201C301.874 83.5034 302.103 83.3421 302.298 83.1361C302.494 82.9268 302.647 82.6899 302.757 82.4256C302.866 82.1614 302.921 81.8833 302.921 81.5916C302.921 81.2037 302.829 80.8433 302.643 80.5104C302.461 80.1775 302.211 79.9097 301.892 79.7072C301.572 79.5013 301.209 79.3983 300.8 79.3983ZM306.506 88.748V87.5948L310.074 83.8981C310.455 83.4965 310.769 83.1447 311.016 82.8427C311.267 82.5372 311.454 82.2472 311.577 81.9726C311.701 81.698 311.763 81.4062 311.763 81.0973C311.763 80.7472 311.68 80.4452 311.516 80.1912C311.351 79.9338 311.126 79.7364 310.841 79.5991C310.556 79.4584 310.235 79.388 309.878 79.388C309.501 79.388 309.171 79.4652 308.89 79.6197C308.608 79.7742 308.392 79.9921 308.241 80.2736C308.09 80.555 308.014 80.8845 308.014 81.2621H306.496C306.496 80.6202 306.643 80.059 306.938 79.5785C307.234 79.098 307.639 78.7256 308.154 78.4613C308.668 78.1936 309.254 78.0597 309.909 78.0597C310.572 78.0597 311.155 78.1918 311.66 78.4561C312.168 78.717 312.564 79.074 312.849 79.527C313.134 79.9767 313.276 80.4847 313.276 81.051C313.276 81.4423 313.203 81.825 313.055 82.1991C312.911 82.5732 312.658 82.9903 312.298 83.4502C311.938 83.9067 311.437 84.461 310.795 85.1132L308.699 87.3065V87.3837H313.446V88.748H306.506ZM324.265 85.4684V80.8399H325.809V88.748H324.295V87.3785H324.213C324.031 87.8007 323.739 88.1525 323.338 88.434C322.94 88.712 322.444 88.851 321.85 88.851C321.342 88.851 320.892 88.7395 320.501 88.5164C320.113 88.2898 319.808 87.9552 319.585 87.5124C319.365 87.0696 319.255 86.5222 319.255 85.87V80.8399H320.794V85.6847C320.794 86.2235 320.944 86.6526 321.242 86.9718C321.541 87.291 321.929 87.4506 322.406 87.4506C322.694 87.4506 322.981 87.3785 323.266 87.2344C323.554 87.0902 323.793 86.8723 323.981 86.5805C324.174 86.2888 324.268 85.9181 324.265 85.4684ZM333.804 82.7706L332.408 83.0177C332.35 82.8392 332.257 82.6693 332.13 82.508C332.007 82.3467 331.838 82.2146 331.626 82.1116C331.413 82.0086 331.147 81.9571 330.828 81.9571C330.392 81.9571 330.028 82.055 329.736 82.2506C329.444 82.4428 329.299 82.6917 329.299 82.9971C329.299 83.2614 329.396 83.4742 329.592 83.6356C329.788 83.7969 330.103 83.929 330.539 84.032L331.796 84.3203C332.523 84.4885 333.066 84.7476 333.423 85.0977C333.779 85.4478 333.958 85.9026 333.958 86.4621C333.958 86.9358 333.821 87.3579 333.546 87.7286C333.275 88.0959 332.896 88.3842 332.408 88.5936C331.924 88.803 331.363 88.9077 330.725 88.9077C329.839 88.9077 329.117 88.7189 328.557 88.3413C327.998 87.9603 327.654 87.4197 327.527 86.7195L329.015 86.493C329.108 86.8808 329.299 87.1743 329.587 87.3734C329.875 87.569 330.251 87.6669 330.714 87.6669C331.219 87.6669 331.622 87.5622 331.924 87.3528C332.226 87.14 332.377 86.8808 332.377 86.5754C332.377 86.3282 332.285 86.1206 332.099 85.9524C331.917 85.7842 331.638 85.6572 331.26 85.5714L329.922 85.2779C329.184 85.1098 328.638 84.842 328.284 84.4748C327.934 84.1075 327.759 83.6424 327.759 83.0795C327.759 82.6127 327.89 82.2043 328.15 81.8542C328.411 81.5041 328.772 81.2312 329.232 81.0355C329.692 80.8365 330.218 80.7369 330.812 80.7369C331.667 80.7369 332.34 80.9223 332.83 81.293C333.321 81.6602 333.646 82.1528 333.804 82.7706ZM339.059 88.9077C338.28 88.9077 337.609 88.7412 337.046 88.4082C336.486 88.0719 336.054 87.5999 335.748 86.9924C335.446 86.3814 335.295 85.6658 335.295 84.8455C335.295 84.0354 335.446 83.3215 335.748 82.7037C336.054 82.0858 336.479 81.6036 337.025 81.2569C337.574 80.9103 338.216 80.7369 338.951 80.7369C339.397 80.7369 339.829 80.8107 340.248 80.9583C340.667 81.1059 341.043 81.3376 341.376 81.6534C341.709 81.9691 341.971 82.3793 342.163 82.8839C342.356 83.385 342.452 83.9942 342.452 84.7116V85.2573H336.165V84.1041H340.943C340.943 83.6991 340.861 83.3404 340.696 83.028C340.531 82.7123 340.3 82.4634 340.001 82.2815C339.706 82.0996 339.359 82.0086 338.961 82.0086C338.529 82.0086 338.151 82.115 337.828 82.3278C337.509 82.5372 337.262 82.8118 337.087 83.1516C336.915 83.488 336.83 83.8535 336.83 84.2482V85.1492C336.83 85.6778 336.922 86.1274 337.108 86.4981C337.296 86.8688 337.559 87.152 337.895 87.3476C338.232 87.5399 338.625 87.636 339.074 87.636C339.366 87.636 339.632 87.5948 339.872 87.5124C340.113 87.4266 340.32 87.2996 340.495 87.1314C340.67 86.9632 340.804 86.7556 340.897 86.5084L342.354 86.771C342.237 87.2001 342.028 87.5759 341.726 87.8985C341.427 88.2177 341.051 88.4666 340.598 88.6451C340.149 88.8201 339.636 88.9077 339.059 88.9077ZM344.16 88.748V80.8399H345.648V82.0961H345.73C345.874 81.6705 346.128 81.3359 346.492 81.0922C346.859 80.845 347.275 80.7215 347.738 80.7215C347.834 80.7215 347.947 80.7249 348.078 80.7318C348.212 80.7386 348.316 80.7472 348.392 80.7575V82.23C348.33 82.2128 348.22 82.194 348.062 82.1734C347.904 82.1493 347.747 82.1373 347.589 82.1373C347.225 82.1373 346.901 82.2146 346.616 82.369C346.334 82.52 346.111 82.7311 345.946 83.0023C345.782 83.27 345.699 83.5755 345.699 83.9187V88.748H344.16ZM355.65 82.7706L354.255 83.0177C354.196 82.8392 354.104 82.6693 353.977 82.508C353.853 82.3467 353.685 82.2146 353.472 82.1116C353.259 82.0086 352.993 81.9571 352.674 81.9571C352.238 81.9571 351.874 82.055 351.583 82.2506C351.291 82.4428 351.145 82.6917 351.145 82.9971C351.145 83.2614 351.243 83.4742 351.439 83.6356C351.634 83.7969 351.95 83.929 352.386 84.032L353.642 84.3203C354.37 84.4885 354.912 84.7476 355.269 85.0977C355.626 85.4478 355.804 85.9026 355.804 86.4621C355.804 86.9358 355.667 87.3579 355.393 87.7286C355.121 88.0959 354.742 88.3842 354.255 88.5936C353.771 88.803 353.21 88.9077 352.571 88.9077C351.686 88.9077 350.963 88.7189 350.404 88.3413C349.844 87.9603 349.501 87.4197 349.374 86.7195L350.862 86.493C350.955 86.8808 351.145 87.1743 351.433 87.3734C351.722 87.569 352.098 87.6669 352.561 87.6669C353.065 87.6669 353.469 87.5622 353.771 87.3528C354.073 87.14 354.224 86.8808 354.224 86.5754C354.224 86.3282 354.131 86.1206 353.946 85.9524C353.764 85.7842 353.484 85.6572 353.107 85.5714L351.768 85.2779C351.03 85.1098 350.484 84.842 350.131 84.4748C349.781 84.1075 349.606 83.6424 349.606 83.0795C349.606 82.6127 349.736 82.2043 349.997 81.8542C350.258 81.5041 350.618 81.2312 351.078 81.0355C351.538 80.8365 352.065 80.7369 352.659 80.7369C353.513 80.7369 354.186 80.9223 354.677 81.293C355.168 81.6602 355.492 82.1528 355.65 82.7706Z" fill="black"/>
</g>
<path d="M311.366 109.669C311.03 109.949 310.542 109.949 310.206 109.669L305.349 105.622L316.223 105.622L311.366 109.669Z" fill="white"/>
</g>
<defs>
<filter id="filter0_d_6053_106101" x="0" y="0" width="714.298" height="280" filterUnits="userSpaceOnUse" color-interpolation-filters="sRGB">
<feFlood flood-opacity="0" result="BackgroundImageFix"/>
<feColorMatrix in="SourceAlpha" type="matrix" values="0 0 0 0 0 0 0 0 0 0 0 0 0 0 0 0 0 0 127 0" result="hardAlpha"/>
<feOffset dy="-2"/>
<feGaussianBlur stdDeviation="10"/>
<feComposite in2="hardAlpha" operator="out"/>
<feColorMatrix type="matrix" values="0 0 0 0 0 0 0 0 0 0 0 0 0 0 0 0 0 0 0.03 0"/>
<feBlend mode="normal" in2="BackgroundImageFix" result="effect1_dropShadow_6053_106101"/>
<feBlend mode="normal" in="SourceGraphic" in2="effect1_dropShadow_6053_106101" result="shape"/>
</filter>
<filter id="filter1_d_6053_106101" x="290.157" y="106.586" width="25.3719" height="25.372" filterUnits="userSpaceOnUse" color-interpolation-filters="sRGB">
<feFlood flood-opacity="0" result="BackgroundImageFix"/>
<feColorMatrix in="SourceAlpha" type="matrix" values="0 0 0 0 0 0 0 0 0 0 0 0 0 0 0 0 0 0 127 0" result="hardAlpha"/>
<feOffset dy="1.81228"/>
<feGaussianBlur stdDeviation="4.53071"/>
<feComposite in2="hardAlpha" operator="out"/>
<feColorMatrix type="matrix" values="0 0 0 0 0.486275 0 0 0 0 0.552941 0 0 0 0 0.709804 0 0 0 0.12 0"/>
<feBlend mode="normal" in2="BackgroundImageFix" result="effect1_dropShadow_6053_106101"/>
<feBlend mode="normal" in="SourceGraphic" in2="effect1_dropShadow_6053_106101" result="shape"/>
</filter>
<filter id="filter2_d_6053_106101" x="244.851" y="38.6253" width="131.87" height="77.8702" filterUnits="userSpaceOnUse" color-interpolation-filters="sRGB">
<feFlood flood-opacity="0" result="BackgroundImageFix"/>
<feColorMatrix in="SourceAlpha" type="matrix" values="0 0 0 0 0 0 0 0 0 0 0 0 0 0 0 0 0 0 127 0" result="hardAlpha"/>
<feOffset dy="1.81228"/>
<feGaussianBlur stdDeviation="4.53071"/>
<feComposite in2="hardAlpha" operator="out"/>
<feColorMatrix type="matrix" values="0 0 0 0 0.486275 0 0 0 0 0.552941 0 0 0 0 0.709804 0 0 0 0.12 0"/>
<feBlend mode="normal" in2="BackgroundImageFix" result="effect1_dropShadow_6053_106101"/>
<feBlend mode="normal" in="SourceGraphic" in2="effect1_dropShadow_6053_106101" result="shape"/>
</filter>
<linearGradient id="paint0_linear_6053_106101" x1="302.842" y1="225.291" x2="302.842" y2="61.2795" gradientUnits="userSpaceOnUse">
<stop stop-color="#E6EDFF"/>
<stop offset="1" stop-color="#E6EDFF" stop-opacity="0"/>
</linearGradient>
</defs>
</svg>
