<svg width="60" height="60" viewBox="0 0 60 60" fill="none" xmlns="http://www.w3.org/2000/svg">
<g filter="url(#filter0_d_384_621)">
<rect x="9.01367" y="7.19189" width="41.7061" height="41.7061" rx="10.6237" fill="white" shape-rendering="crispEdges"/>
<path d="M35.9816 24.6051C36.7715 24.6056 37.5396 24.3466 38.1679 23.8679C38.7962 23.3892 39.2497 22.7173 39.4588 21.9556C39.6679 21.194 39.6209 20.3847 39.3251 19.6523C39.0292 18.9199 38.5009 18.3051 37.8215 17.9023C37.142 17.4996 36.349 17.3312 35.5646 17.4232C34.7801 17.5152 34.0475 17.8624 33.4797 18.4114C32.9118 18.9604 32.5401 19.6808 32.4217 20.4617C32.3033 21.2427 32.4448 22.0409 32.8244 22.7335L26.5917 25.9834C26.1332 25.394 25.5027 24.9618 24.7876 24.7467C24.0725 24.5315 23.3083 24.544 22.6006 24.7825C21.893 25.021 21.277 25.4737 20.8381 26.0778C20.3991 26.6819 20.1589 27.4075 20.1506 28.1542C20.1424 28.9009 20.3665 29.6317 20.792 30.2453C21.2175 30.859 21.8233 31.3251 22.5255 31.5792C23.2277 31.8333 23.9915 31.8627 24.7112 31.6634C25.4308 31.4641 26.0707 31.046 26.5422 30.4669L32.677 33.6565C32.3108 34.4982 32.2785 35.4478 32.5868 36.3124C32.895 37.177 33.5207 37.892 34.3368 38.3123C35.1529 38.7325 36.0983 38.8265 36.9812 38.5752C37.8641 38.3239 38.6183 37.7461 39.0907 36.9591C39.5632 36.1721 39.7185 35.2348 39.5252 34.3374C39.3319 33.44 38.8045 32.6498 38.0499 32.1271C37.2953 31.6044 36.3701 31.3884 35.462 31.5229C34.554 31.6573 33.7311 32.1322 33.1604 32.8512L27.0364 29.6673C27.2395 29.2161 27.3472 28.7278 27.3528 28.233C27.3584 27.7382 27.2618 27.2476 27.069 26.7919L33.3873 23.4973C33.7225 23.8476 34.1252 24.1263 34.5711 24.3167C35.017 24.5071 35.4968 24.6052 35.9816 24.6051Z" fill="#3D7100"/>
</g>
<defs>
<filter id="filter0_d_384_621" x="0.160598" y="0.109435" width="59.4122" height="59.4123" filterUnits="userSpaceOnUse" color-interpolation-filters="sRGB">
<feFlood flood-opacity="0" result="BackgroundImageFix"/>
<feColorMatrix in="SourceAlpha" type="matrix" values="0 0 0 0 0 0 0 0 0 0 0 0 0 0 0 0 0 0 127 0" result="hardAlpha"/>
<feOffset dy="1.77061"/>
<feGaussianBlur stdDeviation="4.42654"/>
<feComposite in2="hardAlpha" operator="out"/>
<feColorMatrix type="matrix" values="0 0 0 0 0.486275 0 0 0 0 0.552941 0 0 0 0 0.709804 0 0 0 0.12 0"/>
<feBlend mode="normal" in2="BackgroundImageFix" result="effect1_dropShadow_384_621"/>
<feBlend mode="normal" in="SourceGraphic" in2="effect1_dropShadow_384_621" result="shape"/>
</filter>
</defs>
</svg>
