<svg width="80" height="33" viewBox="0 0 80 33" fill="none" xmlns="http://www.w3.org/2000/svg">
<path d="M22.3068 0.454545H24.0682V10.0852C24.0682 11.0795 23.8338 11.9673 23.3651 12.7486C22.901 13.5251 22.2453 14.1383 21.3977 14.5881C20.5502 15.0331 19.5559 15.2557 18.4148 15.2557C17.2737 15.2557 16.2794 15.0331 15.4318 14.5881C14.5843 14.1383 13.9261 13.5251 13.4574 12.7486C12.9934 11.9673 12.7614 11.0795 12.7614 10.0852V0.454545H14.5227V9.94318C14.5227 10.6534 14.679 11.2855 14.9915 11.8395C15.304 12.3887 15.7491 12.822 16.3267 13.1392C16.9091 13.4517 17.6051 13.608 18.4148 13.608C19.2244 13.608 19.9205 13.4517 20.5028 13.1392C21.0852 12.822 21.5303 12.3887 21.8381 11.8395C22.1506 11.2855 22.3068 10.6534 22.3068 9.94318V0.454545ZM35.0856 6.53409L33.5799 6.96023C33.4852 6.70928 33.3455 6.46544 33.1609 6.22869C32.9809 5.98722 32.7347 5.78835 32.4222 5.6321C32.1097 5.47585 31.7096 5.39773 31.2219 5.39773C30.5543 5.39773 29.998 5.55161 29.5529 5.85938C29.1126 6.16241 28.8924 6.5483 28.8924 7.01705C28.8924 7.43371 29.0439 7.76278 29.3469 8.00426C29.65 8.24574 30.1235 8.44697 30.7674 8.60795L32.3867 9.00568C33.3621 9.24242 34.0889 9.60464 34.5671 10.0923C35.0453 10.5753 35.2844 11.1979 35.2844 11.9602C35.2844 12.5852 35.1045 13.1439 34.7447 13.6364C34.3896 14.1288 33.8924 14.517 33.2532 14.8011C32.614 15.0852 31.8706 15.2273 31.0231 15.2273C29.9104 15.2273 28.9895 14.9858 28.2603 14.5028C27.5311 14.0199 27.0695 13.3144 26.8754 12.3864L28.4663 11.9886C28.6178 12.5758 28.9042 13.0161 29.3256 13.3097C29.7518 13.6032 30.3081 13.75 30.9947 13.75C31.7759 13.75 32.3962 13.5843 32.8555 13.2528C33.3195 12.9167 33.5515 12.5142 33.5515 12.0455C33.5515 11.6667 33.4189 11.3494 33.1538 11.0938C32.8886 10.8333 32.4814 10.6392 31.9322 10.5114L30.114 10.0852C29.1149 9.84848 28.381 9.48153 27.9123 8.98438C27.4483 8.48248 27.2163 7.85511 27.2163 7.10227C27.2163 6.48674 27.3891 5.94223 27.7347 5.46875C28.0851 4.99527 28.561 4.62358 29.1623 4.35369C29.7683 4.08381 30.4549 3.94886 31.2219 3.94886C32.3015 3.94886 33.149 4.18561 33.7646 4.65909C34.3848 5.13258 34.8252 5.75758 35.0856 6.53409ZM42.3814 15.2273C41.3303 15.2273 40.4235 14.9953 39.6612 14.5312C38.9036 14.0625 38.3189 13.4091 37.907 12.571C37.4998 11.7282 37.2962 10.7481 37.2962 9.63068C37.2962 8.51326 37.4998 7.52841 37.907 6.67614C38.3189 5.81913 38.8918 5.15152 39.6257 4.6733C40.3643 4.19034 41.2261 3.94886 42.2109 3.94886C42.7791 3.94886 43.3402 4.04356 43.8942 4.23295C44.4482 4.42235 44.9524 4.73011 45.407 5.15625C45.8615 5.57765 46.2237 6.13636 46.4936 6.83239C46.7635 7.52841 46.8984 8.38542 46.8984 9.40341V10.1136H38.4893V8.66477H45.1939C45.1939 8.04924 45.0708 7.5 44.8246 7.01705C44.5831 6.53409 44.2375 6.15294 43.7876 5.87358C43.3426 5.59422 42.817 5.45455 42.2109 5.45455C41.5433 5.45455 40.9657 5.62026 40.478 5.9517C39.995 6.27841 39.6233 6.70455 39.3629 7.23011C39.1025 7.75568 38.9723 8.31913 38.9723 8.92045V9.88636C38.9723 10.7102 39.1143 11.4086 39.3984 11.9815C39.6873 12.5497 40.0874 12.983 40.5987 13.2812C41.1101 13.5748 41.7043 13.7216 42.3814 13.7216C42.8217 13.7216 43.2195 13.66 43.5746 13.5369C43.9344 13.4091 44.2446 13.2197 44.505 12.9688C44.7654 12.7131 44.9666 12.3958 45.1087 12.017L46.728 12.4716C46.5575 13.0208 46.2711 13.5038 45.8686 13.9205C45.4661 14.3324 44.969 14.6544 44.3771 14.8864C43.7853 15.1136 43.12 15.2273 42.3814 15.2273ZM49.4482 15V4.09091H51.0675V5.73864H51.1811C51.38 5.19886 51.7398 4.76089 52.2607 4.42472C52.7815 4.08854 53.3686 3.92045 54.022 3.92045C54.1451 3.92045 54.299 3.92282 54.4837 3.92756C54.6683 3.93229 54.808 3.93939 54.9027 3.94886V5.65341C54.8459 5.6392 54.7157 5.6179 54.5121 5.58949C54.3132 5.55634 54.1025 5.53977 53.88 5.53977C53.3497 5.53977 52.8762 5.65104 52.4595 5.87358C52.0476 6.09138 51.7209 6.39441 51.4794 6.78267C51.2427 7.16619 51.1243 7.60417 51.1243 8.09659V15H49.4482ZM64.6168 6.53409L63.1112 6.96023C63.0165 6.70928 62.8768 6.46544 62.6921 6.22869C62.5122 5.98722 62.266 5.78835 61.9535 5.6321C61.641 5.47585 61.2409 5.39773 60.7532 5.39773C60.0856 5.39773 59.5292 5.55161 59.0842 5.85938C58.6438 6.16241 58.4237 6.5483 58.4237 7.01705C58.4237 7.43371 58.5752 7.76278 58.8782 8.00426C59.1812 8.24574 59.6547 8.44697 60.2987 8.60795L61.918 9.00568C62.8933 9.24242 63.6201 9.60464 64.0984 10.0923C64.5766 10.5753 64.8157 11.1979 64.8157 11.9602C64.8157 12.5852 64.6358 13.1439 64.2759 13.6364C63.9208 14.1288 63.4237 14.517 62.7844 14.8011C62.1452 15.0852 61.4019 15.2273 60.5543 15.2273C59.4416 15.2273 58.5207 14.9858 57.7915 14.5028C57.0624 14.0199 56.6007 13.3144 56.4066 12.3864L57.9975 11.9886C58.149 12.5758 58.4355 13.0161 58.8569 13.3097C59.283 13.6032 59.8394 13.75 60.5259 13.75C61.3072 13.75 61.9274 13.5843 62.3867 13.2528C62.8507 12.9167 63.0827 12.5142 63.0827 12.0455C63.0827 11.6667 62.9502 11.3494 62.685 11.0938C62.4199 10.8333 62.0127 10.6392 61.4634 10.5114L59.6452 10.0852C58.6462 9.84848 57.9123 9.48153 57.4435 8.98438C56.9795 8.48248 56.7475 7.85511 56.7475 7.10227C56.7475 6.48674 56.9203 5.94223 57.266 5.46875C57.6164 4.99527 58.0922 4.62358 58.6935 4.35369C59.2996 4.08381 59.9862 3.94886 60.7532 3.94886C61.8327 3.94886 62.6803 4.18561 63.2958 4.65909C63.9161 5.13258 64.3564 5.75758 64.6168 6.53409Z" fill="#4D4D4D"/>
<path d="M0 31C0 28.2386 2.23858 26 5 26H75C77.7614 26 80 28.2386 80 31V33H0V31Z" fill="#3D7100"/>
</svg>
