<svg width="40" height="40" viewBox="0 0 40 40" fill="none" xmlns="http://www.w3.org/2000/svg">
<path d="M4.99618 30.0011C4.99609 29.8935 4.99609 29.7825 4.99609 29.668V10.3346C4.99609 8.46779 4.99609 7.53368 5.35941 6.82064C5.67898 6.19343 6.18855 5.68387 6.81576 5.36429C7.52879 5.00098 8.46291 5.00098 10.3298 5.00098H29.6631C31.5299 5.00098 32.4629 5.00098 33.1759 5.36429C33.8031 5.68387 34.3136 6.19343 34.6331 6.82064C34.9961 7.53298 34.9961 8.46597 34.9961 10.3292V29.6728C34.9961 30.4811 34.9961 31.1142 34.9665 31.63M4.99618 30.0011C4.99746 31.6483 5.01838 32.5107 5.35941 33.18C5.67898 33.8072 6.18855 34.3184 6.81576 34.638C7.5281 35.001 8.46108 35.001 10.3243 35.001H29.6687C31.5319 35.001 32.4636 35.001 33.1759 34.638C33.8031 34.3184 34.3136 33.8072 34.6331 33.18C34.8386 32.7767 34.9278 32.3031 34.9665 31.63M4.99618 30.0011L12.9427 20.7301L12.9451 20.7276C13.6499 19.9053 14.0029 19.4935 14.4215 19.3451C14.7893 19.2147 15.1909 19.2177 15.5568 19.3532C15.9738 19.5076 16.3212 19.9241 17.016 20.7578L21.4679 26.1001C22.111 26.8719 22.4344 27.26 22.8271 27.4158C23.1735 27.5532 23.5555 27.5687 23.9129 27.4632C24.3198 27.3431 24.6779 26.985 25.394 26.2689L26.2225 25.4404C26.9517 24.7113 27.3162 24.347 27.7289 24.2279C28.0913 24.1233 28.4788 24.1457 28.8275 24.2897C29.2245 24.4537 29.5464 24.8549 30.1906 25.6602L34.9665 31.63M34.9665 31.63L34.9961 31.667M24.9961 15.001C24.0756 15.001 23.3294 14.2548 23.3294 13.3343C23.3294 12.4138 24.0756 11.6676 24.9961 11.6676C25.9166 11.6676 26.6628 12.4138 26.6628 13.3343C26.6628 14.2548 25.9166 15.001 24.9961 15.001Z" stroke="#C1CAD5" stroke-width="2" stroke-linecap="round" stroke-linejoin="round"/>
</svg>
