<svg width="117" height="38" viewBox="0 0 117 38" fill="none" xmlns="http://www.w3.org/2000/svg">
<path d="M1.99979 24.2858C6.75423 24.3231 7.28588 28.6237 10.6793 29.843C14.0728 31.0623 15.4894 15.3135 19.3605 14.7907C23.2316 14.2679 24.5964 34.9384 28.0417 33.8605C31.4871 32.7826 31.7457 23.4501 36.2889 21.9299C40.8321 20.4098 40.4445 35.7251 44.536 36.1548C48.6276 36.5844 48.5592 1.76825 52.7832 1.76825C57.0072 1.76825 57.4343 25.4328 61.8985 25.0365C66.3626 24.6403 66.4514 11.4643 71.2443 11.4643C76.0372 11.4643 77.5435 23.1644 81.7574 24.2486C85.9713 25.3327 84.913 37.6919 89.2443 33.8605C93.5755 30.0291 93.0035 15.457 97.0574 14.7907C101.111 14.1244 102.451 23.4558 105.945 25.0365C109.439 26.6173 111.112 33.9069 114.55 33.9069" stroke="#3D7100" stroke-width="3.1264" stroke-linecap="round"/>
</svg>
