<svg width="46" height="58" viewBox="0 0 46 58" fill="none" xmlns="http://www.w3.org/2000/svg">
<g clip-path="url(#clip0_1_22)">
<path d="M45.2825 9.47527V55.5039C45.2825 56.3198 44.6152 56.9871 43.7988 56.9871H7.10868C6.29222 56.9871 5.62497 56.3198 5.62497 55.5039V2.54634C5.62497 1.73047 6.29222 1.0632 7.10868 1.0632H36.8541L45.2825 9.47527Z" stroke="#DADADA" stroke-width="1.01312"/>
<path d="M45.2825 9.47527V55.5039C45.2825 56.3198 44.6152 56.9871 43.7988 56.9871H7.10868C6.29222 56.9871 5.62497 56.3198 5.62497 55.5039V2.54634C5.62497 1.73047 6.29222 1.0632 7.10868 1.0632H36.8541L45.2825 9.47527Z" stroke="#DADADA" stroke-width="1.01312"/>
<path d="M45.789 9.26516V55.5039C45.789 56.5997 44.8948 57.4936 43.7987 57.4936H40.9576C42.0537 57.4936 42.9478 56.5997 42.9478 55.5039V9.26516L34.2368 0.556641H37.078L45.789 9.26516Z" fill="#E5E5E5"/>
<path d="M45.789 9.26516V55.5039C45.789 56.5997 44.8948 57.4936 43.7987 57.4936H40.9576C42.0537 57.4936 42.9478 56.5997 42.9478 55.5039V9.26516L34.2368 0.556641H37.078L45.789 9.26516Z" fill="#E5E5E5"/>
<path d="M45.7892 9.26516H39.054C37.9579 9.26516 37.0637 8.37124 37.0637 7.27547V0.556641L45.7892 9.26516Z" fill="#CECECE"/>
<path d="M45.7892 9.26516H39.054C37.9579 9.26516 37.0637 8.37124 37.0637 7.27547V0.556641L45.7892 9.26516Z" fill="#CECECE"/>
<path d="M38.5574 47.7657H0.66748V37.1272C0.66748 36.3307 1.59762 35.667 2.77398 35.667H38.5574C39.7064 35.667 40.6639 36.3117 40.6639 37.1272V46.3055C40.6639 47.1019 39.7337 47.7657 38.5574 47.7657Z" fill="#9D66A6"/>
<path d="M38.5574 47.7657H0.66748V37.1272C0.66748 36.3307 1.59762 35.667 2.77398 35.667H38.5574C39.7064 35.667 40.6639 36.3117 40.6639 37.1272V46.3055C40.6639 47.1019 39.7337 47.7657 38.5574 47.7657Z" fill="#9D66A6"/>
<path d="M40.6639 46.1158V46.3055C40.6639 47.1019 39.7337 47.7657 38.5574 47.7657H0.66748V37.1272C0.66748 36.3307 1.59762 35.667 2.77398 35.667H3.84092V39.4597C3.84092 43.1386 8.13603 46.1348 13.4707 46.1348H40.6639V46.1158Z" fill="#883D94"/>
<path d="M40.6639 46.1158V46.3055C40.6639 47.1019 39.7337 47.7657 38.5574 47.7657H0.66748V37.1272C0.66748 36.3307 1.59762 35.667 2.77398 35.667H3.84092V39.4597C3.84092 43.1386 8.13603 46.1348 13.4707 46.1348H40.6639V46.1158Z" fill="#883D94"/>
<path d="M0.66748 47.7627L5.06825 52.769V47.7627H0.66748Z" fill="#610172"/>
<path d="M33.1418 51.2899H5.08716V47.7627H37.5463V48.3316C37.5183 49.9625 35.5544 51.2899 33.1418 51.2899Z" fill="#E5E5E5"/>
<path d="M33.1418 51.2899H5.08716V47.7627H37.5463V48.3316C37.5183 49.9625 35.5544 51.2899 33.1418 51.2899Z" fill="#E5E5E5"/>
<path d="M11.2528 37.2727H13.0767V43.358C13.0767 43.9205 12.9503 44.4091 12.6974 44.8239C12.4474 45.2386 12.0994 45.5582 11.6534 45.7827C11.2074 46.0071 10.6889 46.1193 10.098 46.1193C9.57244 46.1193 9.09517 46.027 8.66619 45.8423C8.24006 45.6548 7.90199 45.3707 7.65199 44.9901C7.40199 44.6065 7.27841 44.125 7.28125 43.5455H9.1179C9.12358 43.7756 9.17045 43.973 9.25852 44.1378C9.34943 44.2997 9.47301 44.4247 9.62926 44.5128C9.78835 44.598 9.97585 44.6406 10.1918 44.6406C10.419 44.6406 10.6108 44.5923 10.767 44.4957C10.9261 44.3963 11.0469 44.2514 11.1293 44.0611C11.2116 43.8707 11.2528 43.6364 11.2528 43.358V37.2727ZM14.6023 46V37.2727H18.0455C18.7074 37.2727 19.2713 37.3991 19.7372 37.652C20.2031 37.902 20.5582 38.25 20.8026 38.696C21.0497 39.1392 21.1733 39.6506 21.1733 40.2301C21.1733 40.8097 21.0483 41.321 20.7983 41.7642C20.5483 42.2074 20.1861 42.5526 19.7116 42.7997C19.2401 43.0469 18.669 43.1705 17.9986 43.1705H15.804V41.6918H17.7003C18.0554 41.6918 18.348 41.6307 18.5781 41.5085C18.8111 41.3835 18.9844 41.2116 19.098 40.9929C19.2145 40.7713 19.2727 40.517 19.2727 40.2301C19.2727 39.9403 19.2145 39.6875 19.098 39.4716C18.9844 39.2528 18.8111 39.0838 18.5781 38.9645C18.3452 38.8423 18.0497 38.7812 17.6918 38.7812H16.4474V46H14.6023ZM22.3718 46V37.2727H28.2525V38.794H24.217V40.8736H27.9499V42.3949H24.217V44.4787H28.2695V46H22.3718ZM35.5064 40.0938C35.4467 39.8864 35.3629 39.7031 35.255 39.544C35.147 39.3821 35.0149 39.2457 34.8587 39.1349C34.7053 39.0213 34.5291 38.9347 34.3303 38.875C34.1342 38.8153 33.9169 38.7855 33.6783 38.7855C33.2322 38.7855 32.8402 38.8963 32.5021 39.1179C32.1669 39.3395 31.9055 39.6619 31.718 40.0852C31.5305 40.5057 31.4368 41.0199 31.4368 41.6278C31.4368 42.2358 31.5291 42.7528 31.7138 43.179C31.8984 43.6051 32.1598 43.9304 32.4979 44.1548C32.8359 44.3764 33.2351 44.4872 33.6953 44.4872C34.1129 44.4872 34.4695 44.4134 34.7649 44.2656C35.0632 44.1151 35.2905 43.9034 35.4467 43.6307C35.6058 43.358 35.6854 43.0355 35.6854 42.6634L36.0604 42.7188H33.8104V41.3295H37.4624V42.429C37.4624 43.196 37.3004 43.8551 36.9766 44.4062C36.6527 44.9545 36.2067 45.3778 35.6385 45.6761C35.0703 45.9716 34.4197 46.1193 33.6868 46.1193C32.8686 46.1193 32.1499 45.9389 31.5305 45.5781C30.9112 45.2145 30.4283 44.6989 30.0817 44.0312C29.7379 43.3608 29.5661 42.5653 29.5661 41.6449C29.5661 40.9375 29.6683 40.3068 29.8729 39.7528C30.0803 39.196 30.37 38.7244 30.7422 38.3381C31.1143 37.9517 31.5476 37.6577 32.0419 37.456C32.5362 37.2543 33.0717 37.1534 33.6484 37.1534C34.1428 37.1534 34.603 37.2259 35.0291 37.3707C35.4553 37.5128 35.8331 37.7145 36.1626 37.9759C36.495 38.2372 36.7663 38.5483 36.9766 38.9091C37.1868 39.267 37.3217 39.6619 37.3814 40.0938H35.5064Z" fill="white"/>
</g>
<defs>
<clipPath id="clip0_1_22">
<rect width="46" height="58" fill="white"/>
</clipPath>
</defs>
</svg>
