<svg width="46" height="58" viewBox="0 0 46 58" fill="none" xmlns="http://www.w3.org/2000/svg">
<g clip-path="url(#clip0_1_2)">
<path d="M45.2825 9.47527V55.5039C45.2825 56.3198 44.6152 56.9871 43.7988 56.9871H7.10868C6.29222 56.9871 5.62497 56.3198 5.62497 55.5039V2.54634C5.62497 1.73047 6.29222 1.0632 7.10868 1.0632H36.8541L45.2825 9.47527Z" stroke="#DADADA" stroke-width="1.01312"/>
<path d="M45.789 9.26516V55.5039C45.789 56.5997 44.8948 57.4936 43.7987 57.4936H40.9576C42.0537 57.4936 42.9478 56.5997 42.9478 55.5039V9.26516L34.2368 0.556641H37.078L45.789 9.26516Z" fill="#E5E5E5"/>
<path d="M45.7892 9.26516H39.054C37.9579 9.26516 37.0637 8.37124 37.0637 7.27547V0.556641L45.7892 9.26516Z" fill="#CECECE"/>
<path d="M38.5574 47.7657H0.66748V37.1272C0.66748 36.3307 1.59762 35.667 2.77398 35.667H38.5574C39.7064 35.667 40.6639 36.3117 40.6639 37.1272V46.3055C40.6639 47.1019 39.7337 47.7657 38.5574 47.7657Z" fill="#6669A6"/>
<path d="M40.6639 46.1158V46.3055C40.6639 47.1019 39.7337 47.7657 38.5574 47.7657H0.66748V37.1272C0.66748 36.3307 1.59762 35.667 2.77398 35.667H3.84092V39.4597C3.84092 43.1386 8.13603 46.1348 13.4707 46.1348H40.6639V46.1158Z" fill="#3F3D94"/>
<path d="M0.66748 47.7627L5.06825 52.769V47.7627H0.66748Z" fill="#010672"/>
<path d="M33.1418 51.2899H5.08716V47.7627H37.5463V48.3316C37.5183 49.9625 35.5544 51.2899 33.1418 51.2899Z" fill="#E5E5E5"/>
<path d="M17.2528 37.2727H19.0767V43.358C19.0767 43.9205 18.9503 44.4091 18.6974 44.8239C18.4474 45.2386 18.0994 45.5582 17.6534 45.7827C17.2074 46.0071 16.6889 46.1193 16.098 46.1193C15.5724 46.1193 15.0952 46.027 14.6662 45.8423C14.2401 45.6548 13.902 45.3707 13.652 44.9901C13.402 44.6065 13.2784 44.125 13.2812 43.5455H15.1179C15.1236 43.7756 15.1705 43.973 15.2585 44.1378C15.3494 44.2997 15.473 44.4247 15.6293 44.5128C15.7884 44.598 15.9759 44.6406 16.1918 44.6406C16.419 44.6406 16.6108 44.5923 16.767 44.4957C16.9261 44.3963 17.0469 44.2514 17.1293 44.0611C17.2116 43.8707 17.2528 43.6364 17.2528 43.358V37.2727ZM20.6023 46V37.2727H24.0455C24.7074 37.2727 25.2713 37.3991 25.7372 37.652C26.2031 37.902 26.5582 38.25 26.8026 38.696C27.0497 39.1392 27.1733 39.6506 27.1733 40.2301C27.1733 40.8097 27.0483 41.321 26.7983 41.7642C26.5483 42.2074 26.1861 42.5526 25.7116 42.7997C25.2401 43.0469 24.669 43.1705 23.9986 43.1705H21.804V41.6918H23.7003C24.0554 41.6918 24.348 41.6307 24.5781 41.5085C24.8111 41.3835 24.9844 41.2116 25.098 40.9929C25.2145 40.7713 25.2727 40.517 25.2727 40.2301C25.2727 39.9403 25.2145 39.6875 25.098 39.4716C24.9844 39.2528 24.8111 39.0838 24.5781 38.9645C24.3452 38.8423 24.0497 38.7812 23.6918 38.7812H22.4474V46H20.6023ZM34.1587 40.0938C34.0991 39.8864 34.0153 39.7031 33.9073 39.544C33.7994 39.3821 33.6673 39.2457 33.511 39.1349C33.3576 39.0213 33.1815 38.9347 32.9826 38.875C32.7866 38.8153 32.5692 38.7855 32.3306 38.7855C31.8846 38.7855 31.4925 38.8963 31.1545 39.1179C30.8192 39.3395 30.5579 39.6619 30.3704 40.0852C30.1829 40.5057 30.0891 41.0199 30.0891 41.6278C30.0891 42.2358 30.1815 42.7528 30.3661 43.179C30.5508 43.6051 30.8121 43.9304 31.1502 44.1548C31.4883 44.3764 31.8874 44.4872 32.3477 44.4872C32.7653 44.4872 33.1218 44.4134 33.4173 44.2656C33.7156 44.1151 33.9428 43.9034 34.0991 43.6307C34.2582 43.358 34.3377 43.0355 34.3377 42.6634L34.7127 42.7188H32.4627V41.3295H36.1147V42.429C36.1147 43.196 35.9528 43.8551 35.6289 44.4062C35.305 44.9545 34.859 45.3778 34.2908 45.6761C33.7227 45.9716 33.0721 46.1193 32.3391 46.1193C31.521 46.1193 30.8022 45.9389 30.1829 45.5781C29.5636 45.2145 29.0806 44.6989 28.734 44.0312C28.3903 43.3608 28.2184 42.5653 28.2184 41.6449C28.2184 40.9375 28.3207 40.3068 28.5252 39.7528C28.7326 39.196 29.0224 38.7244 29.3945 38.3381C29.7667 37.9517 30.1999 37.6577 30.6942 37.456C31.1886 37.2543 31.7241 37.1534 32.3008 37.1534C32.7951 37.1534 33.2553 37.2259 33.6815 37.3707C34.1076 37.5128 34.4854 37.7145 34.815 37.9759C35.1474 38.2372 35.4187 38.5483 35.6289 38.9091C35.8391 39.267 35.9741 39.6619 36.0337 40.0938H34.1587Z" fill="white"/>
</g>
<defs>
<clipPath id="clip0_1_2">
<rect width="46" height="58" fill="white"/>
</clipPath>
</defs>
</svg>
