<svg width="46" height="58" viewBox="0 0 46 58" fill="none" xmlns="http://www.w3.org/2000/svg">
<g clip-path="url(#clip0_2_83)">
<path d="M45.2825 9.47527V55.5039C45.2825 56.3198 44.6152 56.9871 43.7988 56.9871H7.10868C6.29222 56.9871 5.62497 56.3198 5.62497 55.5039V2.54634C5.62497 1.73047 6.29222 1.0632 7.10868 1.0632H36.8541L45.2825 9.47527Z" stroke="#DADADA" stroke-width="1.01312"/>
<path d="M45.2825 9.47527V55.5039C45.2825 56.3198 44.6152 56.9871 43.7988 56.9871H7.10868C6.29222 56.9871 5.62497 56.3198 5.62497 55.5039V2.54634C5.62497 1.73047 6.29222 1.0632 7.10868 1.0632H36.8541L45.2825 9.47527Z" stroke="#DADADA" stroke-width="1.01312"/>
<path d="M45.789 9.26516V55.5039C45.789 56.5997 44.8948 57.4936 43.7987 57.4936H40.9576C42.0537 57.4936 42.9478 56.5997 42.9478 55.5039V9.26516L34.2368 0.556641H37.078L45.789 9.26516Z" fill="#E5E5E5"/>
<path d="M45.789 9.26516V55.5039C45.789 56.5997 44.8948 57.4936 43.7987 57.4936H40.9576C42.0537 57.4936 42.9478 56.5997 42.9478 55.5039V9.26516L34.2368 0.556641H37.078L45.789 9.26516Z" fill="#E5E5E5"/>
<path d="M45.7892 9.26516H39.054C37.9579 9.26516 37.0637 8.37124 37.0637 7.27547V0.556641L45.7892 9.26516Z" fill="#CECECE"/>
<path d="M45.7892 9.26516H39.054C37.9579 9.26516 37.0637 8.37124 37.0637 7.27547V0.556641L45.7892 9.26516Z" fill="#CECECE"/>
<path d="M38.5574 47.7657H0.66748V37.1272C0.66748 36.3307 1.59762 35.667 2.77398 35.667H38.5574C39.7064 35.667 40.6639 36.3117 40.6639 37.1272V46.3055C40.6639 47.1019 39.7337 47.7657 38.5574 47.7657Z" fill="#9D66A6"/>
<path d="M38.5574 47.7657H0.66748V37.1272C0.66748 36.3307 1.59762 35.667 2.77398 35.667H38.5574C39.7064 35.667 40.6639 36.3117 40.6639 37.1272V46.3055C40.6639 47.1019 39.7337 47.7657 38.5574 47.7657Z" fill="#A66666"/>
<path d="M40.6639 46.1158V46.3055C40.6639 47.1019 39.7337 47.7657 38.5574 47.7657H0.66748V37.1272C0.66748 36.3307 1.59762 35.667 2.77398 35.667H3.84092V39.4597C3.84092 43.1386 8.13603 46.1348 13.4707 46.1348H40.6639V46.1158Z" fill="#883D94"/>
<path d="M40.6639 46.1158V46.3055C40.6639 47.1019 39.7337 47.7657 38.5574 47.7657H0.66748V37.1272C0.66748 36.3307 1.59762 35.667 2.77398 35.667H3.84092V39.4597C3.84092 43.1386 8.13603 46.1348 13.4707 46.1348H40.6639V46.1158Z" fill="#943D3D"/>
<path d="M0.66748 47.7627L5.06825 52.769V47.7627H0.66748Z" fill="#720101"/>
<path d="M33.1418 51.2899H5.08716V47.7627H37.5463V48.3316C37.5183 49.9625 35.5544 51.2899 33.1418 51.2899Z" fill="#E5E5E5"/>
<path d="M33.1418 51.2899H5.08716V47.7627H37.5463V48.3316C37.5183 49.9625 35.5544 51.2899 33.1418 51.2899Z" fill="#E5E5E5"/>
<path d="M13.7585 46V37.2727H17.2017C17.8636 37.2727 18.4276 37.3991 18.8935 37.652C19.3594 37.902 19.7145 38.25 19.9588 38.696C20.206 39.1392 20.3295 39.6506 20.3295 40.2301C20.3295 40.8097 20.2045 41.321 19.9545 41.7642C19.7045 42.2074 19.3423 42.5526 18.8679 42.7997C18.3963 43.0469 17.8253 43.1705 17.1548 43.1705H14.9602V41.6918H16.8565C17.2116 41.6918 17.5043 41.6307 17.7344 41.5085C17.9673 41.3835 18.1406 41.2116 18.2543 40.9929C18.3707 40.7713 18.429 40.517 18.429 40.2301C18.429 39.9403 18.3707 39.6875 18.2543 39.4716C18.1406 39.2528 17.9673 39.0838 17.7344 38.9645C17.5014 38.8423 17.206 38.7812 16.848 38.7812H15.6037V46H13.7585ZM24.6218 46H21.5281V37.2727H24.6474C25.5252 37.2727 26.2809 37.4474 26.9144 37.7969C27.5479 38.1435 28.0352 38.642 28.3761 39.2926C28.7198 39.9432 28.8917 40.7216 28.8917 41.6278C28.8917 42.5369 28.7198 43.3182 28.3761 43.9716C28.0352 44.625 27.5451 45.1264 26.9059 45.4759C26.2695 45.8253 25.5082 46 24.6218 46ZM23.3732 44.419H24.5451C25.0906 44.419 25.5494 44.3224 25.9215 44.1293C26.2965 43.9332 26.5778 43.6307 26.7653 43.2216C26.9556 42.8097 27.0508 42.2784 27.0508 41.6278C27.0508 40.983 26.9556 40.456 26.7653 40.0469C26.5778 39.6378 26.2979 39.3366 25.9258 39.1435C25.5536 38.9503 25.0948 38.8537 24.5494 38.8537H23.3732V44.419ZM30.2585 46V37.2727H36.0369V38.794H32.1037V40.8736H35.6534V42.3949H32.1037V46H30.2585Z" fill="white"/>
</g>
<defs>
<clipPath id="clip0_2_83">
<rect width="46" height="58" fill="white"/>
</clipPath>
</defs>
</svg>