<svg width="46" height="58" viewBox="0 0 46 58" fill="none" xmlns="http://www.w3.org/2000/svg">
<g clip-path="url(#clip0_2_54)">
<path d="M45.2825 9.47527V55.5039C45.2825 56.3198 44.6152 56.9871 43.7988 56.9871H7.10868C6.29222 56.9871 5.62497 56.3198 5.62497 55.5039V2.54634C5.62497 1.73047 6.29222 1.0632 7.10868 1.0632H36.8541L45.2825 9.47527Z" stroke="#DADADA" stroke-width="1.01312"/>
<path d="M45.2825 9.47527V55.5039C45.2825 56.3198 44.6152 56.9871 43.7988 56.9871H7.10868C6.29222 56.9871 5.62497 56.3198 5.62497 55.5039V2.54634C5.62497 1.73047 6.29222 1.0632 7.10868 1.0632H36.8541L45.2825 9.47527Z" stroke="#DADADA" stroke-width="1.01312"/>
<path d="M45.789 9.26516V55.5039C45.789 56.5997 44.8948 57.4936 43.7987 57.4936H40.9576C42.0537 57.4936 42.9478 56.5997 42.9478 55.5039V9.26516L34.2368 0.556641H37.078L45.789 9.26516Z" fill="#E5E5E5"/>
<path d="M45.789 9.26516V55.5039C45.789 56.5997 44.8948 57.4936 43.7987 57.4936H40.9576C42.0537 57.4936 42.9478 56.5997 42.9478 55.5039V9.26516L34.2368 0.556641H37.078L45.789 9.26516Z" fill="#E5E5E5"/>
<path d="M45.7892 9.26516H39.054C37.9579 9.26516 37.0637 8.37124 37.0637 7.27547V0.556641L45.7892 9.26516Z" fill="#CECECE"/>
<path d="M45.7892 9.26516H39.054C37.9579 9.26516 37.0637 8.37124 37.0637 7.27547V0.556641L45.7892 9.26516Z" fill="#CECECE"/>
<path d="M38.5574 47.7657H0.66748V37.1272C0.66748 36.3307 1.59762 35.667 2.77398 35.667H38.5574C39.7064 35.667 40.6639 36.3117 40.6639 37.1272V46.3055C40.6639 47.1019 39.7337 47.7657 38.5574 47.7657Z" fill="#9D66A6"/>
<path d="M38.5574 47.7657H0.66748V37.1272C0.66748 36.3307 1.59762 35.667 2.77398 35.667H38.5574C39.7064 35.667 40.6639 36.3117 40.6639 37.1272V46.3055C40.6639 47.1019 39.7337 47.7657 38.5574 47.7657Z" fill="#66A2A6"/>
<path d="M40.6639 46.1158V46.3055C40.6639 47.1019 39.7337 47.7657 38.5574 47.7657H0.66748V37.1272C0.66748 36.3307 1.59762 35.667 2.77398 35.667H3.84092V39.4597C3.84092 43.1386 8.13603 46.1348 13.4707 46.1348H40.6639V46.1158Z" fill="#883D94"/>
<path d="M40.6639 46.1158V46.3055C40.6639 47.1019 39.7337 47.7657 38.5574 47.7657H0.66748V37.1272C0.66748 36.3307 1.59762 35.667 2.77398 35.667H3.84092V39.4597C3.84092 43.1386 8.13603 46.1348 13.4707 46.1348H40.6639V46.1158Z" fill="#3D9494"/>
<path d="M0.66748 47.7627L5.06825 52.769V47.7627H0.66748Z" fill="#014972"/>
<path d="M33.1418 51.2899H5.08716V47.7627H37.5463V48.3316C37.5183 49.9625 35.5544 51.2899 33.1418 51.2899Z" fill="#E5E5E5"/>
<path d="M33.1418 51.2899H5.08716V47.7627H37.5463V48.3316C37.5183 49.9625 35.5544 51.2899 33.1418 51.2899Z" fill="#E5E5E5"/>
<path d="M11.7585 46V37.2727H15.2017C15.8636 37.2727 16.4276 37.3991 16.8935 37.652C17.3594 37.902 17.7145 38.25 17.9588 38.696C18.206 39.1392 18.3295 39.6506 18.3295 40.2301C18.3295 40.8097 18.2045 41.321 17.9545 41.7642C17.7045 42.2074 17.3423 42.5526 16.8679 42.7997C16.3963 43.0469 15.8253 43.1705 15.1548 43.1705H12.9602V41.6918H14.8565C15.2116 41.6918 15.5043 41.6307 15.7344 41.5085C15.9673 41.3835 16.1406 41.2116 16.2543 40.9929C16.3707 40.7713 16.429 40.517 16.429 40.2301C16.429 39.9403 16.3707 39.6875 16.2543 39.4716C16.1406 39.2528 15.9673 39.0838 15.7344 38.9645C15.5014 38.8423 15.206 38.7812 14.848 38.7812H13.6037V46H11.7585ZM26.8278 37.2727V46H25.234L21.4371 40.5071H21.3732V46H19.5281V37.2727H21.1474L24.9144 42.7614H24.9911V37.2727H26.8278ZM34.1392 40.0938C34.0795 39.8864 33.9957 39.7031 33.8878 39.544C33.7798 39.3821 33.6477 39.2457 33.4915 39.1349C33.3381 39.0213 33.1619 38.9347 32.9631 38.875C32.767 38.8153 32.5497 38.7855 32.3111 38.7855C31.8651 38.7855 31.473 38.8963 31.1349 39.1179C30.7997 39.3395 30.5384 39.6619 30.3509 40.0852C30.1634 40.5057 30.0696 41.0199 30.0696 41.6278C30.0696 42.2358 30.1619 42.7528 30.3466 43.179C30.5313 43.6051 30.7926 43.9304 31.1307 44.1548C31.4688 44.3764 31.8679 44.4872 32.3281 44.4872C32.7457 44.4872 33.1023 44.4134 33.3977 44.2656C33.696 44.1151 33.9233 43.9034 34.0795 43.6307C34.2386 43.358 34.3182 43.0355 34.3182 42.6634L34.6932 42.7188H32.4432V41.3295H36.0952V42.429C36.0952 43.196 35.9332 43.8551 35.6094 44.4062C35.2855 44.9545 34.8395 45.3778 34.2713 45.6761C33.7031 45.9716 33.0526 46.1193 32.3196 46.1193C31.5014 46.1193 30.7827 45.9389 30.1634 45.5781C29.544 45.2145 29.0611 44.6989 28.7145 44.0312C28.3707 43.3608 28.1989 42.5653 28.1989 41.6449C28.1989 40.9375 28.3011 40.3068 28.5057 39.7528C28.7131 39.196 29.0028 38.7244 29.375 38.3381C29.7472 37.9517 30.1804 37.6577 30.6747 37.456C31.169 37.2543 31.7045 37.1534 32.2812 37.1534C32.7756 37.1534 33.2358 37.2259 33.6619 37.3707C34.0881 37.5128 34.4659 37.7145 34.7955 37.9759C35.1278 38.2372 35.3991 38.5483 35.6094 38.9091C35.8196 39.267 35.9545 39.6619 36.0142 40.0938H34.1392Z" fill="white"/>
</g>
<defs>
<clipPath id="clip0_2_54">
<rect width="46" height="58" fill="white"/>
</clipPath>
</defs>
</svg>
