<svg width="60" height="60" viewBox="0 0 60 60" fill="none" xmlns="http://www.w3.org/2000/svg">
<g filter="url(#filter0_d_4552_53848)">
<rect x="9.29102" y="7.19189" width="41.7061" height="41.7061" rx="10.6237" fill="white" shape-rendering="crispEdges"/>
<path d="M34.5206 18C37.9216 18 39.8416 19.929 39.8516 23.33V32.67C39.8516 36.07 37.9216 38 34.5206 38H25.1816C21.7806 38 19.8516 36.07 19.8516 32.67V23.33C19.8516 19.929 21.7806 18 25.1816 18H34.5206ZM30.3516 22.13C30.0706 21.96 29.7306 21.96 29.4616 22.13C29.1906 22.299 29.0416 22.61 29.0706 22.92V33.11C29.1216 33.54 29.4806 33.86 29.9006 33.86C30.3316 33.86 30.6906 33.54 30.7306 33.11V22.92C30.7706 22.61 30.6216 22.299 30.3516 22.13ZM25.6816 25.41C25.4116 25.24 25.0706 25.24 24.8016 25.41C24.5306 25.58 24.3816 25.889 24.4116 26.2V33.11C24.4506 33.54 24.8106 33.86 25.2406 33.86C25.6716 33.86 26.0306 33.54 26.0706 33.11V26.2C26.1016 25.889 25.9506 25.58 25.6816 25.41ZM34.9406 29.04C34.6716 28.87 34.3316 28.87 34.0516 29.04C33.7806 29.21 33.6316 29.509 33.6716 29.83V33.11C33.7116 33.54 34.0706 33.86 34.5016 33.86C34.9216 33.86 35.2806 33.54 35.3316 33.11V29.83C35.3606 29.509 35.2116 29.21 34.9406 29.04Z" fill="#3D7100"/>
</g>
<defs>
<filter id="filter0_d_4552_53848" x="0.437942" y="0.109435" width="59.4132" height="59.4123" filterUnits="userSpaceOnUse" color-interpolation-filters="sRGB">
<feFlood flood-opacity="0" result="BackgroundImageFix"/>
<feColorMatrix in="SourceAlpha" type="matrix" values="0 0 0 0 0 0 0 0 0 0 0 0 0 0 0 0 0 0 127 0" result="hardAlpha"/>
<feOffset dy="1.77061"/>
<feGaussianBlur stdDeviation="4.42654"/>
<feComposite in2="hardAlpha" operator="out"/>
<feColorMatrix type="matrix" values="0 0 0 0 0.486275 0 0 0 0 0.552941 0 0 0 0 0.709804 0 0 0 0.12 0"/>
<feBlend mode="normal" in2="BackgroundImageFix" result="effect1_dropShadow_4552_53848"/>
<feBlend mode="normal" in="SourceGraphic" in2="effect1_dropShadow_4552_53848" result="shape"/>
</filter>
</defs>
</svg>
