<svg width="24" height="24" viewBox="0 0 24 24" fill="none" xmlns="http://www.w3.org/2000/svg">
<path fill-rule="evenodd" clip-rule="evenodd" d="M3.85002 9.99999C3.85002 6.60344 6.60347 3.84999 10 3.84999C13.3966 3.84999 16.15 6.60344 16.15 9.99999C16.15 13.3965 13.3966 16.15 10 16.15C6.60347 16.15 3.85002 13.3965 3.85002 9.99999ZM10 2.14999C5.66459 2.14999 2.15002 5.66456 2.15002 9.99999C2.15002 14.3354 5.66459 17.85 10 17.85C11.8615 17.85 13.5717 17.202 14.9173 16.1194L20.399 21.601C20.7309 21.933 21.2691 21.933 21.6011 21.601C21.933 21.2691 21.933 20.7309 21.6011 20.399L16.1194 14.9173C17.2021 13.5717 17.85 11.8615 17.85 9.99999C17.85 5.66456 14.3355 2.14999 10 2.14999Z" fill="black"/>
</svg>
