<svg width="36" height="35" viewBox="0 0 36 35" fill="none" xmlns="http://www.w3.org/2000/svg">
<g clip-path="url(#clip0_1071_260)">
<path d="M32.6943 21.2897C32.1962 20.7943 31.8014 20.205 31.5326 19.556C31.2638 18.9069 31.1263 18.2111 31.1281 17.5086V13.1102C31.1281 9.66804 29.7607 6.36685 27.3268 3.93286C24.8928 1.49887 21.5916 0.13147 18.1494 0.13147C14.7072 0.13147 11.406 1.49887 8.97203 3.93286C6.53805 6.36685 5.17065 9.66804 5.17065 13.1102V17.5086C5.17248 18.2111 5.03502 18.9069 4.7662 19.556C4.49738 20.205 4.10255 20.7943 3.60454 21.2897C2.97503 21.9192 2.54632 22.7211 2.37263 23.5942C2.19894 24.4674 2.28807 25.3724 2.62875 26.1948C2.96943 27.0172 3.54636 27.7202 4.28656 28.2147C5.02677 28.7093 5.89701 28.9732 6.78722 28.9731H11.0832C11.4142 30.6031 12.2985 32.0685 13.5863 33.1211C14.8741 34.1737 16.4862 34.7487 18.1494 34.7487C19.8126 34.7487 21.4247 34.1737 22.7125 33.1211C24.0003 32.0685 24.8846 30.6031 25.2156 28.9731H29.513C30.4032 28.9732 31.2735 28.7093 32.0137 28.2147C32.7539 27.7202 33.3308 27.0172 33.6715 26.1948C34.0122 25.3724 34.1013 24.4674 33.9276 23.5942C33.7539 22.7211 33.3238 21.9192 32.6943 21.2897ZM18.1494 31.8573C17.2578 31.8536 16.3891 31.5745 15.6622 31.0583C14.9353 30.542 14.3857 29.8137 14.0885 28.9731H22.2103C21.9131 29.8137 21.3635 30.542 20.6366 31.0583C19.9096 31.5745 19.041 31.8536 18.1494 31.8573ZM29.5116 26.089H6.78722C6.46735 26.0892 6.15462 25.9945 5.8886 25.8168C5.62258 25.6392 5.41523 25.3867 5.29279 25.0912C5.17036 24.7957 5.13834 24.4705 5.2008 24.1568C5.26326 23.843 5.41737 23.5549 5.64365 23.3288C6.41033 22.5662 7.01819 21.6592 7.43206 20.6601C7.84593 19.6611 8.0576 18.5899 8.05481 17.5086V13.1102C8.05481 10.433 9.11835 7.86537 11.0114 5.97227C12.9045 4.07917 15.4721 3.01564 18.1494 3.01564C20.8266 3.01564 23.3942 4.07917 25.2873 5.97227C27.1804 7.86537 28.244 10.433 28.244 13.1102V17.5086C28.2412 18.5899 28.4529 19.6611 28.8667 20.6601C29.2806 21.6592 29.8885 22.5662 30.6551 23.3288C30.8814 23.5549 31.0355 23.843 31.098 24.1568C31.1604 24.4705 31.1284 24.7957 31.006 25.0912C30.8836 25.3867 30.6762 25.6392 30.4102 25.8168C30.1442 25.9945 29.8314 26.0892 29.5116 26.089Z" fill="#7C8DB5"/>
</g>
<defs>
<clipPath id="clip0_1071_260">
<rect width="34.61" height="34.61" fill="white" transform="translate(0.844238 0.13147)"/>
</clipPath>
</defs>
</svg>
