<svg width="36" height="36" viewBox="0 0 36 36" fill="none" xmlns="http://www.w3.org/2000/svg">
<path d="M14.8449 18.9321C14.8449 19.4696 15.2808 19.9055 15.8183 19.9055C16.3559 19.9055 16.7917 19.4696 16.7917 18.9321V18.4259C18.8272 17.8462 19.1258 16.4943 19.1431 15.8421C19.1777 14.4847 18.1307 13.5535 16.0314 13.0754C14.5745 12.7445 14.4394 12.3887 14.4491 12.2513C14.5021 11.4661 16.0812 11.3233 16.8134 11.3439C16.8134 11.8814 17.2492 12.3173 17.7868 12.3173C18.3243 12.3173 18.7602 11.8814 18.7602 11.3439C18.7602 10.8063 18.5385 10.2839 18.1513 9.91079C17.7814 9.55388 17.3141 9.35595 16.7917 9.36028V9.11476C16.7917 8.57723 16.3559 8.14136 15.8183 8.14136C15.2808 8.14136 14.8449 8.57723 14.8449 9.11476V9.62418C12.9695 10.1574 12.5585 11.3482 12.5066 12.1183C12.4103 13.5243 13.4519 14.4847 15.5999 14.9725C17.1638 15.3283 17.1984 15.7437 17.1973 15.7902C17.1757 16.623 15.2592 16.7344 14.833 16.7344H14.832C14.819 16.7225 14.819 16.7117 14.819 16.7052C14.819 16.1676 14.3831 15.7328 13.8456 15.7328C13.308 15.7328 12.8722 16.1687 12.8722 16.7063C12.8722 17.2492 13.0874 17.7575 13.4789 18.135C13.8445 18.4887 14.3388 18.6866 14.846 18.6931V18.9321H14.8449Z" fill="#7C8DB5"/>
<path d="M12.0417 22.6159C8.63151 21.1222 6.42728 17.7489 6.42728 14.0218C6.42728 8.84543 10.6432 4.63382 15.8261 4.63382C20.6628 4.63382 24.6776 8.25706 25.1654 13.0603C25.2194 13.5946 25.6953 13.9807 26.2318 13.9309C26.7671 13.8769 27.1565 13.3988 27.1024 12.8645C26.513 7.06193 21.6654 2.68701 15.8261 2.68701C9.5703 2.68701 4.48047 7.77144 4.48047 14.0218C4.48047 18.5222 7.14111 22.5953 11.2608 24.3983C11.3873 24.4545 11.5204 24.4805 11.6501 24.4805C12.0254 24.4805 12.3824 24.262 12.5424 23.8965C12.7587 23.4054 12.5349 22.8311 12.0417 22.6159Z" fill="#7C8DB5"/>
<path d="M27.717 31.7811H22.041C21.5499 31.7811 21.0816 31.5702 20.7571 31.2014L16.2416 26.0748C15.6943 25.454 15.6651 24.5314 16.1713 23.877C16.7121 23.1773 17.6952 22.9988 18.448 23.4639L20.9367 25.0051V18.0106C20.9367 17.0297 21.7316 16.2336 22.7137 16.2336C23.6947 16.2336 24.4907 17.0286 24.4907 18.0106V22.4418L28.9749 22.9912C30.2727 23.1502 31.1207 24.4319 30.7594 25.6887L29.3621 30.5438C29.1501 31.276 28.4795 31.7811 27.717 31.7811Z" fill="#7C8DB5"/>
<path d="M31.3033 23.3914C30.8025 22.6332 29.9967 22.1357 29.0947 22.0243L25.465 21.5798V18.0096C25.465 16.4932 24.2309 15.2592 22.7157 15.2592C21.2004 15.2592 19.9663 16.4932 19.9663 18.0096V23.2562L18.9626 22.6354C17.7827 21.9032 16.2533 22.1822 15.4032 23.2811C14.6148 24.3032 14.6602 25.7481 15.5135 26.7172L20.0291 31.8449C20.5385 32.4225 21.2729 32.7545 22.0429 32.7545H27.719C28.9087 32.7545 29.9686 31.9563 30.2985 30.8131L31.6959 25.958C31.9468 25.0841 31.804 24.1485 31.3033 23.3914ZM29.8248 25.4183L28.4274 30.2734C28.3365 30.5881 28.0456 30.8077 27.719 30.8077H22.0429C21.8309 30.8077 21.6298 30.7168 21.4892 30.5579L16.9736 25.4313C16.7346 25.1609 16.7227 24.7564 16.9434 24.4719C17.0915 24.2805 17.3133 24.1777 17.5393 24.1777C17.6745 24.1777 17.8129 24.2145 17.9362 24.2913L20.4249 25.8325C20.7256 26.0185 21.103 26.0283 21.4113 25.8552C21.7195 25.6833 21.911 25.3588 21.911 25.0051V18.0106C21.911 17.5672 22.2711 17.207 22.7146 17.207C23.158 17.207 23.5182 17.5672 23.5182 18.0106V22.4418C23.5182 22.9339 23.8848 23.3482 24.3737 23.4087L28.8578 23.9582C29.1975 23.9993 29.4895 24.1799 29.6788 24.4665C29.868 24.7509 29.9199 25.0895 29.8248 25.4183Z" fill="#7C8DB5"/>
</svg>
