<svg width="36" height="36" viewBox="0 0 36 36" fill="none" xmlns="http://www.w3.org/2000/svg">
<path fill-rule="evenodd" clip-rule="evenodd" d="M9.13432 7.89064C8.84422 7.89064 8.53885 8.01656 8.29386 8.28651C8.04527 8.56041 7.88782 8.95527 7.88782 9.38895V28.4584C7.88782 28.8921 8.04527 29.287 8.29386 29.5609C8.53885 29.8308 8.84422 29.9567 9.13432 29.9567H22.7428V18.2026V9.38895C22.7428 8.95527 22.5853 8.56041 22.3368 8.28651C22.0918 8.01656 21.7864 7.89064 21.4963 7.89064H9.13432ZM9.13432 32.4085H23.9687H26.8531C27.9433 32.4085 28.9888 31.9755 29.7596 31.2046C30.5304 30.4338 30.9635 29.3883 30.9635 28.2982V18.2026C30.9635 17.5255 30.4146 16.9767 29.7376 16.9767H25.1946V9.38895C25.1946 8.37763 24.8311 7.38665 24.1523 6.63878C23.47 5.88695 22.5176 5.43885 21.4963 5.43885H9.13432C8.11299 5.43885 7.16063 5.88695 6.4783 6.63878C5.79955 7.38665 5.43604 8.37763 5.43604 9.38895V28.4584C5.43604 29.4698 5.79955 30.4607 6.4783 31.2086C7.16063 31.9604 8.11299 32.4085 9.13432 32.4085ZM25.1946 29.9567V19.4285H28.5117V28.2982C28.5117 28.7381 28.337 29.1599 28.0259 29.471C27.7149 29.782 27.293 29.9567 26.8531 29.9567H25.1946ZM12.4308 12.65C11.7538 12.65 11.205 13.1988 11.205 13.8759C11.205 14.5529 11.7538 15.1018 12.4308 15.1018H18.1998C18.8768 15.1018 19.4257 14.5529 19.4257 13.8759C19.4257 13.1988 18.8768 12.65 18.1998 12.65H12.4308ZM11.205 18.2026C11.205 17.5255 11.7538 16.9767 12.4308 16.9767H18.1998C18.8768 16.9767 19.4257 17.5255 19.4257 18.2026C19.4257 18.8796 18.8768 19.4285 18.1998 19.4285H12.4308C11.7538 19.4285 11.205 18.8796 11.205 18.2026ZM12.4308 22.7456C11.7538 22.7456 11.205 23.2944 11.205 23.9715C11.205 24.6485 11.7538 25.1974 12.4308 25.1974H16.7575C17.4346 25.1974 17.9834 24.6485 17.9834 23.9715C17.9834 23.2944 17.4346 22.7456 16.7575 22.7456H12.4308Z" fill="#7C8DB5"/>
</svg>
