<svg width="36" height="35" viewBox="0 0 36 35" fill="none" xmlns="http://www.w3.org/2000/svg">
<path fill-rule="evenodd" clip-rule="evenodd" d="M13.7185 9.10527C13.8146 8.43402 14.0197 8.0638 14.3103 7.81471C14.7939 7.40019 15.8388 7.02816 18.1998 7.02816C20.5608 7.02816 21.6056 7.40019 22.0892 7.81471C22.3803 8.06419 22.5856 8.43518 22.6815 9.10844C21.3746 8.95994 19.8852 8.90306 18.1998 8.90306C16.5124 8.90306 15.0236 8.96012 13.7185 9.10527ZM11.2178 9.55664C11.2811 8.22181 11.604 6.90519 12.7147 5.95317C13.9137 4.92545 15.7533 4.57637 18.1998 4.57637C20.6462 4.57637 22.4858 4.92545 23.6848 5.95317C24.7998 6.90889 25.1209 8.23204 25.1825 9.57218C26.4597 9.92838 27.5419 10.4667 28.4114 11.2794C30.1146 12.8715 30.7296 15.2625 30.9046 18.4058C30.9428 18.5244 30.9635 18.651 30.9635 18.7823C30.9635 19.0097 30.959 19.2393 30.9472 19.4696C30.9586 19.9063 30.9635 20.3559 30.9635 20.8184C30.9635 24.33 30.505 27.2115 28.391 29.1002C26.3329 30.9389 23.013 31.5461 18.1998 31.5461C15.7699 31.5461 13.7519 31.4277 12.1009 31.0984C10.4438 30.7679 9.07077 30.2086 8.00995 29.2638C5.87628 27.3635 5.43604 24.2949 5.43604 20.2246C5.43604 19.907 5.43871 19.5956 5.44467 19.2903C5.43854 19.1202 5.43604 18.9507 5.43604 18.7823C5.43604 18.6858 5.44719 18.5919 5.46827 18.5018C5.60123 15.2808 6.18864 12.8074 8.00995 11.1853C8.87616 10.4138 9.95052 9.89938 11.2178 9.55664ZM7.89792 19.2741C7.97571 15.7814 8.50752 14.0254 9.6406 13.0162C10.2624 12.4624 11.1729 12.0358 12.5805 11.7551C13.9942 11.4731 15.8222 11.3548 18.1998 11.3548C20.5784 11.3548 22.4027 11.4733 23.8121 11.763C25.2123 12.0507 26.1165 12.4904 26.7371 13.0706C27.8507 14.1115 28.3886 15.9198 28.4927 19.4443C28.4593 19.9725 28.3799 20.3995 28.2396 20.7575C28.0602 21.215 27.7591 21.6175 27.1794 21.9772C25.9062 22.7672 23.3474 23.3254 18.2085 23.3254C13.0701 23.3254 10.5058 22.7673 9.22759 21.9764C8.64504 21.6159 8.34214 21.2127 8.16179 20.7552C8.00602 20.3601 7.92462 19.8808 7.89792 19.2741ZM28.2703 24.1805C28.0089 25.6218 27.5234 26.5876 26.7575 27.2718C25.4504 28.4395 23.0014 29.0943 18.1998 29.0943C15.8222 29.0943 13.9942 28.976 12.5805 28.694C11.1729 28.4133 10.2624 27.9867 9.6406 27.4329C8.89407 26.768 8.40854 25.7789 8.1419 24.1826C10.0883 25.2891 13.2506 25.7771 18.2085 25.7771C23.1679 25.7771 26.3277 25.2888 28.2703 24.1805ZM14.0894 20.2246C14.0894 19.5475 14.6383 18.9987 15.3153 18.9987H21.0842C21.7613 18.9987 22.3101 19.5475 22.3101 20.2246C22.3101 20.9016 21.7613 21.4505 21.0842 21.4505L15.3153 21.4505C14.6383 21.4505 14.0894 20.9016 14.0894 20.2246Z" fill="#7C8DB5"/>
</svg>
