<svg width="36" height="36" viewBox="0 0 36 36" fill="none" xmlns="http://www.w3.org/2000/svg">
<path fill-rule="evenodd" clip-rule="evenodd" d="M26.6367 10.377C26.6367 9.55625 26.6377 8.96537 26.6772 8.50362C26.7177 8.03202 26.7887 7.85901 26.8225 7.80275C26.8312 7.78823 26.8347 7.78573 26.8392 7.7824L26.8399 7.78189C26.8493 7.77503 26.8888 7.7484 26.9892 7.71743C27.214 7.64805 27.6047 7.59669 28.2952 7.59669C28.9857 7.59669 29.3765 7.64805 29.6013 7.71743C29.7016 7.7484 29.7412 7.77503 29.7505 7.78189L29.7512 7.7824C29.7558 7.78573 29.7592 7.78823 29.7679 7.80275C29.8017 7.85901 29.8728 8.03202 29.9132 8.50362C29.9528 8.96537 29.9538 9.55625 29.9538 10.377V10.3958V10.4148V10.4339V10.4531V10.4724V10.4919V10.5115V10.5312V10.551V10.5709V10.591V10.6112V10.6315V10.6519V10.6724V10.6931V10.7138V10.7347V10.7557V10.7769V10.7981V10.8194V10.8409V10.8625V10.8842V10.906V10.9279V10.9499V10.972V10.9943V11.0166V11.0391V11.0617V11.0844V11.1072V11.13V11.1531V11.1762V11.1994V11.2227V11.2461V11.2697V11.2933V11.3171V11.3409V11.3649V11.3889V11.4131V11.4373V11.4617V11.4861V11.5107V11.5353V11.5601V11.5849V11.6099V11.6349V11.6601V11.6853V11.7107V11.7361V11.7616V11.7872V11.813V11.8388V11.8647V11.8907V11.9167V11.9429V11.9692V11.9956V12.022V12.0485V12.0752V12.1019V12.1287V12.1556V12.1826V12.2096V12.2368V12.264V12.2914V12.3188V12.3463V12.3738V12.4015V12.4292V12.4571V12.485V12.513V12.541V12.5692V12.5974V12.6257V12.6541V12.6826V12.7111V12.7397V12.7684V12.7972V12.8261V12.855V12.884V12.9131V12.9422V12.9715V13.0008V13.0301V13.0596V13.0891V13.1187V13.1483V13.178V13.2078V13.2377V13.2676V13.2976V13.3277V13.3578V13.388V13.4183V13.4487V13.4791V13.5095V13.54V13.5706V13.6013V13.632V13.6628V13.6936V13.7245V13.7555V13.7865V13.8176V13.8488V13.88V13.9112V13.9426V13.9739V14.0054V14.0369V14.0684V14.1V14.1317V14.1634V14.1952V14.227V14.2588V14.2908V14.3228V14.3548V14.3869V14.419V14.4512V14.4834V14.5157V14.548V14.5804V14.6128V14.6453V14.6778V14.7104V14.743V14.7757V14.8084V14.8411V14.8739V14.9067V14.9396V14.9725V15.0055V15.0385V15.0715V15.1046V15.1377V15.1709V15.2041V15.2373V15.2706V15.3039V15.3373V15.3707V15.4041V15.4376V15.4711V15.5046V15.5382V15.5718V15.6054V15.639V15.6727V15.7065V15.7402V15.774V15.8078V15.8417V15.8756V15.9095V15.9434V15.9774V16.0114V16.0454V16.0794V16.1135V16.1476V16.1817V16.2159V16.25V16.2842V16.3184V16.3527V16.3869V16.4212V16.4555V16.4898V16.5242V16.5585V16.5929V16.6273V16.6617V16.6962V16.7306V16.7651V16.7996V16.8341V16.8686V16.9031V16.9377V16.9722V17.0068V17.0414V17.076V17.1106V17.1452V17.1798V17.2145V17.2491V17.2838V17.3184V17.3531V17.3878V17.4225V17.4572V17.4919V17.5266V17.5613V17.596V17.6307V17.6655V17.7002V17.7349V17.7697V17.8044V17.8391V17.8739V17.9086V17.9434V17.9781V18.0128V18.0476V18.0823V18.1171V18.1518V18.1865V18.2212V18.256V18.2907V18.3254V18.3601V18.3948V18.4295V18.4642V18.4988V18.5335V18.5682V18.6028V18.6374V18.6721V18.7067V18.7413V18.7759V18.8105V18.845V18.8796V18.9141V18.9487V18.9832V19.0177V19.0522V19.0866V19.1211V19.1555V19.1899V19.2243V19.2587V19.2931V19.3274V19.3617V19.396V19.4303V19.4646V19.4988V19.533V19.5672V19.6014V19.6355V19.6697V19.7038V19.7378V19.7719V19.8059V19.8399V19.8738V19.9078V19.9417V19.9756V20.0094V20.0432V20.077V20.1108V20.1445V20.1782V20.2119V20.2455V20.2791V20.3127V20.3462V20.3797V20.4131V20.4466V20.48V20.5133V20.5466V20.5799V20.6132V20.6464V20.6795V20.7126V20.7457V20.7788V20.8118V20.8447V20.8776V20.9105V20.9434V20.9761V21.0089V21.0416V21.0743V21.1069V21.1394V21.1719V21.2044V21.2368V21.2692V21.3016V21.3338V21.3661V21.3983V21.4304V21.4625V21.4945V21.5265V21.5584V21.5903V21.6221V21.6539V21.6856V21.7172V21.7488V21.7804V21.8119V21.8433V21.8747V21.906V21.9373V21.9685V21.9996V22.0307V22.0617V22.0927V22.1236V22.1545V22.1852V22.216V22.2466V22.2772V22.3077V22.3382V22.3686V22.3989V22.4292V22.4594V22.4895V22.5196V22.5496V22.5795V22.6094V22.6392V22.6689V22.6986V22.7282V22.7577V22.7871V22.8165V22.8458V22.875V22.9042V22.9332V22.9623V22.9912V23.02V23.0488V23.0775V23.1061V23.1347V23.1631V23.1915V23.2198V23.2481V23.2762V23.3043V23.3323V23.3602V23.388V23.4158V23.4434V23.471V23.4985V23.5259V23.5532V23.5805V23.6076V23.6347V23.6617V23.6886V23.7154V23.7421V23.7687V23.7952V23.8217V23.8481V23.8743V23.9005V23.9266V23.9526V23.9785V24.0043V24.03V24.0556V24.0812V24.1066V24.1319V24.1572V24.1823V24.2074V24.2323V24.2572V24.2819V24.3066V24.3311V24.3556V24.3799V24.4042V24.4283V24.4524V24.4763V24.5002V24.5239V24.5476V24.5711V24.5945V24.6179V24.6411V24.6642V24.6872V24.7101V24.7329V24.7556V24.7781V24.8006V24.823V24.8452V24.8674V24.8894V24.9113V24.9331V24.9548V24.9764V24.9978V25.0192V25.0404V25.0615V25.0825V25.1034V25.1242V25.1448V25.1654V25.1858V25.2061V25.2263V25.2463V25.2663V25.2861V25.3058V25.3254V25.3448V25.3642V25.3834V25.4025V25.4214V25.4403C29.9538 26.4097 29.8987 27.0664 29.8081 27.5118C29.717 27.9594 29.6109 28.0858 29.5929 28.1049C29.5864 28.1118 29.5805 28.1173 29.5617 28.1261C29.5373 28.1376 29.4837 28.1577 29.3791 28.1757C29.1402 28.2168 28.8269 28.2206 28.2952 28.2206C27.7553 28.2206 27.438 28.2168 27.1973 28.1756C27.092 28.1575 27.039 28.1375 27.0159 28.1265C26.9985 28.1183 26.9943 28.114 26.9893 28.1086C26.9735 28.0917 26.8687 27.967 26.779 27.5168C26.6899 27.0697 26.6367 26.4114 26.6367 25.4403V10.377ZM28.2952 5.1449C26.9016 5.1449 25.4696 5.29221 24.7201 6.54132C24.3933 7.08598 24.2841 7.71421 24.2344 8.29424C24.1848 8.87272 24.1848 9.5678 24.1849 10.3317V10.3318V10.377V25.4403C24.1849 26.4722 24.2391 27.3163 24.3744 27.9958C24.5092 28.6724 24.7459 29.2989 25.198 29.7827C25.6729 30.2908 26.2522 30.5012 26.7833 30.5922C27.2533 30.6727 27.778 30.6725 28.237 30.6724L28.2952 30.6724L28.3524 30.6724C28.8046 30.6725 29.3258 30.6727 29.7948 30.592C30.3242 30.5009 30.9017 30.291 31.3772 29.7864C31.8311 29.3048 32.0724 28.68 32.2106 28.0009C32.3493 27.3196 32.4056 26.474 32.4056 25.4403V25.4214V25.4025V25.3834V25.3642V25.3448V25.3254V25.3058V25.2861V25.2663V25.2463V25.2263V25.2061V25.1858V25.1654V25.1448V25.1242V25.1034V25.0825V25.0615V25.0404V25.0192V24.9978V24.9764V24.9548V24.9331V24.9113V24.8894V24.8674V24.8452V24.823V24.8006V24.7781V24.7556V24.7329V24.7101V24.6872V24.6642V24.6411V24.6179V24.5945V24.5711V24.5476V24.5239V24.5002V24.4763V24.4524V24.4283V24.4042V24.3799V24.3556V24.3311V24.3066V24.2819V24.2572V24.2323V24.2074V24.1823V24.1572V24.1319V24.1066V24.0812V24.0556V24.03V24.0043V23.9785V23.9526V23.9266V23.9005V23.8743V23.8481V23.8217V23.7952V23.7687V23.7421V23.7154V23.6886V23.6617V23.6347V23.6076V23.5805V23.5532V23.5259V23.4985V23.471V23.4434V23.4158V23.388V23.3602V23.3323V23.3043V23.2762V23.2481V23.2198V23.1915V23.1631V23.1347V23.1061V23.0775V23.0488V23.02V22.9912V22.9623V22.9332V22.9042V22.875V22.8458V22.8165V22.7871V22.7577V22.7282V22.6986V22.6689V22.6392V22.6094V22.5795V22.5496V22.5196V22.4895V22.4594V22.4292V22.3989V22.3686V22.3382V22.3077V22.2772V22.2466V22.216V22.1852V22.1545V22.1236V22.0927V22.0617V22.0307V21.9996V21.9685V21.9373V21.906V21.8747V21.8433V21.8119V21.7804V21.7488V21.7172V21.6856V21.6539V21.6221V21.5903V21.5584V21.5265V21.4945V21.4625V21.4304V21.3983V21.3661V21.3338V21.3016V21.2692V21.2368V21.2044V21.1719V21.1394V21.1069V21.0743V21.0416V21.0089V20.9761V20.9434V20.9105V20.8776V20.8447V20.8118V20.7788V20.7457V20.7126V20.6795V20.6464V20.6132V20.5799V20.5466V20.5133V20.48V20.4466V20.4131V20.3797V20.3462V20.3127V20.2791V20.2455V20.2119V20.1782V20.1445V20.1108V20.077V20.0432V20.0094V19.9756V19.9417V19.9078V19.8738V19.8399V19.8059V19.7719V19.7378V19.7038V19.6697V19.6355V19.6014V19.5672V19.533V19.4988V19.4646V19.4303V19.396V19.3617V19.3274V19.2931V19.2587V19.2243V19.1899V19.1555V19.1211V19.0866V19.0522V19.0177V18.9832V18.9487V18.9141V18.8796V18.845V18.8105V18.7759V18.7413V18.7067V18.6721V18.6374V18.6028V18.5682V18.5335V18.4988V18.4642V18.4295V18.3948V18.3601V18.3254V18.2907V18.256V18.2212V18.1865V18.1518V18.1171V18.0823V18.0476V18.0128V17.9781V17.9434V17.9086V17.8739V17.8391V17.8044V17.7697V17.7349V17.7002V17.6655V17.6307V17.596V17.5613V17.5266V17.4919V17.4572V17.4225V17.3878V17.3531V17.3184V17.2838V17.2491V17.2145V17.1798V17.1452V17.1106V17.076V17.0414V17.0068V16.9722V16.9377V16.9031V16.8686V16.8341V16.7996V16.7651V16.7306V16.6962V16.6617V16.6273V16.5929V16.5585V16.5242V16.4898V16.4555V16.4212V16.3869V16.3527V16.3184V16.2842V16.25V16.2159V16.1817V16.1476V16.1135V16.0794V16.0454V16.0114V15.9774V15.9434V15.9095V15.8756V15.8417V15.8078V15.774V15.7402V15.7065V15.6727V15.639V15.6054V15.5718V15.5382V15.5046V15.4711V15.4376V15.4041V15.3707V15.3373V15.3039V15.2706V15.2373V15.2041V15.1709V15.1377V15.1046V15.0715V15.0385V15.0055V14.9725V14.9396V14.9067V14.8739V14.8411V14.8084V14.7757V14.743V14.7104V14.6778V14.6453V14.6128V14.5804V14.548V14.5157V14.4834V14.4512V14.419V14.3869V14.3548V14.3228V14.2908V14.2588V14.227V14.1952V14.1634V14.1317V14.1V14.0684V14.0369V14.0054V13.9739V13.9426V13.9112V13.88V13.8488V13.8176V13.7865V13.7555V13.7245V13.6936V13.6628V13.632V13.6013V13.5706V13.54V13.5095V13.4791V13.4487V13.4183V13.388V13.3578V13.3277V13.2976V13.2676V13.2377V13.2078V13.178V13.1483V13.1187V13.0891V13.0596V13.0301V13.0008V12.9715V12.9422V12.9131V12.884V12.855V12.8261V12.7972V12.7684V12.7397V12.7111V12.6826V12.6541V12.6257V12.5974V12.5692V12.541V12.513V12.485V12.4571V12.4292V12.4015V12.3738V12.3463V12.3188V12.2914V12.264V12.2368V12.2096V12.1826V12.1556V12.1287V12.1019V12.0752V12.0485V12.022V11.9956V11.9692V11.9429V11.9167V11.8907V11.8647V11.8388V11.813V11.7872V11.7616V11.7361V11.7107V11.6853V11.6601V11.6349V11.6099V11.5849V11.5601V11.5353V11.5107V11.4861V11.4617V11.4373V11.4131V11.3889V11.3649V11.3409V11.3171V11.2933V11.2697V11.2461V11.2227V11.1994V11.1762V11.1531V11.13V11.1072V11.0844V11.0617V11.0391V11.0166V10.9943V10.972V10.9499V10.9279V10.906V10.8842V10.8625V10.8409V10.8194V10.7981V10.7769V10.7557V10.7347V10.7138V10.6931V10.6724V10.6519V10.6315V10.6112V10.591V10.5709V10.551V10.5312V10.5115V10.4919V10.4724V10.4531V10.4339V10.4148V10.3958V10.377L32.4056 10.3317C32.4056 9.5678 32.4056 8.87271 32.356 8.29424C32.3063 7.71421 32.1971 7.08598 31.8703 6.54132C31.1209 5.29221 29.6889 5.1449 28.2952 5.1449ZM16.5829 14.303C16.5468 14.6281 16.5453 15.0067 16.5453 15.5049L16.5454 20.7931L16.5454 26.0813C16.5454 26.093 16.5452 26.1048 16.5448 26.1166C16.5091 27.3563 16.7347 27.7753 16.8688 27.9189C16.9847 28.0431 17.276 28.2206 18.1992 28.2206C19.1018 28.2206 19.402 28.0452 19.5255 27.9143C19.6627 27.7688 19.8931 27.3491 19.8537 26.1206C19.8533 26.1075 19.8531 26.0944 19.8531 26.0813V20.7931L19.8531 15.5049C19.8531 15.0067 19.8516 14.6281 19.8156 14.303C19.78 13.9826 19.7198 13.8186 19.6674 13.7312L19.6656 13.7282C19.6318 13.6709 19.4518 13.3656 18.1992 13.3656C16.9466 13.3656 16.7666 13.6709 16.7328 13.7282L16.7311 13.7312C16.6787 13.8186 16.6184 13.9826 16.5829 14.303ZM14.6278 12.4712C15.3185 11.318 16.5956 10.9138 18.1992 10.9138C19.8028 10.9138 21.0799 11.318 21.7707 12.4712C22.0782 12.9847 22.198 13.5419 22.2524 14.0327C22.3049 14.5064 22.3049 15.0149 22.3049 15.4693L22.3049 15.5049L22.3049 20.7931V26.0622C22.3476 27.4695 22.1315 28.7246 21.3091 29.5965C20.469 30.4872 19.287 30.6724 18.1992 30.6724C17.1009 30.6724 15.9142 30.4893 15.0765 29.5919C14.2606 28.7177 14.0554 27.4612 14.0936 26.0641L14.0936 20.7931L14.0936 15.5049L14.0936 15.4693C14.0935 15.0149 14.0935 14.5064 14.146 14.0327C14.2005 13.5419 14.3202 12.9847 14.6278 12.4712ZM6.4845 21.5425C6.4467 21.9229 6.44545 22.3821 6.44545 22.9965V26.9864C6.44545 27.6795 6.613 27.8691 6.69421 27.9378C6.82633 28.0496 7.18393 28.2206 8.10401 28.2206C9.00353 28.2206 9.3666 28.0514 9.50592 27.9346C9.59362 27.861 9.76257 27.6674 9.76257 26.9864V26.9762V26.9659V26.9557V26.9455V26.9353V26.9252V26.9151V26.9049V26.8948V26.8848V26.8747V26.8647V26.8547V26.8447V26.8347V26.8248V26.8148V26.8049V26.795V26.7851V26.7753V26.7655V26.7556V26.7459V26.7361V26.7263V26.7166V26.7069V26.6972V26.6875V26.6778V26.6682V26.6586V26.649V26.6394V26.6298V26.6203V26.6107V26.6012V26.5917V26.5823V26.5728V26.5634V26.554V26.5445V26.5352V26.5258V26.5165V26.5071V26.4978V26.4885V26.4792V26.47V26.4607V26.4515V26.4423V26.4331V26.424V26.4148V26.4057V26.3965V26.3874V26.3784V26.3693V26.3602V26.3512V26.3422V26.3332V26.3242V26.3152V26.3063V26.2973V26.2884V26.2795V26.2706V26.2617V26.2529V26.244V26.2352V26.2264V26.2176V26.2088V26.2001V26.1913V26.1826V26.1739V26.1652V26.1565V26.1478V26.1391V26.1305V26.1219V26.1133V26.1047V26.0961V26.0875V26.079V26.0704V26.0619V26.0534V26.0449V26.0364V26.028V26.0195V26.0111V26.0027V25.9942V25.9859V25.9775V25.9691V25.9607V25.9524V25.9441V25.9358V25.9275V25.9192V25.9109V25.9026V25.8944V25.8862V25.8779V25.8697V25.8615V25.8534V25.8452V25.837V25.8289V25.8208V25.8126V25.8045V25.7964V25.7884V25.7803V25.7722V25.7642V25.7562V25.7481V25.7401V25.7321V25.7241V25.7162V25.7082V25.7003V25.6923V25.6844V25.6765V25.6686V25.6607V25.6528V25.6449V25.6371V25.6292V25.6214V25.6135V25.6057V25.5979V25.5901V25.5823V25.5746V25.5668V25.559V25.5513V25.5436V25.5358V25.5281V25.5204V25.5127V25.5051V25.4974V25.4897V25.4821V25.4744V25.4668V25.4592V25.4515V25.4439V25.4363V25.4288V25.4212V25.4136V25.406V25.3985V25.391V25.3834V25.3759V25.3684V25.3609V25.3534V25.3459V25.3384V25.3309V25.3235V25.316V25.3086V25.3011V25.2937V25.2863V25.2789V25.2714V25.264V25.2566V25.2493V25.2419V25.2345V25.2272V25.2198V25.2125V25.2051V25.1978V25.1905V25.1831V25.1758V25.1685V25.1612V25.1539V25.1466V25.1394V25.1321V25.1248V25.1176V25.1103V25.1031V25.0958V25.0886V25.0814V25.0741V25.0669V25.0597V25.0525V25.0453V25.0381V25.0309V25.0238V25.0166V25.0094V25.0023V24.9951V24.9879V24.9808V24.9737V24.9665V24.9594V24.9523V24.9451V24.938V24.9309V24.9238V24.9167V24.9096V24.9025V24.8954V24.8883V24.8812V24.8742V24.8671V24.86V24.8529V24.8459V24.8388V24.8318V24.8247V24.8177V24.8106V24.8036V24.7966V24.7895V24.7825V24.7755V24.7684V24.7614V24.7544V24.7474V24.7404V24.7334V24.7264V24.7194V24.7124V24.7054V24.6984V24.6914V24.6844V24.6774V24.6704V24.6634V24.6565V24.6495V24.6425V24.6355V24.6286V24.6216V24.6146V24.6076V24.6007V24.5937V24.5868V24.5798V24.5728V24.5659V24.5589V24.552V24.545V24.5381V24.5311V24.5241V24.5172V24.5102V24.5033V24.4963V24.4894V24.4824V24.4755V24.4686V24.4616V24.4547V24.4477V24.4408V24.4338V24.4269V24.4199V24.413V24.406V24.3991V24.3921V24.3852V24.3782V24.3713V24.3643V24.3574V24.3504V24.3435V24.3365V24.3296V24.3226V24.3157V24.3087V24.3018V24.2948V24.2878V24.2809V24.2739V24.2669V24.26V24.253V24.246V24.2391V24.2321V24.2251V24.2181V24.2111V24.2042V24.1972V24.1902V24.1832V24.1762V24.1692V24.1622V24.1552V24.1482V24.1412V24.1342V24.1272V24.1202V24.1132V24.1061V24.0991V24.0921V24.0851V24.078V24.071V24.0639V24.0569V24.0499V24.0428V24.0358V24.0287V24.0216V24.0146V24.0075V24.0004V23.9933V23.9863V23.9792V23.9721V23.965V23.9579V23.9508V23.9437V23.9366V23.9294V23.9223V23.9152V23.9081V23.9009V23.8938V23.8866V23.8795V23.8723V23.8651V23.858V23.8508V23.8436V23.8364V23.8292V23.822V23.8148V23.8076V23.8004V23.7932V23.786V23.7787V23.7715V23.7642V23.757V23.7497V23.7425V23.7352V23.7279V23.7206V23.7133V23.706V23.6987V23.6914V23.6841V23.6768V23.6694V23.6621V23.6547V23.6474V23.64V23.6326V23.6253V23.6179V23.6105V23.6031V23.5957V23.5883V23.5808V23.5734V23.566V23.5585V23.5511V23.5436V23.5361V23.5286V23.5211V23.5136V23.5061V23.4986V23.4911V23.4836V23.476V23.4685V23.4609V23.4533V23.4458V23.4382V23.4306V23.423V23.4153V23.4077V23.4001V23.3924V23.3848V23.3771V23.3694V23.3618V23.3541V23.3464V23.3387V23.3309V23.3232V23.3154V23.3077V23.2999V23.2922V23.2844V23.2766V23.2688V23.2609V23.2531V23.2453V23.2374V23.2296V23.2217V23.2138V23.2059V23.198V23.1901V23.1822V23.1742V23.1663V23.1583V23.1503V23.1423V23.1343V23.1263V23.1183V23.1103V23.1022V23.0942V23.0861V23.078V23.0699V23.0618V23.0537V23.0456V23.0374V23.0293V23.0211V23.0183L9.75259 22.7266V22.7265C9.73665 22.2518 9.72418 21.8806 9.68876 21.5531C9.64624 21.1599 9.58219 20.9766 9.53122 20.8872L9.53025 20.8851C9.51726 20.8561 9.3924 20.5768 8.10401 20.5768C6.80998 20.5768 6.65929 20.8592 6.63856 20.8981L6.63697 20.901C6.58724 20.9856 6.52224 21.1627 6.4845 21.5425ZM4.52324 19.6586C5.2303 18.4556 6.55389 18.125 8.10401 18.125C9.65695 18.125 10.9679 18.4576 11.6609 19.6724C11.9598 20.1965 12.0708 20.7756 12.1263 21.2894C12.1725 21.7164 12.1885 22.1996 12.2042 22.6747C12.2072 22.7678 12.2103 22.8607 12.2136 22.9528L12.214 22.9668L12.2144 22.9965V23.0047V23.0129V23.0211V23.0293V23.0374V23.0456V23.0537V23.0618V23.0699V23.078V23.0861V23.0942V23.1022V23.1103V23.1183V23.1263V23.1343V23.1423V23.1503V23.1583V23.1663V23.1742V23.1822V23.1901V23.198V23.2059V23.2138V23.2217V23.2296V23.2374V23.2453V23.2531V23.2609V23.2688V23.2766V23.2844V23.2922V23.2999V23.3077V23.3154V23.3232V23.3309V23.3387V23.3464V23.3541V23.3618V23.3694V23.3771V23.3848V23.3924V23.4001V23.4077V23.4153V23.423V23.4306V23.4382V23.4458V23.4533V23.4609V23.4685V23.476V23.4836V23.4911V23.4986V23.5061V23.5136V23.5211V23.5286V23.5361V23.5436V23.5511V23.5585V23.566V23.5734V23.5808V23.5883V23.5957V23.6031V23.6105V23.6179V23.6253V23.6326V23.64V23.6474V23.6547V23.6621V23.6694V23.6768V23.6841V23.6914V23.6987V23.706V23.7133V23.7206V23.7279V23.7352V23.7425V23.7497V23.757V23.7642V23.7715V23.7787V23.786V23.7932V23.8004V23.8076V23.8148V23.822V23.8292V23.8364V23.8436V23.8508V23.858V23.8651V23.8723V23.8795V23.8866V23.8938V23.9009V23.9081V23.9152V23.9223V23.9294V23.9366V23.9437V23.9508V23.9579V23.965V23.9721V23.9792V23.9863V23.9933V24.0004V24.0075V24.0146V24.0216V24.0287V24.0358V24.0428V24.0499V24.0569V24.0639V24.071V24.078V24.0851V24.0921V24.0991V24.1061V24.1132V24.1202V24.1272V24.1342V24.1412V24.1482V24.1552V24.1622V24.1692V24.1762V24.1832V24.1902V24.1972V24.2042V24.2111V24.2181V24.2251V24.2321V24.2391V24.246V24.253V24.26V24.2669V24.2739V24.2809V24.2878V24.2948V24.3018V24.3087V24.3157V24.3226V24.3296V24.3365V24.3435V24.3504V24.3574V24.3643V24.3713V24.3782V24.3852V24.3921V24.3991V24.406V24.413V24.4199V24.4269V24.4338V24.4408V24.4477V24.4547V24.4616V24.4686V24.4755V24.4824V24.4894V24.4963V24.5033V24.5102V24.5172V24.5241V24.5311V24.5381V24.545V24.552V24.5589V24.5659V24.5728V24.5798V24.5868V24.5937V24.6007V24.6076V24.6146V24.6216V24.6286V24.6355V24.6425V24.6495V24.6565V24.6634V24.6704V24.6774V24.6844V24.6914V24.6984V24.7054V24.7124V24.7194V24.7264V24.7334V24.7404V24.7474V24.7544V24.7614V24.7684V24.7755V24.7825V24.7895V24.7966V24.8036V24.8106V24.8177V24.8247V24.8318V24.8388V24.8459V24.8529V24.86V24.8671V24.8742V24.8812V24.8883V24.8954V24.9025V24.9096V24.9167V24.9238V24.9309V24.938V24.9451V24.9523V24.9594V24.9665V24.9737V24.9808V24.9879V24.9951V25.0023V25.0094V25.0166V25.0238V25.0309V25.0381V25.0453V25.0525V25.0597V25.0669V25.0741V25.0814V25.0886V25.0958V25.1031V25.1103V25.1176V25.1248V25.1321V25.1394V25.1466V25.1539V25.1612V25.1685V25.1758V25.1831V25.1905V25.1978V25.2051V25.2125V25.2198V25.2272V25.2345V25.2419V25.2493V25.2566V25.264V25.2714V25.2789V25.2863V25.2937V25.3011V25.3086V25.316V25.3235V25.3309V25.3384V25.3459V25.3534V25.3609V25.3684V25.3759V25.3834V25.391V25.3985V25.406V25.4136V25.4212V25.4288V25.4363V25.4439V25.4515V25.4592V25.4668V25.4744V25.4821V25.4897V25.4974V25.5051V25.5127V25.5204V25.5281V25.5358V25.5436V25.5513V25.559V25.5668V25.5746V25.5823V25.5901V25.5979V25.6057V25.6135V25.6214V25.6292V25.6371V25.6449V25.6528V25.6607V25.6686V25.6765V25.6844V25.6923V25.7003V25.7082V25.7162V25.7241V25.7321V25.7401V25.7481V25.7562V25.7642V25.7722V25.7803V25.7884V25.7964V25.8045V25.8126V25.8208V25.8289V25.837V25.8452V25.8534V25.8615V25.8697V25.8779V25.8862V25.8944V25.9026V25.9109V25.9192V25.9275V25.9358V25.9441V25.9524V25.9607V25.9691V25.9775V25.9859V25.9942V26.0027V26.0111V26.0195V26.028V26.0364V26.0449V26.0534V26.0619V26.0704V26.079V26.0875V26.0961V26.1047V26.1133V26.1219V26.1305V26.1391V26.1478V26.1565V26.1652V26.1739V26.1826V26.1913V26.2001V26.2088V26.2176V26.2264V26.2352V26.244V26.2529V26.2617V26.2706V26.2795V26.2884V26.2973V26.3063V26.3152V26.3242V26.3332V26.3422V26.3512V26.3602V26.3693V26.3784V26.3874V26.3965V26.4057V26.4148V26.424V26.4331V26.4423V26.4515V26.4607V26.47V26.4792V26.4885V26.4978V26.5071V26.5165V26.5258V26.5352V26.5445V26.554V26.5634V26.5728V26.5823V26.5917V26.6012V26.6107V26.6203V26.6298V26.6394V26.649V26.6586V26.6682V26.6778V26.6875V26.6972V26.7069V26.7166V26.7263V26.7361V26.7459V26.7556V26.7655V26.7753V26.7851V26.795V26.8049V26.8148V26.8248V26.8347V26.8447V26.8547V26.8647V26.8747V26.8848V26.8948V26.9049V26.9151V26.9252V26.9353V26.9455V26.9557V26.9659V26.9762V26.9864C12.2144 28.0582 11.9379 29.0946 11.0817 29.8129C10.2772 30.4878 9.19806 30.6724 8.10401 30.6724C6.99924 30.6724 5.9146 30.4897 5.11071 29.8096C4.25591 29.0865 3.99365 28.0461 3.99365 26.9864V22.9965V22.9569V22.9569C3.99363 22.392 3.9936 21.8146 4.04473 21.3C4.09713 20.7728 4.21241 20.1875 4.52324 19.6586Z" fill="#7C8DB5"/>
</svg>
