<svg width="36" height="35" viewBox="0 0 36 35" fill="none" xmlns="http://www.w3.org/2000/svg">
<g clip-path="url(#clip0_4413_25487)">
<path d="M30.7129 0.185059C30.2137 0.185059 29.7385 0.411355 29.3391 0.810701L28.3834 1.7252L33.9982 7.34001L34.914 6.38424C35.7127 5.58555 35.7127 4.3955 34.914 3.59681L32.1266 0.80937C31.7272 0.410024 31.2121 0.185059 30.7129 0.185059ZM27.4675 2.51591L26.0112 3.72327L32.0014 9.71346L33.3326 8.3823L27.4675 2.51591ZM25.2205 4.67903L13.2002 16.5769C13.1394 16.6271 13.0832 16.6828 13.0325 16.7433L12.95 16.7845C12.8048 16.9509 12.7044 17.1516 12.6584 17.3676L11.0358 23.0663C10.9662 23.2918 10.9595 23.5321 11.0163 23.7612C11.0731 23.9903 11.1914 24.1995 11.3583 24.3664C11.5252 24.5333 11.7344 24.6516 11.9635 24.7084C12.1926 24.7652 12.4329 24.7585 12.6584 24.6889L18.3571 23.0663C18.5463 23.0214 18.723 22.9346 18.8742 22.8122C19.0253 22.6899 19.147 22.5351 19.2303 22.3594L31.0457 10.6692L28.7987 8.25585V8.38097L27.2173 6.79956H27.3424L25.2205 4.67903ZM1.92667 5.59354C1.61828 5.65219 1.34055 5.81795 1.14252 6.06152C0.944491 6.3051 0.838917 6.61082 0.844445 6.92469V33.5478C0.844445 33.9008 0.984691 34.2394 1.23433 34.489C1.48397 34.7387 1.82255 34.8789 2.1756 34.8789H28.7987C29.1517 34.8789 29.4903 34.7387 29.7399 34.489C29.9896 34.2394 30.1298 33.9008 30.1298 33.5478V18.9051C30.1298 18.552 29.9896 18.2134 29.7399 17.9638C29.4903 17.7142 29.1517 17.5739 28.7987 17.5739C28.4456 17.5739 28.107 17.7142 27.8574 17.9638C27.6078 18.2134 27.4675 18.552 27.4675 18.9051V32.2166H3.50675V8.25585H16.8183C17.1713 8.25585 17.5099 8.1156 17.7596 7.86596C18.0092 7.61632 18.1494 7.27773 18.1494 6.92469C18.1494 6.57165 18.0092 6.23306 17.7596 5.98342C17.5099 5.73378 17.1713 5.59354 16.8183 5.59354H2.1756C2.13391 5.59158 2.09216 5.59158 2.05047 5.59354C2.00878 5.59158 1.96703 5.59158 1.92534 5.59354H1.92667ZM14.9893 18.6561L16.8196 18.7799L16.9448 20.7767L15.1144 21.3171L14.4076 20.6116L14.9893 18.6561Z" fill="#7C8DB5"/>
</g>
<defs>
<clipPath id="clip0_4413_25487">
<rect width="34.61" height="34.61" fill="white" transform="translate(0.844238 0.268799)"/>
</clipPath>
</defs>
</svg>