<svg width="36" height="35" viewBox="0 0 36 35" fill="none" xmlns="http://www.w3.org/2000/svg">
<path fill-rule="evenodd" clip-rule="evenodd" d="M10.4197 9.72183C12.7102 10.5078 15.1091 8.93022 15.5353 6.75368C15.7973 5.62247 16.1048 5.12779 16.4099 4.87461C16.7044 4.63021 17.2068 4.43781 18.2982 4.43781C19.1429 4.43781 19.6222 4.65025 19.9353 4.94448C20.2721 5.26094 20.5843 5.82915 20.7717 6.85704L20.7717 6.85704L20.7729 6.86348C20.9969 8.05659 21.8184 8.95631 22.7731 9.45404C23.7306 9.95318 24.9318 10.1104 26.0643 9.71171C26.08 9.70616 26.0957 9.7003 26.1112 9.69412C27.1974 9.26108 27.7878 9.26964 28.1484 9.39142C28.503 9.51119 28.9098 9.83292 29.4131 10.6856C29.9276 11.5572 29.9953 12.0222 29.9362 12.3367C29.8744 12.6659 29.6133 13.1528 28.6954 13.9145L28.6786 13.9287C26.8366 15.5139 26.8366 18.3123 28.6786 19.8975L28.6954 19.9116C29.6133 20.6734 29.8744 21.1602 29.9362 21.4895C29.9953 21.804 29.9276 22.269 29.4131 23.1406C28.9127 23.9884 28.4998 24.3251 28.1252 24.46C27.7427 24.5978 27.141 24.6187 26.0582 24.2494C23.8619 23.4803 21.1941 24.7888 20.7696 27.255C20.5809 28.3508 20.2775 28.7843 20.0064 28.9943C19.7142 29.2206 19.2049 29.3884 18.1567 29.3884C17.1477 29.3884 16.6284 29.2006 16.3233 28.9558C16.0277 28.7187 15.7282 28.2626 15.5426 27.2483C15.1144 24.7864 12.4495 23.481 10.2551 24.2494C9.17237 24.6187 8.57068 24.5978 8.18817 24.46C7.81357 24.3251 7.40065 23.9884 6.90021 23.1406C6.89336 23.129 6.88631 23.1175 6.87908 23.1061C6.43911 22.4139 6.39309 21.9343 6.48623 21.5572C6.59091 21.1334 6.93252 20.5891 7.75351 19.9166L7.77629 19.8975C9.65006 18.2849 9.44427 15.4901 7.64006 14.0676C6.82144 13.2653 6.56587 12.7553 6.50648 12.3856C6.44995 12.0338 6.53114 11.5554 7.03131 10.7033C7.49002 9.98724 7.91343 9.68344 8.32818 9.55568C8.77349 9.4185 9.41401 9.42043 10.4197 9.72183ZM18.2982 1.98602C16.9838 1.98602 15.788 2.20466 14.8442 2.98785C13.9128 3.76072 13.4439 4.90567 13.1408 6.22595C13.1372 6.24188 13.1338 6.25787 13.1308 6.27393C12.9779 7.08837 12.0094 7.68232 11.2048 7.39905C11.1875 7.39298 11.1702 7.3873 11.1527 7.38201C9.90729 7.00522 8.71441 6.87122 7.60638 7.21254C6.46765 7.56333 5.62075 8.35188 4.95143 9.40489C4.94419 9.41628 4.93715 9.42778 4.93029 9.43939C4.3076 10.4944 3.89499 11.5874 4.08573 12.7746C4.27286 13.9392 4.99918 14.9237 5.98243 15.8757C6.01878 15.9109 6.05729 15.9438 6.09771 15.9742C6.77552 16.4846 6.82699 17.47 6.18616 18.0311C5.17398 18.8631 4.38921 19.8225 4.10598 20.9693C3.81151 22.1614 4.11446 23.3199 4.7989 24.4039C5.42893 25.4666 6.2166 26.3558 7.35721 26.7667C8.49549 27.1767 9.73239 27.019 11.0525 26.5679L11.0526 26.5679L11.0632 26.5642C11.9792 26.2417 12.9864 26.8512 13.1275 27.671L13.1275 27.671L13.1296 27.6828C13.3686 28.9941 13.847 30.1126 14.7892 30.8683C15.7224 31.6169 16.9014 31.8402 18.1567 31.8402C19.3727 31.8402 20.5617 31.6654 21.5077 30.9327C22.4749 30.1836 22.9499 29.0415 23.1858 27.671C23.3269 26.8512 24.3342 26.2417 25.2501 26.5642L25.2501 26.5642L25.2608 26.5679C26.581 27.019 27.8179 27.1767 28.9561 26.7667C30.1029 26.3536 30.8929 25.4571 31.5246 24.3868C32.1423 23.3402 32.5699 22.2296 32.3459 21.037C32.1254 19.8627 31.3293 18.9131 30.2709 18.033C29.5749 17.4272 29.5749 16.3989 30.2709 15.7931C31.3293 14.9131 32.1254 13.9635 32.3459 12.7892C32.5699 11.5966 32.1423 10.486 31.5246 9.43939C30.8957 8.37393 30.0996 7.46255 28.9329 7.06853C27.7802 6.67924 26.5401 6.88765 25.2307 7.40572C24.8108 7.54691 24.3224 7.49676 23.9065 7.27994C23.4825 7.05892 23.2427 6.72667 23.183 6.41336C22.9456 5.11371 22.4795 3.97079 21.6143 3.15775C20.7245 2.32164 19.5763 1.98602 18.2982 1.98602ZM15.0992 16.9131C15.0992 15.2006 16.4875 13.8123 18.2 13.8123C19.9126 13.8123 21.3008 15.2006 21.3008 16.9131C21.3008 18.6256 19.9126 20.0139 18.2 20.0139C16.4875 20.0139 15.0992 18.6256 15.0992 16.9131ZM18.2 11.3605C15.1334 11.3605 12.6475 13.8465 12.6475 16.9131C12.6475 19.9797 15.1334 22.4657 18.2 22.4657C21.2666 22.4657 23.7526 19.9797 23.7526 16.9131C23.7526 13.8465 21.2666 11.3605 18.2 11.3605Z" fill="#7C8DB5"/>
</svg>
