<svg width="36" height="36" viewBox="0 0 36 36" fill="none" xmlns="http://www.w3.org/2000/svg">
<path fill-rule="evenodd" clip-rule="evenodd" d="M12.9357 11.2819C12.9357 8.90458 15.1528 6.73885 18.1998 6.73885C21.2469 6.73885 23.464 8.90458 23.464 11.2819C23.464 13.6592 21.2469 15.8249 18.1998 15.8249C15.1528 15.8249 12.9357 13.6592 12.9357 11.2819ZM18.1998 4.28706C14.0782 4.28706 10.4839 7.287 10.4839 11.2819C10.4839 15.2768 14.0782 18.2767 18.1998 18.2767C22.3215 18.2767 25.9158 15.2768 25.9158 11.2819C25.9158 7.287 22.3215 4.28706 18.1998 4.28706ZM8.60902 26.4253C8.60902 25.6031 9.31372 24.6409 11.2418 23.8236C13.0796 23.0445 15.6117 22.6034 18.1998 22.6034C20.7602 22.6034 23.2906 23.1187 25.1385 23.9399C26.0638 24.3512 26.7602 24.8136 27.208 25.2742C27.6505 25.7294 27.7907 26.1151 27.7907 26.4253C27.7907 26.4966 27.7663 26.6821 27.4121 26.9764C27.0472 27.2796 26.4368 27.6012 25.5483 27.889C23.7818 28.4612 21.2168 28.805 18.1998 28.805C15.1828 28.805 12.6179 28.4612 10.8514 27.889C9.96288 27.6012 9.35249 27.2796 8.98754 26.9764C8.63342 26.6821 8.60902 26.4966 8.60902 26.4253ZM18.1998 20.1516C15.3797 20.1516 12.5033 20.6258 10.2849 21.5662C8.1567 22.4684 6.15723 24.0302 6.15723 26.4253C6.15723 27.4569 6.71229 28.2735 7.42052 28.862C8.11794 29.4416 9.05278 29.8836 10.0958 30.2215C12.1924 30.9006 15.0359 31.2568 18.1998 31.2568C21.3638 31.2568 24.2072 30.9006 26.3038 30.2215C27.3469 29.8836 28.2817 29.4416 28.9792 28.862C29.6874 28.2735 30.2425 27.4569 30.2425 26.4253C30.2425 25.2932 29.7065 24.3269 28.966 23.5651C28.2307 22.8089 27.237 22.1896 26.1342 21.6995C23.9258 20.718 21.0478 20.1516 18.1998 20.1516Z" fill="#7C8DB5"/>
</svg>
