<svg width="36" height="35" viewBox="0 0 36 35" fill="none" xmlns="http://www.w3.org/2000/svg">
<g clip-path="url(#clip0_1071_238)">
<path d="M24.6387 7.83948H31.128" stroke="#7C8DB5" stroke-width="3.24469" stroke-linecap="round" stroke-linejoin="round"/>
<path d="M27.8833 4.59485V11.0842" stroke="#7C8DB5" stroke-width="3.24469" stroke-linecap="round" stroke-linejoin="round"/>
<path d="M5.03369 29.4695C6.36342 27.1679 8.27542 25.2567 10.5776 23.928C12.8798 22.5993 15.4912 21.8998 18.1493 21.8999C20.8074 21.8999 23.4187 22.5994 25.7209 23.9282C28.0231 25.2569 29.935 27.1682 31.2647 29.4698M26.2678 16.2464C25.6894 17.808 24.6725 19.1694 23.3391 20.167C22.0058 21.1647 20.4127 21.7562 18.7514 21.8704C17.09 21.9846 15.431 21.6168 13.9737 20.811C12.5163 20.0053 11.3226 18.7958 10.536 17.3281C9.74928 15.8604 9.40311 14.1967 9.53903 12.537C9.67495 10.8773 10.2872 9.29208 11.3022 7.97188C12.3171 6.65167 13.6917 5.65259 15.2607 5.09466C16.8298 4.53673 18.5265 4.44368 20.1471 4.82669" stroke="#7C8DB5" stroke-width="3.24469" stroke-linecap="round" stroke-linejoin="round"/>
</g>
<defs>
<clipPath id="clip0_1071_238">
<rect width="34.61" height="34.61" fill="white" transform="translate(0.844238 0.268555)"/>
</clipPath>
</defs>
</svg>
