<svg width="36" height="36" viewBox="0 0 36 36" fill="none" xmlns="http://www.w3.org/2000/svg">
<g clip-path="url(#clip0_1071_248)">
<path d="M15.9861 10.4342C15.9861 9.83932 15.4994 9.35262 14.9045 9.35262H14.58L13.2281 5.72938C13.0658 5.29676 12.6332 5.02637 12.1465 5.02637C11.6598 5.02637 11.2813 5.35084 11.1731 5.78346L9.87523 10.326L8.90182 7.83843C8.73959 7.45988 8.41512 7.24357 8.03657 7.18949C7.65802 7.13541 7.27948 7.29765 7.00909 7.62212L5.71121 9.35262H5.17043C4.57557 9.35262 4.08887 9.83932 4.08887 10.4342C4.08887 11.029 4.57557 11.5157 5.17043 11.5157H6.25199C6.57646 11.5157 6.90093 11.3535 7.11724 11.0831L7.60395 10.4342L9.06405 14.0574C9.22629 14.49 9.60484 14.7604 10.0915 14.7604H10.1456C10.6323 14.7604 11.0109 14.436 11.119 14.0033L12.3628 9.56893L12.8495 10.8127C13.0118 11.2454 13.3903 11.5157 13.877 11.5157H14.9586C15.4994 11.5157 15.9861 11.029 15.9861 10.4342Z" fill="#7C8DB5"/>
<path d="M29.3434 20.3304C28.8026 20.1682 28.3159 20.006 27.9915 19.8437C29.8301 18.3836 31.128 15.9501 31.128 12.6513C31.128 9.0281 28.1537 6.10789 24.4764 6.10789C22.7459 6.10789 21.1235 6.75682 19.8257 7.94654C19.5553 7.89246 19.2308 7.83839 18.9604 7.78431C18.0411 3.72845 14.3638 0.700073 10.0375 0.700073C4.95418 0.700073 0.844238 4.81001 0.844238 9.89335C0.844238 14.9767 4.95418 19.0866 10.0375 19.0866C10.4161 19.0866 10.7946 19.0326 11.2272 18.9785C11.8221 20.8171 12.8496 22.6017 14.2015 23.8455C14.0934 23.8996 14.0393 23.9537 13.8771 24.0077C13.4985 24.17 12.9037 24.3863 12.2547 24.6026C9.60489 25.5219 5.17049 26.982 5.17049 32.0654V34.2285C5.17049 34.8234 5.65719 35.3101 6.25205 35.3101H30.0464C30.6413 35.3101 31.128 34.8234 31.128 34.2285V32.0654C31.128 31.6328 31.0739 31.2001 31.0198 30.8216H34.3727C34.9675 30.8216 35.4542 30.3349 35.4542 29.74V26.8198C35.4542 22.3854 31.6147 21.0875 29.3434 20.3304ZM24.4764 8.27101C26.964 8.27101 28.9649 10.2178 28.9649 12.6513C28.9649 15.3552 27.5588 18.2755 25.1794 18.9244C25.5039 17.7888 25.7202 16.599 25.7202 15.3012C25.7202 12.5973 24.3141 10.2178 22.151 8.91995C22.854 8.48732 23.6652 8.27101 24.4764 8.27101ZM3.00736 9.89335C3.00736 5.99973 6.14389 2.8632 10.0375 2.8632C13.9311 2.8632 17.0677 5.99973 17.0677 9.89335C17.0677 13.787 13.9311 16.9235 10.0375 16.9235C6.14389 16.9235 3.00736 13.787 3.00736 9.89335ZM13.2822 18.4918C16.6891 17.1939 19.1767 13.8951 19.1767 10.0015C21.6643 10.4882 23.503 12.7054 23.503 15.3012C23.503 19.3029 20.7991 23.4129 18.0952 23.4129C15.9861 23.4129 14.1475 21.0334 13.2822 18.4918ZM33.2911 28.6585H30.2627C28.8567 26.279 26.1528 25.3597 24.4764 24.8189C23.8815 24.6026 23.2867 24.9271 23.1244 25.5219C22.9622 26.0627 23.2326 26.7117 23.8274 26.8739C26.5854 27.7932 29.0189 28.8748 29.0189 32.0654V33.1469H7.33361V32.0654C7.33361 28.8207 9.76713 27.7391 12.9577 26.7117C13.7148 26.4953 14.3097 26.279 14.7964 26.0086C15.2831 25.7923 15.7157 25.4679 16.0402 25.0893C16.6891 25.3597 17.3921 25.5219 18.1492 25.5219C20.3664 25.5219 22.6918 23.8455 24.206 21.1957C24.8008 21.1957 25.3957 21.0875 25.9906 20.8712C26.315 21.2498 26.6936 21.5202 27.1262 21.7365C27.5588 21.9528 28.0996 22.115 28.6945 22.3313C31.2902 23.1966 33.3452 24.1159 33.3452 26.7657V28.6585H33.2911Z" fill="#7C8DB5"/>
</g>
<defs>
<clipPath id="clip0_1071_248">
<rect width="34.61" height="34.61" fill="white" transform="translate(0.844238 0.700073)"/>
</clipPath>
</defs>
</svg>
