<svg width="25" height="25" viewBox="0 0 25 25" fill="none" xmlns="http://www.w3.org/2000/svg">
<path d="M12.7139 21.479C11.4699 21.479 10.2999 21.243 9.20394 20.771C8.1086 20.2983 7.1556 19.657 6.34494 18.847C5.53427 18.0376 4.8926 17.0856 4.41994 15.991C3.94727 14.8963 3.71094 13.7266 3.71094 12.482C3.71094 11.238 3.94694 10.068 4.41894 8.97196C4.8916 7.87663 5.53294 6.92362 6.34294 6.11296C7.15227 5.30229 8.10427 4.66062 9.19894 4.18796C10.2936 3.71529 11.4633 3.47896 12.7079 3.47896C13.9519 3.47896 15.1219 3.71496 16.2179 4.18696C17.3133 4.65962 18.2663 5.30096 19.0769 6.11096C19.8876 6.92029 20.5293 7.87229 21.0019 8.96696C21.4746 10.0616 21.7109 11.2313 21.7109 12.476C21.7109 13.72 21.4749 14.89 21.0029 15.986C20.5303 17.0813 19.8889 18.0343 19.0789 18.845C18.2696 19.6556 17.3176 20.2973 16.2229 20.77C15.1283 21.2426 13.9586 21.479 12.7139 21.479ZM11.7109 20.429V18.479C11.1609 18.479 10.6903 18.2833 10.2989 17.892C9.9076 17.5006 9.7116 17.0296 9.71094 16.479V15.479L4.91094 10.679C4.86094 10.979 4.81527 11.279 4.77394 11.579C4.7326 11.879 4.7116 12.179 4.71094 12.479C4.71094 14.4956 5.3736 16.2623 6.69894 17.779C8.02427 19.2956 9.69494 20.179 11.7109 20.429ZM18.6109 17.879C18.9443 17.5123 19.2443 17.1166 19.5109 16.692C19.7776 16.2673 19.9983 15.8256 20.1729 15.367C20.3483 14.9083 20.4816 14.4373 20.5729 13.954C20.6643 13.4706 20.7103 12.979 20.7109 12.479C20.7109 10.8363 20.2599 9.33596 19.3579 7.97796C18.4559 6.61996 17.2403 5.64096 15.7109 5.04096V5.47896C15.7109 6.02896 15.5153 6.49996 15.1239 6.89196C14.7326 7.28396 14.2616 7.47962 13.7109 7.47896H11.7109V9.47896C11.7109 9.76229 11.6149 9.99996 11.4229 10.192C11.2309 10.384 10.9936 10.4796 10.7109 10.479H8.71094V12.479H14.7109C14.9943 12.479 15.2319 12.575 15.4239 12.767C15.6159 12.959 15.7116 13.1963 15.7109 13.479V16.479H16.7109C17.1443 16.479 17.5359 16.6083 17.8859 16.867C18.2359 17.1256 18.4776 17.463 18.6109 17.879Z" fill="#A6A6A6"/>
</svg>
