<svg width="20" height="21" viewBox="0 0 20 21" fill="none" xmlns="http://www.w3.org/2000/svg">
<path d="M10.0013 11.736C10.4615 11.736 10.8346 11.3629 10.8346 10.9027C10.8346 10.4424 10.4615 10.0693 10.0013 10.0693C9.54106 10.0693 9.16797 10.4424 9.16797 10.9027C9.16797 11.3629 9.54106 11.736 10.0013 11.736Z" stroke="#333333" stroke-width="1.5" stroke-linecap="round" stroke-linejoin="round"/>
<path d="M10.0013 5.90202C10.4615 5.90202 10.8346 5.52892 10.8346 5.06868C10.8346 4.60845 10.4615 4.23535 10.0013 4.23535C9.54106 4.23535 9.16797 4.60845 9.16797 5.06868C9.16797 5.52892 9.54106 5.90202 10.0013 5.90202Z" stroke="#333333" stroke-width="1.5" stroke-linecap="round" stroke-linejoin="round"/>
<path d="M10.0013 17.569C10.4615 17.569 10.8346 17.1959 10.8346 16.7357C10.8346 16.2754 10.4615 15.9023 10.0013 15.9023C9.54106 15.9023 9.16797 16.2754 9.16797 16.7357C9.16797 17.1959 9.54106 17.569 10.0013 17.569Z" stroke="#333333" stroke-width="1.5" stroke-linecap="round" stroke-linejoin="round"/>
</svg>
