<svg width="32" height="40" viewBox="0 0 32 40" fill="none" xmlns="http://www.w3.org/2000/svg">
<path d="M9.25727 8.39949C11.5745 8.39949 13.453 6.5192 13.453 4.19974C13.453 1.88029 11.5745 0 9.25727 0C6.94002 0 5.06152 1.88029 5.06152 4.19974C5.06152 6.5192 6.94002 8.39949 9.25727 8.39949Z" fill="#34F5C6"/>
<path d="M6.69152 14.8829C8.27509 14.8829 9.55882 13.5979 9.55882 12.0129C9.55882 10.4278 8.27509 9.14282 6.69152 9.14282C5.10796 9.14282 3.82422 10.4278 3.82422 12.0129C3.82422 13.5979 5.10796 14.8829 6.69152 14.8829Z" fill="#3C16B6"/>
<path d="M15.5984 13.1319C17.0567 13.1319 18.2388 11.9487 18.2388 10.489C18.2388 9.0294 17.0567 7.84613 15.5984 7.84613C14.1402 7.84613 12.958 9.0294 12.958 10.489C12.958 11.9487 14.1402 13.1319 15.5984 13.1319Z" fill="url(#paint0_linear_815_2352)"/>
<g style="mix-blend-mode:hard-light">
<path d="M9.12998 16.5718H9.50953V39.1315H0V25.7064C0 20.6642 4.08848 16.5718 9.12586 16.5718H9.12998Z" fill="#FFC903"/>
</g>
<path d="M31.6024 38.6855C31.6024 38.8342 31.6024 38.9829 31.5983 39.1315H22.9716C22.9758 38.9829 22.9799 38.8342 22.9799 38.6855C22.9799 31.24 16.9482 25.2026 9.50977 25.2026V16.5718C21.7133 16.5718 31.6024 26.4745 31.6024 38.6855Z" fill="#34F5C6"/>
<path d="M31.6024 6.53705C31.6024 6.38839 31.6024 6.23973 31.5983 6.09106H22.9716C22.9716 6.09106 22.9799 6.38839 22.9799 6.53705C22.9799 13.9826 16.9482 20.02 9.50977 20.02V28.6507C21.7133 28.6507 31.6024 18.7481 31.6024 6.53705Z" fill="#3C16B6"/>
<defs>
<linearGradient id="paint0_linear_815_2352" x1="12.4865" y1="11.9491" x2="23.5818" y2="6.8937" gradientUnits="userSpaceOnUse">
<stop stop-color="#FCB23F"/>
<stop offset="1" stop-color="#F25C2C"/>
</linearGradient>
</defs>
</svg>
