<svg width="35" height="35" viewBox="0 0 35 35" fill="none" xmlns="http://www.w3.org/2000/svg">
<path d="M10.4893 21.8238L10.4893 21.8238C9.89484 20.9812 9.41744 20.0631 9.0703 19.095L9.0703 19.095C8.95784 18.7813 9.12097 18.4359 9.43463 18.3234C9.74827 18.2108 10.0939 18.374 10.2063 18.6877L10.1131 18.7211L10.2063 18.6877C10.5166 19.5534 10.9436 20.3743 11.4753 21.128C12.6204 22.7506 13.2256 24.6673 13.2256 26.6701V31.8172H23.3299V29.4193C23.3299 27.995 24.4884 26.8364 25.9128 26.8364H30.1168V22.463C30.1168 22.2178 30.2651 21.9971 30.4921 21.9044L32.2801 21.1739L32.318 21.2665L32.2802 21.1739C32.442 21.1078 32.4847 20.9689 32.4958 20.9093C32.5069 20.8498 32.5173 20.7047 32.3902 20.5846C30.94 19.215 30.1118 17.2702 30.1169 15.249M10.4893 21.8238L30.2169 15.2492M10.4893 21.8238C11.4899 23.2416 12.0189 24.9172 12.0189 26.6701V32.4207C12.0189 32.7539 12.2891 33.0241 12.6224 33.0241H23.9333C24.2665 33.0241 24.5367 32.7539 24.5368 32.4207V29.4194C24.5368 28.6607 25.1541 28.0433 25.9128 28.0433H30.7203C31.0535 28.0433 31.3237 27.7731 31.3237 27.4399V22.8684M10.4893 21.8238L10.571 21.7661M30.1169 15.249L30.2169 15.2492M30.1169 15.249V15.2492H30.2169M30.1169 15.249V15.2231C30.1169 9.66024 25.5926 5.05998 20.0324 4.96906M30.2169 15.2492V15.2231C30.2169 9.60567 25.6489 4.96089 20.034 4.86908M20.0324 4.96906C20.0324 4.96906 20.0324 4.96906 20.0324 4.96906L20.034 4.86908M20.0324 4.96906C18.5806 4.94557 17.1713 5.2231 15.8441 5.79377M20.0324 4.96906L20.034 4.86908M20.034 4.86908L15.8441 5.79377M10.571 21.7661C11.5837 23.201 12.1189 24.8968 12.1189 26.6701V32.4207C12.1189 32.6987 12.3443 32.9241 12.6224 32.9241H23.9333C24.2113 32.9241 24.4367 32.6987 24.4368 32.4207V29.4194C24.4368 28.6054 25.0989 27.9433 25.9128 27.9433H30.7203C30.9983 27.9433 31.2237 27.7179 31.2237 27.4399V22.8012M10.571 21.7661C9.98173 20.9309 9.50852 20.0208 9.16443 19.0613L10.571 21.7661ZM31.2237 22.8012L31.2615 22.8938L31.3237 22.8684M31.2237 22.8012L32.6987 22.1986M31.2237 22.8012L32.6987 22.1986M31.3237 22.8684L32.7365 22.2912L32.6987 22.1986M31.3237 22.8684L32.6987 22.1986M32.6987 22.1986L32.7366 22.2912C33.2305 22.0894 33.5842 21.6553 33.6822 21.1307C33.7801 20.6061 33.6067 20.0737 33.2188 19.7073L33.2188 19.7072C32.0106 18.5662 31.3194 16.9423 31.3237 15.2508V15.2505V15.2231C31.3237 12.1949 30.1535 9.33857 28.0289 7.18109C25.9068 5.02604 23.0736 3.81176 20.052 3.76238L20.052 3.76238C18.4269 3.7361 16.852 4.04668 15.3673 4.68508L15.3672 4.68509C15.0612 4.81678 14.9197 5.17165 15.0513 5.47781L15.0513 5.47786C15.183 5.78384 15.5378 5.92557 15.844 5.79379L32.6987 22.1986ZM15.8441 5.79377L15.8045 5.70192L15.8441 5.79377ZM13.1256 31.8172V31.9172H13.2256L13.1256 31.8172ZM23.3299 31.9172H23.4299V31.8172L23.3299 31.9172ZM30.1168 26.9364H30.2168V26.8364L30.1168 26.9364Z" fill="#7C8DB5" stroke="#7C8DB5" stroke-width="0.2"/>
<path d="M4.87753 18.0328L4.87751 18.0328L2.75259 15.9078C2.75259 15.9078 2.75258 15.9078 2.75258 15.9078C2.51694 15.6722 2.51689 15.2903 2.75243 15.0546L3.24284 14.5638C2.96467 14.0623 2.74551 13.5332 2.58786 12.9826H1.89404C1.5608 12.9826 1.29062 12.7124 1.29062 12.3791V9.37385C1.29062 9.04061 1.5608 8.77043 1.89404 8.77043H2.58787C2.74553 8.21996 2.96474 7.69069 3.24285 7.18875L2.75258 6.69848C2.51695 6.46285 2.51687 6.08088 2.75251 5.84517L4.87742 3.71957C4.87743 3.71956 4.87743 3.71956 4.87743 3.71955C4.99059 3.60633 5.14409 3.54275 5.30414 3.54275C5.46419 3.54275 5.61768 3.60633 5.73083 3.71948L6.22164 4.21029C6.72319 3.9322 7.25222 3.71305 7.80272 3.5554V2.86157C7.80272 2.52833 8.07289 2.25815 8.40613 2.25815H11.4115C11.7447 2.25815 12.0149 2.52833 12.0149 2.86157V3.55539C12.5653 3.71299 13.0944 3.93214 13.5964 4.21029L14.0866 3.71963L14.0866 3.71963C14.1998 3.60641 14.3533 3.54276 14.5134 3.54269C14.6735 3.54261 14.827 3.60629 14.9402 3.71948L14.9402 3.71949L17.0652 5.8451C17.0652 5.8451 17.0652 5.84511 17.0652 5.84511C17.3008 6.08077 17.3007 6.4628 17.0651 6.69842L16.5748 7.18868C16.8531 7.69067 17.0722 8.21984 17.2298 8.77037H17.3574C17.6907 8.77037 17.9608 9.04055 17.9608 9.37379C17.9608 9.70703 17.6907 9.97721 17.3574 9.97721H16.7598C16.476 9.97721 16.2306 9.77944 16.1702 9.50225L16.1702 9.50223C16.0089 8.76148 15.7188 8.06088 15.3079 7.41966C15.155 7.18094 15.1888 6.86792 15.3893 6.66743L15.785 6.27166L14.5135 4.99972L14.1179 5.39567L14.0471 5.32499L14.1179 5.39567C13.9173 5.59634 13.6042 5.63032 13.3655 5.47727L4.87753 18.0328ZM4.87753 18.0328C5.11305 18.2682 5.49493 18.2686 5.73067 18.033C5.73067 18.033 5.73067 18.033 5.73068 18.033L6.22149 17.5426C6.72306 17.8207 7.25216 18.0398 7.80278 18.1975V18.8913C7.80278 19.2245 8.07296 19.4947 8.4062 19.4947H11.4115C11.7449 19.4947 12.015 19.2245 12.0149 18.8912V18.2118C12.8067 18.0315 13.7975 17.7713 14.4485 17.3669C14.7315 17.191 14.8185 16.819 14.6426 16.5359C14.4668 16.2528 14.0947 16.1659 13.8116 16.3417L13.8116 16.3417C13.5132 16.5271 13.0659 16.6868 12.5956 16.8206C12.1274 16.9538 11.6458 17.0588 11.283 17.1378C11.0058 17.1982 10.8081 17.4437 10.8081 17.7274V18.2877M4.87753 18.0328L10.8081 18.2877M2.49746 11.7757V11.8757H3.05788C3.29462 11.8757 3.49938 12.0406 3.54979 12.2719C3.71371 13.0247 4.00834 13.7361 4.42542 14.3863C4.5531 14.5854 4.52503 14.8466 4.35777 15.0139M2.49746 11.7757H3.05788C3.34165 11.7757 3.58708 11.9734 3.64749 12.2506L3.6475 12.2506C3.80888 12.9918 4.09891 13.6921 4.50959 14.3323L4.5096 14.3323C4.66262 14.5709 4.62901 14.884 4.42851 15.0846L4.35777 15.0139M2.49746 11.7757H2.39746M2.49746 11.7757V9.97721M4.35777 15.0139L4.4285 15.0846M4.35777 15.0139L3.8911 15.4809L5.30432 16.8942L5.77137 16.4275L4.4285 15.0846M4.4285 15.0846L4.0325 15.4809L5.30435 16.7528L5.70069 16.3568C5.90127 16.1563 6.21435 16.1227 6.45297 16.2757L6.453 16.2757C7.09318 16.6863 7.79344 16.9763 8.53465 17.1378C8.81192 17.1982 9.00962 17.4436 9.00962 17.7274V18.2877H10.8081M4.4285 15.0846L10.8081 18.2877M2.39746 11.7757L4.4283 6.6675C4.62878 6.86799 4.66264 7.18101 4.50968 7.41973L4.50968 7.41974C4.09885 8.06082 3.80882 8.76141 3.64743 9.50224L3.64743 9.50225C3.58701 9.77952 3.34157 9.97721 3.05782 9.97721H2.49746M2.39746 11.7757V9.97721M2.39746 11.7757V9.97721M2.49746 9.97721H2.39746M2.49746 9.97721V9.87721H3.05782L2.39746 9.97721M9.00943 3.46505V4.02548C9.00943 4.30924 8.81166 4.55467 8.53447 4.61508L8.53445 4.61509C7.79338 4.77647 7.09307 5.0665 6.45283 5.47717L9.00943 3.46505ZM9.00943 3.46505H10.8079V4.02541C10.8079 4.30916 11.0056 4.55461 11.2829 4.61502L11.2829 4.61502C12.0237 4.77635 12.7242 5.06644 13.3655 5.47726L9.00943 3.46505ZM5.70035 5.39595C5.90096 5.59656 6.21407 5.63037 6.45281 5.47718L4.42829 6.6675L4.03257 6.27172L5.30409 4.99969L5.70035 5.39595Z" fill="#7C8DB5" stroke="#7C8DB5" stroke-width="0.2"/>
<path d="M13.0399 7.77647L13.0398 7.7764C12.2059 6.9339 11.0947 6.4703 9.90948 6.4703C7.48003 6.4703 5.50338 8.447 5.50338 10.8764C5.50338 13.3058 7.48003 15.2825 9.90948 15.2825C9.96307 15.2825 10.017 15.2813 10.0709 15.2795L10.0742 15.3795L10.0706 15.2795C10.8373 15.2523 11.5867 15.0236 12.2367 14.6183C12.5196 14.4419 12.8917 14.5282 13.068 14.811C13.2443 15.0938 13.1581 15.4659 12.8753 15.6423C12.0463 16.1593 11.0909 16.451 10.1123 16.4857L10.112 16.4857C10.0446 16.4879 9.97711 16.4894 9.90942 16.4894C6.81436 16.4894 4.29648 13.9715 4.29648 10.8765C4.29648 7.78134 6.81436 5.26353 9.90942 5.26353C11.4189 5.26353 12.8354 5.85443 13.8971 6.92702C14.7349 7.77175 15.274 8.83787 15.4552 10.0092M13.0399 7.77647L15.3564 10.0245M13.0399 7.77647C13.6979 8.44 14.1205 9.27565 14.2626 10.1937M13.0399 7.77647L14.9359 10.5989M15.4552 10.0092L15.3564 10.0245M15.4552 10.0092C15.4552 10.0092 15.4552 10.0092 15.4552 10.0092L15.3564 10.0245M15.4552 10.0092C15.5062 10.3386 15.2805 10.6468 14.9512 10.6978M15.3564 10.0245C15.3989 10.2993 15.2107 10.5565 14.9359 10.5989M14.9512 10.6978L14.9359 10.5989M14.9512 10.6978C14.9512 10.6978 14.9512 10.6978 14.9512 10.6978L14.9359 10.5989M14.9512 10.6978C14.6217 10.7488 14.3135 10.5231 14.2626 10.1937M14.2626 10.1937L14.3615 10.1785L14.2626 10.1937Z" fill="#7C8DB5" stroke="#7C8DB5" stroke-width="0.2"/>
<path d="M15.1539 14.7041C15.1539 16.508 16.6213 17.9753 18.4252 17.9753C20.229 17.9753 21.6965 16.508 21.6965 14.7041C21.6965 12.9002 20.2291 11.4328 18.4252 11.4328C16.6213 11.4328 15.1539 12.9003 15.1539 14.7041ZM16.3607 14.7041C16.3607 13.5659 17.2869 12.6397 18.4252 12.6397C19.5634 12.6397 20.4896 13.5659 20.4896 14.7041C20.4896 15.8424 19.5634 16.7686 18.4252 16.7686C17.2869 16.7686 16.3607 15.8424 16.3607 14.7041Z" fill="#7C8DB5" stroke="#7C8DB5" stroke-width="0.2"/>
<mask id="path-5-outside-1_4552_53902" maskUnits="userSpaceOnUse" x="11.0527" y="7.33154" width="14" height="14" fill="black">
<rect fill="#7C8DB5" x="11.0527" y="7.33154" width="14" height="14"/>
<path d="M19.4925 21.0768H17.3583C17.0802 21.0768 16.8548 20.8514 16.8548 20.5734V19.7734C16.543 19.6768 16.2412 19.5517 15.952 19.3989L15.3859 19.965C15.2915 20.0594 15.1634 20.1125 15.0299 20.1125C14.8964 20.1125 14.7683 20.0594 14.6739 19.965L13.1646 18.4557C12.9679 18.2591 12.9679 17.9404 13.1646 17.7438L13.7307 17.1777C13.578 16.8884 13.4527 16.5865 13.3562 16.2748H12.5562C12.2781 16.2748 12.0527 16.0494 12.0527 15.7714V13.6371C12.0527 13.3591 12.2781 13.1336 12.5562 13.1336H13.3562C13.4528 12.8219 13.578 12.5201 13.7307 12.2308L13.1646 11.6647C13.0702 11.5703 13.0172 11.4422 13.0172 11.3087C13.0172 11.1752 13.0702 11.0471 13.1646 10.9527L14.6739 9.44341C14.8705 9.24682 15.1892 9.24682 15.3858 9.44341L15.9519 10.0095C16.2412 9.85677 16.543 9.73155 16.8548 9.63502V8.83496C16.8548 8.55695 17.0802 8.33154 17.3582 8.33154H19.4924C19.7704 8.33154 19.9959 8.55695 19.9959 8.83496V9.63502C20.3076 9.73161 20.6095 9.85677 20.8988 10.0095L21.4648 9.44341C21.6615 9.24676 21.9802 9.24688 22.1768 9.44341L23.6861 10.9527C23.7805 11.0471 23.8335 11.1752 23.8335 11.3087C23.8335 11.4422 23.7805 11.5703 23.6861 11.6647L23.1199 12.2308C23.2727 12.52 23.3979 12.8219 23.4945 13.1336H24.2945C24.5726 13.1336 24.798 13.3591 24.798 13.6371V15.7714C24.798 16.0494 24.5726 16.2748 24.2945 16.2748H23.4946C23.398 16.5866 23.2728 16.8884 23.1201 17.1777L23.6862 17.7438C23.8828 17.9404 23.8828 18.2591 23.6862 18.4557L22.1769 19.965C22.0825 20.0594 21.9545 20.1125 21.8209 20.1125C21.6874 20.1125 21.5593 20.0594 21.465 19.965L20.8989 19.3989C20.6095 19.5517 20.3077 19.6768 19.9959 19.7734V20.5734C19.9959 20.8514 19.7705 21.0768 19.4925 21.0768ZM17.8617 20.07H18.9891V19.3876C18.9891 19.1526 19.1516 18.9488 19.3808 18.8967C19.8533 18.7891 20.3017 18.6032 20.7138 18.3439C20.9128 18.2187 21.1718 18.2478 21.3379 18.414L21.8209 18.8971L22.6183 18.0997L22.1352 17.6166C21.969 17.4504 21.9399 17.1914 22.0652 16.9925C22.3244 16.5806 22.5104 16.1321 22.618 15.6595C22.6701 15.4304 22.8738 15.2679 23.1089 15.2679H23.7913V14.1405H23.1089C22.8739 14.1405 22.6701 13.9779 22.618 13.7488C22.5104 13.2763 22.3244 12.8278 22.0652 12.4158C21.94 12.2169 21.9691 11.9579 22.1352 11.7918L22.6183 11.3087L21.8209 10.5113L21.3379 10.9944C21.1718 11.1605 20.9127 11.1897 20.7138 11.0645C20.3017 10.8052 19.8532 10.6191 19.3808 10.5117C19.1516 10.4595 18.9891 10.2558 18.9891 10.0208V9.33838H17.8617V10.0208C17.8617 10.2558 17.6991 10.4596 17.47 10.5117C16.9976 10.6192 16.5491 10.8052 16.137 11.0645C15.9382 11.1895 15.6791 11.1606 15.513 10.9944L15.0299 10.5113L14.2325 11.3087L14.7156 11.7918C14.8818 11.958 14.9108 12.2169 14.7857 12.4158C14.5263 12.8279 14.3403 13.2764 14.2328 13.7488C14.1807 13.9779 13.977 14.1405 13.742 14.1405H13.0596V15.268H13.742C13.977 15.268 14.1807 15.4305 14.2328 15.6597C14.3403 16.132 14.5264 16.5805 14.7857 16.9926C14.9108 17.1915 14.8817 17.4505 14.7156 17.6167L14.2325 18.0997L15.0299 18.8972L15.513 18.414C15.6792 18.2478 15.9382 18.2188 16.1371 18.344C16.5491 18.6032 16.9975 18.7892 17.47 18.8967C17.6992 18.9489 17.8617 19.1526 17.8617 19.3876V20.07H17.8617Z"/>
</mask>
<path d="M19.4925 21.0768H17.3583C17.0802 21.0768 16.8548 20.8514 16.8548 20.5734V19.7734C16.543 19.6768 16.2412 19.5517 15.952 19.3989L15.3859 19.965C15.2915 20.0594 15.1634 20.1125 15.0299 20.1125C14.8964 20.1125 14.7683 20.0594 14.6739 19.965L13.1646 18.4557C12.9679 18.2591 12.9679 17.9404 13.1646 17.7438L13.7307 17.1777C13.578 16.8884 13.4527 16.5865 13.3562 16.2748H12.5562C12.2781 16.2748 12.0527 16.0494 12.0527 15.7714V13.6371C12.0527 13.3591 12.2781 13.1336 12.5562 13.1336H13.3562C13.4528 12.8219 13.578 12.5201 13.7307 12.2308L13.1646 11.6647C13.0702 11.5703 13.0172 11.4422 13.0172 11.3087C13.0172 11.1752 13.0702 11.0471 13.1646 10.9527L14.6739 9.44341C14.8705 9.24682 15.1892 9.24682 15.3858 9.44341L15.9519 10.0095C16.2412 9.85677 16.543 9.73155 16.8548 9.63502V8.83496C16.8548 8.55695 17.0802 8.33154 17.3582 8.33154H19.4924C19.7704 8.33154 19.9959 8.55695 19.9959 8.83496V9.63502C20.3076 9.73161 20.6095 9.85677 20.8988 10.0095L21.4648 9.44341C21.6615 9.24676 21.9802 9.24688 22.1768 9.44341L23.6861 10.9527C23.7805 11.0471 23.8335 11.1752 23.8335 11.3087C23.8335 11.4422 23.7805 11.5703 23.6861 11.6647L23.1199 12.2308C23.2727 12.52 23.3979 12.8219 23.4945 13.1336H24.2945C24.5726 13.1336 24.798 13.3591 24.798 13.6371V15.7714C24.798 16.0494 24.5726 16.2748 24.2945 16.2748H23.4946C23.398 16.5866 23.2728 16.8884 23.1201 17.1777L23.6862 17.7438C23.8828 17.9404 23.8828 18.2591 23.6862 18.4557L22.1769 19.965C22.0825 20.0594 21.9545 20.1125 21.8209 20.1125C21.6874 20.1125 21.5593 20.0594 21.465 19.965L20.8989 19.3989C20.6095 19.5517 20.3077 19.6768 19.9959 19.7734V20.5734C19.9959 20.8514 19.7705 21.0768 19.4925 21.0768ZM17.8617 20.07H18.9891V19.3876C18.9891 19.1526 19.1516 18.9488 19.3808 18.8967C19.8533 18.7891 20.3017 18.6032 20.7138 18.3439C20.9128 18.2187 21.1718 18.2478 21.3379 18.414L21.8209 18.8971L22.6183 18.0997L22.1352 17.6166C21.969 17.4504 21.9399 17.1914 22.0652 16.9925C22.3244 16.5806 22.5104 16.1321 22.618 15.6595C22.6701 15.4304 22.8738 15.2679 23.1089 15.2679H23.7913V14.1405H23.1089C22.8739 14.1405 22.6701 13.9779 22.618 13.7488C22.5104 13.2763 22.3244 12.8278 22.0652 12.4158C21.94 12.2169 21.9691 11.9579 22.1352 11.7918L22.6183 11.3087L21.8209 10.5113L21.3379 10.9944C21.1718 11.1605 20.9127 11.1897 20.7138 11.0645C20.3017 10.8052 19.8532 10.6191 19.3808 10.5117C19.1516 10.4595 18.9891 10.2558 18.9891 10.0208V9.33838H17.8617V10.0208C17.8617 10.2558 17.6991 10.4596 17.47 10.5117C16.9976 10.6192 16.5491 10.8052 16.137 11.0645C15.9382 11.1895 15.6791 11.1606 15.513 10.9944L15.0299 10.5113L14.2325 11.3087L14.7156 11.7918C14.8818 11.958 14.9108 12.2169 14.7857 12.4158C14.5263 12.8279 14.3403 13.2764 14.2328 13.7488C14.1807 13.9779 13.977 14.1405 13.742 14.1405H13.0596V15.268H13.742C13.977 15.268 14.1807 15.4305 14.2328 15.6597C14.3403 16.132 14.5264 16.5805 14.7857 16.9926C14.9108 17.1915 14.8817 17.4505 14.7156 17.6167L14.2325 18.0997L15.0299 18.8972L15.513 18.414C15.6792 18.2478 15.9382 18.2188 16.1371 18.344C16.5491 18.6032 16.9975 18.7892 17.47 18.8967C17.6992 18.9489 17.8617 19.1526 17.8617 19.3876V20.07H17.8617Z" fill="#7C8DB5"/>
<path d="M19.4925 21.0768H17.3583C17.0802 21.0768 16.8548 20.8514 16.8548 20.5734V19.7734C16.543 19.6768 16.2412 19.5517 15.952 19.3989L15.3859 19.965C15.2915 20.0594 15.1634 20.1125 15.0299 20.1125C14.8964 20.1125 14.7683 20.0594 14.6739 19.965L13.1646 18.4557C12.9679 18.2591 12.9679 17.9404 13.1646 17.7438L13.7307 17.1777C13.578 16.8884 13.4527 16.5865 13.3562 16.2748H12.5562C12.2781 16.2748 12.0527 16.0494 12.0527 15.7714V13.6371C12.0527 13.3591 12.2781 13.1336 12.5562 13.1336H13.3562C13.4528 12.8219 13.578 12.5201 13.7307 12.2308L13.1646 11.6647C13.0702 11.5703 13.0172 11.4422 13.0172 11.3087C13.0172 11.1752 13.0702 11.0471 13.1646 10.9527L14.6739 9.44341C14.8705 9.24682 15.1892 9.24682 15.3858 9.44341L15.9519 10.0095C16.2412 9.85677 16.543 9.73155 16.8548 9.63502V8.83496C16.8548 8.55695 17.0802 8.33154 17.3582 8.33154H19.4924C19.7704 8.33154 19.9959 8.55695 19.9959 8.83496V9.63502C20.3076 9.73161 20.6095 9.85677 20.8988 10.0095L21.4648 9.44341C21.6615 9.24676 21.9802 9.24688 22.1768 9.44341L23.6861 10.9527C23.7805 11.0471 23.8335 11.1752 23.8335 11.3087C23.8335 11.4422 23.7805 11.5703 23.6861 11.6647L23.1199 12.2308C23.2727 12.52 23.3979 12.8219 23.4945 13.1336H24.2945C24.5726 13.1336 24.798 13.3591 24.798 13.6371V15.7714C24.798 16.0494 24.5726 16.2748 24.2945 16.2748H23.4946C23.398 16.5866 23.2728 16.8884 23.1201 17.1777L23.6862 17.7438C23.8828 17.9404 23.8828 18.2591 23.6862 18.4557L22.1769 19.965C22.0825 20.0594 21.9545 20.1125 21.8209 20.1125C21.6874 20.1125 21.5593 20.0594 21.465 19.965L20.8989 19.3989C20.6095 19.5517 20.3077 19.6768 19.9959 19.7734V20.5734C19.9959 20.8514 19.7705 21.0768 19.4925 21.0768ZM17.8617 20.07H18.9891V19.3876C18.9891 19.1526 19.1516 18.9488 19.3808 18.8967C19.8533 18.7891 20.3017 18.6032 20.7138 18.3439C20.9128 18.2187 21.1718 18.2478 21.3379 18.414L21.8209 18.8971L22.6183 18.0997L22.1352 17.6166C21.969 17.4504 21.9399 17.1914 22.0652 16.9925C22.3244 16.5806 22.5104 16.1321 22.618 15.6595C22.6701 15.4304 22.8738 15.2679 23.1089 15.2679H23.7913V14.1405H23.1089C22.8739 14.1405 22.6701 13.9779 22.618 13.7488C22.5104 13.2763 22.3244 12.8278 22.0652 12.4158C21.94 12.2169 21.9691 11.9579 22.1352 11.7918L22.6183 11.3087L21.8209 10.5113L21.3379 10.9944C21.1718 11.1605 20.9127 11.1897 20.7138 11.0645C20.3017 10.8052 19.8532 10.6191 19.3808 10.5117C19.1516 10.4595 18.9891 10.2558 18.9891 10.0208V9.33838H17.8617V10.0208C17.8617 10.2558 17.6991 10.4596 17.47 10.5117C16.9976 10.6192 16.5491 10.8052 16.137 11.0645C15.9382 11.1895 15.6791 11.1606 15.513 10.9944L15.0299 10.5113L14.2325 11.3087L14.7156 11.7918C14.8818 11.958 14.9108 12.2169 14.7857 12.4158C14.5263 12.8279 14.3403 13.2764 14.2328 13.7488C14.1807 13.9779 13.977 14.1405 13.742 14.1405H13.0596V15.268H13.742C13.977 15.268 14.1807 15.4305 14.2328 15.6597C14.3403 16.132 14.5264 16.5805 14.7857 16.9926C14.9108 17.1915 14.8817 17.4505 14.7156 17.6167L14.2325 18.0997L15.0299 18.8972L15.513 18.414C15.6792 18.2478 15.9382 18.2188 16.1371 18.344C16.5491 18.6032 16.9975 18.7892 17.47 18.8967C17.6992 18.9489 17.8617 19.1526 17.8617 19.3876V20.07H17.8617Z" stroke="white" stroke-width="0.4" mask="url(#path-5-outside-1_4552_53902)"/>
</svg>
