<svg width="80" height="33" viewBox="0 0 80 33" fill="none" xmlns="http://www.w3.org/2000/svg">
<path d="M13.358 15H11.5114L16.8523 0.454545H18.6705L24.0114 15H22.1648L17.8182 2.75568H17.7045L13.358 15ZM14.0398 9.31818H21.483V10.8807H14.0398V9.31818ZM30.4815 15.2273C29.4588 15.2273 28.5781 14.9858 27.8395 14.5028C27.1009 14.0199 26.5327 13.3546 26.1349 12.5071C25.7372 11.6596 25.5384 10.6913 25.5384 9.60227C25.5384 8.49432 25.742 7.51657 26.1491 6.66903C26.5611 5.81676 27.134 5.15152 27.8679 4.6733C28.6065 4.19034 29.4683 3.94886 30.4531 3.94886C31.2202 3.94886 31.9115 4.09091 32.527 4.375C33.1425 4.65909 33.6468 5.05682 34.0398 5.56818C34.4328 6.07955 34.6766 6.67614 34.7713 7.35795H33.0952C32.9673 6.8608 32.6832 6.42045 32.2429 6.03693C31.8073 5.64867 31.2202 5.45455 30.4815 5.45455C29.8281 5.45455 29.2552 5.625 28.7628 5.96591C28.2751 6.30208 27.8939 6.77794 27.6193 7.39347C27.3494 8.00426 27.2145 8.72159 27.2145 9.54545C27.2145 10.3883 27.3471 11.1222 27.6122 11.7472C27.8821 12.3722 28.2609 12.8575 28.7486 13.2031C29.241 13.5488 29.8187 13.7216 30.4815 13.7216C30.9171 13.7216 31.3125 13.6458 31.6676 13.4943C32.0227 13.3428 32.3234 13.125 32.5696 12.8409C32.8158 12.5568 32.991 12.2159 33.0952 11.8182H34.7713C34.6766 12.4621 34.4422 13.0421 34.0682 13.5582C33.6989 14.0696 33.2088 14.4768 32.598 14.7798C31.992 15.0781 31.2865 15.2273 30.4815 15.2273ZM41.9659 4.09091V5.51136H36.3125V4.09091H41.9659ZM37.9602 1.47727H39.6364V11.875C39.6364 12.3485 39.705 12.7036 39.8423 12.9403C39.9844 13.1723 40.1643 13.3286 40.3821 13.4091C40.6046 13.4848 40.839 13.5227 41.0852 13.5227C41.2699 13.5227 41.4214 13.5133 41.5398 13.4943C41.6581 13.4706 41.7528 13.4517 41.8239 13.4375L42.1648 14.9432C42.0511 14.9858 41.8925 15.0284 41.6889 15.071C41.4853 15.1184 41.2273 15.142 40.9148 15.142C40.4413 15.142 39.9773 15.0402 39.5227 14.8366C39.0729 14.633 38.6989 14.3229 38.4006 13.9062C38.107 13.4896 37.9602 12.964 37.9602 12.3295V1.47727ZM44.4872 15V4.09091H46.1634V15H44.4872ZM45.3395 2.27273C45.0128 2.27273 44.7311 2.16146 44.4943 1.93892C44.2623 1.71638 44.1463 1.44886 44.1463 1.13636C44.1463 0.823864 44.2623 0.556345 44.4943 0.333806C44.7311 0.111269 45.0128 0 45.3395 0C45.6662 0 45.9455 0.111269 46.1776 0.333806C46.4143 0.556345 46.5327 0.823864 46.5327 1.13636C46.5327 1.44886 46.4143 1.71638 46.1776 1.93892C45.9455 2.16146 45.6662 2.27273 45.3395 2.27273ZM58.1538 4.09091L54.1197 15H52.4151L48.381 4.09091H50.1992L53.2106 12.7841H53.3242L56.3356 4.09091H58.1538ZM64.5494 15.2273C63.4982 15.2273 62.5915 14.9953 61.8292 14.5312C61.0716 14.0625 60.4869 13.4091 60.0749 12.571C59.6677 11.7282 59.4641 10.7481 59.4641 9.63068C59.4641 8.51326 59.6677 7.52841 60.0749 6.67614C60.4869 5.81913 61.0598 5.15152 61.7937 4.6733C62.5323 4.19034 63.3941 3.94886 64.3789 3.94886C64.9471 3.94886 65.5082 4.04356 66.0621 4.23295C66.6161 4.42235 67.1204 4.73011 67.5749 5.15625C68.0295 5.57765 68.3917 6.13636 68.6616 6.83239C68.9315 7.52841 69.0664 8.38542 69.0664 9.40341V10.1136H60.6573V8.66477H67.3619C67.3619 8.04924 67.2388 7.5 66.9925 7.01705C66.7511 6.53409 66.4054 6.15294 65.9556 5.87358C65.5105 5.59422 64.985 5.45455 64.3789 5.45455C63.7113 5.45455 63.1336 5.62026 62.646 5.9517C62.163 6.27841 61.7913 6.70455 61.5309 7.23011C61.2705 7.75568 61.1403 8.31913 61.1403 8.92045V9.88636C61.1403 10.7102 61.2823 11.4086 61.5664 11.9815C61.8552 12.5497 62.2553 12.983 62.7667 13.2812C63.2781 13.5748 63.8723 13.7216 64.5494 13.7216C64.9897 13.7216 65.3874 13.66 65.7425 13.5369C66.1024 13.4091 66.4125 13.2197 66.6729 12.9688C66.9334 12.7131 67.1346 12.3958 67.2766 12.017L68.896 12.4716C68.7255 13.0208 68.439 13.5038 68.0366 13.9205C67.6341 14.3324 67.137 14.6544 66.5451 14.8864C65.9532 15.1136 65.288 15.2273 64.5494 15.2273Z" fill="#4D4D4D"/>
<path d="M0 31C0 28.2386 2.23858 26 5 26H75C77.7614 26 80 28.2386 80 31V33H0V31Z" fill="#02BA09"/>
</svg>
