<svg width="67" height="63" viewBox="0 0 67 63" fill="none" xmlns="http://www.w3.org/2000/svg">
<path fill-rule="evenodd" clip-rule="evenodd" d="M36.7217 60.9625C62.5254 67.8766 89.0484 52.5635 95.9625 26.7598C102.877 0.956139 87.5635 -25.5669 61.7598 -32.4809C35.9561 -39.395 9.43312 -24.082 2.51903 1.72174C-4.39505 27.5254 10.918 54.0484 36.7217 60.9625ZM40.0097 48.6912C59.0361 53.7893 78.5928 42.4982 83.6909 23.4718C88.7891 4.44544 77.4979 -15.1113 58.4716 -20.2094C39.4452 -25.3075 19.8884 -14.0164 14.7903 5.00995C9.6922 24.0363 20.9833 43.5931 40.0097 48.6912Z" fill="#BDFF71" fill-opacity="0.5"/>
<path fill-rule="evenodd" clip-rule="evenodd" d="M49.9288 33.3411C65.3535 37.4741 81.2081 28.3204 85.3411 12.8958C89.4742 -2.52885 80.3205 -18.3835 64.8958 -22.5165C49.4712 -26.6495 33.6166 -17.4959 29.4835 -2.0712C25.3505 13.3534 34.5042 29.2081 49.9288 33.3411ZM51.8944 26.0057C63.2678 29.0532 74.9582 22.3037 78.0057 10.9303C81.0532 -0.443059 74.3037 -12.1335 62.9304 -15.181C51.557 -18.2285 39.8666 -11.479 36.8191 -0.105609C33.7716 11.2678 40.5211 22.9582 51.8944 26.0057Z" fill="#3D7100" fill-opacity="0.15"/>
</svg>
