<svg width="144" height="144" viewBox="0 0 144 144" fill="none" xmlns="http://www.w3.org/2000/svg">
<rect x="0.660156" y="0.660156" width="142.67" height="142.67" rx="71.33" fill="white" fill-opacity="0.13"/>
<path d="M83.017 78.5067C80.9974 78.5067 79.1329 79.1749 77.6316 80.3031L73.7427 76.7248C74.0042 75.766 74.1398 74.754 74.1398 73.7129C74.1398 71.3597 73.4327 69.1662 72.222 67.3407L76.4596 62.0095C77.5299 62.639 78.7745 62.9973 80.1015 62.9973C84.097 62.9973 87.3514 59.7483 87.3514 55.7487C87.3514 51.7491 84.1018 48.5 80.1015 48.5C76.1012 48.5 72.8515 51.7491 72.8515 55.7487C72.8515 57.3175 73.3552 58.775 74.2124 59.9662L70.1927 65.0165C68.1538 63.2297 65.4854 62.1451 62.5699 62.1451C56.1868 62.1451 51 67.3359 51 73.7129C51 80.09 56.1917 85.2808 62.5699 85.2808C65.8195 85.2808 68.7641 83.9347 70.8659 81.7702L74.3819 85.0048C74.1446 85.7989 74.0235 86.6366 74.0235 87.5033C74.0235 92.4617 78.0577 96.5 83.0218 96.5C87.9859 96.5 92.0201 92.4665 92.0201 87.5033C92.0201 82.5401 87.9859 78.5067 83.0218 78.5067H83.017ZM80.1015 52.4657C81.9079 52.4657 83.3802 53.9377 83.3802 55.7487C83.3802 57.5596 81.9079 59.0268 80.1015 59.0268C79.7092 59.0268 79.3315 58.959 78.9828 58.8331C78.7116 58.7363 78.4597 58.6007 78.2273 58.4409C77.3749 57.8501 76.8179 56.8624 76.8179 55.7535C76.8179 53.9425 78.2902 52.4705 80.1015 52.4705V52.4657ZM67.9408 79.0829C66.5654 80.458 64.6669 81.3102 62.565 81.3102C58.371 81.3102 54.9616 77.9014 54.9616 73.7081C54.9616 69.5148 58.371 66.106 62.565 66.106C64.5507 66.106 66.3619 66.871 67.718 68.1203C68.4977 68.8369 69.1224 69.7134 69.5486 70.6963C69.9167 71.5388 70.1298 72.4588 70.1637 73.4224C70.1637 73.5193 70.1685 73.6113 70.1685 73.7081C70.1685 75.8047 69.3162 77.7029 67.9408 79.0829ZM87.6323 89.4934C87.2158 90.457 86.5039 91.2657 85.608 91.8031C84.8525 92.2631 83.9662 92.5246 83.017 92.5246C80.5519 92.5246 78.4985 90.7427 78.0723 88.3991C78.019 88.1037 77.9899 87.8035 77.9899 87.4936C77.9899 85.581 79.0651 83.9105 80.6439 83.0631C81.351 82.6806 82.1598 82.4627 83.017 82.4627C85.7872 82.4627 88.044 84.7191 88.044 87.4888C88.044 88.1957 87.8987 88.8736 87.6275 89.4838L87.6323 89.4934Z" fill="url(#paint0_linear_6009_103257)"/>
<path d="M63.3448 72.4541C63.3448 74.0617 62.0469 75.3594 60.439 75.3594C59.9257 75.3594 59.4462 75.2238 59.0249 74.9914C58.1386 74.4975 57.5381 73.5485 57.5381 72.4541C57.5381 70.8514 58.836 69.5537 60.439 69.5537C61.3544 69.5537 62.1728 69.975 62.7055 70.6383C63.1075 71.1371 63.3448 71.7666 63.3448 72.4541Z" fill="#3D7100"/>
<path d="M69.0018 74.2599C69.0018 77.601 66.2898 80.3126 62.9481 80.3126C61.7906 80.3126 60.7106 79.9881 59.7856 79.4216C59.219 78.5016 58.8945 77.417 58.8945 76.2597C58.8945 76.1725 58.8945 76.0902 58.9042 76.0079C59.374 76.2161 59.8922 76.3275 60.4394 76.3275C62.5752 76.3275 64.3138 74.5892 64.3138 72.4538C64.3138 71.6694 64.0814 70.9479 63.6794 70.3378C64.0862 70.2506 64.5124 70.207 64.9434 70.207C66.1009 70.207 67.1857 70.5315 68.1059 71.098C68.6774 72.0228 69.0018 73.0978 69.0018 74.2599Z" fill="#FB9B05"/>
<path d="M84.2179 87.8762C83.1767 87.8762 82.3389 87.0385 82.3389 85.9974C82.3389 85.6633 82.426 85.3534 82.5762 85.0823C82.8958 84.5109 83.5109 84.1235 84.2179 84.1235C85.2543 84.1235 86.0922 84.9612 86.0922 85.9974C86.0922 86.5882 85.821 87.116 85.3899 87.4646C85.0655 87.7261 84.6587 87.8762 84.2179 87.8762Z" fill="#3D7100"/>
<path d="M83.0508 91.532C80.8909 91.532 79.1377 89.7792 79.1377 87.6196C79.1377 86.8739 79.3459 86.1718 79.714 85.5762C80.3097 85.2082 81.0119 85 81.7577 85C81.8159 85 81.8691 85 81.9224 85.0048C81.7868 85.3099 81.7142 85.644 81.7142 85.9975C81.7142 87.3775 82.8377 88.5009 84.218 88.5009C84.7265 88.5009 85.1914 88.3508 85.5885 88.0893C85.6467 88.3508 85.6709 88.6268 85.6709 88.9076C85.6709 89.6533 85.4626 90.3554 85.0946 90.951C84.4989 91.319 83.8015 91.532 83.0508 91.532Z" fill="#EB1013"/>
<path d="M80.6974 56.0345C80.0484 56.0345 79.5254 55.5116 79.5254 54.8627C79.5254 54.6545 79.5787 54.4608 79.6755 54.2913C79.8741 53.933 80.2567 53.6909 80.6974 53.6909C81.3415 53.6909 81.8646 54.2139 81.8646 54.8579C81.8646 55.2259 81.6951 55.5551 81.4287 55.773C81.2253 55.9328 80.9734 56.0297 80.6974 56.0297V56.0345Z" fill="#3D7100"/>
<path d="M79.9711 58.3149C78.6248 58.3149 77.5303 57.2206 77.5303 55.8745C77.5303 55.4096 77.661 54.9738 77.8887 54.601C78.2616 54.3734 78.6974 54.2427 79.1624 54.2427C79.1963 54.2427 79.2302 54.2427 79.2641 54.2427C79.1817 54.4315 79.1333 54.6397 79.1333 54.8625C79.1333 55.7244 79.8355 56.4216 80.6927 56.4216C81.0075 56.4216 81.2981 56.3296 81.5451 56.165C81.579 56.3296 81.5984 56.4991 81.5984 56.6734C81.5984 57.1383 81.4676 57.5789 81.24 57.9469C80.8671 58.1793 80.4361 58.3101 79.9663 58.3101L79.9711 58.3149Z" fill="#0A8CF4"/>
<defs>
<linearGradient id="paint0_linear_6009_103257" x1="48.9399" y1="74.1466" x2="95.1659" y2="72.4528" gradientUnits="userSpaceOnUse">
<stop offset="0.388782" stop-color="#3D7100"/>
<stop offset="0.885" stop-color="#74D700"/>
</linearGradient>
</defs>
</svg>
