<svg width="538" height="631" viewBox="0 0 538 631" fill="none" xmlns="http://www.w3.org/2000/svg">
<g opacity="0.1">
<path d="M260.562 496.593C232.21 513.491 211.625 538.474 199.988 566.875L115.451 549.179C111.1 533.531 104.536 518.189 95.8247 503.574C76.1338 470.537 47.8534 445.659 15.5813 430.162L30.4642 319.86C50.7571 319.742 71.2287 314.358 89.8579 303.254C145.95 269.822 164.453 196.977 130.986 140.828C97.5199 84.6778 24.7121 66.2557 -31.4477 99.7281C-87.6075 133.2 -106.042 206.005 -72.576 262.155C-59.4487 284.18 -40.1823 300.427 -18.1811 309.976L-32.3544 414.512C-75.9287 406.489 -122.467 413.59 -163.397 437.985C-253.008 491.395 -282.392 607.668 -229.032 697.195C-175.672 786.722 -59.3532 816.153 30.1897 762.784C75.8111 735.593 105.886 692.057 117.282 644.083L193.708 660.073C197.021 673.207 202.331 685.98 209.583 698.148C251.072 767.757 341.498 790.695 411.188 749.159C480.878 707.622 503.763 617.24 462.234 547.563C420.705 477.885 330.319 455.016 260.63 496.552L260.562 496.593ZM1.73507 155.402C27.0954 140.287 60.0814 148.633 75.2345 174.057C90.3876 199.481 81.9949 232.397 56.6346 247.512C51.1274 250.795 45.257 253.004 39.3083 254.154C34.6905 255.064 30.0206 255.268 25.4201 254.97C8.51083 253.808 -7.57338 244.601 -16.8516 229.034C-32.0047 203.61 -23.6526 170.626 1.77563 155.47L1.73507 155.402ZM53.7299 630.832C45.9274 661.646 26.4061 689.495 -3.10159 707.083C-61.981 742.176 -138.369 722.848 -173.456 663.979C-208.544 605.11 -189.202 528.725 -130.323 493.632C-102.447 477.017 -70.6168 472.602 -41.1264 478.793C-24.1836 482.33 -8.07943 489.406 6.1285 499.64C18.3456 508.388 29.0352 519.521 37.5739 532.765C38.3842 534.125 39.222 535.376 40.0323 536.735C57.5759 566.17 61.492 599.949 53.7299 630.832ZM417.287 612.216C419.503 629.229 416.275 646.538 408.194 661.58C401.437 674.36 391.182 685.447 377.856 693.389C343.249 714.016 299.511 706.182 273.918 676.846C270.699 673.145 267.779 669.174 265.186 664.823C249.182 637.972 250.298 605.523 265.372 580.417C272.098 569.13 281.629 559.304 293.663 552.131C332.554 528.951 383.118 541.745 406.293 580.629C412.208 590.553 415.841 601.286 417.139 612.121L417.287 612.216Z" fill="url(#paint0_linear_5540_65854)"/>
<path d="M28.2662 554.251C56.2224 601.156 40.837 661.917 -6.07611 689.878C-22.3257 699.563 -40.2021 704.045 -57.9286 703.832C-73.5815 695.657 -87.2125 683.145 -96.8959 666.899C-97.6252 665.675 -98.314 664.519 -98.8668 663.283C-90.5295 662.275 -82.3227 659.503 -74.6398 654.923C-44.6562 637.053 -34.7931 598.101 -52.6608 568.122C-59.2244 557.11 -68.5249 548.926 -79.2731 543.724C-74.2912 539.097 -68.6728 534.919 -62.6217 531.312C-46.372 521.627 -28.4276 517.105 -10.7691 517.358C4.99233 525.561 18.5423 537.937 28.2662 554.251Z" fill="#FB9B05"/>
<path d="M355.822 618.08C341.204 626.792 322.432 622.042 313.721 607.427C310.926 602.737 309.556 597.657 309.395 592.594C309.102 581.898 314.495 571.313 324.422 565.397C338.971 556.725 357.743 561.474 366.414 576.021C371.357 584.315 371.965 593.994 368.831 602.495C366.464 608.881 362.009 614.392 355.822 618.08Z" fill="#3D7100"/>
<path d="M370.027 679.17C339.703 697.243 300.424 687.305 282.353 656.986C276.114 646.518 273.163 634.918 273.346 623.477C278.63 613.327 286.746 604.528 297.217 598.287C298.033 597.801 298.781 597.355 299.569 596.977C300.218 602.395 301.993 607.693 304.951 612.655C316.498 632.029 341.672 638.399 361.049 626.849C368.188 622.594 373.459 616.597 376.846 609.603C379.85 612.788 382.499 616.46 384.849 620.402C391.089 630.871 394.04 642.47 393.856 653.911C388.573 664.062 380.565 672.889 370.027 679.17Z" fill="#EB1013"/>
<path d="M39.9588 200.517C30.8481 205.948 19.1294 202.983 13.7002 193.874C11.958 190.95 11.0853 187.785 11.027 184.596C10.8164 177.904 14.1619 171.304 20.349 167.616C29.3916 162.227 41.1102 165.192 46.4989 174.233C49.5781 179.399 49.9536 185.44 48.0374 190.728C46.5188 194.673 43.7937 198.14 39.9183 200.449L39.9588 200.517Z" fill="#3D7100"/>
<path d="M48.8429 238.613C29.9417 249.878 5.41919 243.674 -5.84433 224.776C-9.73389 218.25 -11.5446 211.038 -11.4688 203.899C-8.13785 197.583 -3.11271 192.101 3.41433 188.211C3.89026 187.927 4.36624 187.643 4.84217 187.36C5.26647 190.7 6.32874 194.028 8.19249 197.155C15.4044 209.255 31.0973 213.168 43.1315 205.996C47.5509 203.361 50.8605 199.638 52.9504 195.26C54.8039 197.288 56.494 199.505 57.9526 201.952C61.8421 208.478 63.6934 215.758 63.5771 222.829C60.2866 229.213 55.3294 234.655 48.7343 238.585L48.8429 238.613Z" fill="#0A8CF4"/>
</g>
<defs>
<linearGradient id="paint0_linear_5540_65854" x1="-254.325" y1="720.522" x2="380.463" y2="309.948" gradientUnits="userSpaceOnUse">
<stop offset="0.388782" stop-color="#3D7100"/>
<stop offset="0.885" stop-color="#74D700"/>
</linearGradient>
</defs>
</svg>
