<svg width="19" height="19" viewBox="0 0 19 19" fill="none" xmlns="http://www.w3.org/2000/svg">
<path d="M11.9208 14.2739C12.0543 14.1404 12.136 13.9549 12.1358 13.7512L12.1358 13.6616C12.1358 13.2536 11.8055 12.9234 11.3981 12.9239L7.36736 12.9239L14.1858 6.10547C14.4737 5.8175 14.4737 5.35008 14.1858 5.06212C13.8978 4.77416 13.4304 4.77416 13.1424 5.06212L6.32401 11.8805L6.32401 7.84981C6.32401 7.44186 5.99376 7.11161 5.58634 7.11213L5.49667 7.11213C5.08873 7.11213 4.75847 7.44238 4.759 7.84981L4.759 13.7512C4.759 14.1592 5.08925 14.4894 5.49667 14.4889L11.3981 14.4889C11.6021 14.4889 11.7873 14.4074 11.9208 14.2739Z" fill="#FF3B30"/>
</svg>
