<svg width="19" height="19" viewBox="0 0 19 19" fill="none" xmlns="http://www.w3.org/2000/svg">
<path d="M7.0924 5.06214C6.95892 5.19562 6.87715 5.38112 6.87741 5.58483L6.87741 5.67449C6.87741 6.08244 7.20766 6.41269 7.61509 6.41217L11.6458 6.41217L4.8274 13.2306C4.53944 13.5186 4.53944 13.986 4.8274 14.2739C5.11537 14.5619 5.58279 14.5619 5.87075 14.2739L12.6892 7.45552L12.6892 11.4863C12.6892 11.8942 13.0194 12.2245 13.4268 12.2239L13.5165 12.2239C13.9245 12.2239 14.2547 11.8937 14.2542 11.4863L14.2542 5.58483C14.2542 5.17689 13.9239 4.84663 13.5165 4.84716L7.61509 4.84716C7.41112 4.84716 7.22588 4.92866 7.0924 5.06214Z" fill="#34C759"/>
</svg>
