<svg width="136" height="136" viewBox="0 0 136 136" fill="none" xmlns="http://www.w3.org/2000/svg">
<rect x="38" y="38" width="60" height="60" rx="7" fill="#333333"/>
<g filter="url(#filter0_f_6068_106841)">
<path d="M62.9997 84.6673H72.9997C81.333 84.6673 84.6663 81.334 84.6663 73.0007V63.0007C84.6663 54.6673 81.333 51.334 72.9997 51.334H62.9997C54.6663 51.334 51.333 54.6673 51.333 63.0007V73.0007C51.333 81.334 54.6663 84.6673 62.9997 84.6673Z" stroke="#0BFB07" stroke-width="1.5" stroke-linecap="round" stroke-linejoin="round"/>
<path d="M63.166 68.001V65.5343C63.166 62.351 65.416 61.0676 68.166 62.651L70.2993 63.8843L72.4327 65.1176C75.1827 66.701 75.1827 69.301 72.4327 70.8843L70.2993 72.1176L68.166 73.351C65.416 74.9343 63.166 73.6343 63.166 70.4676V68.001Z" stroke="#0BFB07" stroke-width="1.5" stroke-miterlimit="10" stroke-linecap="round" stroke-linejoin="round"/>
</g>
<g filter="url(#filter1_f_6068_106841)">
<path d="M62.9997 84.6673H72.9997C81.333 84.6673 84.6663 81.334 84.6663 73.0007V63.0007C84.6663 54.6673 81.333 51.334 72.9997 51.334H62.9997C54.6663 51.334 51.333 54.6673 51.333 63.0007V73.0007C51.333 81.334 54.6663 84.6673 62.9997 84.6673Z" stroke="#0BFB07" stroke-width="1.5" stroke-linecap="round" stroke-linejoin="round"/>
<path d="M63.166 68.001V65.5343C63.166 62.351 65.416 61.0676 68.166 62.651L70.2993 63.8843L72.4327 65.1176C75.1827 66.701 75.1827 69.301 72.4327 70.8843L70.2993 72.1176L68.166 73.351C65.416 74.9343 63.166 73.6343 63.166 70.4676V68.001Z" stroke="#0BFB07" stroke-width="1.5" stroke-miterlimit="10" stroke-linecap="round" stroke-linejoin="round"/>
</g>
<g filter="url(#filter2_f_6068_106841)">
<path d="M62.9997 84.6673H72.9997C81.333 84.6673 84.6663 81.334 84.6663 73.0007V63.0007C84.6663 54.6673 81.333 51.334 72.9997 51.334H62.9997C54.6663 51.334 51.333 54.6673 51.333 63.0007V73.0007C51.333 81.334 54.6663 84.6673 62.9997 84.6673Z" stroke="#0BFB07" stroke-width="1.5" stroke-linecap="round" stroke-linejoin="round"/>
<path d="M63.166 68.001V65.5343C63.166 62.351 65.416 61.0676 68.166 62.651L70.2993 63.8843L72.4327 65.1176C75.1827 66.701 75.1827 69.301 72.4327 70.8843L70.2993 72.1176L68.166 73.351C65.416 74.9343 63.166 73.6343 63.166 70.4676V68.001Z" stroke="#0BFB07" stroke-width="1.5" stroke-miterlimit="10" stroke-linecap="round" stroke-linejoin="round"/>
</g>
<g filter="url(#filter3_f_6068_106841)">
<path d="M62.9997 84.6673H72.9997C81.333 84.6673 84.6663 81.334 84.6663 73.0007V63.0007C84.6663 54.6673 81.333 51.334 72.9997 51.334H62.9997C54.6663 51.334 51.333 54.6673 51.333 63.0007V73.0007C51.333 81.334 54.6663 84.6673 62.9997 84.6673Z" stroke="#0BFB07" stroke-width="1.5" stroke-linecap="round" stroke-linejoin="round"/>
<path d="M63.166 68.001V65.5343C63.166 62.351 65.416 61.0676 68.166 62.651L70.2993 63.8843L72.4327 65.1176C75.1827 66.701 75.1827 69.301 72.4327 70.8843L70.2993 72.1176L68.166 73.351C65.416 74.9343 63.166 73.6343 63.166 70.4676V68.001Z" stroke="#0BFB07" stroke-width="1.5" stroke-miterlimit="10" stroke-linecap="round" stroke-linejoin="round"/>
</g>
<path d="M62.9997 84.6673H72.9997C81.333 84.6673 84.6663 81.334 84.6663 73.0007V63.0007C84.6663 54.6673 81.333 51.334 72.9997 51.334H62.9997C54.6663 51.334 51.333 54.6673 51.333 63.0007V73.0007C51.333 81.334 54.6663 84.6673 62.9997 84.6673Z" stroke="#5DFF5A" stroke-width="2" stroke-linecap="round" stroke-linejoin="round"/>
<path d="M63.166 68.001V65.5343C63.166 62.351 65.416 61.0676 68.166 62.651L70.2993 63.8843L72.4327 65.1176C75.1827 66.701 75.1827 69.301 72.4327 70.8843L70.2993 72.1176L68.166 73.351C65.416 74.9343 63.166 73.6343 63.166 70.4676V68.001Z" stroke="#5DFF5A" stroke-width="2" stroke-miterlimit="10" stroke-linecap="round" stroke-linejoin="round"/>
<defs>
<filter id="filter0_f_6068_106841" x="0.583008" y="0.583984" width="134.833" height="134.833" filterUnits="userSpaceOnUse" color-interpolation-filters="sRGB">
<feFlood flood-opacity="0" result="BackgroundImageFix"/>
<feBlend mode="normal" in="SourceGraphic" in2="BackgroundImageFix" result="shape"/>
<feGaussianBlur stdDeviation="25" result="effect1_foregroundBlur_6068_106841"/>
</filter>
<filter id="filter1_f_6068_106841" x="25.583" y="25.584" width="84.833" height="84.8335" filterUnits="userSpaceOnUse" color-interpolation-filters="sRGB">
<feFlood flood-opacity="0" result="BackgroundImageFix"/>
<feBlend mode="normal" in="SourceGraphic" in2="BackgroundImageFix" result="shape"/>
<feGaussianBlur stdDeviation="12.5" result="effect1_foregroundBlur_6068_106841"/>
</filter>
<filter id="filter2_f_6068_106841" x="35.583" y="35.584" width="64.833" height="64.8335" filterUnits="userSpaceOnUse" color-interpolation-filters="sRGB">
<feFlood flood-opacity="0" result="BackgroundImageFix"/>
<feBlend mode="normal" in="SourceGraphic" in2="BackgroundImageFix" result="shape"/>
<feGaussianBlur stdDeviation="7.5" result="effect1_foregroundBlur_6068_106841"/>
</filter>
<filter id="filter3_f_6068_106841" x="40.583" y="40.584" width="54.833" height="54.8335" filterUnits="userSpaceOnUse" color-interpolation-filters="sRGB">
<feFlood flood-opacity="0" result="BackgroundImageFix"/>
<feBlend mode="normal" in="SourceGraphic" in2="BackgroundImageFix" result="shape"/>
<feGaussianBlur stdDeviation="5" result="effect1_foregroundBlur_6068_106841"/>
</filter>
</defs>
</svg>
