<svg width="773" height="407" viewBox="0 0 773 407" fill="none" xmlns="http://www.w3.org/2000/svg">
<g clip-path="url(#clip0_5966_112475)">
<path d="M-425.372 164.861C-425.372 164.861 -349.849 -356.769 165.484 -520.342C680.818 -683.915 756.341 -1205.54 756.341 -1205.54M-417.598 175.165C-417.598 175.165 -342.075 -346.465 173.259 -510.038C688.592 -673.611 764.115 -1195.24 764.115 -1195.24M-409.823 185.468C-409.823 185.468 -334.3 -336.161 181.033 -499.734C696.367 -663.307 771.89 -1184.94 771.89 -1184.94M-402.049 195.772C-402.049 195.772 -326.526 -325.858 188.808 -489.43C704.141 -653.003 779.664 -1174.63 779.664 -1174.63M-394.274 206.076C-394.274 206.076 -318.751 -315.554 196.582 -479.127C711.915 -642.699 787.438 -1164.33 787.438 -1164.33M-386.5 216.38C-386.5 216.38 -310.977 -305.25 204.356 -468.823C719.69 -632.396 795.213 -1154.03 795.213 -1154.03M-378.726 226.684C-378.726 226.684 -303.203 -294.946 212.131 -458.519C727.464 -622.092 802.987 -1143.72 802.987 -1143.72M-370.951 236.987C-370.951 236.987 -295.428 -284.642 219.905 -448.215C735.239 -611.788 810.762 -1133.42 810.762 -1133.42M-363.177 247.291C-363.177 247.291 -287.654 -274.339 227.68 -437.911C743.013 -601.484 818.536 -1123.11 818.536 -1123.11M-355.402 257.595C-355.402 257.595 -279.879 -264.035 235.454 -427.608C750.788 -591.18 826.311 -1112.81 826.311 -1112.81M-347.628 267.899C-347.628 267.899 -272.105 -253.731 243.229 -417.304C758.562 -580.877 834.085 -1102.51 834.085 -1102.51M-339.853 278.203C-339.853 278.203 -264.33 -243.427 251.003 -407C766.336 -570.573 841.859 -1092.2 841.859 -1092.2M-332.079 288.506C-332.079 288.506 -256.556 -233.123 258.777 -396.696C774.111 -560.269 849.634 -1081.9 849.634 -1081.9M-324.305 298.81C-324.305 298.81 -248.782 -222.82 266.552 -386.392C781.885 -549.965 857.408 -1071.59 857.408 -1071.59M-316.53 309.114C-316.53 309.114 -241.007 -212.516 274.326 -376.089C789.66 -539.661 865.183 -1061.29 865.183 -1061.29M-308.756 319.418C-308.756 319.418 -233.233 -202.212 282.101 -365.785C797.434 -529.358 872.957 -1050.99 872.957 -1050.99M-300.981 329.722C-300.981 329.722 -225.458 -191.908 289.875 -355.481C805.209 -519.054 880.732 -1040.68 880.732 -1040.68M-293.207 340.025C-293.207 340.025 -217.684 -181.604 297.65 -345.177C812.983 -508.75 888.506 -1030.38 888.506 -1030.38M-285.432 350.329C-285.432 350.329 -209.909 -171.301 305.424 -334.873C820.757 -498.446 896.28 -1020.08 896.28 -1020.08M-277.658 360.633C-277.658 360.633 -202.135 -160.997 313.198 -324.57C828.532 -488.142 904.055 -1009.77 904.055 -1009.77M-269.884 370.937C-269.884 370.937 -194.361 -150.693 320.973 -314.266C836.306 -477.839 911.829 -999.468 911.829 -999.468M-262.109 381.241C-262.109 381.241 -186.586 -140.389 328.747 -303.962C844.081 -467.535 919.604 -989.165 919.604 -989.165M-254.335 391.544C-254.335 391.544 -178.812 -130.085 336.522 -293.658C851.855 -457.231 927.378 -978.861 927.378 -978.861M-246.56 401.848C-246.56 401.848 -171.037 -119.782 344.296 -283.354C859.63 -446.927 935.152 -968.557 935.152 -968.557M-238.786 412.152C-238.786 412.152 -163.263 -109.478 352.071 -273.051C867.404 -436.623 942.927 -958.253 942.927 -958.253M-231.011 422.456C-231.011 422.456 -155.488 -99.174 359.845 -262.747C875.178 -426.32 950.701 -947.949 950.701 -947.949M-223.237 432.76C-223.237 432.76 -147.714 -88.8702 367.619 -252.443C882.953 -416.016 958.476 -937.646 958.476 -937.646M-215.463 443.063C-215.463 443.063 -139.94 -78.5664 375.394 -242.139C890.727 -405.712 966.25 -927.342 966.25 -927.342M-207.688 453.367C-207.688 453.367 -132.165 -68.2626 383.168 -231.835C898.502 -395.408 974.025 -917.038 974.025 -917.038M-199.914 463.671C-199.914 463.671 -124.391 -57.9588 390.943 -221.532C906.276 -385.104 981.799 -906.734 981.799 -906.734M-192.139 473.975C-192.139 473.975 -116.616 -47.6551 398.717 -211.228C914.05 -374.801 989.573 -896.43 989.573 -896.43M-184.365 484.279C-184.365 484.279 -108.842 -37.3513 406.492 -200.924C921.825 -364.497 997.348 -886.127 997.348 -886.127M-176.59 494.582C-176.59 494.582 -101.067 -27.0475 414.266 -190.62C929.599 -354.193 1005.12 -875.823 1005.12 -875.823M-168.816 504.886C-168.816 504.886 -93.293 -16.7437 422.04 -180.316C937.374 -343.889 1012.9 -865.519 1012.9 -865.519M-161.042 515.19C-161.042 515.19 -85.5186 -6.43986 429.815 -170.013C945.148 -333.585 1020.67 -855.215 1020.67 -855.215M-153.267 525.494C-153.267 525.494 -77.7442 3.86394 437.589 -159.709C952.923 -323.282 1028.45 -844.911 1028.45 -844.911M-145.493 535.797C-145.493 535.797 -69.9697 14.1677 445.364 -149.405C960.697 -312.978 1036.22 -834.608 1036.22 -834.608M-137.718 546.101C-137.718 546.101 -62.1953 24.4715 453.138 -139.101C968.471 -302.674 1043.99 -824.304 1043.99 -824.304M-129.944 556.405C-129.944 556.405 -54.4209 34.7753 460.913 -128.797C976.246 -292.37 1051.77 -814 1051.77 -814M-122.169 566.709C-122.169 566.709 -46.6465 45.0791 468.687 -118.494C984.02 -282.066 1059.54 -803.696 1059.54 -803.696M-114.395 577.013C-114.395 577.013 -38.872 55.3829 476.461 -108.19C991.795 -271.763 1067.32 -793.392 1067.32 -793.392M-106.621 587.316C-106.621 587.316 -31.0976 65.6867 484.236 -97.8861C999.569 -261.459 1075.09 -783.089 1075.09 -783.089M-98.8462 597.62C-98.8462 597.62 -23.3232 75.9905 492.01 -87.5823C1007.34 -251.155 1082.87 -772.785 1082.87 -772.785M-91.0717 607.924C-91.0717 607.924 -15.5488 86.2943 499.785 -77.2785C1015.12 -240.851 1090.64 -762.481 1090.64 -762.481M-83.2973 618.228C-83.2973 618.228 -7.77433 96.5981 507.559 -66.9747C1022.89 -230.547 1098.42 -752.177 1098.42 -752.177M-75.5229 628.532C-75.5229 628.532 0.000100732 106.902 515.333 -56.6709C1030.67 -220.244 1106.19 -741.873 1106.19 -741.873M-67.7485 638.835C-67.7485 638.835 7.77453 117.206 523.108 -46.3671C1038.44 -209.94 1113.96 -731.57 1113.96 -731.57M-59.974 649.139C-59.974 649.139 15.549 127.51 530.882 -36.0633C1046.22 -199.636 1121.74 -721.266 1121.74 -721.266M-52.1996 659.443C-52.1996 659.443 23.3234 137.813 538.657 -25.7595C1053.99 -189.332 1129.51 -710.962 1129.51 -710.962M-44.4252 669.747C-44.4252 669.747 31.0978 148.117 546.431 -15.4557C1061.76 -179.028 1137.29 -700.658 1137.29 -700.658M-36.6508 680.051C-36.6508 680.051 38.8722 158.421 554.206 -5.15189C1069.54 -168.725 1145.06 -690.354 1145.06 -690.354M-28.8763 690.354C-28.8763 690.354 46.6467 168.725 561.98 5.15191C1077.31 -158.421 1152.84 -680.051 1152.84 -680.051M-21.1019 700.658C-21.1019 700.658 54.4211 179.028 569.754 15.4557C1085.09 -148.117 1160.61 -669.747 1160.61 -669.747M-13.3275 710.962C-13.3275 710.962 62.1955 189.332 577.529 25.7595C1092.86 -137.813 1168.39 -659.443 1168.39 -659.443M-5.55306 721.266C-5.55306 721.266 69.9699 199.636 585.303 36.0633C1100.64 -127.509 1176.16 -649.139 1176.16 -649.139M2.22137 731.57C2.22137 731.57 77.7444 209.94 593.078 46.3671C1108.41 -117.206 1183.93 -638.835 1183.93 -638.835M9.99579 741.873C9.99579 741.873 85.5188 220.244 600.852 56.6709C1116.19 -106.902 1191.71 -628.532 1191.71 -628.532M17.7702 752.177C17.7702 752.177 93.2932 230.547 608.627 66.9747C1123.96 -96.5981 1199.48 -618.228 1199.48 -618.228" stroke="url(#paint0_radial_5966_112475)" stroke-opacity="0.9" stroke-width="0.5"/>
</g>
<defs>
<radialGradient id="paint0_radial_5966_112475" cx="0" cy="0" r="1" gradientUnits="userSpaceOnUse" gradientTransform="translate(387.611 -122.358) rotate(-90) scale(714.826 1733.27)">
<stop offset="0.0666667" stop-color="#212730"/>
<stop offset="0.243243" stop-color="#212730"/>
<stop offset="0.43594" stop-color="white" stop-opacity="0"/>
</radialGradient>
<clipPath id="clip0_5966_112475">
<rect width="773" height="407" fill="white" transform="matrix(1 0 0 -1 0 407)"/>
</clipPath>
</defs>
</svg>
