<svg width="80" height="33" viewBox="0 0 80 33" fill="none" xmlns="http://www.w3.org/2000/svg">
<path d="M15.7614 15V0.454545H20.6761C21.8172 0.454545 22.75 0.660511 23.4744 1.07244C24.2036 1.47964 24.7434 2.03125 25.0938 2.72727C25.4441 3.4233 25.6193 4.19981 25.6193 5.05682C25.6193 5.91383 25.4441 6.69271 25.0938 7.39347C24.7481 8.09422 24.2131 8.65294 23.4886 9.0696C22.7642 9.48153 21.8362 9.6875 20.7045 9.6875H17.1818V8.125H20.6477C21.429 8.125 22.0563 7.99006 22.5298 7.72017C23.0033 7.45028 23.3466 7.0857 23.5597 6.62642C23.7775 6.16241 23.8864 5.6392 23.8864 5.05682C23.8864 4.47443 23.7775 3.9536 23.5597 3.49432C23.3466 3.03504 23.0009 2.67519 22.5227 2.41477C22.0445 2.14962 21.41 2.01705 20.6193 2.01705H17.5227V15H15.7614ZM32.544 15.2273C31.5592 15.2273 30.6951 14.9929 29.9517 14.5241C29.2131 14.0554 28.6354 13.3996 28.2188 12.5568C27.8068 11.714 27.6009 10.7292 27.6009 9.60227C27.6009 8.46591 27.8068 7.47396 28.2188 6.62642C28.6354 5.77888 29.2131 5.12074 29.9517 4.65199C30.6951 4.18324 31.5592 3.94886 32.544 3.94886C33.5289 3.94886 34.3906 4.18324 35.1293 4.65199C35.8726 5.12074 36.4503 5.77888 36.8622 6.62642C37.2789 7.47396 37.4872 8.46591 37.4872 9.60227C37.4872 10.7292 37.2789 11.714 36.8622 12.5568C36.4503 13.3996 35.8726 14.0554 35.1293 14.5241C34.3906 14.9929 33.5289 15.2273 32.544 15.2273ZM32.544 13.7216C33.2921 13.7216 33.9077 13.5298 34.3906 13.1463C34.8736 12.7628 35.2311 12.2585 35.4631 11.6335C35.6951 11.0085 35.8111 10.3314 35.8111 9.60227C35.8111 8.87311 35.6951 8.19366 35.4631 7.56392C35.2311 6.93419 34.8736 6.42519 34.3906 6.03693C33.9077 5.64867 33.2921 5.45455 32.544 5.45455C31.7959 5.45455 31.1804 5.64867 30.6974 6.03693C30.2145 6.42519 29.857 6.93419 29.625 7.56392C29.393 8.19366 29.277 8.87311 29.277 9.60227C29.277 10.3314 29.393 11.0085 29.625 11.6335C29.857 12.2585 30.2145 12.7628 30.6974 13.1463C31.1804 13.5298 31.7959 13.7216 32.544 13.7216ZM47.7731 6.53409L46.2674 6.96023C46.1727 6.70928 46.033 6.46544 45.8484 6.22869C45.6684 5.98722 45.4222 5.78835 45.1097 5.6321C44.7972 5.47585 44.3971 5.39773 43.9094 5.39773C43.2418 5.39773 42.6855 5.55161 42.2404 5.85938C41.8001 6.16241 41.5799 6.5483 41.5799 7.01705C41.5799 7.43371 41.7314 7.76278 42.0344 8.00426C42.3375 8.24574 42.811 8.44697 43.4549 8.60795L45.0742 9.00568C46.0496 9.24242 46.7764 9.60464 47.2546 10.0923C47.7328 10.5753 47.9719 11.1979 47.9719 11.9602C47.9719 12.5852 47.792 13.1439 47.4322 13.6364C47.0771 14.1288 46.5799 14.517 45.9407 14.8011C45.3015 15.0852 44.5581 15.2273 43.7106 15.2273C42.5979 15.2273 41.677 14.9858 40.9478 14.5028C40.2186 14.0199 39.757 13.3144 39.5629 12.3864L41.1538 11.9886C41.3053 12.5758 41.5917 13.0161 42.0131 13.3097C42.4393 13.6032 42.9956 13.75 43.6822 13.75C44.4634 13.75 45.0837 13.5843 45.543 13.2528C46.007 12.9167 46.239 12.5142 46.239 12.0455C46.239 11.6667 46.1064 11.3494 45.8413 11.0938C45.5761 10.8333 45.1689 10.6392 44.6197 10.5114L42.8015 10.0852C41.8024 9.84848 41.0685 9.48153 40.5998 8.98438C40.1358 8.48248 39.9038 7.85511 39.9038 7.10227C39.9038 6.48674 40.0766 5.94223 40.4222 5.46875C40.7726 4.99527 41.2485 4.62358 41.8498 4.35369C42.4558 4.08381 43.1424 3.94886 43.9094 3.94886C44.989 3.94886 45.8365 4.18561 46.4521 4.65909C47.0723 5.13258 47.5127 5.75758 47.7731 6.53409ZM55.2393 4.09091V5.51136H49.5859V4.09091H55.2393ZM51.2337 1.47727H52.9098V11.875C52.9098 12.3485 52.9785 12.7036 53.1158 12.9403C53.2578 13.1723 53.4377 13.3286 53.6555 13.4091C53.8781 13.4848 54.1125 13.5227 54.3587 13.5227C54.5433 13.5227 54.6948 13.5133 54.8132 13.4943C54.9316 13.4706 55.0263 13.4517 55.0973 13.4375L55.4382 14.9432C55.3246 14.9858 55.166 15.0284 54.9624 15.071C54.7588 15.1184 54.5007 15.142 54.1882 15.142C53.7147 15.142 53.2507 15.0402 52.7962 14.8366C52.3464 14.633 51.9723 14.3229 51.674 13.9062C51.3804 13.4896 51.2337 12.964 51.2337 12.3295V1.47727ZM65.2926 6.53409L63.7869 6.96023C63.6922 6.70928 63.5526 6.46544 63.3679 6.22869C63.188 5.98722 62.9418 5.78835 62.6293 5.6321C62.3168 5.47585 61.9167 5.39773 61.429 5.39773C60.7614 5.39773 60.205 5.55161 59.7599 5.85938C59.3196 6.16241 59.0994 6.5483 59.0994 7.01705C59.0994 7.43371 59.2509 7.76278 59.554 8.00426C59.857 8.24574 60.3305 8.44697 60.9744 8.60795L62.5938 9.00568C63.5691 9.24242 64.2959 9.60464 64.7741 10.0923C65.2524 10.5753 65.4915 11.1979 65.4915 11.9602C65.4915 12.5852 65.3116 13.1439 64.9517 13.6364C64.5966 14.1288 64.0994 14.517 63.4602 14.8011C62.821 15.0852 62.0777 15.2273 61.2301 15.2273C60.1174 15.2273 59.1965 14.9858 58.4673 14.5028C57.7382 14.0199 57.2765 13.3144 57.0824 12.3864L58.6733 11.9886C58.8248 12.5758 59.1113 13.0161 59.5327 13.3097C59.9588 13.6032 60.5152 13.75 61.2017 13.75C61.983 13.75 62.6032 13.5843 63.0625 13.2528C63.5265 12.9167 63.7585 12.5142 63.7585 12.0455C63.7585 11.6667 63.6259 11.3494 63.3608 11.0938C63.0956 10.8333 62.6884 10.6392 62.1392 10.5114L60.321 10.0852C59.322 9.84848 58.5881 9.48153 58.1193 8.98438C57.6553 8.48248 57.4233 7.85511 57.4233 7.10227C57.4233 6.48674 57.5961 5.94223 57.9418 5.46875C58.2921 4.99527 58.768 4.62358 59.3693 4.35369C59.9754 4.08381 60.6619 3.94886 61.429 3.94886C62.5085 3.94886 63.3561 4.18561 63.9716 4.65909C64.5919 5.13258 65.0322 5.75758 65.2926 6.53409Z" fill="#4D4D4D"/>
<path d="M0 31C0 28.2386 2.23858 26 5 26H75C77.7614 26 80 28.2386 80 31V33H0V31Z" fill="#34C759"/>
</svg>
