<svg width="122" height="96" viewBox="0 0 122 96" fill="none" xmlns="http://www.w3.org/2000/svg">
<path d="M0.790771 59.6909C0.790771 46.2909 5.25744 34.3121 14.1908 23.7545C23.1241 13.197 35.0014 5.27878 49.8226 0L55.3044 12.7909C51.2438 14.8212 46.7771 18.0697 41.9044 22.5364C37.2347 27.003 32.8696 32.0788 28.809 37.7636L43.7317 47.8136C48.4014 51.0621 51.5484 54.6151 53.1726 58.4727C54.7968 62.1273 55.609 66.0864 55.609 70.35C55.609 77.253 52.9696 83.1409 47.6908 88.0136C42.412 92.8864 36.5241 95.3227 30.0271 95.3227C24.9514 95.3227 20.6877 94.3076 17.2362 92.2773C13.7847 90.247 10.8408 88.3182 8.40441 86.4909C5.76501 82.4303 3.83623 78.0652 2.61804 73.3955C1.39986 68.7258 0.790771 64.1576 0.790771 59.6909ZM67.1817 59.6909C67.1817 46.2909 71.6484 34.3121 80.5817 23.7545C89.515 13.197 101.392 5.27878 116.214 0L121.695 12.7909C117.635 14.8212 113.168 18.0697 108.295 22.5364C103.626 27.003 99.2605 32.0788 95.1999 37.7636L110.123 47.8136C114.792 51.0621 117.939 54.6151 119.564 58.4727C121.188 62.1273 122 66.0864 122 70.35C122 77.253 119.36 83.1409 114.082 88.0136C108.803 92.8864 102.915 95.3227 96.4181 95.3227C91.3423 95.3227 87.0787 94.3076 83.6271 92.2773C80.1756 90.247 77.6001 89.5134 74.7953 86.4909C70.9922 82.3926 70.2271 78.0652 69.009 73.3955C67.7908 68.7258 67.1817 64.1576 67.1817 59.6909Z" fill="#3D7100"/>
</svg>
