<svg width="64" height="65" viewBox="0 0 64 65" fill="none" xmlns="http://www.w3.org/2000/svg">
<g filter="url(#filter0_d_651_1011)">
<rect x="10" y="8.5" width="44" height="44" rx="12" fill="white" shape-rendering="crispEdges"/>
<path fill-rule="evenodd" clip-rule="evenodd" d="M26.8499 26.5C26.8499 24.7603 28.2602 23.35 29.9999 23.35C31.7396 23.35 33.1499 24.7603 33.1499 26.5C33.1499 28.2397 31.7396 29.65 29.9999 29.65C28.2602 29.65 26.8499 28.2397 26.8499 26.5ZM29.9999 21.65C27.3213 21.65 25.1499 23.8214 25.1499 26.5C25.1499 29.1786 27.3213 31.35 29.9999 31.35C32.6785 31.35 34.8499 29.1786 34.8499 26.5C34.8499 23.8214 32.6785 21.65 29.9999 21.65ZM24.8499 36.4167C24.8499 36.0137 25.1786 35.4979 26.2183 35.0388C27.2078 34.6018 28.5841 34.35 29.9999 34.35C31.3956 34.35 32.7708 34.6431 33.7678 35.1047C34.2668 35.3357 34.6327 35.5912 34.8629 35.8378C35.0845 36.0753 35.1475 36.2656 35.1498 36.4085C35.1418 36.4301 35.105 36.4982 34.9626 36.6088C34.7442 36.7786 34.3796 36.9616 33.8649 37.1271C32.8445 37.455 31.4362 37.65 29.9999 37.65C28.3014 37.65 26.9033 37.4521 25.9612 37.1316C25.4875 36.9704 25.181 36.7955 25.0076 36.6425C24.8488 36.5024 24.8498 36.4287 24.8499 36.4174L24.8499 36.4167ZM35.1518 36.4011C35.152 36.4011 35.1518 36.403 35.1505 36.4068C35.1509 36.403 35.1516 36.4011 35.1518 36.4011ZM29.9999 32.65C28.4157 32.65 26.792 32.9271 25.5315 33.4837C24.3213 34.0181 23.1499 34.9607 23.1499 36.4167C23.1499 37.0456 23.4675 37.5507 23.8828 37.9173C24.2876 38.2744 24.8248 38.5406 25.4136 38.741C26.5965 39.1435 28.1984 39.35 29.9999 39.35C31.5636 39.35 33.1553 39.1407 34.385 38.7455C34.9952 38.5494 35.5682 38.2913 36.0059 37.951C36.4403 37.6134 36.8499 37.1034 36.8499 36.4167C36.8499 35.7271 36.536 35.139 36.1057 34.6779C35.6796 34.2213 35.108 33.8518 34.482 33.562C33.229 32.9819 31.6042 32.65 29.9999 32.65ZM36.1538 30.4185C36.1989 29.9512 36.6142 29.6089 37.0814 29.6539C38.2956 29.7709 39.4221 30.0866 40.2733 30.5788C41.0977 31.0555 41.8499 31.82 41.8499 32.8733C41.8499 33.4192 41.641 33.9171 41.2348 34.3126C40.8518 34.6855 40.3291 34.935 39.7317 35.1043C39.2801 35.2323 38.8102 34.97 38.6821 34.5184C38.5541 34.0667 38.8164 33.5968 39.2681 33.4688C39.7157 33.3419 39.9429 33.1978 40.0487 33.0947C40.1313 33.0143 40.1499 32.9536 40.1499 32.8733C40.1499 32.7166 40.0327 32.4034 39.4223 32.0505C38.8388 31.713 37.9652 31.447 36.9184 31.3461C36.4511 31.3011 36.1088 30.8858 36.1538 30.4185ZM37.9999 21.65C37.5305 21.65 37.1499 22.0306 37.1499 22.5C37.1499 22.9695 37.5305 23.35 37.9999 23.35C38.9112 23.35 39.6499 24.0888 39.6499 25C39.6499 25.9113 38.9112 26.65 37.9999 26.65C37.5305 26.65 37.1499 27.0306 37.1499 27.5C37.1499 27.9695 37.5305 28.35 37.9999 28.35C39.8501 28.35 41.3499 26.8502 41.3499 25C41.3499 23.1499 39.8501 21.65 37.9999 21.65Z" fill="#347AE2"/>
</g>
<defs>
<filter id="filter0_d_651_1011" x="0" y="0.5" width="64" height="64" filterUnits="userSpaceOnUse" color-interpolation-filters="sRGB">
<feFlood flood-opacity="0" result="BackgroundImageFix"/>
<feColorMatrix in="SourceAlpha" type="matrix" values="0 0 0 0 0 0 0 0 0 0 0 0 0 0 0 0 0 0 127 0" result="hardAlpha"/>
<feOffset dy="2"/>
<feGaussianBlur stdDeviation="5"/>
<feComposite in2="hardAlpha" operator="out"/>
<feColorMatrix type="matrix" values="0 0 0 0 0.486275 0 0 0 0 0.552941 0 0 0 0 0.709804 0 0 0 0.12 0"/>
<feBlend mode="normal" in2="BackgroundImageFix" result="effect1_dropShadow_651_1011"/>
<feBlend mode="normal" in="SourceGraphic" in2="effect1_dropShadow_651_1011" result="shape"/>
</filter>
</defs>
</svg>
