<svg width="17" height="17" viewBox="0 0 17 17" fill="none" xmlns="http://www.w3.org/2000/svg">
<path d="M5.96495 3.94411C5.84509 4.06396 5.77168 4.23052 5.77191 4.41343L5.77191 4.49394C5.77191 4.86023 6.06844 5.15676 6.43427 5.15629L10.0534 5.15629L3.93123 11.2785C3.67267 11.537 3.67267 11.9567 3.93123 12.2153C4.18979 12.4738 4.60948 12.4738 4.86804 12.2153L10.9902 6.0931L10.9902 9.71225C10.9902 10.0785 11.2868 10.3751 11.6526 10.3746L11.7331 10.3746C12.0994 10.3746 12.3959 10.0781 12.3954 9.71225L12.3954 4.41343C12.3954 4.04714 12.0989 3.75061 11.7331 3.75108L6.43427 3.75108C6.25112 3.75108 6.0848 3.82426 5.96495 3.94411Z" fill="#34C759"/>
</svg>
