<svg width="32" height="26" viewBox="0 0 32 26" fill="none" xmlns="http://www.w3.org/2000/svg">
<path d="M30.983 1.16772V0.798548L30.6287 0.902342L29.2841 1.29627L29.2841 1.29626L29.2813 1.29709L5.25627 8.60592H1.29297H1.01643V8.88245V17.2863V17.5628H1.29297H5.25763L7.03048 18.0979C6.40334 20.4234 7.72693 22.9607 10.1433 23.689L10.1437 23.6891C10.1644 23.6954 10.1835 23.6986 10.1999 23.7002C10.2056 23.7008 10.2111 23.7012 10.2163 23.7014C12.5227 24.378 15.0593 23.1428 15.852 20.7809L29.2812 24.8716L29.2812 24.8717L29.2843 24.8725L30.6289 25.2654L30.983 25.3689V25V1.16772ZM10.2788 23.698C10.2812 23.6977 10.2791 23.698 10.2767 23.6983L10.2788 23.698ZM28.3289 4.3649V21.8039L5.86972 14.9524L5.8622 14.9501L5.85456 14.9482L5.72535 14.9167L5.69306 14.9088H5.65982H3.67047V11.26H5.65877H5.69149L5.7233 11.2523L5.85461 11.2208L5.86276 11.2188L5.87077 11.2164L28.3289 4.3649ZM9.56433 18.8803L13.3266 20.0014C12.9591 20.9805 11.8742 21.4538 10.9297 21.1581L10.9297 21.1581L10.9249 21.1567C9.89438 20.8546 9.34601 19.8249 9.56433 18.8803Z" fill="#0F8902" stroke="#0F8902" stroke-width="0.553074"/>
</svg>
