<svg width="64" height="64" viewBox="0 0 64 64" fill="none" xmlns="http://www.w3.org/2000/svg">
<g filter="url(#filter0_d_3117_44415)">
<rect x="10" y="8" width="44" height="44" rx="6" fill="white"/>
<path d="M45 19.5693L43.8114 19.9175L22.5397 26.3887H19V33.8173H22.5406L24.3681 34.3688L24.3402 34.4552V34.4849C23.7441 36.4461 24.8481 38.6263 26.8938 39.2429C26.9031 39.2457 26.9142 39.2401 26.9216 39.2429C28.893 39.8418 31.0751 38.7508 31.6815 36.6893L31.7094 36.6021L43.8114 40.2885L45 40.6358V19.5693ZM43.1429 22.0653V38.1407L22.9743 31.988L22.8601 31.9601H20.8571V28.2458H22.8591L22.9752 28.218L43.1429 22.0653ZM26.1379 34.9195L29.9395 36.0523L29.9116 36.1387V36.1666C29.5922 37.253 28.4389 37.7841 27.4454 37.4731C26.3589 37.1546 25.7999 36.0301 26.1101 35.0356V35.0077L26.1379 34.9195Z" fill="#0F8902"/>
</g>
<defs>
<filter id="filter0_d_3117_44415" x="0" y="0" width="64" height="64" filterUnits="userSpaceOnUse" color-interpolation-filters="sRGB">
<feFlood flood-opacity="0" result="BackgroundImageFix"/>
<feColorMatrix in="SourceAlpha" type="matrix" values="0 0 0 0 0 0 0 0 0 0 0 0 0 0 0 0 0 0 127 0" result="hardAlpha"/>
<feOffset dy="2"/>
<feGaussianBlur stdDeviation="5"/>
<feComposite in2="hardAlpha" operator="out"/>
<feColorMatrix type="matrix" values="0 0 0 0 0.486275 0 0 0 0 0.552941 0 0 0 0 0.709804 0 0 0 0.12 0"/>
<feBlend mode="normal" in2="BackgroundImageFix" result="effect1_dropShadow_3117_44415"/>
<feBlend mode="normal" in="SourceGraphic" in2="effect1_dropShadow_3117_44415" result="shape"/>
</filter>
</defs>
</svg>
