<svg width="36" height="36" viewBox="0 0 36 36" fill="none" xmlns="http://www.w3.org/2000/svg">
<path d="M33.6151 23.0229L30.3751 19.7843V13.5C30.3751 10.2179 29.0713 7.07032 26.7506 4.74955C24.4298 2.42879 21.2822 1.125 18.0001 1.125C14.7181 1.125 11.5704 2.42879 9.24968 4.74955C6.92891 7.07032 5.62512 10.2179 5.62512 13.5V19.7843L2.38512 23.0243C1.78317 23.6267 1.37336 24.3941 1.20748 25.2294C1.04161 26.0648 1.12712 26.9305 1.4532 27.7173C1.77929 28.504 2.33132 29.1764 3.03949 29.6495C3.74767 30.1226 4.5802 30.375 5.43185 30.375H12.4876C12.7478 31.6449 13.4385 32.786 14.4429 33.6055C15.4473 34.425 16.7038 34.8725 18.0001 34.8725C19.2964 34.8725 20.5529 34.425 21.5574 33.6055C22.5618 32.786 23.2524 31.6449 23.5126 30.375H30.5679C31.4194 30.3749 32.2518 30.1225 32.9599 29.6495C33.6679 29.1765 34.2199 28.5042 34.546 27.7177C34.8721 26.9311 34.9577 26.0655 34.792 25.2303C34.6263 24.3951 34.2168 23.6277 33.6151 23.0252V23.0229ZM30.5684 28.125H22.5001C22.2018 28.125 21.9156 28.2435 21.7046 28.4545C21.4937 28.6655 21.3751 28.9516 21.3751 29.25C21.3751 30.1451 21.0195 31.0036 20.3866 31.6365C19.7537 32.2694 18.8952 32.625 18.0001 32.625C17.105 32.625 16.2466 32.2694 15.6136 31.6365C14.9807 31.0036 14.6251 30.1451 14.6251 29.25C14.6251 28.9516 14.5066 28.6655 14.2956 28.4545C14.0846 28.2435 13.7985 28.125 13.5001 28.125H5.43185C5.0253 28.1247 4.62795 28.004 4.28997 27.7781C3.952 27.5521 3.68855 27.2311 3.53291 26.8556C3.37726 26.48 3.3364 26.0667 3.41548 25.6679C3.49456 25.2692 3.69004 24.9028 3.97722 24.615L7.5455 21.0465C7.65018 20.942 7.73318 20.8178 7.78974 20.6811C7.84631 20.5444 7.87533 20.3979 7.87512 20.25V13.5C7.87512 10.8147 8.94186 8.23935 10.8407 6.34054C12.7395 4.44174 15.3148 3.375 18.0001 3.375C20.6854 3.375 23.2608 4.44174 25.1596 6.34054C27.0584 8.23935 28.1251 10.8147 28.1251 13.5V20.25C28.1251 20.3977 28.1542 20.544 28.2107 20.6805C28.2673 20.817 28.3502 20.941 28.4547 21.0454L32.0208 24.6116C32.309 24.8991 32.5054 25.2656 32.5852 25.6647C32.6651 26.0638 32.6247 26.4777 32.4692 26.8539C32.3137 27.23 32.05 27.5516 31.7117 27.7779C31.3733 28.0042 30.9754 28.125 30.5684 28.125Z" fill="#505050"/>
</svg>
