<svg width="27" height="27" viewBox="0 0 27 27" fill="none" xmlns="http://www.w3.org/2000/svg">
<path d="M12.375 12.375V2.25H2.25V12.375M4.5 10.125V4.5H10.125V10.125M22.5 7.3125C22.5 8.8875 21.2625 10.125 19.6875 10.125C18.1125 10.125 16.875 8.8875 16.875 7.3125C16.875 5.7375 18.1237 4.5 19.6875 4.5C21.2512 4.5 22.5 5.74875 22.5 7.3125ZM7.3125 15.75L2.25 24.75H12.375M8.5275 22.5H6.0975L7.3125 20.34M24.75 7.3125C24.75 4.5 22.5 2.25 19.6875 2.25C16.875 2.25 14.625 4.5 14.625 7.3125C14.625 10.125 16.875 12.375 19.6875 12.375C22.5 12.375 24.75 10.125 24.75 7.3125ZM21.375 19.125V15.75H19.125V19.125H15.75V21.375H19.125V24.75H21.375V21.375H24.75V19.125H21.375Z" fill="#505050"/>
</svg>