<svg width="24" height="23" viewBox="0 0 24 23" fill="none" xmlns="http://www.w3.org/2000/svg">
<path d="M10.875 10.375V0.25H0.75V10.375M3 8.125V2.5H8.625V8.125M21 5.3125C21 6.8875 19.7625 8.125 18.1875 8.125C16.6125 8.125 15.375 6.8875 15.375 5.3125C15.375 3.7375 16.6237 2.5 18.1875 2.5C19.7512 2.5 21 3.74875 21 5.3125ZM5.8125 13.75L0.75 22.75H10.875M7.0275 20.5H4.5975L5.8125 18.34M23.25 5.3125C23.25 2.5 21 0.25 18.1875 0.25C15.375 0.25 13.125 2.5 13.125 5.3125C13.125 8.125 15.375 10.375 18.1875 10.375C21 10.375 23.25 8.125 23.25 5.3125ZM19.875 17.125V13.75H17.625V17.125H14.25V19.375H17.625V22.75H19.875V19.375H23.25V17.125H19.875Z" fill="#0F8902"/>
</svg>