<svg width="32" height="36" viewBox="0 0 32 36" fill="none" xmlns="http://www.w3.org/2000/svg">
<path d="M31.75 12.645C31.7318 12.4842 31.6966 12.3259 31.645 12.1725V12.015C31.5609 11.8351 31.4486 11.6697 31.3125 11.525L20.8125 1.025C20.6678 0.888878 20.5024 0.776642 20.3225 0.6925C20.2703 0.68508 20.2172 0.68508 20.165 0.6925C19.9872 0.590547 19.7909 0.525102 19.5875 0.5H12.5C11.1076 0.5 9.77226 1.05312 8.78769 2.03769C7.80312 3.02226 7.25 4.35761 7.25 5.75V7.5H5.5C4.10761 7.5 2.77226 8.05312 1.78769 9.03769C0.803124 10.0223 0.25 11.3576 0.25 12.75V30.25C0.25 31.6424 0.803124 32.9777 1.78769 33.9623C2.77226 34.9469 4.10761 35.5 5.5 35.5H19.5C20.8924 35.5 22.2277 34.9469 23.2123 33.9623C24.1969 32.9777 24.75 31.6424 24.75 30.25V28.5H26.5C27.8924 28.5 29.2277 27.9469 30.2123 26.9623C31.1969 25.9777 31.75 24.6424 31.75 23.25V12.75C31.75 12.75 31.75 12.75 31.75 12.645ZM21.25 6.4675L25.7825 11H23C22.5359 11 22.0908 10.8156 21.7626 10.4874C21.4344 10.1592 21.25 9.71413 21.25 9.25V6.4675ZM21.25 30.25C21.25 30.7141 21.0656 31.1593 20.7374 31.4874C20.4092 31.8156 19.9641 32 19.5 32H5.5C5.03587 32 4.59075 31.8156 4.26256 31.4874C3.93437 31.1593 3.75 30.7141 3.75 30.25V12.75C3.75 12.2859 3.93437 11.8408 4.26256 11.5126C4.59075 11.1844 5.03587 11 5.5 11H7.25V23.25C7.25 24.6424 7.80312 25.9777 8.78769 26.9623C9.77226 27.9469 11.1076 28.5 12.5 28.5H21.25V30.25ZM28.25 23.25C28.25 23.7141 28.0656 24.1592 27.7374 24.4874C27.4093 24.8156 26.9641 25 26.5 25H12.5C12.0359 25 11.5908 24.8156 11.2626 24.4874C10.9344 24.1592 10.75 23.7141 10.75 23.25V5.75C10.75 5.28587 10.9344 4.84075 11.2626 4.51256C11.5908 4.18437 12.0359 4 12.5 4H17.75V9.25C17.75 10.6424 18.3031 11.9777 19.2877 12.9623C20.2723 13.9469 21.6076 14.5 23 14.5H28.25V23.25Z" fill="#ADADAD"/>
</svg>
