<svg width="18" height="17" viewBox="0 0 18 17" fill="none" xmlns="http://www.w3.org/2000/svg">
<g clip-path="url(#clip0_261_885)">
<path d="M17.4385 8.44218C17.4385 7.77572 17.381 7.28938 17.2566 6.78503H9.16833V9.7931H13.916C13.8203 10.5406 13.3034 11.6664 12.1547 12.4229L12.1386 12.5236L14.696 14.3877L14.8732 14.4044C16.5004 12.9904 17.4385 10.9099 17.4385 8.44218Z" fill="#4285F4"/>
<path d="M9.16836 16.3678C11.4943 16.3678 13.4469 15.6472 14.8732 14.4044L12.1548 12.423C11.4273 12.9003 10.451 13.2335 9.16836 13.2335C6.89026 13.2335 4.95676 11.8196 4.26751 9.86523L4.16649 9.87331L1.50731 11.8097L1.47253 11.9006C2.88916 14.5485 5.79902 16.3678 9.16836 16.3678Z" fill="#34A853"/>
<path d="M4.26757 9.86512C4.08571 9.36077 3.98046 8.82035 3.98046 8.26199C3.98046 7.70356 4.08571 7.16321 4.258 6.65886L4.25318 6.55145L1.56068 4.58398L1.47259 4.62341C0.888731 5.72219 0.553711 6.95608 0.553711 8.26199C0.553711 9.5679 0.888731 10.8017 1.47259 11.9005L4.26757 9.86512Z" fill="#FBBC05"/>
<path d="M9.16836 3.29054C10.786 3.29054 11.8772 3.948 12.4994 4.49742L14.9306 2.26385C13.4374 0.957936 11.4943 0.156372 9.16836 0.156372C5.79902 0.156372 2.88916 1.97563 1.47253 4.62346L4.25794 6.65891C4.95676 4.70455 6.89026 3.29054 9.16836 3.29054Z" fill="#EB4335"/>
</g>
<defs>
<clipPath id="clip0_261_885">
<rect width="16.8929" height="16.2672" fill="white" transform="translate(0.553711 0.156372)"/>
</clipPath>
</defs>
</svg>
