<svg width="20" height="21" viewBox="0 0 20 21" fill="none" xmlns="http://www.w3.org/2000/svg">
<g clip-path="url(#clip0_6374_32210)">
<path d="M2.4075 4.39543H3.61125V5.59918H2.4075V4.39543ZM2.4075 6.80293H3.61125V8.00668H2.4075V6.80293ZM10.8337 4.39543H12.0375V5.59918H10.8337V4.39543ZM17.7083 12.8217H14.793L16.2506 11.3734L17.7083 12.8217ZM13.2413 9.8123C13.2413 9.6493 13.3008 9.50823 13.4199 9.38911C13.5391 9.26999 13.6801 9.21043 13.8431 9.21043C14.0061 9.21043 14.1472 9.26999 14.2663 9.38911C14.3854 9.50823 14.445 9.6493 14.445 9.8123C14.445 9.97531 14.3854 10.1164 14.2663 10.2355C14.1472 10.3546 14.0061 10.4142 13.8431 10.4142C13.6801 10.4142 13.5391 10.3546 13.4199 10.2355C13.3008 10.1164 13.2413 9.97531 13.2413 9.8123ZM19.26 6.80293V15.2292H18.0562V8.00668H6.01875V13.1696L9.02812 10.1697L13.2413 14.3734L14.445 13.1696V14.8812L14.097 15.2292H12.3855L9.02812 11.8624L6.01875 14.8812V16.4329H12.0375V17.6367H4.815V11.6179H0V0.78418H14.445V6.80293H19.26ZM13.2413 6.80293V1.98793H12.0375V3.19168H10.8337V1.98793H3.61125V3.19168H2.4075V1.98793H1.20375V10.4142H2.4075V9.21043H3.61125V10.4142H4.815V6.80293H13.2413ZM16.8525 16.4329H19.26V17.6367H16.8525V20.0442H15.6488V17.6367H13.2413V16.4329H15.6488V14.0254H16.8525V16.4329Z" fill="#3D7100"/>
</g>
<defs>
<clipPath id="clip0_6374_32210">
<rect width="19.26" height="19.26" fill="white" transform="translate(0 0.78418)"/>
</clipPath>
</defs>
</svg>
