<svg width="53" height="53" viewBox="0 0 53 53" fill="none" xmlns="http://www.w3.org/2000/svg">
<g filter="url(#filter0_d_6294_13804)">
<rect x="9.14941" y="7.50488" width="34.32" height="34.32" rx="10.99" fill="white"/>
<path d="M26.3094 22.1284H27.0899C27.3054 22.1284 27.4801 21.9536 27.4801 21.7381C27.4801 21.5226 27.3054 21.3479 27.0899 21.3479H26.6996V20.9576C26.6996 20.7421 26.5249 20.5674 26.3094 20.5674C26.0939 20.5674 25.9192 20.7421 25.9192 20.9576V21.415C25.465 21.5761 25.1387 22.0098 25.1387 22.5186C25.1387 23.1641 25.6639 23.6893 26.3094 23.6893C26.5246 23.6893 26.6996 23.8644 26.6996 24.0796C26.6996 24.2948 26.5246 24.4698 26.3094 24.4698H25.5289C25.3134 24.4698 25.1387 24.6445 25.1387 24.8601C25.1387 25.0756 25.3134 25.2503 25.5289 25.2503H25.9192V25.6406C25.9192 25.8561 26.0939 26.0308 26.3094 26.0308C26.5249 26.0308 26.6996 25.8561 26.6996 25.6406V25.1832C27.1539 25.0221 27.4801 24.5883 27.4801 24.0796C27.4801 23.434 26.9549 22.9088 26.3094 22.9088C26.0942 22.9088 25.9192 22.7338 25.9192 22.5186C25.9192 22.3034 26.0942 22.1284 26.3094 22.1284Z" fill="#007AFF" stroke="#007AFF" stroke-width="0.3"/>
<path d="M26.3093 19.0063C23.9423 19.0063 22.0166 20.932 22.0166 23.299C22.0166 25.666 23.9423 27.5917 26.3093 27.5917C28.6763 27.5917 30.602 25.666 30.602 23.299C30.602 20.932 28.6763 19.0063 26.3093 19.0063ZM26.3093 26.8112C24.3727 26.8112 22.7971 25.2357 22.7971 23.299C22.7971 21.3624 24.3727 19.7868 26.3093 19.7868C28.2459 19.7868 29.8215 21.3624 29.8215 23.299C29.8215 25.2357 28.2459 26.8112 26.3093 26.8112Z" fill="#007AFF" stroke="#007AFF" stroke-width="0.3"/>
<path d="M32.7486 29.5821V22.6748C32.7486 19.6625 30.6692 17.1271 27.8705 16.4275V16.2358C27.8705 15.3751 27.1703 14.6748 26.3096 14.6748C25.4488 14.6748 24.7486 15.3751 24.7486 16.2358V16.4275C21.9499 17.1271 19.8705 19.6625 19.8705 22.6748V29.5821C19.0098 29.5821 18.3096 30.2824 18.3096 31.1431C18.3096 32.0038 19.0098 32.7041 19.8705 32.7041H24.0012C24.1877 33.81 25.1515 34.6553 26.3096 34.6553C27.4677 34.6553 28.4315 33.81 28.6179 32.7041H32.7486C33.6093 32.7041 34.3096 32.0038 34.3096 31.1431C34.3096 30.2824 33.6093 29.5821 32.7486 29.5821ZM25.5291 16.2358C25.5291 15.8054 25.8792 15.4553 26.3096 15.4553C26.7399 15.4553 27.0901 15.8054 27.0901 16.2358H25.5291ZM20.651 22.6748C20.651 19.5547 23.1895 17.0163 26.3096 17.0163C29.4297 17.0163 31.9681 19.5547 31.9681 22.6748V29.5821H20.651V22.6748ZM26.3096 33.8748C25.5836 33.8748 24.9717 33.3766 24.798 32.7041H27.8211C27.6474 33.3766 27.0356 33.8748 26.3096 33.8748ZM32.7486 31.9236H19.8705C19.4402 31.9236 19.0901 31.5735 19.0901 31.1431C19.0901 30.7127 19.4402 30.3626 19.8705 30.3626H32.7486C33.179 30.3626 33.5291 30.7127 33.5291 31.1431C33.5291 31.5735 33.179 31.9236 32.7486 31.9236Z" fill="#007AFF" stroke="#007AFF" stroke-width="0.3"/>
</g>
<defs>
<filter id="filter0_d_6294_13804" x="-0.00953674" y="0.177722" width="52.6382" height="52.6377" filterUnits="userSpaceOnUse" color-interpolation-filters="sRGB">
<feFlood flood-opacity="0" result="BackgroundImageFix"/>
<feColorMatrix in="SourceAlpha" type="matrix" values="0 0 0 0 0 0 0 0 0 0 0 0 0 0 0 0 0 0 127 0" result="hardAlpha"/>
<feOffset dy="1.83179"/>
<feGaussianBlur stdDeviation="4.57948"/>
<feComposite in2="hardAlpha" operator="out"/>
<feColorMatrix type="matrix" values="0 0 0 0 0.486275 0 0 0 0 0.552941 0 0 0 0 0.709804 0 0 0 0.12 0"/>
<feBlend mode="normal" in2="BackgroundImageFix" result="effect1_dropShadow_6294_13804"/>
<feBlend mode="normal" in="SourceGraphic" in2="effect1_dropShadow_6294_13804" result="shape"/>
</filter>
</defs>
</svg>
