<svg width="25" height="25" viewBox="0 0 25 25" fill="none" xmlns="http://www.w3.org/2000/svg">
<path d="M2.375 4.75V22.75H22.625V25H2.375C1.77826 25 1.20597 24.7629 0.78401 24.341C0.362053 23.919 0.125 23.3467 0.125 22.75V4.75H2.375ZM17 8.125H23.1875L17 1.9375V8.125ZM6.875 0.25H18.125L24.875 7V18.25C24.875 18.8467 24.6379 19.419 24.216 19.841C23.794 20.2629 23.2217 20.5 22.625 20.5H6.875C6.27826 20.5 5.70597 20.2629 5.28401 19.841C4.86205 19.419 4.625 18.8467 4.625 18.25V2.5C4.625 1.90326 4.86205 1.33097 5.28401 0.90901C5.70597 0.487053 6.27826 0.25 6.875 0.25ZM6.875 2.5V18.25H22.625V10.375H14.75V2.5H6.875Z" fill="#0F8902"/>
</svg>