<svg width="26" height="25" viewBox="0 0 26 25" fill="none" xmlns="http://www.w3.org/2000/svg">
<path d="M3.125 4.75V22.75H23.375V25H3.125C2.52826 25 1.95597 24.7629 1.53401 24.341C1.11205 23.919 0.875 23.3467 0.875 22.75V4.75H3.125ZM17.75 8.125H23.9375L17.75 1.9375V8.125ZM7.625 0.25H18.875L25.625 7V18.25C25.625 18.8467 25.3879 19.419 24.966 19.841C24.544 20.2629 23.9717 20.5 23.375 20.5H7.625C7.02826 20.5 6.45597 20.2629 6.03401 19.841C5.61205 19.419 5.375 18.8467 5.375 18.25V2.5C5.375 1.90326 5.61205 1.33097 6.03401 0.90901C6.45597 0.487053 7.02826 0.25 7.625 0.25ZM7.625 2.5V18.25H23.375V10.375H15.5V2.5H7.625Z" fill="#505050"/>
</svg>