<svg width="27" height="27" viewBox="0 0 27 27" fill="none" xmlns="http://www.w3.org/2000/svg">
<g clip-path="url(#clip0_3827_25538)">
<path d="M9.15181 -1.20531e-05C8.91123 0.0457451 8.69456 0.175054 8.54008 0.365073C8.38559 0.555092 8.30323 0.793594 8.30754 1.03845V2.07691H4.57531C3.74454 2.07691 3.11523 2.70622 3.11523 3.53699V25.4423C3.11523 26.3769 3.74454 27 4.57531 27H22.3268C23.1575 27 23.7868 26.3707 23.7868 25.5399V3.53699C23.8907 2.70622 23.2552 2.07691 22.4244 2.07691H18.6922V1.03845C18.6922 0.763032 18.5827 0.498896 18.388 0.304146C18.1933 0.109397 17.9291 -1.20531e-05 17.6537 -1.20531e-05H9.346C9.31348 -0.00154221 9.28091 -0.00154221 9.24839 -1.20531e-05C9.21587 -0.00154221 9.18433 -0.00154221 9.15181 -1.20531e-05ZM10.3845 2.07691H16.6152V4.15383H10.3845V2.07691ZM5.19216 4.15383H8.30754V5.1923C8.30754 5.46771 8.41695 5.73185 8.6117 5.9266C8.80645 6.12135 9.07059 6.23076 9.346 6.23076H17.6537C17.9291 6.23076 18.1933 6.12135 18.388 5.9266C18.5827 5.73185 18.6922 5.46771 18.6922 5.1923V4.15383H21.8075V24.9231H5.19216V4.15383ZM7.26908 9.34614V13.5H11.4229V9.34614H7.26908ZM8.30754 10.3846H10.3845V12.4615H8.30754V10.3846ZM13.4999 10.3846V12.4615H19.7306V10.3846H13.4999ZM7.26908 15.5769V19.7308H11.4229V15.5769H7.26908ZM13.4999 16.6154V18.6923H19.7306V16.6154H13.4999Z" fill="#505050"/>
</g>
<defs>
<clipPath id="clip0_3827_25538">
<rect width="27" height="27" fill="white"/>
</clipPath>
</defs>
</svg>