<svg width="22" height="27" viewBox="0 0 22 27" fill="none" xmlns="http://www.w3.org/2000/svg">
<path d="M6.40181 -7.30882e-05C6.16123 0.0456841 5.94456 0.174993 5.79008 0.365012C5.63559 0.555031 5.55323 0.793533 5.55754 1.03839V2.07685H1.82531C0.994542 2.07685 0.365234 2.70616 0.365234 3.53693V25.4422C0.365234 26.3769 0.994542 26.9999 1.82531 26.9999H19.5768C20.4075 26.9999 21.0368 26.3706 21.0368 25.5399V3.53693C21.1407 2.70616 20.5052 2.07685 19.6744 2.07685H15.9422V1.03839C15.9422 0.762971 15.8327 0.498835 15.638 0.304085C15.4433 0.109336 15.1791 -7.30882e-05 14.9037 -7.30882e-05H6.596C6.56348 -0.00160324 6.53091 -0.00160324 6.49839 -7.30882e-05C6.46587 -0.00160324 6.43433 -0.00160324 6.40181 -7.30882e-05ZM7.63447 2.07685H13.8652V4.15377H7.63447V2.07685ZM2.44216 4.15377H5.55754V5.19223C5.55754 5.46765 5.66695 5.73179 5.8617 5.92654C6.05645 6.12129 6.32059 6.2307 6.596 6.2307H14.9037C15.1791 6.2307 15.4433 6.12129 15.638 5.92654C15.8327 5.73179 15.9422 5.46765 15.9422 5.19223V4.15377H19.0575V24.923H2.44216V4.15377ZM4.51908 9.34608V13.4999H8.67293V9.34608H4.51908ZM5.55754 10.3845H7.63447V12.4615H5.55754V10.3845ZM10.7499 10.3845V12.4615H16.9806V10.3845H10.7499ZM4.51908 15.5769V19.7307H8.67293V15.5769H4.51908ZM10.7499 16.6153V18.6922H16.9806V16.6153H10.7499Z" fill="#0F8902"/>
</svg>